<svg width="676" height="584" viewBox="0 0 676 584" fill="none" xmlns="http://www.w3.org/2000/svg">
<path d="M513.381 503.326L516.167 500.623C516.447 500.351 516.799 500.163 517.189 500.077C517.58 499.99 517.997 500.006 518.403 500.125C518.809 500.244 519.19 500.461 519.512 500.757C519.834 501.053 520.087 501.417 520.247 501.818L529.581 525.198L539.955 515.622L538.815 506.976C538.563 505.291 538.698 504.3 540.132 502.909L542.008 501.089C542.295 500.79 542.657 500.574 543.063 500.46C543.47 500.345 543.91 500.335 544.345 500.431C544.957 500.57 545.816 500.976 546.455 502.126L552.407 512.54C552.451 512.618 552.492 512.699 552.53 512.781C552.535 512.788 552.54 512.794 552.547 512.799C552.627 512.839 552.706 512.884 552.782 512.933L562.936 519.374C564.021 520.056 564.377 520.924 564.484 521.534C564.556 521.944 564.533 522.354 564.417 522.732C564.301 523.109 564.096 523.444 563.818 523.708L561.837 525.63C560.767 526.669 559.209 527.134 557.76 526.85L549.388 525.385L539.364 535.438L562.162 545.698C562.553 545.874 562.905 546.142 563.186 546.478C563.467 546.813 563.668 547.205 563.771 547.618C563.874 548.032 563.875 548.452 563.774 548.842C563.674 549.233 563.475 549.579 563.195 549.852L560.378 552.584C559.977 552.957 559.487 553.222 558.944 553.362C558.402 553.501 557.821 553.511 557.245 553.39L526.974 548.102L521.099 554.149C520.682 554.605 519.465 555.805 519.181 556.08C513.394 561.689 507.912 562.917 504.514 559.36C503.444 558.24 501.857 555.781 503.242 551.892C504.059 549.595 505.766 547.176 508.316 544.703C508.596 544.43 509.829 543.253 510.304 542.844L516.524 537.161L512.461 506.442C512.365 505.859 512.397 505.276 512.556 504.737C512.716 504.197 512.997 503.715 513.381 503.326Z" fill="#CCE8FF"/>
<path d="M1.42779 0.660944C0.900748 0.495876 0.339684 0.789312 0.174616 1.31635C0.00954811 1.84339 0.302984 2.40446 0.830024 2.56952L1.42779 0.660944ZM606.929 318.668L607.172 319.638L606.929 318.668ZM5.53601 4.04586C6.0629 4.21143 6.62424 3.91852 6.7898 3.39163C6.95536 2.86475 6.66245 2.30341 6.13557 2.13785L5.53601 4.04586ZM15.6797 5.14666C15.1531 4.98012 14.5912 5.27199 14.4247 5.79857C14.2581 6.32514 14.55 6.88702 15.0766 7.05357L15.6797 5.14666ZM24.7819 10.1329C25.3082 10.3004 25.8706 10.0096 26.0381 9.48333C26.2056 8.95706 25.9148 8.39464 25.3885 8.22714L24.7819 10.1329ZM34.9346 11.2748C34.4086 11.1064 33.8457 11.3962 33.6772 11.9222C33.5088 12.4482 33.7987 13.0111 34.3246 13.1796L34.9346 11.2748ZM43.8847 16.2501C44.4104 16.4194 44.9738 16.1306 45.1431 15.6049C45.3125 15.0792 45.0236 14.5158 44.4979 14.3464L43.8847 16.2501ZM54.1907 17.478C53.6653 17.3078 53.1014 17.5957 52.9311 18.1211C52.7609 18.6465 53.0488 19.2104 53.5742 19.3806L54.1907 17.478ZM63.0859 22.4715C63.611 22.6427 64.1754 22.3557 64.3465 21.8306C64.5176 21.3055 64.2307 20.7411 63.7055 20.57L63.0859 22.4715ZM73.2639 23.6936C72.7391 23.5216 72.1742 23.8076 72.0022 24.3324C71.8302 24.8573 72.1163 25.4221 72.6411 25.5941L73.2639 23.6936ZM82.2976 28.7675C82.8221 28.9404 83.3875 28.6553 83.5603 28.1307C83.7332 27.6062 83.4481 27.0409 82.9236 26.868L82.2976 28.7675ZM92.4381 30.012C91.9138 29.8383 91.348 30.1225 91.1743 30.6468C91.0006 31.171 91.2847 31.7368 91.809 31.9105L92.4381 30.012ZM101.348 35.0798C101.872 35.2544 102.438 34.9711 102.613 34.4471C102.787 33.9232 102.504 33.3569 101.98 33.1823L101.348 35.0798ZM111.6 36.396C111.076 36.2206 110.51 36.5029 110.334 37.0266C110.159 37.5502 110.441 38.117 110.965 38.2924L111.6 36.396ZM120.489 41.4915C121.013 41.6678 121.58 41.3863 121.756 40.8629C121.933 40.3395 121.651 39.7723 121.128 39.5961L120.489 41.4915ZM130.649 42.8113C130.126 42.6341 129.559 42.9146 129.381 43.4377C129.204 43.9609 129.485 44.5285 130.008 44.7056L130.649 42.8113ZM139.585 47.957C140.108 48.1349 140.676 47.8554 140.854 47.3326C141.032 46.8097 140.752 46.2416 140.229 46.0637L139.585 47.957ZM149.771 49.3206C149.249 49.1417 148.68 49.4203 148.501 49.9429C148.322 50.4654 148.601 51.034 149.124 51.2128L149.771 49.3206ZM158.623 54.4726C159.145 54.6523 159.714 54.3746 159.893 53.8524C160.073 53.3301 159.795 52.7611 159.273 52.5814L158.623 54.4726ZM168.817 55.8743C168.295 55.6937 167.725 55.9704 167.545 56.4923C167.364 57.0143 167.641 57.5838 168.163 57.7643L168.817 55.8743ZM177.706 61.0751C178.228 61.2566 178.798 60.9808 178.979 60.4592C179.161 59.9376 178.885 59.3676 178.363 59.1862L177.706 61.0751ZM187.85 62.4954C187.329 62.313 186.758 62.5878 186.576 63.1091C186.394 63.6304 186.668 64.2008 187.19 64.3832L187.85 62.4954ZM196.699 67.7187C197.22 67.9019 197.791 67.6281 197.974 67.1071C198.157 66.5862 197.884 66.0152 197.363 65.832L196.699 67.7187ZM206.896 69.1949C206.376 69.0107 205.804 69.2835 205.62 69.8042C205.436 70.3248 205.709 70.8962 206.229 71.0804L206.896 69.1949ZM215.704 74.4414C216.225 74.6265 216.796 74.3547 216.982 73.8344C217.167 73.3141 216.895 72.7422 216.375 72.5571L215.704 74.4414ZM225.863 75.9422C225.343 75.7561 224.771 76.0268 224.585 76.5468C224.398 77.0669 224.669 77.6392 225.189 77.8253L225.863 75.9422ZM234.681 81.2314C235.201 81.4184 235.774 81.1487 235.961 80.6291C236.148 80.1094 235.878 79.5366 235.358 79.3495L234.681 81.2314ZM244.84 82.7721C244.321 82.5841 243.747 82.8527 243.559 83.372C243.371 83.8913 243.64 84.4646 244.159 84.6526L244.84 82.7721ZM253.627 88.0907C254.146 88.2798 254.72 88.0123 254.909 87.4934C255.098 86.9744 254.83 86.4005 254.311 86.2115L253.627 88.0907ZM263.776 89.6695C263.257 89.4795 262.683 89.7458 262.493 90.2643C262.303 90.7829 262.569 91.3573 263.088 91.5474L263.776 89.6695ZM272.545 95.0244C273.064 95.2156 273.639 94.9504 273.83 94.4322C274.021 93.9141 273.756 93.3391 273.238 93.148L272.545 95.0244ZM282.699 96.6487C282.181 96.4565 281.606 96.7204 281.414 97.2382C281.221 97.756 281.485 98.3315 282.003 98.5237L282.699 96.6487ZM291.44 102.038C291.957 102.231 292.533 101.969 292.727 101.451C292.92 100.934 292.657 100.358 292.14 100.164L291.44 102.038ZM301.558 103.695C301.041 103.5 300.464 103.762 300.27 104.279C300.075 104.796 300.337 105.372 300.854 105.567L301.558 103.695ZM310.308 109.135C310.824 109.331 311.402 109.071 311.597 108.554C311.793 108.038 311.533 107.461 311.016 107.265L310.308 109.135ZM320.44 110.847C319.924 110.65 319.346 110.909 319.149 111.425C318.952 111.941 319.211 112.519 319.727 112.715L320.44 110.847ZM329.106 116.306C329.621 116.504 330.2 116.247 330.398 115.731C330.596 115.215 330.339 114.637 329.823 114.439L329.106 116.306ZM339.253 118.075C338.738 117.876 338.158 118.132 337.959 118.647C337.76 119.162 338.016 119.741 338.531 119.941L339.253 118.075ZM347.936 123.596C348.451 123.796 349.03 123.542 349.231 123.028C349.432 122.513 349.178 121.933 348.663 121.732L347.936 123.596ZM358.018 125.396C357.504 125.194 356.923 125.447 356.721 125.961C356.519 126.475 356.772 127.056 357.286 127.258L358.018 125.396ZM366.661 130.959C367.174 131.163 367.755 130.912 367.959 130.398C368.162 129.885 367.911 129.304 367.398 129.1L366.661 130.959ZM376.797 132.843C376.285 132.638 375.703 132.887 375.498 133.4C375.293 133.913 375.542 134.495 376.055 134.7L376.797 132.843ZM385.376 138.444C385.888 138.65 386.47 138.402 386.677 137.89C386.884 137.378 386.636 136.795 386.124 136.589L385.376 138.444ZM395.442 140.365C394.931 140.157 394.347 140.403 394.139 140.914C393.931 141.426 394.176 142.009 394.688 142.218L395.442 140.365ZM404.069 146.056C404.58 146.266 405.164 146.022 405.374 145.511C405.584 145 405.34 144.416 404.83 144.206L404.069 146.056ZM414.124 148.045C413.614 147.834 413.028 148.076 412.817 148.586C412.605 149.096 412.847 149.681 413.357 149.893L414.124 148.045ZM422.602 153.751C423.111 153.965 423.697 153.725 423.911 153.216C424.124 152.706 423.885 152.12 423.375 151.907L422.602 153.751ZM432.744 155.859C432.235 155.643 431.648 155.88 431.433 156.389C431.217 156.897 431.455 157.484 431.963 157.7L432.744 155.859ZM441.206 161.643C441.714 161.861 442.302 161.626 442.52 161.118C442.737 160.611 442.502 160.023 441.995 159.805L441.206 161.643ZM451.186 163.772C450.679 163.552 450.09 163.784 449.87 164.291C449.65 164.797 449.883 165.386 450.389 165.606L451.186 163.772ZM459.715 169.681C460.22 169.903 460.81 169.674 461.033 169.168C461.255 168.663 461.025 168.073 460.52 167.85L459.715 169.681ZM469.707 171.918C469.202 171.693 468.611 171.919 468.386 172.424C468.161 172.928 468.388 173.52 468.893 173.744L469.707 171.918ZM478.03 177.846C478.534 178.074 479.126 177.85 479.354 177.347C479.581 176.843 479.358 176.251 478.854 176.024L478.03 177.846ZM488.125 180.246C487.623 180.016 487.029 180.236 486.799 180.738C486.568 181.24 486.788 181.834 487.29 182.064L488.125 180.246ZM496.366 186.263C496.866 186.497 497.461 186.28 497.695 185.78C497.928 185.279 497.712 184.684 497.211 184.451L496.366 186.263ZM506.345 188.748C505.846 188.512 505.25 188.724 505.013 189.223C504.776 189.722 504.989 190.318 505.488 190.555L506.345 188.748ZM514.63 194.935C515.127 195.175 515.725 194.967 515.965 194.47C516.206 193.973 515.998 193.375 515.501 193.134L514.63 194.935ZM524.425 197.493C523.93 197.249 523.33 197.452 523.086 197.948C522.842 198.443 523.045 199.043 523.54 199.287L524.425 197.493ZM532.682 203.847C533.175 204.096 533.777 203.898 534.026 203.405C534.274 202.912 534.076 202.31 533.583 202.062L532.682 203.847ZM542.535 206.631C542.045 206.378 541.441 206.57 541.188 207.061C540.934 207.551 541.127 208.155 541.617 208.408L542.535 206.631ZM550.505 213.061C550.992 213.319 551.598 213.134 551.857 212.646C552.115 212.158 551.93 211.553 551.442 211.294L550.505 213.061ZM560.405 216.119C559.92 215.854 559.313 216.032 559.048 216.517C558.783 217.002 558.961 217.609 559.446 217.874L560.405 216.119ZM568.08 222.669C568.561 222.941 569.171 222.771 569.442 222.29C569.714 221.809 569.544 221.199 569.063 220.927L568.08 222.669ZM577.992 226.064C577.515 225.785 576.902 225.944 576.623 226.421C576.344 226.897 576.503 227.51 576.98 227.789L577.992 226.064ZM585.407 232.837C585.878 233.125 586.494 232.977 586.782 232.506C587.071 232.035 586.922 231.419 586.451 231.131L585.407 232.837ZM595.213 236.63C594.749 236.331 594.13 236.465 593.831 236.929C593.532 237.393 593.666 238.012 594.13 238.311L595.213 236.63ZM602.311 243.739C602.766 244.05 603.389 243.934 603.701 243.478C604.012 243.022 603.896 242.4 603.44 242.088L602.311 243.739ZM611.87 248.071C611.426 247.742 610.799 247.837 610.471 248.281C610.143 248.725 610.238 249.351 610.682 249.679L611.87 248.071ZM618.575 255.78C619.003 256.129 619.633 256.063 619.981 255.635C620.33 255.206 620.265 254.576 619.836 254.228L618.575 255.78ZM627.416 260.773C627.01 260.398 626.378 260.423 626.003 260.829C625.628 261.234 625.653 261.867 626.059 262.242L627.416 260.773ZM633.179 269.444C633.546 269.857 634.178 269.894 634.591 269.527C635.004 269.16 635.041 268.528 634.673 268.115L633.179 269.444ZM640.902 276.255C640.607 275.788 639.989 275.649 639.523 275.944C639.056 276.239 638.917 276.857 639.212 277.324L640.902 276.255ZM643.223 286.119C643.362 286.654 643.908 286.974 644.443 286.835C644.977 286.696 645.298 286.15 645.158 285.615L643.223 286.119ZM645.112 296.018C645.273 295.489 644.975 294.931 644.446 294.77C643.918 294.609 643.359 294.907 643.199 295.436L645.112 296.018ZM638.178 303.313C637.784 303.7 637.778 304.333 638.165 304.727C638.552 305.122 639.185 305.127 639.579 304.741L638.178 303.313ZM631.262 310.784C631.744 310.514 631.916 309.905 631.646 309.423C631.377 308.941 630.767 308.769 630.285 309.038L631.262 310.784ZM621.07 313.269C620.554 313.466 620.295 314.044 620.492 314.56C620.689 315.076 621.267 315.334 621.783 315.137L621.07 313.269ZM612.448 318.223C612.979 318.071 613.286 317.517 613.133 316.986C612.981 316.455 612.427 316.149 611.896 316.301L612.448 318.223ZM601.733 318.934C601.197 319.068 600.871 319.611 601.004 320.147C601.138 320.683 601.681 321.009 602.217 320.875L601.733 318.934ZM592.41 323.313C592.946 323.18 593.273 322.638 593.14 322.102C593.007 321.566 592.465 321.239 591.928 321.372L592.41 323.313ZM582.149 323.789C581.613 323.921 581.286 324.463 581.418 324.999C581.55 325.535 582.092 325.863 582.628 325.731L582.149 323.789ZM572.799 328.147C573.336 328.015 573.664 327.474 573.532 326.938C573.401 326.401 572.859 326.073 572.323 326.204L572.799 328.147ZM562.549 328.595C562.012 328.726 561.683 329.267 561.814 329.803C561.945 330.34 562.486 330.669 563.023 330.538L562.549 328.595ZM553.181 332.933C553.718 332.802 554.047 332.262 553.917 331.725C553.787 331.188 553.246 330.859 552.709 330.989L553.181 332.933ZM542.93 333.358C542.393 333.488 542.063 334.029 542.193 334.565C542.323 335.102 542.863 335.432 543.4 335.302L542.93 333.358ZM533.557 337.677C534.094 337.548 534.425 337.008 534.296 336.471C534.166 335.934 533.626 335.604 533.089 335.733L533.557 337.677ZM523.294 338.088C522.757 338.217 522.426 338.757 522.555 339.294C522.684 339.831 523.224 340.161 523.761 340.033L523.294 338.088ZM513.932 342.388C514.47 342.26 514.801 341.72 514.672 341.183C514.544 340.646 514.004 340.315 513.467 340.443L513.932 342.388ZM503.646 342.791C503.108 342.92 502.777 343.459 502.905 343.996C503.034 344.534 503.573 344.865 504.11 344.737L503.646 342.791ZM494.315 347.075C494.852 346.946 495.184 346.407 495.056 345.87C494.928 345.333 494.388 345.001 493.851 345.129L494.315 347.075ZM483.994 347.48C483.456 347.608 483.125 348.147 483.253 348.684C483.381 349.221 483.92 349.553 484.457 349.425L483.994 347.48ZM474.721 351.747C475.258 351.618 475.59 351.079 475.461 350.542C475.333 350.005 474.794 349.673 474.257 349.801L474.721 351.747ZM464.355 352.164C463.818 352.293 463.486 352.832 463.615 353.369C463.743 353.906 464.283 354.238 464.82 354.11L464.355 352.164ZM455.027 356.452C455.564 356.323 455.895 355.784 455.767 355.246C455.638 354.709 455.098 354.378 454.561 354.507L455.027 356.452ZM444.759 356.86C444.222 356.99 443.891 357.53 444.02 358.067C444.149 358.604 444.689 358.934 445.226 358.805L444.759 356.86ZM435.371 361.183C435.908 361.053 436.238 360.513 436.108 359.976C435.978 359.439 435.437 359.11 434.901 359.24L435.371 361.183ZM425.127 361.616C424.591 361.747 424.262 362.288 424.393 362.824C424.524 363.361 425.065 363.69 425.602 363.559L425.127 361.616ZM415.812 365.961C416.349 365.829 416.676 365.287 416.544 364.751C416.411 364.215 415.869 363.887 415.333 364.02L415.812 365.961ZM405.486 366.467C404.95 366.601 404.625 367.144 404.759 367.68C404.893 368.215 405.436 368.541 405.972 368.407L405.486 366.467ZM396.191 370.876C396.726 370.74 397.05 370.195 396.913 369.66C396.777 369.125 396.233 368.802 395.697 368.938L396.191 370.876ZM385.956 371.447C385.421 371.586 385.101 372.132 385.24 372.666C385.379 373.201 385.925 373.521 386.46 373.382L385.956 371.447ZM376.742 375.948C377.275 375.805 377.592 375.257 377.449 374.723C377.306 374.19 376.758 373.873 376.224 374.016L376.742 375.948ZM366.439 376.682C365.907 376.83 365.596 377.381 365.743 377.913C365.891 378.445 366.442 378.757 366.974 378.609L366.439 376.682ZM357.259 381.365C357.789 381.211 358.094 380.656 357.94 380.126C357.786 379.596 357.232 379.291 356.701 379.445L357.259 381.365ZM347.015 382.338C346.487 382.5 346.191 383.06 346.354 383.588C346.516 384.115 347.076 384.412 347.604 384.249L347.015 382.338ZM338.036 387.306C338.56 387.132 338.843 386.566 338.669 386.042C338.494 385.518 337.928 385.234 337.404 385.408L338.036 387.306ZM327.837 388.757C327.319 388.949 327.055 389.524 327.247 390.042C327.438 390.56 328.014 390.824 328.532 390.633L327.837 388.757ZM319.155 394.371C319.662 394.151 319.895 393.562 319.675 393.055C319.455 392.549 318.866 392.316 318.36 392.536L319.155 394.371ZM309.225 396.995C308.743 397.265 308.572 397.875 308.843 398.356C309.113 398.838 309.723 399.009 310.204 398.739L309.225 396.995ZM302.222 404.44C302.613 404.05 302.614 403.417 302.224 403.026C301.834 402.635 301.201 402.634 300.81 403.024L302.222 404.44ZM297.149 412.93C297.279 413.467 297.82 413.796 298.356 413.666C298.893 413.535 299.223 412.994 299.092 412.458L297.149 412.93ZM304.757 419.807C304.325 419.463 303.695 419.534 303.352 419.967C303.008 420.399 303.079 421.028 303.512 421.372L304.757 419.807ZM312.3 426.771C312.802 427.001 313.395 426.781 313.625 426.279C313.856 425.777 313.636 425.183 313.134 424.953L312.3 426.771ZM322.494 428.414C321.966 428.252 321.407 428.55 321.246 429.078C321.085 429.607 321.382 430.166 321.911 430.327L322.494 428.414ZM331.805 432.942C332.343 433.066 332.88 432.731 333.004 432.193C333.129 431.655 332.793 431.117 332.255 430.993L331.805 432.942ZM342.189 433.057C341.646 432.955 341.123 433.312 341.021 433.855C340.92 434.398 341.277 434.92 341.82 435.022L342.189 433.057ZM351.88 436.757C352.425 436.843 352.938 436.471 353.024 435.926C353.111 435.381 352.739 434.868 352.194 434.781L351.88 436.757ZM362.242 436.272C361.695 436.196 361.189 436.578 361.113 437.125C361.037 437.672 361.419 438.177 361.966 438.253L362.242 436.272ZM372.076 439.581C372.625 439.65 373.124 439.261 373.192 438.713C373.261 438.165 372.872 437.665 372.324 437.597L372.076 439.581ZM382.434 438.8C381.885 438.737 381.39 439.131 381.327 439.68C381.265 440.229 381.659 440.724 382.208 440.787L382.434 438.8ZM392.353 441.903C392.902 441.961 393.395 441.563 393.453 441.014C393.512 440.465 393.114 439.972 392.565 439.914L392.353 441.903ZM402.677 440.962C402.127 440.906 401.637 441.306 401.581 441.856C401.526 442.405 401.926 442.896 402.476 442.951L402.677 440.962ZM412.59 443.956C413.139 444.01 413.628 443.608 413.682 443.058C413.736 442.509 413.334 442.02 412.784 441.966L412.59 443.956ZM422.914 442.947C422.364 442.894 421.876 443.297 421.823 443.847C421.77 444.397 422.173 444.885 422.722 444.938L422.914 442.947ZM432.859 445.912C433.409 445.965 433.897 445.562 433.95 445.012C434.003 444.462 433.6 443.974 433.05 443.921L432.859 445.912ZM443.177 444.901C442.627 444.847 442.138 445.249 442.085 445.799C442.031 446.349 442.433 446.838 442.983 446.891L443.177 444.901ZM453.109 447.894C453.659 447.949 454.149 447.548 454.204 446.999C454.26 446.449 453.859 445.959 453.309 445.904L453.109 447.894ZM463.446 446.946C462.897 446.888 462.405 447.286 462.347 447.835C462.289 448.385 462.688 448.877 463.237 448.935L463.446 446.946ZM473.349 450.03C473.898 450.091 474.393 449.696 474.454 449.147C474.515 448.598 474.12 448.104 473.571 448.042L473.349 450.03ZM483.671 449.212C483.122 449.146 482.624 449.537 482.558 450.086C482.492 450.634 482.883 451.132 483.432 451.198L483.671 449.212ZM493.504 452.464C494.052 452.536 494.554 452.15 494.626 451.603C494.698 451.055 494.312 450.553 493.765 450.481L493.504 452.464ZM503.884 451.883C503.338 451.803 502.83 452.181 502.75 452.728C502.67 453.274 503.049 453.782 503.595 453.862L503.884 451.883ZM513.651 455.423C514.196 455.513 514.71 455.144 514.8 454.599C514.89 454.054 514.522 453.539 513.977 453.449L513.651 455.423ZM524.032 455.232C523.489 455.129 522.965 455.485 522.862 456.027C522.758 456.57 523.114 457.094 523.657 457.197L524.032 455.232ZM533.594 459.257C534.133 459.379 534.668 459.041 534.79 458.502C534.911 457.963 534.573 457.428 534.035 457.306L533.594 459.257ZM543.954 459.786C543.422 459.638 542.871 459.95 542.723 460.482C542.576 461.014 542.887 461.565 543.419 461.713L543.954 459.786ZM553.023 464.742C553.543 464.929 554.116 464.66 554.303 464.14C554.491 463.621 554.222 463.048 553.702 462.86L553.023 464.742ZM563.147 466.924C562.657 466.669 562.053 466.858 561.798 467.348C561.542 467.838 561.732 468.442 562.222 468.697L563.147 466.924ZM570.299 474.311C570.692 474.7 571.325 474.698 571.714 474.305C572.103 473.913 572.1 473.28 571.708 472.891L570.299 474.311ZM576.453 482.408C576.418 481.857 575.942 481.439 575.391 481.474C574.84 481.509 574.422 481.984 574.457 482.535L576.453 482.408ZM571.73 491.566C571.44 492.036 571.585 492.652 572.055 492.942C572.525 493.233 573.141 493.087 573.431 492.617L571.73 491.566ZM566.946 500.49C567.339 500.102 567.344 499.469 566.956 499.076C566.568 498.683 565.935 498.678 565.542 499.066L566.946 500.49ZM0.830024 2.56952C2.39138 3.05854 3.9601 3.55067 5.53601 4.04586L6.13557 2.13785C4.55906 1.64246 2.98974 1.15015 1.42779 0.660944L0.830024 2.56952ZM15.0766 7.05357C18.2847 8.06819 21.5202 9.09476 24.7819 10.1329L25.3885 8.22714C22.1257 7.1886 18.8889 6.16166 15.6797 5.14666L15.0766 7.05357ZM34.3246 13.1796C37.489 14.1929 40.676 15.2165 43.8847 16.2501L44.4979 14.3464C41.2882 13.3125 38.1 12.2885 34.9346 11.2748L34.3246 13.1796ZM53.5742 19.3806C56.7259 20.4019 59.8968 21.4323 63.0859 22.4715L63.7055 20.57C60.5154 19.5304 57.3434 18.4996 54.1907 17.478L53.5742 19.3806ZM72.6411 25.5941C75.8434 26.6435 79.0626 27.7014 82.2976 28.7675L82.9236 26.868C79.6875 25.8016 76.4673 24.7433 73.2639 23.6936L72.6411 25.5941ZM91.809 31.9105C94.9749 32.9596 98.1549 34.0161 101.348 35.0798L101.98 33.1823C98.786 32.1183 95.605 31.0614 92.4381 30.012L91.809 31.9105ZM110.965 38.2924C114.128 39.3521 117.303 40.4185 120.489 41.4915L121.128 39.5961C117.941 38.5228 114.764 37.456 111.6 36.396L110.965 38.2924ZM130.008 44.7056C133.191 45.7833 136.383 46.8671 139.585 47.957L140.229 46.0637C137.027 44.9735 133.833 43.8893 130.649 42.8113L130.008 44.7056ZM149.124 51.2128C152.282 52.2939 155.449 53.3806 158.623 54.4726L159.273 52.5814C156.099 51.4891 152.931 50.402 149.771 49.3206L149.124 51.2128ZM168.163 57.7643C171.338 58.8629 174.52 59.9666 177.706 61.0751L178.363 59.1862C175.176 58.0773 171.993 56.9732 168.817 55.8743L168.163 57.7643ZM187.19 64.3832C190.355 65.4905 193.525 66.6024 196.699 67.7187L197.363 65.832C194.188 64.7153 191.017 63.6031 187.85 62.4954L187.19 64.3832ZM206.229 71.0804C209.385 72.1967 212.544 73.3171 215.704 74.4414L216.375 72.5571C213.213 71.4324 210.053 70.3116 206.896 69.1949L206.229 71.0804ZM225.189 77.8253C228.352 78.957 231.517 80.0924 234.681 81.2314L235.358 79.3495C232.193 78.2102 229.027 77.0743 225.863 75.9422L225.189 77.8253ZM244.159 84.6526C247.316 85.7955 250.472 86.9416 253.627 88.0907L254.311 86.2115C251.155 85.0619 247.998 83.9154 244.84 82.7721L244.159 84.6526ZM263.088 91.5474C266.243 92.7036 269.395 93.8627 272.545 95.0244L273.238 93.148C270.086 91.9857 266.932 90.8262 263.776 89.6695L263.088 91.5474ZM282.003 98.5237C285.153 99.6927 288.298 100.864 291.44 102.038L292.14 100.164C288.997 98.9901 285.85 97.8182 282.699 96.6487L282.003 98.5237ZM300.854 105.567C304.01 106.754 307.162 107.944 310.308 109.135L311.016 107.265C307.869 106.073 304.716 104.883 301.558 103.695L300.854 105.567ZM319.727 112.715C322.86 113.911 325.987 115.107 329.106 116.306L329.823 114.439C326.702 113.24 323.574 112.042 320.44 110.847L319.727 112.715ZM338.531 119.941C341.675 121.158 344.81 122.376 347.936 123.596L348.663 121.732C345.535 120.512 342.398 119.293 339.253 118.075L338.531 119.941ZM357.286 127.258C360.421 128.491 363.547 129.725 366.661 130.959L367.398 129.1C364.282 127.865 361.155 126.63 358.018 125.396L357.286 127.258ZM376.055 134.7C379.174 135.947 382.282 137.195 385.376 138.444L386.124 136.589C383.028 135.34 379.919 134.091 376.797 132.843L376.055 134.7ZM394.688 142.218C397.83 143.497 400.957 144.776 404.069 146.056L404.83 144.206C401.716 142.926 398.586 141.645 395.442 140.365L394.688 142.218ZM413.357 149.893C416.455 151.179 419.537 152.465 422.602 153.751L423.375 151.907C420.309 150.62 417.225 149.333 414.124 148.045L413.357 149.893ZM431.963 157.7C435.064 159.015 438.146 160.33 441.206 161.643L441.995 159.805C438.932 158.491 435.848 157.175 432.744 155.859L431.963 157.7ZM450.389 165.606C453.521 166.966 456.63 168.325 459.715 169.681L460.52 167.85C457.432 166.492 454.321 165.133 451.186 163.772L450.389 165.606ZM468.893 173.744C471.965 175.114 475.012 176.481 478.03 177.846L478.854 176.024C475.832 174.657 472.783 173.289 469.707 171.918L468.893 173.744ZM487.29 182.064C490.347 183.467 493.372 184.867 496.366 186.263L497.211 184.451C494.214 183.053 491.185 181.651 488.125 180.246L487.29 182.064ZM505.488 190.555C508.573 192.019 511.62 193.479 514.63 194.935L515.501 193.134C512.487 191.677 509.434 190.215 506.345 188.748L505.488 190.555ZM523.54 199.287C526.633 200.813 529.681 202.333 532.682 203.847L533.583 202.062C530.576 200.545 527.523 199.022 524.425 197.493L523.54 199.287ZM541.617 208.408C544.632 209.966 547.596 211.517 550.505 213.061L551.442 211.294C548.526 209.747 545.557 208.193 542.535 206.631L541.617 208.408ZM559.446 217.874C562.387 219.482 565.266 221.08 568.08 222.669L569.063 220.927C566.241 219.334 563.354 217.731 560.405 216.119L559.446 217.874ZM576.98 227.789C579.868 229.484 582.679 231.167 585.407 232.837L586.451 231.131C583.712 229.454 580.891 227.765 577.992 226.064L576.98 227.789ZM594.13 238.311C596.964 240.138 599.692 241.947 602.311 243.739L603.44 242.088C600.805 240.286 598.061 238.466 595.213 236.63L594.13 238.311ZM610.682 249.679C613.474 251.741 616.107 253.775 618.575 255.78L619.836 254.228C617.342 252.202 614.684 250.149 611.87 248.071L610.682 249.679ZM626.059 262.242C628.716 264.697 631.093 267.099 633.179 269.444L634.673 268.115C632.538 265.713 630.113 263.265 627.416 260.773L626.059 262.242ZM639.212 277.324C641.156 280.397 642.497 283.331 643.223 286.119L645.158 285.615C644.368 282.581 642.928 279.457 640.902 276.255L639.212 277.324ZM643.199 295.436C642.363 298.184 640.722 300.815 638.178 303.313L639.579 304.741C642.321 302.048 644.164 299.137 645.112 296.018L643.199 295.436ZM630.285 309.038C627.631 310.523 624.565 311.935 621.07 313.269L621.783 315.137C625.352 313.776 628.508 312.324 631.262 310.784L630.285 309.038ZM611.896 316.301C610.229 316.78 608.493 317.246 606.686 317.698L607.172 319.638C608.999 319.181 610.758 318.709 612.448 318.223L611.896 316.301ZM606.686 317.698C605.029 318.112 603.378 318.524 601.733 318.934L602.217 320.875C603.863 320.465 605.514 320.052 607.172 319.638L606.686 317.698ZM591.928 321.372C588.645 322.186 585.385 322.991 582.149 323.789L582.628 325.731C585.865 324.933 589.125 324.127 592.41 323.313L591.928 321.372ZM572.323 326.204C569.039 327.009 565.781 327.806 562.549 328.595L563.023 330.538C566.256 329.749 569.515 328.952 572.799 328.147L572.323 326.204ZM552.709 330.989C549.422 331.787 546.162 332.577 542.93 333.358L543.4 335.302C546.633 334.521 549.893 333.731 553.181 332.933L552.709 330.989ZM533.089 335.733C529.794 336.527 526.529 337.311 523.294 338.088L523.761 340.033C526.996 339.256 530.262 338.471 533.557 337.677L533.089 335.733ZM513.467 340.443C510.159 341.235 506.886 342.018 503.646 342.791L504.11 344.737C507.35 343.963 510.625 343.18 513.932 342.388L513.467 340.443ZM493.851 345.129C490.528 345.922 487.242 346.705 483.994 347.48L484.457 349.425C487.705 348.651 490.991 347.867 494.315 347.075L493.851 345.129ZM474.257 349.801C470.913 350.598 467.613 351.386 464.355 352.164L464.82 354.11C468.077 353.331 471.378 352.544 474.721 351.747L474.257 349.801ZM454.561 354.507C451.246 355.301 447.978 356.086 444.759 356.86L445.226 358.805C448.445 358.03 451.713 357.246 455.027 356.452L454.561 354.507ZM434.901 359.24C431.588 360.042 428.33 360.834 425.127 361.616L425.602 363.559C428.803 362.777 432.06 361.985 435.371 361.183L434.901 359.24ZM415.333 364.02C411.985 364.846 408.702 365.662 405.486 366.467L405.972 368.407C409.185 367.602 412.466 366.787 415.812 365.961L415.333 364.02ZM395.697 368.938C392.372 369.785 389.124 370.621 385.956 371.447L386.46 373.382C389.624 372.558 392.868 371.723 396.191 370.876L395.697 368.938ZM376.224 374.016C372.862 374.917 369.599 375.805 366.439 376.682L366.974 378.609C370.128 377.734 373.384 376.847 376.742 375.948L376.224 374.016ZM356.701 379.445C353.337 380.422 350.107 381.385 347.015 382.338L347.604 384.249C350.685 383.3 353.904 382.34 357.259 381.365L356.701 379.445ZM337.404 385.408C334.009 386.538 330.818 387.653 327.837 388.757L328.532 390.633C331.489 389.538 334.658 388.43 338.036 387.306L337.404 385.408ZM318.36 392.536C314.91 394.031 311.86 395.515 309.225 396.995L310.204 398.739C312.765 397.3 315.751 395.847 319.155 394.371L318.36 392.536ZM300.81 403.024C297.695 406.13 296.3 409.435 297.149 412.93L299.092 412.458C298.468 409.889 299.39 407.263 302.222 404.44L300.81 403.024ZM303.512 421.372C304.75 422.356 306.162 423.346 307.747 424.343L308.812 422.65C307.277 421.685 305.927 420.737 304.757 419.807L303.512 421.372ZM307.747 424.343C309.098 425.193 310.621 426.001 312.3 426.771L313.134 424.953C311.518 424.212 310.075 423.444 308.812 422.65L307.747 424.343ZM321.911 430.327C324.945 431.251 328.254 432.121 331.805 432.942L332.255 430.993C328.74 430.18 325.475 429.322 322.494 428.414L321.911 430.327ZM341.82 435.022C345.037 435.626 348.396 436.203 351.88 436.757L352.194 434.781C348.726 434.23 345.385 433.656 342.189 433.057L341.82 435.022ZM361.966 438.253C365.255 438.71 368.629 439.152 372.076 439.581L372.324 437.597C368.884 437.169 365.52 436.728 362.242 436.272L361.966 438.253ZM382.208 440.787C385.54 441.167 388.925 441.538 392.353 441.903L392.565 439.914C389.141 439.55 385.76 439.179 382.434 438.8L382.208 440.787ZM402.476 442.951C405.819 443.29 409.194 443.624 412.59 443.956L412.784 441.966C409.39 441.634 406.018 441.3 402.677 440.962L402.476 442.951ZM422.722 444.938C426.091 445.262 429.474 445.586 432.859 445.912L433.05 443.921C429.663 443.595 426.283 443.271 422.914 442.947L422.722 444.938ZM442.983 446.891C446.365 447.221 449.743 447.555 453.109 447.894L453.309 445.904C449.941 445.565 446.561 445.231 443.177 444.901L442.983 446.891ZM463.237 448.935C466.632 449.292 470.006 449.656 473.349 450.03L473.571 448.042C470.223 447.668 466.845 447.303 463.446 446.946L463.237 448.935ZM483.432 451.198C486.835 451.607 490.195 452.029 493.504 452.464L493.765 450.481C490.448 450.045 487.08 449.623 483.671 449.212L483.432 451.198ZM503.595 453.862C507.023 454.363 510.379 454.882 513.651 455.423L513.977 453.449C510.691 452.907 507.323 452.385 503.884 451.883L503.595 453.862ZM523.657 457.197C527.096 457.853 530.414 458.538 533.594 459.257L534.035 457.306C530.83 456.582 527.49 455.892 524.032 455.232L523.657 457.197ZM543.419 461.713C546.86 462.668 550.07 463.676 553.023 464.742L553.702 462.86C550.693 461.774 547.434 460.752 543.954 459.786L543.419 461.713ZM562.222 468.697C565.577 470.448 568.289 472.317 570.299 474.311L571.708 472.891C569.511 470.712 566.616 468.734 563.147 466.924L562.222 468.697ZM574.457 482.535C574.627 485.217 573.804 488.209 571.73 491.566L573.431 492.617C575.658 489.015 576.656 485.614 576.453 482.408L574.457 482.535ZM565.542 499.066C564.378 500.214 563.092 501.392 561.681 502.6L562.982 504.119C564.425 502.884 565.745 501.674 566.946 500.49L565.542 499.066Z" fill="white" fill-opacity="0.8"/>
</svg>
