<svg width="1372" height="140" viewBox="0 0 1372 140" fill="none" xmlns="http://www.w3.org/2000/svg">
<path d="M1314.44 99.4765L1311.65 98.2455C1311.37 98.1217 1311.13 97.9216 1310.95 97.6634C1310.78 97.4053 1310.67 97.0974 1310.63 96.7678C1310.6 96.4383 1310.65 96.0976 1310.77 95.777C1310.89 95.4564 1311.08 95.166 1311.32 94.9325L1325.6 81.3014L1315.57 76.5745L1309.61 79.9368C1308.46 80.6135 1307.7 80.8054 1306.26 80.1719L1304.39 79.3432C1304.08 79.2227 1303.82 79.0231 1303.62 78.7612C1303.41 78.4994 1303.28 78.183 1303.22 77.839C1303.14 77.3541 1303.18 76.6106 1303.83 75.8098L1309.66 68.435C1309.71 68.38 1309.75 68.3265 1309.8 68.275C1309.81 68.2696 1309.81 68.2637 1309.81 68.2575C1309.82 68.1872 1309.83 68.1171 1309.84 68.0473L1311.54 58.7859C1311.72 57.7978 1312.24 57.2852 1312.66 57.0288C1312.93 56.8565 1313.24 56.7529 1313.55 56.7262C1313.86 56.6996 1314.16 56.7506 1314.44 56.8753L1316.42 57.7502C1317.49 58.2233 1318.29 59.2185 1318.51 60.3539L1319.9 66.8631L1330.17 71.1952L1330.93 51.6326C1330.95 51.2971 1331.04 50.9628 1331.2 50.6604C1331.36 50.3579 1331.59 50.0969 1331.86 49.9012C1332.13 49.7055 1332.43 49.5813 1332.75 49.5401C1333.06 49.4988 1333.37 49.5418 1333.65 49.6651L1336.47 50.9095C1336.86 51.0919 1337.2 51.3699 1337.46 51.723C1337.72 52.076 1337.9 52.4949 1337.98 52.9487L1343.04 76.4819L1349.17 78.9758C1349.63 79.1446 1350.86 79.6772 1351.14 79.8025C1356.93 82.3614 1359.44 85.9824 1357.85 89.4928C1357.35 90.5976 1356.03 92.4711 1352.79 92.6049C1350.87 92.6852 1348.61 92.1541 1346.06 91.0276C1345.78 90.9037 1344.56 90.3538 1344.12 90.1285L1338.15 87.2777L1316.98 99.2313C1316.58 99.4723 1316.15 99.6195 1315.71 99.6619C1315.27 99.7044 1314.84 99.641 1314.44 99.4765Z" fill="#CCE8FF"/>
<path d="M53.1512 83.176L53.5083 84.11L53.1512 83.176ZM247.349 34.2776L247.662 33.3279L247.349 34.2776ZM532.4 63.0613L532.267 62.0701L532.4 63.0613ZM831.484 43.1574L831.69 42.1788L831.484 43.1574ZM1126.59 70.8192L1126.4 69.838L1126.59 70.8192ZM1293.58 61.4716C1294.06 61.7438 1294.23 62.354 1293.96 62.8346C1293.68 63.3151 1293.07 63.484 1292.59 63.2118L1293.58 61.4716ZM-51.3884 59.1818C-50.9393 59.5032 -50.8356 60.1278 -51.157 60.577C-51.4783 61.0261 -52.103 61.1298 -52.5521 60.8084L-51.3884 59.1818ZM-44.4145 66.2157C-44.884 65.9249 -45.0288 65.3085 -44.738 64.839C-44.4471 64.3695 -43.8308 64.2247 -43.3613 64.5155L-44.4145 66.2157ZM-35.0035 69.3615C-34.518 69.6248 -34.3379 70.2318 -34.6011 70.7173C-34.8644 71.2028 -35.4714 71.3829 -35.9569 71.1196L-35.0035 69.3615ZM-27.2316 75.5377C-27.7312 75.3023 -27.9453 74.7065 -27.7099 74.2069C-27.4745 73.7073 -26.8787 73.4931 -26.3791 73.7285L-27.2316 75.5377ZM-17.5319 77.5858C-17.0193 77.7913 -16.7704 78.3735 -16.9759 78.8861C-17.1814 79.3987 -17.7635 79.6477 -18.2762 79.4422L-17.5319 77.5858ZM-9.08541 82.7938C-9.61017 82.6216 -9.89599 82.0566 -9.72381 81.5319C-9.55163 81.0071 -8.98665 80.7213 -8.46189 80.8935L-9.08541 82.7938ZM0.800203 83.5763C1.33594 83.7105 1.66148 84.2536 1.5273 84.7893C1.39313 85.325 0.850059 85.6506 0.31432 85.5164L0.800203 83.5763ZM9.90498 87.5165C9.36011 87.4263 8.9915 86.9115 9.08166 86.3666C9.17183 85.8217 9.68663 85.4531 10.2315 85.5433L9.90498 87.5165ZM19.7843 86.6796C20.3352 86.7185 20.7502 87.1967 20.7112 87.7476C20.6723 88.2985 20.1941 88.7136 19.6432 88.6746L19.7843 86.6796ZM29.461 88.8527C28.9091 88.873 28.4452 88.442 28.4249 87.8901C28.4047 87.3382 28.8356 86.8743 29.3875 86.854L29.461 88.8527ZM38.9309 85.9302C39.4762 85.8429 39.9891 86.2143 40.0764 86.7596C40.1637 87.3049 39.7923 87.8178 39.247 87.9051L38.9309 85.9302ZM48.8422 85.7052C48.3136 85.8652 47.7554 85.5664 47.5954 85.0378C47.4354 84.5092 47.7342 83.951 48.2628 83.791L48.8422 85.7052ZM57.5711 80.3036C58.0788 80.0862 58.6666 80.3216 58.8839 80.8293C59.1013 81.337 58.866 81.9248 58.3583 82.1422L57.5711 80.3036ZM67.8273 77.7286C67.3333 77.9757 66.7326 77.7755 66.4856 77.2816C66.2385 76.7877 66.4387 76.187 66.9326 75.9399L67.8273 77.7286ZM76.0914 71.1236C76.5758 70.8582 77.1835 71.0357 77.4489 71.5201C77.7143 72.0044 77.5367 72.6122 77.0524 72.8776L76.0914 71.1236ZM86.122 67.7752C85.643 68.0502 85.0318 67.8847 84.7569 67.4057C84.482 66.9267 84.6475 66.3155 85.1265 66.0406L86.122 67.7752ZM94.114 60.8381C94.5916 60.5607 95.2036 60.723 95.481 61.2006C95.7583 61.6782 95.596 62.2902 95.1185 62.5676L94.114 60.8381ZM104.114 57.3756C103.634 57.6494 103.024 57.4826 102.75 57.003C102.476 56.5234 102.643 55.9126 103.122 55.6387L104.114 57.3756ZM112.208 50.5523C112.693 50.2874 113.3 50.4656 113.565 50.9502C113.83 51.4348 113.652 52.0424 113.167 52.3073L112.208 50.5523ZM122.322 47.4646C121.83 47.7154 121.228 47.5198 120.977 47.0277C120.726 46.5356 120.922 45.9334 121.414 45.6827L122.322 47.4646ZM130.792 41.1198C131.293 40.8881 131.887 41.1067 132.119 41.6081C132.35 42.1094 132.132 42.7037 131.63 42.9353L130.792 41.1198ZM141.119 38.8127C140.607 39.0204 140.024 38.7738 139.817 38.2621C139.609 37.7503 139.855 37.1671 140.367 36.9595L141.119 38.8127ZM150.143 33.2987C150.666 33.1198 151.234 33.3983 151.413 33.9208C151.592 34.4433 151.313 35.0119 150.791 35.1908L150.143 33.2987ZM160.661 32.1477C160.128 32.2935 159.578 31.9799 159.432 31.4472C159.287 30.9145 159.6 30.3644 160.133 30.2186L160.661 32.1477ZM170.303 27.8017C170.844 27.6927 171.371 28.0432 171.481 28.5846C171.59 29.1261 171.239 29.6533 170.698 29.7623L170.303 27.8017ZM180.875 28.0918C180.327 28.1613 179.826 27.7735 179.757 27.2256C179.687 26.6777 180.075 26.1772 180.623 26.1077L180.875 28.0918ZM191.043 25.1778C191.594 25.1493 192.065 25.5733 192.093 26.1249C192.122 26.6764 191.698 27.1467 191.146 27.1752L191.043 25.1778ZM201.458 27.0275C200.906 27.0149 200.468 26.5571 200.481 26.0049C200.494 25.4528 200.952 25.0154 201.504 25.0281L201.458 27.0275ZM211.934 25.6482C212.484 25.7009 212.887 26.1892 212.834 26.739C212.782 27.2887 212.293 27.6918 211.744 27.6391L211.934 25.6482ZM221.994 28.9848C221.449 28.8941 221.081 28.379 221.172 27.8342C221.262 27.2894 221.777 26.9213 222.322 27.012L221.994 28.9848ZM232.557 29.0636C233.095 29.1895 233.429 29.7274 233.303 30.2652C233.177 30.8029 232.639 31.1368 232.102 31.011L232.557 29.0636ZM242.065 33.6658C241.536 33.5079 241.235 32.9508 241.393 32.4216C241.551 31.8924 242.108 31.5914 242.637 31.7493L242.065 33.6658ZM252.561 34.9233C253.087 35.0924 253.376 35.6557 253.207 36.1815C253.038 36.7072 252.474 36.9963 251.949 36.8272L252.561 34.9233ZM261.809 39.9193C261.281 39.7579 260.984 39.199 261.145 38.6708C261.306 38.1426 261.865 37.8452 262.394 38.0066L261.809 39.9193ZM272.271 40.945C272.801 41.0985 273.107 41.6531 272.953 42.1836C272.8 42.7141 272.245 43.0197 271.715 42.8661L272.271 40.945ZM281.662 45.666C281.13 45.5203 280.816 44.9704 280.962 44.4376C281.107 43.9049 281.657 43.5911 282.19 43.7368L281.662 45.666ZM292.149 46.3806C292.684 46.5183 293.006 47.0635 292.868 47.5983C292.731 48.1332 292.185 48.4551 291.651 48.3174L292.149 46.3806ZM301.677 50.8189C301.141 50.6892 300.811 50.1489 300.94 49.6121C301.07 49.0752 301.61 48.7451 302.147 48.8748L301.677 50.8189ZM312.181 51.2179C312.72 51.3394 313.058 51.8746 312.937 52.4134C312.815 52.9521 312.28 53.2904 311.741 53.1689L312.181 51.2179ZM321.84 55.3658C321.299 55.2525 320.953 54.7225 321.066 54.1819C321.179 53.6414 321.709 53.295 322.25 53.4083L321.84 55.3658ZM332.351 55.4444C332.893 55.5493 333.247 56.074 333.142 56.6162C333.037 57.1584 332.513 57.5129 331.971 57.4079L332.351 55.4444ZM342.132 59.2937C341.588 59.1972 341.226 58.6781 341.322 58.1343C341.419 57.5905 341.938 57.228 342.482 57.3245L342.132 59.2937ZM352.64 59.0471C353.186 59.1352 353.556 59.6486 353.468 60.1938C353.38 60.739 352.867 61.1096 352.322 61.0215L352.64 59.0471ZM362.537 62.5897C361.99 62.5102 361.612 62.0027 361.691 61.4562C361.771 60.9096 362.278 60.531 362.825 60.6105L362.537 62.5897ZM373.032 62.0131C373.58 62.084 373.966 62.5854 373.896 63.1332C373.825 63.6809 373.323 64.0675 372.776 63.9966L373.032 62.0131ZM383.036 65.2407C382.487 65.1786 382.092 64.6834 382.154 64.1346C382.217 63.5858 382.712 63.1913 383.261 63.2534L383.036 65.2407ZM393.507 64.3296C394.057 64.3829 394.46 64.8717 394.406 65.4214C394.353 65.9711 393.864 66.3735 393.315 66.3203L393.507 64.3296ZM403.61 67.2338C403.059 67.1895 402.649 66.7072 402.693 66.1567C402.738 65.6062 403.22 65.1959 403.77 65.2403L403.61 67.2338ZM414.047 65.9838C414.598 66.0191 415.016 66.4946 414.981 67.0457C414.945 67.5969 414.47 68.015 413.919 67.9797L414.047 65.9838ZM424.238 68.5564C423.687 68.5301 423.261 68.0616 423.287 67.5099C423.313 66.9583 423.782 66.5324 424.333 66.5586L424.238 68.5564ZM434.628 66.9633C435.18 66.9804 435.614 67.4418 435.597 67.9938C435.579 68.5458 435.118 68.9794 434.566 68.9623L434.628 66.9633ZM444.899 69.1962C444.347 69.1883 443.906 68.7343 443.914 68.182C443.921 67.6298 444.375 67.1885 444.928 67.1964L444.899 69.1962ZM455.23 67.2565C455.782 67.255 456.231 67.7016 456.232 68.2539C456.234 68.8062 455.787 69.255 455.235 69.2565L455.23 67.2565ZM465.571 69.1419C465.019 69.1527 464.562 68.7138 464.551 68.1617C464.541 67.6095 464.979 67.1531 465.532 67.1423L465.571 69.1419ZM475.83 66.8524C476.382 66.8322 476.846 67.2631 476.866 67.8151C476.886 68.367 476.455 68.8308 475.903 68.8511L475.83 66.8524ZM486.23 68.3829C485.678 68.4126 485.207 67.9897 485.177 67.4382C485.147 66.8867 485.57 66.4155 486.122 66.3858L486.23 68.3829ZM496.404 65.7412C496.955 65.7018 497.433 66.1165 497.472 66.6674C497.512 67.2183 497.097 67.6968 496.546 67.7361L496.404 65.7412ZM506.849 66.9098C506.299 66.9588 505.814 66.5525 505.765 66.0024C505.716 65.4523 506.122 64.9667 506.672 64.9177L506.849 66.9098ZM516.924 63.9144C517.473 63.8557 517.966 64.2534 518.025 64.8026C518.083 65.3517 517.686 65.8444 517.137 65.9031L516.924 63.9144ZM527.405 64.715C526.857 64.7833 526.357 64.3944 526.289 63.8464C526.22 63.2983 526.609 62.7987 527.157 62.7303L527.405 64.715ZM537.229 61.3969C537.776 61.3217 538.28 61.7042 538.356 62.2514C538.431 62.7985 538.048 63.303 537.501 63.3783L537.229 61.3969ZM547.455 61.9755C546.908 62.0543 546.401 61.675 546.322 61.1283C546.244 60.5817 546.623 60.0747 547.17 59.9959L547.455 61.9755ZM557.104 58.5381C557.65 58.4566 558.159 58.8334 558.24 59.3796C558.322 59.9258 557.945 60.4347 557.399 60.5162L557.104 58.5381ZM567.336 59.0139C566.79 59.0974 566.279 58.7225 566.196 58.1766C566.112 57.6307 566.487 57.1204 567.033 57.0369L567.336 59.0139ZM576.959 55.5048C577.504 55.4199 578.016 55.7935 578.1 56.3393C578.185 56.885 577.812 57.3962 577.266 57.4811L576.959 55.5048ZM587.192 55.9297C586.647 56.0153 586.135 55.6424 586.049 55.0967C585.964 54.5511 586.337 54.0394 586.882 53.9539L587.192 55.9297ZM596.806 52.3953C597.351 52.3097 597.863 52.6825 597.949 53.2281C598.034 53.7737 597.661 54.2854 597.116 54.3711L596.806 52.3953ZM607.039 52.8163C606.493 52.9015 605.982 52.5282 605.896 51.9826C605.811 51.4369 606.184 50.9255 606.73 50.8403L607.039 52.8163ZM616.657 49.2994C617.203 49.2153 617.714 49.5896 617.798 50.1354C617.882 50.6813 617.508 51.1919 616.962 51.2761L616.657 49.2994ZM626.887 49.7607C626.341 49.8432 625.832 49.4674 625.749 48.9213C625.667 48.3752 626.043 47.8656 626.589 47.7832L626.887 49.7607ZM636.527 46.3019C637.073 46.2216 637.581 46.5995 637.662 47.1459C637.742 47.6924 637.364 48.2004 636.818 48.2806L636.527 46.3019ZM646.754 46.8463C646.207 46.9238 645.701 46.5433 645.623 45.9964C645.546 45.4496 645.926 44.9435 646.473 44.8661L646.754 46.8463ZM656.429 43.4863C656.976 43.4122 657.48 43.7959 657.554 44.3432C657.628 44.8905 657.244 45.3942 656.697 45.4682L656.429 43.4863ZM666.648 44.1572C666.1 44.2273 665.599 43.8401 665.529 43.2922C665.459 42.7444 665.846 42.2435 666.394 42.1734L666.648 44.1572ZM676.371 40.9384C676.919 40.8729 677.417 41.2644 677.483 41.8128C677.548 42.3612 677.157 42.8588 676.608 42.9243L676.371 40.9384ZM686.578 41.7809C686.029 41.8412 685.535 41.445 685.475 40.896C685.415 40.347 685.811 39.8531 686.36 39.7929L686.578 41.7809ZM696.361 38.7486C696.911 38.6942 697.4 39.0957 697.455 39.6453C697.509 40.1949 697.107 40.6845 696.558 40.7389L696.361 38.7486ZM706.548 39.8106C705.997 39.8584 705.513 39.451 705.465 38.9008C705.417 38.3506 705.825 37.8658 706.375 37.8181L706.548 39.8106ZM716.401 37.0146C716.952 36.9742 717.431 37.3879 717.471 37.9388C717.512 38.4896 717.098 38.9688 716.547 39.0092L716.401 37.0146ZM726.555 38.3483C726.004 38.3806 725.531 37.9598 725.498 37.4085C725.466 36.8571 725.887 36.384 726.438 36.3518L726.555 38.3483ZM736.486 35.8444C737.038 35.8211 737.504 36.2495 737.528 36.8013C737.551 37.3531 737.122 37.8193 736.571 37.8426L736.486 35.8444ZM746.591 37.5075C746.039 37.5209 745.581 37.0843 745.567 36.5322C745.554 35.98 745.99 35.5215 746.543 35.5081L746.591 37.5075ZM756.605 35.3593C757.157 35.3566 757.607 35.8021 757.61 36.3544C757.612 36.9067 757.167 37.3566 756.614 37.3593L756.605 35.3593ZM766.636 37.4154C766.084 37.4064 765.644 36.9514 765.653 36.3992C765.662 35.847 766.117 35.4067 766.669 35.4157L766.636 37.4154ZM776.73 35.696C777.282 35.7178 777.712 36.1829 777.69 36.7348C777.668 37.2866 777.203 37.7163 776.651 37.6944L776.73 35.696ZM786.654 38.2157C786.102 38.1799 785.685 37.7041 785.72 37.153C785.756 36.6018 786.232 36.1841 786.783 36.2199L786.654 38.2157ZM796.822 37.0085C797.372 37.0595 797.777 37.5465 797.726 38.0965C797.675 38.6464 797.188 39.0509 796.638 39L796.822 37.0085ZM806.598 40.0696C806.05 40.0023 805.66 39.5035 805.727 38.9553C805.795 38.4071 806.293 38.0172 806.842 38.0845L806.598 40.0696ZM816.824 39.4701C817.37 39.5549 817.743 40.0661 817.659 40.6118C817.574 41.1575 817.063 41.5312 816.517 41.4463L816.824 39.4701ZM826.38 43.1531C825.838 43.0494 825.482 42.5256 825.586 41.9831C825.689 41.4407 826.213 41.085 826.756 41.1887L826.38 43.1531ZM836.512 43.1851C837.053 43.2972 837.401 43.8264 837.289 44.3672C837.177 44.908 836.647 45.2556 836.107 45.1436L836.512 43.1851ZM845.841 47.1309C845.299 47.022 844.949 46.4948 845.058 45.9533C845.167 45.4119 845.694 45.0613 846.235 45.1702L845.841 47.1309ZM855.969 47.101C856.511 47.2069 856.865 47.7322 856.759 48.2743C856.653 48.8163 856.128 49.1698 855.586 49.0638L855.969 47.101ZM865.34 50.9436C864.797 50.8406 864.441 50.3172 864.544 49.7746C864.647 49.232 865.17 48.8757 865.713 48.9788L865.34 50.9436ZM875.465 50.8046C876.008 50.9048 876.367 51.4263 876.267 51.9695C876.167 52.5126 875.645 52.8716 875.102 52.7714L875.465 50.8046ZM884.873 54.5476C884.329 54.4503 883.967 53.9307 884.065 53.387C884.162 52.8434 884.682 52.4816 885.225 52.5789L884.873 54.5476ZM894.995 54.3018C895.539 54.3963 895.903 54.914 895.809 55.4582C895.714 56.0023 895.197 56.3668 894.652 56.2723L894.995 54.3018ZM904.441 57.9451C903.896 57.8536 903.529 57.3378 903.621 56.7932C903.712 56.2485 904.228 55.8812 904.772 55.9728L904.441 57.9451ZM914.559 57.5911C915.104 57.6797 915.475 58.1935 915.386 58.7386C915.297 59.2837 914.784 59.6538 914.238 59.5652L914.559 57.5911ZM924.045 61.1313C923.5 61.0458 923.127 60.5341 923.212 59.9885C923.298 59.4429 923.809 59.0699 924.355 59.1555L924.045 61.1313ZM934.16 60.6643C934.706 60.7467 935.082 61.2562 934.999 61.8023C934.917 62.3484 934.407 62.7243 933.861 62.6419L934.16 60.6643ZM943.687 64.0948C943.14 64.0157 942.761 63.5084 942.84 62.9619C942.919 62.4153 943.427 62.0363 943.973 62.1155L943.687 64.0948ZM953.795 63.5066C954.342 63.5823 954.725 64.0872 954.649 64.6342C954.573 65.1813 954.068 65.5634 953.521 65.4877L953.795 63.5066ZM963.365 66.8175C962.817 66.7454 962.432 66.243 962.504 65.6955C962.576 65.1479 963.078 64.7625 963.626 64.8346L963.365 66.8175ZM973.465 66.0961C974.013 66.1644 974.402 66.6641 974.334 67.2121C974.265 67.7602 973.766 68.1491 973.218 68.0807L973.465 66.0961ZM983.079 69.2734C982.531 69.2091 982.138 68.7124 982.203 68.1638C982.267 67.6153 982.764 67.2227 983.312 67.287L983.079 69.2734ZM993.167 68.4025C993.716 68.4624 994.113 68.956 994.053 69.505C993.993 70.0541 993.499 70.4506 992.95 70.3906L993.167 68.4025ZM1002.83 71.4269C1002.28 71.3717 1001.88 70.8814 1001.94 70.3319C1001.99 69.7824 1002.48 69.3817 1003.03 69.437L1002.83 71.4269ZM1012.9 70.3839C1013.45 70.4341 1013.86 70.9206 1013.81 71.4706C1013.76 72.0206 1013.27 72.4258 1012.72 72.3756L1012.9 70.3839ZM1022.62 73.2289C1022.07 73.1843 1021.66 72.7019 1021.7 72.1514C1021.75 71.6009 1022.23 71.1908 1022.78 71.2355L1022.62 73.2289ZM1032.67 71.9823C1033.22 72.0208 1033.64 72.4986 1033.6 73.0495C1033.56 73.6005 1033.08 74.0159 1032.53 73.9774L1032.67 71.9823ZM1042.45 74.6098C1041.9 74.5781 1041.48 74.1055 1041.51 73.5541C1041.54 73.0027 1042.01 72.5814 1042.56 72.6131L1042.45 74.6098ZM1052.46 73.1141C1053.02 73.1381 1053.44 73.6049 1053.42 74.1566C1053.4 74.7084 1052.93 75.1362 1052.38 75.1122L1052.46 73.1141ZM1062.31 75.4675C1061.76 75.4522 1061.33 74.9923 1061.34 74.4402C1061.36 73.8882 1061.82 73.453 1062.37 73.4683L1062.31 75.4675ZM1072.27 73.6544C1072.82 73.6596 1073.26 74.1115 1073.26 74.6638C1073.25 75.216 1072.8 75.6595 1072.25 75.6543L1072.27 73.6544ZM1082.18 75.6451C1081.63 75.6517 1081.18 75.2093 1081.17 74.6571C1081.16 74.1049 1081.61 73.6518 1082.16 73.6453L1082.18 75.6451ZM1092.05 73.4052C1092.6 73.3845 1093.07 73.8152 1093.09 74.3671C1093.11 74.919 1092.68 75.3831 1092.13 75.4038L1092.05 73.4052ZM1102.1 74.8789C1101.54 74.917 1101.07 74.5011 1101.03 73.9502C1100.99 73.3992 1101.41 72.9217 1101.96 72.8837L1102.1 74.8789ZM1111.8 72.0162C1112.35 71.9564 1112.84 72.3529 1112.9 72.9019C1112.96 73.4509 1112.56 73.9446 1112.01 74.0044L1111.8 72.0162ZM1121.9 72.6756C1121.35 72.7643 1120.84 72.3942 1120.75 71.8491C1120.66 71.304 1121.03 70.7902 1121.58 70.7015L1121.9 72.6756ZM1131.58 68.8227C1132.12 68.717 1132.64 69.0707 1132.75 69.6128C1132.86 70.1548 1132.5 70.68 1131.96 70.7857L1131.58 68.8227ZM1142.32 68.7868C1141.78 68.8901 1141.26 68.5341 1141.15 67.9915C1141.05 67.449 1141.41 66.9254 1141.95 66.8221L1142.32 68.7868ZM1152.34 64.875C1152.88 64.7749 1153.4 65.1341 1153.5 65.6773C1153.6 66.2204 1153.24 66.7418 1152.7 66.8419L1152.34 64.875ZM1163.08 64.9675C1162.54 65.0635 1162.02 64.7004 1161.92 64.1565C1161.83 63.6127 1162.19 63.0939 1162.74 62.998L1163.08 64.9675ZM1173.15 61.2072C1173.7 61.1162 1174.21 61.4841 1174.31 62.0288C1174.4 62.5736 1174.03 63.0889 1173.48 63.1799L1173.15 61.2072ZM1183.9 61.4987C1183.35 61.5836 1182.84 61.21 1182.76 60.6643C1182.67 60.1186 1183.05 59.6074 1183.59 59.5225L1183.9 61.4987ZM1194.05 57.9667C1194.59 57.8892 1195.1 58.2696 1195.18 58.8164C1195.25 59.3633 1194.87 59.8694 1194.33 59.9469L1194.05 57.9667ZM1204.78 58.5488C1204.23 58.6174 1203.73 58.2288 1203.66 57.6808C1203.6 57.1328 1203.98 56.6329 1204.53 56.5643L1204.78 58.5488ZM1215.05 55.3498C1215.6 55.292 1216.09 55.6905 1216.15 56.2397C1216.2 56.789 1215.81 57.2811 1215.26 57.3388L1215.05 55.3498ZM1225.75 56.3594C1225.2 56.4038 1224.72 55.9936 1224.67 55.4431C1224.63 54.8926 1225.04 54.4103 1225.59 54.3659L1225.75 56.3594ZM1236.16 53.6685C1236.71 53.6408 1237.18 54.0656 1237.2 54.6172C1237.23 55.1688 1236.81 55.6383 1236.26 55.666L1236.16 53.6685ZM1246.77 55.3351C1246.22 55.3412 1245.77 54.8985 1245.76 54.3462C1245.75 53.794 1246.2 53.3413 1246.75 53.3352L1246.77 55.3351ZM1257.36 53.4785C1257.91 53.5009 1258.34 53.9665 1258.32 54.5183C1258.3 55.0701 1257.83 55.4993 1257.28 55.4768L1257.36 53.4785ZM1267.72 56.256C1267.17 56.194 1266.78 55.6988 1266.84 55.15C1266.9 54.6012 1267.4 54.2066 1267.95 54.2686L1267.72 56.256ZM1278.48 55.9917C1279.02 56.1118 1279.36 56.6461 1279.24 57.1852C1279.12 57.7243 1278.59 58.064 1278.05 57.9439L1278.48 55.9917ZM1287.97 60.9809C1287.46 60.7711 1287.22 60.1869 1287.42 59.676C1287.63 59.1651 1288.22 58.9211 1288.73 59.1309L1287.97 60.9809ZM-55.2432 56.3021C-54.067 57.2228 -52.7792 58.1869 -51.3884 59.1818L-52.5521 60.8084C-53.9647 59.7978 -55.2756 58.8166 -56.476 57.8769L-55.2432 56.3021ZM-43.3613 64.5155C-40.7646 66.124 -37.9686 67.7535 -35.0035 69.3615L-35.9569 71.1196C-38.9565 69.4929 -41.7857 67.8441 -44.4145 66.2157L-43.3613 64.5155ZM-26.3791 73.7285C-23.531 75.0705 -20.5752 76.3657 -17.5319 77.5858L-18.2762 79.4422C-21.3579 78.2067 -24.3498 76.8956 -27.2316 75.5377L-26.3791 73.7285ZM-8.46189 80.8935C-5.42923 81.8885 -2.33612 82.7908 0.800203 83.5763L0.31432 85.5164C-2.87138 84.7186 -6.01045 83.8027 -9.08541 82.7938L-8.46189 80.8935ZM10.2315 85.5433C13.3967 86.0671 16.5864 86.4535 19.7843 86.6796L19.6432 88.6746C16.3789 88.4438 13.1272 88.0497 9.90498 87.5165L10.2315 85.5433ZM29.3875 86.854C32.5829 86.7366 35.7695 86.4362 38.9309 85.9302L39.247 87.9051C36.0004 88.4247 32.7327 88.7325 29.461 88.8527L29.3875 86.854ZM48.2628 83.791C49.7836 83.3306 51.2947 82.8152 52.7941 82.2419L53.5083 84.11C51.9638 84.7006 50.4077 85.2314 48.8422 85.7052L48.2628 83.791ZM52.7941 82.2419C54.3833 81.6343 55.9752 80.9869 57.5711 80.3036L58.3583 82.1422C56.7403 82.8349 55.124 83.4923 53.5083 84.11L52.7941 82.2419ZM66.9326 75.9399C69.9626 74.4244 73.0128 72.8103 76.0914 71.1236L77.0524 72.8776C73.9575 74.5732 70.8847 76.1994 67.8273 77.7286L66.9326 75.9399ZM85.1265 66.0406C88.0898 64.3399 91.0823 62.599 94.114 60.8381L95.1185 62.5676C92.0889 64.3272 89.0909 66.0713 86.122 67.7752L85.1265 66.0406ZM103.122 55.6387C106.109 53.9336 109.136 52.2313 112.208 50.5523L113.167 52.3073C110.109 53.9787 107.093 55.6746 104.114 57.3756L103.122 55.6387ZM121.414 45.6827C124.49 44.1152 127.614 42.5881 130.792 41.1198L131.63 42.9353C128.479 44.3916 125.378 45.9073 122.322 47.4646L121.414 45.6827ZM140.367 36.9595C143.569 35.6605 146.826 34.4346 150.143 33.2987L150.791 35.1908C147.511 36.3138 144.289 37.5266 141.119 38.8127L140.367 36.9595ZM160.133 30.2186C163.461 29.3078 166.849 28.497 170.303 27.8017L170.698 29.7623C167.291 30.4482 163.947 31.2484 160.661 32.1477L160.133 30.2186ZM180.623 26.1077C184.033 25.6751 187.505 25.3608 191.043 25.1778L191.146 27.1752C187.659 27.3555 184.236 27.6654 180.875 28.0918L180.623 26.1077ZM201.504 25.0281C204.92 25.1062 208.396 25.3094 211.934 25.6482L211.744 27.6391C208.253 27.3049 204.826 27.1046 201.458 27.0275L201.504 25.0281ZM222.322 27.012C225.678 27.5707 229.089 28.2519 232.557 29.0636L232.102 31.011C228.675 30.209 225.307 29.5363 221.994 28.9848L222.322 27.012ZM242.637 31.7493C244.299 32.2454 245.974 32.7714 247.662 33.3279L247.036 35.2273C245.366 34.6766 243.709 34.1564 242.065 33.6658L242.637 31.7493ZM247.662 33.3279C249.293 33.8656 250.926 34.3974 252.561 34.9233L251.949 36.8272C250.309 36.2998 248.671 35.7665 247.036 35.2273L247.662 33.3279ZM262.394 38.0066C265.678 39.0101 268.97 39.9896 272.271 40.945L271.715 42.8661C268.405 41.908 265.103 40.9257 261.809 39.9193L262.394 38.0066ZM282.19 43.7368C285.502 44.6426 288.822 45.524 292.149 46.3806L291.651 48.3174C288.314 47.4583 284.984 46.5744 281.662 45.666L282.19 43.7368ZM302.147 48.8748C305.485 49.6809 308.83 50.4621 312.181 51.2179L311.741 53.1689C308.38 52.4108 305.025 51.6274 301.677 50.8189L302.147 48.8748ZM322.25 53.4083C325.611 54.1127 328.978 54.7915 332.351 55.4444L331.971 57.4079C328.588 56.753 325.211 56.0722 321.84 55.3658L322.25 53.4083ZM342.482 57.3245C345.863 57.925 349.249 58.4993 352.64 59.0471L352.322 61.0215C348.92 60.472 345.523 59.896 342.132 59.2937L342.482 57.3245ZM362.825 60.6105C366.223 61.1049 369.625 61.5725 373.032 62.0131L372.776 63.9966C369.358 63.5546 365.945 63.0855 362.537 62.5897L362.825 60.6105ZM383.261 63.2534C386.672 63.6394 390.088 63.9983 393.507 64.3296L393.315 66.3203C389.885 65.9879 386.458 65.628 383.036 65.2407L383.261 63.2534ZM403.77 65.2403C407.193 65.516 410.618 65.7639 414.047 65.9838L413.919 67.9797C410.479 67.7591 407.043 67.5104 403.61 67.2338L403.77 65.2403ZM424.333 66.5586C427.763 66.7219 431.194 66.8569 434.628 66.9633L434.566 68.9623C431.121 68.8556 427.679 68.7202 424.238 68.5564L424.333 66.5586ZM444.928 67.1964C448.36 67.2453 451.794 67.2654 455.23 67.2565L455.235 69.2565C451.788 69.2655 448.343 69.2453 444.899 69.1962L444.928 67.1964ZM465.532 67.1423C468.963 67.075 472.396 66.9785 475.83 66.8524L475.903 68.8511C472.458 68.9776 469.014 69.0744 465.571 69.1419L465.532 67.1423ZM486.122 66.3858C489.549 66.2007 492.976 65.986 496.404 65.7412L496.546 67.7361C493.107 67.9817 489.668 68.1972 486.23 68.3829L486.122 66.3858ZM506.672 64.9177C510.09 64.6135 513.507 64.2792 516.924 63.9144L517.137 65.9031C513.708 66.2691 510.279 66.6046 506.849 66.9098L506.672 64.9177ZM527.157 62.7303C528.861 62.5179 530.564 62.2978 532.267 62.0701L532.532 64.0524C530.823 64.281 529.114 64.5018 527.405 64.715L527.157 62.7303ZM532.267 62.0701C533.917 61.8495 535.571 61.625 537.229 61.3969L537.501 63.3783C535.841 63.6067 534.185 63.8315 532.532 64.0524L532.267 62.0701ZM547.17 59.9959C550.467 59.5209 553.779 59.0342 557.104 58.5381L557.399 60.5162C554.071 61.0128 550.756 61.4999 547.455 61.9755L547.17 59.9959ZM567.033 57.0369C570.33 56.5324 573.639 56.0211 576.959 55.5048L577.266 57.4811C573.945 57.9975 570.635 58.5091 567.336 59.0139L567.033 57.0369ZM586.882 53.9539C590.182 53.4363 593.49 52.9162 596.806 52.3953L597.116 54.3711C593.8 54.8919 590.492 55.4121 587.192 55.9297L586.882 53.9539ZM606.73 50.8403C610.033 50.3246 613.343 49.8103 616.657 49.2994L616.962 51.2761C613.649 51.7867 610.341 52.3008 607.039 52.8163L606.73 50.8403ZM626.589 47.7832C629.898 47.2834 633.211 46.7889 636.527 46.3019L636.818 48.2806C633.505 48.7673 630.194 49.2613 626.887 49.7607L626.589 47.7832ZM646.473 44.8661C649.79 44.3962 653.109 43.9356 656.429 43.4863L656.697 45.4682C653.382 45.9169 650.067 46.3769 646.754 46.8463L646.473 44.8661ZM666.394 42.1734C669.721 41.7478 673.047 41.3355 676.371 40.9384L676.608 42.9243C673.29 43.3206 669.969 43.7323 666.648 44.1572L666.394 42.1734ZM686.36 39.7929C689.697 39.4266 693.031 39.0778 696.361 38.7486L696.558 40.7389C693.235 41.0674 689.908 41.4154 686.578 41.7809L686.36 39.7929ZM706.375 37.8181C709.723 37.5277 713.065 37.2591 716.401 37.0146L716.547 39.0092C713.22 39.2531 709.887 39.5209 706.548 39.8106L706.375 37.8181ZM726.438 36.3518C729.796 36.1553 733.146 35.9855 736.486 35.8444L736.571 37.8426C733.241 37.9832 729.902 38.1525 726.555 38.3483L726.438 36.3518ZM746.543 35.5081C749.908 35.426 753.262 35.3757 756.605 35.3593L756.614 37.3593C753.286 37.3756 749.944 37.4257 746.591 37.5075L746.543 35.5081ZM766.669 35.4157C770.037 35.471 773.391 35.5636 776.73 35.696L776.651 37.6944C773.328 37.5627 769.989 37.4705 766.636 37.4154L766.669 35.4157ZM786.783 36.2199C790.147 36.4384 793.494 36.7005 796.822 37.0085L796.638 39C793.329 38.6937 790 38.4331 786.654 38.2157L786.783 36.2199ZM806.842 38.0845C810.19 38.4952 813.518 38.9562 816.824 39.4701L816.517 41.4463C813.233 40.9359 809.926 40.4778 806.598 40.0696L806.842 38.0845ZM826.756 41.1887C828.407 41.5044 830.051 41.8343 831.69 42.1788L831.279 44.136C829.652 43.794 828.019 43.4665 826.38 43.1531L826.756 41.1887ZM831.69 42.1788C833.283 42.5137 834.891 42.8492 836.512 43.1851L836.107 45.1436C834.483 44.8072 832.873 44.4713 831.279 44.136L831.69 42.1788ZM846.235 45.1702C849.435 45.8141 852.681 46.4581 855.969 47.101L855.586 49.0638C852.294 48.4203 849.044 47.7755 845.841 47.1309L846.235 45.1702ZM865.713 48.9788C868.931 49.5901 872.183 50.199 875.465 50.8046L875.102 52.7714C871.816 52.1652 868.561 51.5556 865.34 50.9436L865.713 48.9788ZM885.225 52.5789C888.458 53.1579 891.716 53.7325 894.995 54.3018L894.652 56.2723C891.37 55.7024 888.109 55.1272 884.873 54.5476L885.225 52.5789ZM904.772 55.9728C908.019 56.5187 911.283 57.0585 914.559 57.5911L914.238 59.5652C910.958 59.032 907.691 58.4916 904.441 57.9451L904.772 55.9728ZM924.355 59.1555C927.615 59.6667 930.884 60.1699 934.16 60.6643L933.861 62.6419C930.582 62.1469 927.309 61.6431 924.045 61.1313L924.355 59.1555ZM943.973 62.1155C947.245 62.5893 950.52 63.0533 953.795 63.5066L953.521 65.4877C950.242 65.0338 946.963 64.5692 943.687 64.0948L943.973 62.1155ZM963.626 64.8346C966.91 65.2672 970.191 65.688 973.465 66.0961L973.218 68.0807C969.939 67.6721 966.654 67.2506 963.365 66.8175L963.626 64.8346ZM983.312 67.287C986.609 67.6731 989.895 68.0453 993.167 68.4025L992.95 70.3906C989.672 70.0329 986.381 69.6602 983.079 69.2734L983.312 67.287ZM1003.03 69.437C1006.34 69.7696 1009.63 70.0856 1012.9 70.3839L1012.72 72.3756C1009.44 72.0768 1006.15 71.7602 1002.83 71.4269L1003.03 69.437ZM1022.78 71.2355C1026.11 71.5048 1029.4 71.7541 1032.67 71.9823L1032.53 73.9774C1029.26 73.7487 1025.95 73.4988 1022.62 73.2289L1022.78 71.2355ZM1042.56 72.6131C1045.9 72.8049 1049.21 72.9723 1052.46 73.1141L1052.38 75.1122C1049.11 74.97 1045.8 74.8021 1042.45 74.6098L1042.56 72.6131ZM1062.37 73.4683C1065.72 73.5612 1069.03 73.6237 1072.27 73.6544L1072.25 75.6543C1068.99 75.6235 1065.68 75.5607 1062.31 75.4675L1062.37 73.4683ZM1082.16 73.6453C1085.53 73.6052 1088.83 73.5258 1092.05 73.4052L1092.13 75.4038C1088.89 75.5251 1085.57 75.6048 1082.18 75.6451L1082.16 73.6453ZM1101.96 72.8837C1105.35 72.6494 1108.63 72.3611 1111.8 72.0162L1112.01 74.0044C1108.82 74.3525 1105.51 74.643 1102.1 74.8789L1101.96 72.8837ZM1121.58 70.7015C1123.23 70.4332 1124.84 70.1455 1126.4 69.838L1126.78 71.8004C1125.2 72.1124 1123.57 72.4039 1121.9 72.6756L1121.58 70.7015ZM1126.4 69.838C1128.12 69.4992 1129.85 69.1606 1131.58 68.8227L1131.96 70.7857C1130.23 71.1233 1128.5 71.4617 1126.78 71.8004L1126.4 69.838ZM1141.95 66.8221C1145.4 66.1645 1148.87 65.514 1152.34 64.875L1152.7 66.8419C1149.24 67.4801 1145.77 68.1298 1142.32 68.7868L1141.95 66.8221ZM1162.74 62.998C1166.22 62.3839 1169.69 61.7856 1173.15 61.2072L1173.48 63.1799C1170.03 63.7572 1166.56 64.3545 1163.08 64.9675L1162.74 62.998ZM1183.59 59.5225C1187.1 58.9771 1190.59 58.457 1194.05 57.9667L1194.33 59.9469C1190.88 60.4359 1187.4 60.9547 1183.9 61.4987L1183.59 59.5225ZM1204.53 56.5643C1208.08 56.1202 1211.59 55.7137 1215.05 55.3498L1215.26 57.3388C1211.81 57.7012 1208.32 58.1062 1204.78 58.5488L1204.53 56.5643ZM1225.59 54.3659C1229.18 54.076 1232.71 53.8414 1236.16 53.6685L1236.26 55.666C1232.83 55.8378 1229.32 56.071 1225.75 56.3594L1225.59 54.3659ZM1246.75 53.3352C1250.4 53.2947 1253.94 53.3394 1257.36 53.4785L1257.28 55.4768C1253.9 55.3393 1250.39 55.2949 1246.77 55.3351L1246.75 53.3352ZM1267.95 54.2686C1271.67 54.6892 1275.19 55.2581 1278.48 55.9917L1278.05 57.9439C1274.84 57.2281 1271.39 56.6699 1267.72 56.256L1267.95 54.2686ZM1288.73 59.1309C1290.45 59.8365 1292.07 60.6152 1293.58 61.4716L1292.59 63.2118C1291.16 62.4008 1289.62 61.658 1287.97 60.9809L1288.73 59.1309Z" fill="white" fill-opacity="0.8"/>
</svg>
