<svg width="50" height="48" viewBox="0 0 50 48" fill="none" xmlns="http://www.w3.org/2000/svg">
<path d="M12.6426 38.9286L10.7001 38.1481C10.505 38.0696 10.3355 37.9376 10.2071 37.7643C10.0788 37.591 9.9957 37.3819 9.96545 37.1561C9.93521 36.9303 9.95878 36.6949 10.034 36.4716C10.1092 36.2483 10.2337 36.0441 10.3961 35.8777L19.8783 26.1669L12.8875 23.1535L8.8749 25.6065C8.09961 26.0991 7.58111 26.2491 6.58139 25.8474L5.27373 25.322C5.06362 25.2462 4.87798 25.1152 4.73253 24.9399C4.58708 24.7647 4.48612 24.5504 4.4382 24.3152C4.37235 23.9836 4.38433 23.4714 4.81138 22.9054L8.64269 17.6962C8.67144 17.6574 8.70238 17.6195 8.73445 17.5829C8.7368 17.5792 8.73851 17.575 8.73948 17.5707C8.7419 17.5223 8.74682 17.4738 8.75422 17.4255L9.70657 11.0168C9.80531 10.3331 10.1555 9.96815 10.4329 9.78209C10.6191 9.65707 10.8263 9.57858 11.0378 9.55294C11.2492 9.5273 11.459 9.55522 11.6503 9.63445L13.031 10.1892C13.7775 10.4892 14.3479 11.1547 14.5252 11.9302L15.6353 16.3731L22.7853 19.1093L22.853 5.63925C22.8542 5.40823 22.9092 5.17622 23.013 4.96441C23.1168 4.7526 23.2662 4.56776 23.4473 4.42678C23.6285 4.28581 23.8357 4.1932 24.05 4.15742C24.2643 4.12164 24.479 4.14383 24.6742 4.22196L26.6379 5.011C26.9093 5.12723 27.1476 5.31044 27.3351 5.54702C27.5225 5.78361 27.6543 6.06749 27.7207 6.37758L31.74 22.4403L36.0066 24.0102C36.323 24.1155 37.181 24.4526 37.3787 24.5321C41.4101 26.1548 43.2156 28.5855 42.2058 31.037C41.8881 31.8084 41.023 33.1281 38.8027 33.2967C37.4915 33.3971 35.9257 33.0854 34.1481 32.3712C33.9525 32.2926 33.1022 31.9433 32.7968 31.7988L28.6337 29.9796L14.38 38.6999C14.1136 38.8751 13.8191 38.9865 13.5184 39.0261C13.2177 39.0657 12.9184 39.0324 12.6426 38.9286Z" fill="#DBB8FF"/>
</svg>
