<svg width="72" height="63" viewBox="0 0 72 63" fill="none" xmlns="http://www.w3.org/2000/svg">
<g filter="url(#filter0_d_401_866)">
<path d="M15.2295 53.5378V0.613281H56.393V53.5378L35.8113 44.7171L15.2295 53.5378Z" fill="#DFABFF"/>
</g>
<path d="M43.1621 25.1509C42.6304 25.1509 42.1205 24.9396 41.7446 24.5637C41.3686 24.1877 41.1574 23.6778 41.1574 23.1461C41.1574 22.6145 41.3686 22.1046 41.7446 21.7286C42.1205 21.3526 42.6304 21.1414 43.1621 21.1414C43.6938 21.1414 44.2037 21.3526 44.5797 21.7286C44.9556 22.1046 45.1668 22.6145 45.1668 23.1461C45.1668 23.6778 44.9556 24.1877 44.5797 24.5637C44.2037 24.9396 43.6938 25.1509 43.1621 25.1509ZM39.1527 19.8049C38.621 19.8049 38.1111 19.5937 37.7351 19.2178C37.3592 18.8418 37.148 18.3319 37.148 17.8002C37.148 17.2685 37.3592 16.7586 37.7351 16.3827C38.1111 16.0067 38.621 15.7955 39.1527 15.7955C39.6844 15.7955 40.1943 16.0067 40.5702 16.3827C40.9462 16.7586 41.1574 17.2685 41.1574 17.8002C41.1574 18.3319 40.9462 18.8418 40.5702 19.2178C40.1943 19.5937 39.6844 19.8049 39.1527 19.8049ZM32.4703 19.8049C31.9386 19.8049 31.4287 19.5937 31.0528 19.2178C30.6768 18.8418 30.4656 18.3319 30.4656 17.8002C30.4656 17.2685 30.6768 16.7586 31.0528 16.3827C31.4287 16.0067 31.9386 15.7955 32.4703 15.7955C33.002 15.7955 33.5119 16.0067 33.8879 16.3827C34.2638 16.7586 34.475 17.2685 34.475 17.8002C34.475 18.3319 34.2638 18.8418 33.8879 19.2178C33.5119 19.5937 33.002 19.8049 32.4703 19.8049ZM28.4609 25.1509C27.9292 25.1509 27.4193 24.9396 27.0433 24.5637C26.6674 24.1877 26.4562 23.6778 26.4562 23.1461C26.4562 22.6145 26.6674 22.1046 27.0433 21.7286C27.4193 21.3526 27.9292 21.1414 28.4609 21.1414C28.9926 21.1414 29.5025 21.3526 29.8784 21.7286C30.2544 22.1046 30.4656 22.6145 30.4656 23.1461C30.4656 23.6778 30.2544 24.1877 29.8784 24.5637C29.5025 24.9396 28.9926 25.1509 28.4609 25.1509ZM35.8115 13.1226C32.6214 13.1226 29.562 14.3898 27.3062 16.6456C25.0505 18.9013 23.7832 21.9608 23.7832 25.1509C23.7832 28.341 25.0505 31.4004 27.3062 33.6562C29.562 35.9119 32.6214 37.1792 35.8115 37.1792C36.3432 37.1792 36.8531 36.9679 37.2291 36.592C37.605 36.216 37.8162 35.7061 37.8162 35.1744C37.8162 34.6532 37.6157 34.1854 37.295 33.838C36.9876 33.4771 36.7871 33.0093 36.7871 32.5015C36.7871 31.9698 36.9983 31.4599 37.3743 31.0839C37.7503 30.708 38.2602 30.4968 38.7918 30.4968H41.1574C42.9297 30.4968 44.6294 29.7927 45.8826 28.5395C47.1358 27.2864 47.8398 25.5867 47.8398 23.8144C47.8398 17.9071 42.4538 13.1226 35.8115 13.1226Z" fill="white"/>
<defs>
<filter id="filter0_d_401_866" x="14.588" y="0.613281" width="43.7291" height="55.4904" filterUnits="userSpaceOnUse" color-interpolation-filters="sRGB">
<feFlood flood-opacity="0" result="BackgroundImageFix"/>
<feColorMatrix in="SourceAlpha" type="matrix" values="0 0 0 0 0 0 0 0 0 0 0 0 0 0 0 0 0 0 127 0" result="hardAlpha"/>
<feOffset dx="0.641509" dy="1.28302"/>
<feGaussianBlur stdDeviation="0.641509"/>
<feComposite in2="hardAlpha" operator="out"/>
<feColorMatrix type="matrix" values="0 0 0 0 0.120833 0 0 0 0 0.119826 0 0 0 0 0.119826 0 0 0 0.8 0"/>
<feBlend mode="normal" in2="BackgroundImageFix" result="effect1_dropShadow_401_866"/>
<feBlend mode="normal" in="SourceGraphic" in2="effect1_dropShadow_401_866" result="shape"/>
</filter>
</defs>
</svg>
