<svg width="72" height="63" viewBox="0 0 72 63" fill="none" xmlns="http://www.w3.org/2000/svg">
<g filter="url(#filter0_d_401_660)">
<path d="M15.2295 53.5378V0.613281H56.393V53.5378L35.8113 44.7171L15.2295 53.5378Z" fill="#FFCE1F"/>
</g>
<path d="M27.8611 11.4043C26.7338 11.4043 25.7785 12.2497 25.6616 13.3804C25.4921 14.9933 25.2148 17.9133 25.2148 19.7096C25.2148 21.405 25.9915 22.9194 27.2047 23.916C27.6033 24.2437 27.7923 24.6034 27.7923 24.9058V25.6641L27.7912 25.718C27.7442 26.4042 27.2196 34.0656 27.2196 35.4609C27.2196 35.9122 27.3085 36.3591 27.4812 36.7761C27.6539 37.193 27.907 37.5719 28.2261 37.891C28.5453 38.2101 28.9241 38.4633 29.3411 38.636C29.758 38.8087 30.2049 38.8976 30.6562 38.8976C31.1075 38.8976 31.5544 38.8087 31.9714 38.636C32.3883 38.4633 32.7672 38.2101 33.0863 37.891C33.4054 37.5719 33.6586 37.193 33.8313 36.7761C34.004 36.3591 34.0929 35.9122 34.0929 35.4609C34.0929 34.0656 33.5694 26.4042 33.5212 25.718L33.5201 25.6641V24.9058C33.5201 24.6022 33.7091 24.2437 34.1078 23.916C34.7304 23.4062 35.232 22.7643 35.5761 22.0367C35.9203 21.3092 36.0984 20.5143 36.0976 19.7096C36.0976 17.9133 35.8204 14.9933 35.6508 13.3804C35.5936 12.8373 35.3371 12.3347 34.9308 11.9697C34.5246 11.6047 33.9975 11.4033 33.4514 11.4043C32.9278 11.4043 32.4456 11.5853 32.0652 11.8889C31.6627 11.5749 31.1668 11.4043 30.6562 11.4043C30.1457 11.4043 29.6498 11.5749 29.2472 11.8889C28.8538 11.5742 28.3648 11.4032 27.8611 11.4043ZM30.0834 13.6954C30.0834 13.5435 30.1438 13.3978 30.2512 13.2904C30.3586 13.183 30.5043 13.1226 30.6562 13.1226C30.8081 13.1226 30.9538 13.183 31.0612 13.2904C31.1686 13.3978 31.229 13.5435 31.229 13.6954V19.7096C31.229 19.9374 31.3195 20.156 31.4806 20.3171C31.6418 20.4782 31.8603 20.5687 32.0882 20.5687C32.316 20.5687 32.5346 20.4782 32.6957 20.3171C32.8568 20.156 32.9473 19.9374 32.9473 19.7096V13.6267C32.9473 13.493 33.0004 13.3648 33.095 13.2703C33.1895 13.1757 33.3177 13.1226 33.4514 13.1226C33.7091 13.1226 33.9176 13.3139 33.9428 13.5591C34.1124 15.1858 34.3793 18.0176 34.3793 19.7096C34.3801 20.2604 34.2583 20.8045 34.0227 21.3025C33.7871 21.8004 33.4436 22.2396 33.0172 22.5883C32.4009 23.0947 31.8018 23.8943 31.8018 24.9058V25.6641C31.8018 25.7214 31.8029 25.7741 31.8075 25.836C31.8579 26.5749 32.3745 34.1424 32.3745 35.4609C32.3745 35.9166 32.1935 36.3537 31.8713 36.6759C31.549 36.9982 31.1119 37.1792 30.6562 37.1792C30.2005 37.1792 29.7634 36.9982 29.4412 36.6759C29.1189 36.3537 28.9379 35.9166 28.9379 35.4609C28.9379 34.1435 29.4534 26.5749 29.5049 25.836C29.5095 25.7741 29.5107 25.7214 29.5107 25.6641V24.9058C29.5107 23.8931 28.9115 23.0947 28.2952 22.5883C27.8688 22.2396 27.5253 21.8004 27.2897 21.3025C27.0542 20.8045 26.9324 20.2604 26.9332 19.7096C26.9332 18.0176 27.2001 15.1869 27.3696 13.5591C27.3827 13.4383 27.4403 13.3267 27.5311 13.246C27.622 13.1653 27.7396 13.1214 27.8611 13.1226C27.9948 13.1226 28.123 13.1757 28.2175 13.2703C28.312 13.3648 28.3651 13.493 28.3651 13.6267V19.7096C28.3651 19.9374 28.4556 20.156 28.6168 20.3171C28.7779 20.4782 28.9964 20.5687 29.2243 20.5687C29.4521 20.5687 29.6707 20.4782 29.8318 20.3171C29.9929 20.156 30.0834 19.9374 30.0834 19.7096V13.6954ZM45.5484 13.1295V24.2918C45.5484 24.6927 45.6561 26.5794 45.7752 28.6563L45.7821 28.7766C45.9425 31.5672 46.1212 34.6934 46.1212 35.4609C46.1212 35.9166 45.9401 36.3537 45.6179 36.6759C45.2956 36.9982 44.8586 37.1792 44.4028 37.1792C43.9471 37.1792 43.5101 36.9982 43.1878 36.6759C42.8656 36.3537 42.6845 35.9166 42.6845 35.4609C42.6845 34.7793 42.8254 32.0208 42.9698 29.3895C43.0542 27.8474 43.1413 26.3055 43.2309 24.7637L43.2562 24.3422L43.2573 24.2918C43.2573 24.0639 43.1668 23.8454 43.0057 23.6842C42.8445 23.5231 42.626 23.4326 42.3981 23.4326H40.107C40.0311 23.4326 39.9582 23.4024 39.9045 23.3487C39.8508 23.295 39.8206 23.2222 39.8206 23.1462V19.1368C39.8207 17.5913 40.4156 16.1052 41.4821 14.9867C42.5486 13.8681 44.0047 13.2031 45.5484 13.1295ZM41.4874 25.1509L41.4508 25.7879C41.3969 26.7238 41.3247 27.9873 41.2537 29.2955C41.1117 31.8925 40.9662 34.7186 40.9662 35.4609C40.9662 35.9122 41.0551 36.3591 41.2278 36.7761C41.4005 37.193 41.6536 37.5719 41.9728 37.891C42.2919 38.2101 42.6707 38.4633 43.0877 38.636C43.5047 38.8087 43.9515 38.8976 44.4028 38.8976C44.8542 38.8976 45.301 38.8087 45.718 38.636C46.135 38.4633 46.5138 38.2101 46.8329 37.891C47.1521 37.5719 47.4052 37.193 47.5779 36.7761C47.7506 36.3591 47.8395 35.9122 47.8395 35.4609C47.8395 34.635 47.6585 31.4813 47.5027 28.7537L47.4981 28.6781C47.3733 26.5027 47.2667 24.6354 47.2667 24.2918V12.2635C47.2667 12.0356 47.1762 11.8171 47.0151 11.6559C46.854 11.4948 46.6354 11.4043 46.4076 11.4043H45.8348C43.784 11.4043 41.8172 12.219 40.3671 13.6691C38.917 15.1192 38.1023 17.086 38.1023 19.1368V23.1462C38.1023 24.2528 39.0004 25.1509 40.107 25.1509H41.4874Z" fill="white"/>
<defs>
<filter id="filter0_d_401_660" x="14.588" y="0.613281" width="43.7291" height="55.4904" filterUnits="userSpaceOnUse" color-interpolation-filters="sRGB">
<feFlood flood-opacity="0" result="BackgroundImageFix"/>
<feColorMatrix in="SourceAlpha" type="matrix" values="0 0 0 0 0 0 0 0 0 0 0 0 0 0 0 0 0 0 127 0" result="hardAlpha"/>
<feOffset dx="0.641509" dy="1.28302"/>
<feGaussianBlur stdDeviation="0.641509"/>
<feComposite in2="hardAlpha" operator="out"/>
<feColorMatrix type="matrix" values="0 0 0 0 0.120833 0 0 0 0 0.119826 0 0 0 0 0.119826 0 0 0 0.8 0"/>
<feBlend mode="normal" in2="BackgroundImageFix" result="effect1_dropShadow_401_660"/>
<feBlend mode="normal" in="SourceGraphic" in2="effect1_dropShadow_401_660" result="shape"/>
</filter>
</defs>
</svg>
