<svg width="72" height="63" viewBox="0 0 72 63" fill="none" xmlns="http://www.w3.org/2000/svg">
<g filter="url(#filter0_d_401_459)">
<path d="M15.2295 53.5378V0.613281H56.393V53.5378L35.8113 44.7171L15.2295 53.5378Z" fill="#B3B3B3"/>
</g>
<g clip-path="url(#clip0_401_459)">
<path d="M35.811 14.459C33.6963 14.459 31.6292 15.086 29.8709 16.2609C28.1126 17.4357 26.7423 19.1055 25.933 21.0592C25.1238 23.0129 24.912 25.1627 25.3246 27.2367C25.7371 29.3107 26.7554 31.2158 28.2507 32.7111C29.746 34.2063 31.6511 35.2246 33.7251 35.6372C35.7991 36.0497 37.9489 35.838 39.9026 35.0288C41.8562 34.2195 43.5261 32.8491 44.7009 31.0909C45.8757 29.3326 46.5028 27.2655 46.5028 25.1508C46.5028 22.3152 45.3763 19.5957 43.3712 17.5905C41.3661 15.5854 38.6466 14.459 35.811 14.459ZM34.029 19.0476C34.029 18.6951 34.1335 18.3506 34.3293 18.0575C34.5251 17.7645 34.8034 17.5361 35.129 17.4012C35.4547 17.2664 35.8129 17.2311 36.1586 17.2998C36.5043 17.3686 36.8218 17.5383 37.071 17.7875C37.3202 18.0367 37.4899 18.3542 37.5587 18.6999C37.6275 19.0456 37.5922 19.4039 37.4573 19.7295C37.3224 20.0551 37.094 20.3334 36.801 20.5292C36.5079 20.725 36.1634 20.8295 35.811 20.8295C35.5696 20.8416 35.3282 20.8045 35.1016 20.7203C34.8751 20.6362 34.6679 20.5069 34.4929 20.3402C34.3179 20.1735 34.1786 19.9729 34.0835 19.7507C33.9885 19.5285 33.9396 19.2893 33.9399 19.0476H34.029ZM40.2659 30.4967C40.2659 30.733 40.172 30.9597 40.0049 31.1267C39.8378 31.2938 39.6112 31.3877 39.3749 31.3877H33.138C32.9017 31.3877 32.6751 31.2938 32.508 31.1267C32.3409 30.9597 32.247 30.733 32.247 30.4967C32.247 30.2604 32.3409 30.0338 32.508 29.8667C32.6751 29.6996 32.9017 29.6057 33.138 29.6057H34.92V24.2598H34.029C33.7927 24.2598 33.5661 24.166 33.399 23.9989C33.2319 23.8318 33.138 23.6051 33.138 23.3688C33.138 23.1325 33.2319 22.9059 33.399 22.7388C33.5661 22.5717 33.7927 22.4779 34.029 22.4779H37.5929V29.6057H39.3749C39.6112 29.6057 39.8378 29.6996 40.0049 29.8667C40.172 30.0338 40.2659 30.2604 40.2659 30.4967Z" fill="white"/>
</g>
<defs>
<filter id="filter0_d_401_459" x="14.588" y="0.613281" width="43.7291" height="55.4904" filterUnits="userSpaceOnUse" color-interpolation-filters="sRGB">
<feFlood flood-opacity="0" result="BackgroundImageFix"/>
<feColorMatrix in="SourceAlpha" type="matrix" values="0 0 0 0 0 0 0 0 0 0 0 0 0 0 0 0 0 0 127 0" result="hardAlpha"/>
<feOffset dx="0.641509" dy="1.28302"/>
<feGaussianBlur stdDeviation="0.641509"/>
<feComposite in2="hardAlpha" operator="out"/>
<feColorMatrix type="matrix" values="0 0 0 0 0.120833 0 0 0 0 0.119826 0 0 0 0 0.119826 0 0 0 0.8 0"/>
<feBlend mode="normal" in2="BackgroundImageFix" result="effect1_dropShadow_401_459"/>
<feBlend mode="normal" in="SourceGraphic" in2="effect1_dropShadow_401_459" result="shape"/>
</filter>
<clipPath id="clip0_401_459">
<rect width="32.0755" height="32.0755" fill="white" transform="translate(19.7734 9.11328)"/>
</clipPath>
</defs>
</svg>
