<svg width="81" height="91" viewBox="0 0 81 91" fill="none" xmlns="http://www.w3.org/2000/svg">
<g filter="url(#filter0_d_182_951)">
<path d="M10 84.1429V7H70V84.1429L40 71.2857L10 84.1429Z" fill="#FF6678"/>
</g>
<path d="M20.4129 47V32.8594H22.952V38.8555H29.534V32.8594H32.0926V47H29.534V40.9844H22.952V47H20.4129ZM48.127 39.9297C48.127 44.5 45.3535 47.1953 41.6426 47.1953C37.9316 47.1953 35.1582 44.4805 35.1582 39.9297C35.1582 35.3594 37.9316 32.6641 41.6426 32.6641C45.3535 32.6641 48.127 35.3594 48.127 39.9297ZM45.5684 39.9297C45.5684 36.707 43.9473 34.9492 41.6426 34.9492C39.3379 34.9492 37.7168 36.707 37.7168 39.9297C37.7168 43.1523 39.3379 44.9102 41.6426 44.9102C43.9473 44.9102 45.5684 43.1523 45.5684 39.9297ZM49.9426 34.9883V32.8594H61.2121V34.9883H56.8566V47H54.3176V34.9883H49.9426Z" fill="white"/>
<defs>
<filter id="filter0_d_182_951" x="9.0997" y="7" width="63.6012" height="80.7443" filterUnits="userSpaceOnUse" color-interpolation-filters="sRGB">
<feFlood flood-opacity="0" result="BackgroundImageFix"/>
<feColorMatrix in="SourceAlpha" type="matrix" values="0 0 0 0 0 0 0 0 0 0 0 0 0 0 0 0 0 0 127 0" result="hardAlpha"/>
<feOffset dx="0.900303" dy="1.80061"/>
<feGaussianBlur stdDeviation="0.900303"/>
<feComposite in2="hardAlpha" operator="out"/>
<feColorMatrix type="matrix" values="0 0 0 0 0.120833 0 0 0 0 0.119826 0 0 0 0 0.119826 0 0 0 0.8 0"/>
<feBlend mode="normal" in2="BackgroundImageFix" result="effect1_dropShadow_182_951"/>
<feBlend mode="normal" in="SourceGraphic" in2="effect1_dropShadow_182_951" result="shape"/>
</filter>
</defs>
</svg>
