<svg width="80" height="90" viewBox="0 0 80 90" fill="none" xmlns="http://www.w3.org/2000/svg">
<g filter="url(#filter0_d_182_954)">
<path d="M9.63672 83.6477V6.50488H69.6367V83.6477L39.6367 70.7906L9.63672 83.6477Z" fill="#FFCE1F"/>
</g>
<path d="M15.0773 46.5049V32.3643H20.4875C23.5539 32.3643 25.0773 33.9268 25.0773 36.0361C25.0773 37.7549 23.9836 38.7119 22.5969 39.0439V39.1807C24.1008 39.2588 25.6242 40.5088 25.6242 42.6572C25.6242 44.8643 24.0422 46.5049 20.8 46.5049H15.0773ZM20.4094 44.376C22.2648 44.376 23.0461 43.5752 23.0461 42.4619C23.0461 41.1924 22.05 40.2158 20.468 40.2158H17.6164V44.376H20.4094ZM20.175 38.3799C21.5227 38.3799 22.5383 37.5986 22.5383 36.3486C22.5383 35.2549 21.757 34.4736 20.2336 34.4736H17.6164V38.3799H20.175ZM28.4945 46.5049V32.3643H37.6937V34.4932H31.0336V38.3604H37.2055V40.4893H31.0336V44.3564H37.7328V46.5049H28.4945ZM48.6305 36.251C48.5133 35.04 47.4781 34.3369 45.9547 34.3369C44.3531 34.3369 43.3766 35.1182 43.3766 36.1729C43.3766 37.3643 44.6266 37.8525 45.7984 38.126L47.1266 38.4775C49.2359 38.9658 51.2672 40.0791 51.2672 42.54C51.2672 45.0205 49.3141 46.7197 45.9156 46.7197C42.6148 46.7197 40.5445 45.1377 40.4273 42.3447H42.9273C43.0445 43.8291 44.2945 44.5518 45.8961 44.5518C47.5758 44.5518 48.7281 43.7314 48.7281 42.5205C48.7281 41.4072 47.693 40.9385 46.1695 40.5479L44.568 40.1377C42.2437 39.5322 40.7984 38.3604 40.7984 36.3291C40.7984 33.8291 43.025 32.1689 45.9937 32.1689C49.0016 32.1689 51.0328 33.8682 51.0719 36.251H48.6305ZM53.5516 34.4932V32.3643H64.8211V34.4932H60.4656V46.5049H57.9266V34.4932H53.5516Z" fill="white"/>
<defs>
<filter id="filter0_d_182_954" x="8.73642" y="6.50488" width="63.6012" height="80.7443" filterUnits="userSpaceOnUse" color-interpolation-filters="sRGB">
<feFlood flood-opacity="0" result="BackgroundImageFix"/>
<feColorMatrix in="SourceAlpha" type="matrix" values="0 0 0 0 0 0 0 0 0 0 0 0 0 0 0 0 0 0 127 0" result="hardAlpha"/>
<feOffset dx="0.900303" dy="1.80061"/>
<feGaussianBlur stdDeviation="0.900303"/>
<feComposite in2="hardAlpha" operator="out"/>
<feColorMatrix type="matrix" values="0 0 0 0 0.120833 0 0 0 0 0.119826 0 0 0 0 0.119826 0 0 0 0.8 0"/>
<feBlend mode="normal" in2="BackgroundImageFix" result="effect1_dropShadow_182_954"/>
<feBlend mode="normal" in="SourceGraphic" in2="effect1_dropShadow_182_954" result="shape"/>
</filter>
</defs>
</svg>
