<svg width="72" height="63" viewBox="0 0 72 63" fill="none" xmlns="http://www.w3.org/2000/svg">
<g filter="url(#filter0_d_401_310)">
<path d="M15.2295 53.5378V0.613281H56.393V53.5378L35.8113 44.7171L15.2295 53.5378Z" fill="#1FD7FF"/>
</g>
<g clip-path="url(#clip0_401_310)">
<path d="M45.7159 18.7495C46.69 25.677 41.4396 31.4838 37.4734 32.042C33.5072 32.6002 26.8559 28.4398 25.8836 21.5373C25.7006 20.2352 25.7758 18.9099 26.105 17.6369C26.4342 16.364 27.0109 15.1683 27.8022 14.1182C28.5935 13.0681 29.5838 12.1842 30.7167 11.5168C31.8496 10.8495 33.1028 10.4118 34.4049 10.2288C35.7069 10.0458 37.0323 10.121 38.3052 10.4502C39.5782 10.7794 40.7739 11.3561 41.824 12.1474C42.874 12.9387 43.758 13.929 44.4253 15.0619C45.0927 16.1948 45.5304 17.4481 45.7134 18.7501L45.7159 18.7495Z" stroke="white" stroke-width="2" stroke-miterlimit="10"/>
<path d="M34.5622 28.412C32.5055 27.5975 30.3598 25.7118 29.4082 23.0581M42.8091 40.1727C40.7524 39.3583 38.8429 37.6631 37.8913 35.01" stroke="white" stroke-width="2" stroke-miterlimit="10" stroke-linecap="round"/>
<path d="M36.4817 32.1806L35.9072 35.2886L39.8734 34.731L38.4645 31.9019L36.4817 32.1806Z" stroke="white" stroke-width="2" stroke-linecap="round" stroke-linejoin="round"/>
</g>
<defs>
<filter id="filter0_d_401_310" x="14.588" y="0.613281" width="43.7291" height="55.4904" filterUnits="userSpaceOnUse" color-interpolation-filters="sRGB">
<feFlood flood-opacity="0" result="BackgroundImageFix"/>
<feColorMatrix in="SourceAlpha" type="matrix" values="0 0 0 0 0 0 0 0 0 0 0 0 0 0 0 0 0 0 127 0" result="hardAlpha"/>
<feOffset dx="0.641509" dy="1.28302"/>
<feGaussianBlur stdDeviation="0.641509"/>
<feComposite in2="hardAlpha" operator="out"/>
<feColorMatrix type="matrix" values="0 0 0 0 0.120833 0 0 0 0 0.119826 0 0 0 0 0.119826 0 0 0 0.8 0"/>
<feBlend mode="normal" in2="BackgroundImageFix" result="effect1_dropShadow_401_310"/>
<feBlend mode="normal" in="SourceGraphic" in2="effect1_dropShadow_401_310" result="shape"/>
</filter>
<clipPath id="clip0_401_310">
<rect width="32.0755" height="32.0755" fill="white" transform="translate(19.7734 9.11328)"/>
</clipPath>
</defs>
</svg>
