<svg width="72" height="63" viewBox="0 0 72 63" fill="none" xmlns="http://www.w3.org/2000/svg">
<g filter="url(#filter0_d_401_43)">
<path d="M15.2295 53.5378V0.613281H56.393V53.5378L35.8113 44.7171L15.2295 53.5378Z" fill="#FFACB6"/>
</g>
<path d="M27.7921 38.5157C27.057 38.5157 26.428 38.2542 25.905 37.7312C25.382 37.2082 25.12 36.5787 25.1191 35.8427V19.805C25.1191 19.0699 25.3811 18.4409 25.905 17.9179C26.4289 17.3949 27.0579 17.1329 27.7921 17.132H30.4651C30.4651 15.6619 30.9885 14.4034 32.0354 13.3565C33.0823 12.3096 34.3408 11.7861 35.811 11.7861C37.2811 11.7861 38.5396 12.3096 39.5865 13.3565C40.6334 14.4034 41.1569 15.6619 41.1569 17.132H43.8298C44.5649 17.132 45.1944 17.394 45.7183 17.9179C46.2422 18.4418 46.5037 19.0708 46.5028 19.805V35.8427C46.5028 36.5778 46.2413 37.2073 45.7183 37.7312C45.1953 38.2551 44.5658 38.5166 43.8298 38.5157H27.7921ZM27.7921 35.8427H43.8298V19.805H41.1569V22.478C41.1569 22.8566 41.0286 23.1743 40.772 23.4309C40.5154 23.6875 40.1982 23.8153 39.8204 23.8144C39.4426 23.8135 39.1254 23.6852 38.8688 23.4295C38.6122 23.1738 38.4839 22.8566 38.4839 22.478V19.805H33.138V22.478C33.138 22.8566 33.0097 23.1743 32.7531 23.4309C32.4965 23.6875 32.1793 23.8153 31.8015 23.8144C31.4238 23.8135 31.1066 23.6852 30.85 23.4295C30.5934 23.1738 30.4651 22.8566 30.4651 22.478V19.805H27.7921V35.8427ZM33.138 17.132H38.4839C38.4839 16.397 38.2224 15.7679 37.6994 15.2449C37.1764 14.7219 36.5469 14.46 35.811 14.4591C35.075 14.4582 34.446 14.7201 33.9239 15.2449C33.4017 15.7697 33.1398 16.3988 33.138 17.132Z" fill="white"/>
<defs>
<filter id="filter0_d_401_43" x="14.588" y="0.613281" width="43.7291" height="55.4904" filterUnits="userSpaceOnUse" color-interpolation-filters="sRGB">
<feFlood flood-opacity="0" result="BackgroundImageFix"/>
<feColorMatrix in="SourceAlpha" type="matrix" values="0 0 0 0 0 0 0 0 0 0 0 0 0 0 0 0 0 0 127 0" result="hardAlpha"/>
<feOffset dx="0.641509" dy="1.28302"/>
<feGaussianBlur stdDeviation="0.641509"/>
<feComposite in2="hardAlpha" operator="out"/>
<feColorMatrix type="matrix" values="0 0 0 0 0.120833 0 0 0 0 0.119826 0 0 0 0 0.119826 0 0 0 0.8 0"/>
<feBlend mode="normal" in2="BackgroundImageFix" result="effect1_dropShadow_401_43"/>
<feBlend mode="normal" in="SourceGraphic" in2="effect1_dropShadow_401_43" result="shape"/>
</filter>
</defs>
</svg>
