<svg width="72" height="63" viewBox="0 0 72 63" fill="none" xmlns="http://www.w3.org/2000/svg">
<g filter="url(#filter0_d_401_622)">
<path d="M15.2295 53.5378V0.613281H56.393V53.5378L35.8113 44.7171L15.2295 53.5378Z" fill="#59B9FF"/>
</g>
<path d="M49.8438 22.1438H48.4906L45.0099 14.3129C44.8524 13.9586 44.5955 13.6575 44.2704 13.4463C43.9453 13.235 43.5658 13.1226 43.1781 13.1226H28.4434C28.0557 13.1226 27.6763 13.235 27.3512 13.4463C27.026 13.6575 26.7691 13.9586 26.6116 14.3129L23.1309 22.1438H21.7777C21.5119 22.1438 21.257 22.2494 21.069 22.4374C20.881 22.6253 20.7754 22.8803 20.7754 23.1461C20.7754 23.412 20.881 23.6669 21.069 23.8549C21.257 24.0429 21.5119 24.1485 21.7777 24.1485H22.7801V34.1721C22.7801 34.7038 22.9913 35.2137 23.3673 35.5896C23.7432 35.9656 24.2531 36.1768 24.7848 36.1768H27.7919C28.3236 36.1768 28.8335 35.9656 29.2094 35.5896C29.5854 35.2137 29.7966 34.7038 29.7966 34.1721V32.1674H41.8249V34.1721C41.8249 34.7038 42.0361 35.2137 42.4121 35.5896C42.788 35.9656 43.298 36.1768 43.8296 36.1768H46.8367C47.3684 36.1768 47.8783 35.9656 48.2543 35.5896C48.6302 35.2137 48.8414 34.7038 48.8414 34.1721V24.1485H49.8438C50.1096 24.1485 50.3646 24.0429 50.5526 23.8549C50.7405 23.6669 50.8461 23.412 50.8461 23.1461C50.8461 22.8803 50.7405 22.6253 50.5526 22.4374C50.3646 22.2494 50.1096 22.1438 49.8438 22.1438ZM28.4434 15.1273H43.1781L46.2967 22.1438H25.3248L28.4434 15.1273ZM27.7919 34.1721H24.7848V32.1674H27.7919V34.1721ZM43.8296 34.1721V32.1674H46.8367V34.1721H43.8296ZM46.8367 30.1627H24.7848V24.1485H46.8367V30.1627ZM26.7895 27.1556C26.7895 26.8897 26.8951 26.6348 27.0831 26.4468C27.2711 26.2588 27.5261 26.1532 27.7919 26.1532H29.7966C30.0625 26.1532 30.3174 26.2588 30.5054 26.4468C30.6934 26.6348 30.799 26.8897 30.799 27.1556C30.799 27.4214 30.6934 27.6764 30.5054 27.8644C30.3174 28.0523 30.0625 28.1579 29.7966 28.1579H27.7919C27.5261 28.1579 27.2711 28.0523 27.0831 27.8644C26.8951 27.6764 26.7895 27.4214 26.7895 27.1556ZM40.8226 27.1556C40.8226 26.8897 40.9282 26.6348 41.1161 26.4468C41.3041 26.2588 41.5591 26.1532 41.8249 26.1532H43.8296C44.0955 26.1532 44.3504 26.2588 44.5384 26.4468C44.7264 26.6348 44.832 26.8897 44.832 27.1556C44.832 27.4214 44.7264 27.6764 44.5384 27.8644C44.3504 28.0523 44.0955 28.1579 43.8296 28.1579H41.8249C41.5591 28.1579 41.3041 28.0523 41.1161 27.8644C40.9282 27.6764 40.8226 27.4214 40.8226 27.1556Z" fill="white"/>
<defs>
<filter id="filter0_d_401_622" x="14.588" y="0.613281" width="43.7291" height="55.4904" filterUnits="userSpaceOnUse" color-interpolation-filters="sRGB">
<feFlood flood-opacity="0" result="BackgroundImageFix"/>
<feColorMatrix in="SourceAlpha" type="matrix" values="0 0 0 0 0 0 0 0 0 0 0 0 0 0 0 0 0 0 127 0" result="hardAlpha"/>
<feOffset dx="0.641509" dy="1.28302"/>
<feGaussianBlur stdDeviation="0.641509"/>
<feComposite in2="hardAlpha" operator="out"/>
<feColorMatrix type="matrix" values="0 0 0 0 0.120833 0 0 0 0 0.119826 0 0 0 0 0.119826 0 0 0 0.8 0"/>
<feBlend mode="normal" in2="BackgroundImageFix" result="effect1_dropShadow_401_622"/>
<feBlend mode="normal" in="SourceGraphic" in2="effect1_dropShadow_401_622" result="shape"/>
</filter>
</defs>
</svg>
