<svg width="30" height="30" viewBox="0 0 30 30" fill="none" xmlns="http://www.w3.org/2000/svg">
<rect width="30" height="30" rx="15" fill="#FAAC40"/>
<path d="M16.0565 23.5567L23.5504 16.0628C23.6868 15.9203 23.7938 15.7522 23.8651 15.5683C24.015 15.2034 24.015 14.7941 23.8651 14.4292C23.7938 14.2452 23.6868 14.0771 23.5504 13.9346L16.0565 6.44077C15.9168 6.30103 15.7509 6.19018 15.5683 6.11455C15.3857 6.03893 15.19 6 14.9924 6C14.5933 6 14.2105 6.15855 13.9283 6.44077C13.6461 6.723 13.4875 7.10577 13.4875 7.5049C13.4875 7.90402 13.6461 8.2868 13.9283 8.56902L18.8742 13.5L7.4986 13.5C7.1011 13.5 6.71988 13.6579 6.43881 13.9389C6.15774 14.22 5.99984 14.6012 5.99984 14.9987C5.99984 15.3962 6.15774 15.7774 6.43881 16.0585C6.71988 16.3396 7.1011 16.4975 7.4986 16.4975L18.8742 16.4975L13.9283 21.4284C13.7878 21.5678 13.6763 21.7335 13.6002 21.9162C13.5241 22.0988 13.485 22.2947 13.485 22.4925C13.485 22.6904 13.5241 22.8863 13.6002 23.0689C13.6763 23.2516 13.7878 23.4173 13.9283 23.5567C14.0676 23.6971 14.2334 23.8086 14.416 23.8847C14.5987 23.9608 14.7946 24 14.9924 24C15.1903 24 15.3862 23.9608 15.5688 23.8847C15.7515 23.8086 15.9172 23.6971 16.0565 23.5567Z" fill="white"/>
</svg>
