<svg width="238" height="63" viewBox="0 0 238 63" fill="none" xmlns="http://www.w3.org/2000/svg">
<path d="M71.8436 5.52434C81.4825 1.11066 93.7828 5.01896 98.9401 15.9016C103.187 12.3302 106.717 7.54588 111.13 4.29458C121.127 -3.06718 135.207 -0.742415 143.26 9.56741C147.921 15.5478 151.851 24.4931 158.608 24.392C161.021 24.3583 163.282 23.0612 165.544 22.0841C177.03 17.0976 189.855 19.7762 201.259 25.0322C210.125 29.1258 218.399 34.7692 227.004 39.5704C232.106 42.4005 238.918 44.54 237.897 53.62C218.633 58.5223 198.68 53.8559 179.002 54.2939C176.975 54.3444 174.907 54.4455 173.018 55.3046C171.404 56.029 169.998 57.2588 168.508 58.2864C161.09 63.4245 152.03 63.694 143.577 62.2284C135.124 60.7628 126.878 57.7136 118.383 56.6692C104.042 54.9172 89.839 58.9603 75.553 59.5499C62.7701 60.0889 52.7726 52.087 39.6036 53.401C32.695 54.0917 25.883 56.1133 18.9469 56.1975C12.0107 56.2817 4.6195 54.0749 0 47.7744C7.50152 30.1702 21.2083 26.8515 36.0045 33.371C44.2783 37.0266 49.0219 37.751 53.7655 28.1655C58.5091 18.5801 62.7425 9.66849 71.8436 5.47381V5.52434Z" fill="white"/>
</svg>
