<svg width="271" height="67" viewBox="0 0 271 67" fill="none" xmlns="http://www.w3.org/2000/svg">
<path d="M54.0156 9.44647C54.5407 8.96745 55.1104 8.56277 55.6979 8.22415C57.9766 6.91098 60.4689 8.30674 62.5072 7.33219C64.4032 6.42371 65.7205 3.07884 67.6699 1.77393C69.9842 0.212994 72.7079 -0.37339 75.2625 0.237771C80.4252 1.46009 84.6888 6.87795 86.6381 13.3282C88.8278 8.90138 93.581 8.02594 97.4352 9.42995C101.28 10.834 104.627 13.9641 108.277 16.1032C114.757 19.9023 121.878 20.373 128.821 21.4467C134.393 22.3139 139.626 27.2857 143 33.2322C136.992 33.0009 131.277 33.802 125.322 34.2563C120.142 34.6527 114.917 33.8599 109.71 33.4965C101.859 32.9349 93.9994 35.2473 86.1575 34.4875C77.9329 33.6864 69.8239 29.5157 61.6527 30.9857C56.4011 31.9355 51.3986 35.1895 46.1025 34.9913C42.2038 34.8509 38.4653 32.8357 34.5755 32.5054C31.0062 32.1998 27.4635 33.323 23.9209 33.9837C20.1201 34.694 16.257 34.9583 12.4296 34.6775C9.53669 34.471 3.47503 34.4875 1.13404 31.8942C-3.9574 26.2369 9.54559 17.9862 12.9903 18.1101C18.0462 18.2918 22.7192 21.5293 27.1787 24.6924C28.2646 21.0585 29.5019 17.1851 31.9942 15.0956C33.988 13.4273 36.4537 13.1878 38.8125 13.0061C41.7142 12.7748 44.9186 12.6757 47.1884 15.0873C47.856 15.7976 48.577 16.7721 49.4226 16.5326C50.2059 16.3014 50.5708 15.1369 50.9091 14.1788C51.5945 12.2462 52.6982 10.644 54.0156 9.45473V9.44647Z" fill="#EDEDED"/>
<path d="M123.115 31.1095C128.757 26.2801 137.492 24.7198 143.522 29.0271C144.286 29.5729 145.119 30.2314 146.029 30.0534C146.601 29.9467 147.066 29.5195 147.498 29.122C153.052 23.9663 159.56 19.4691 166.958 18.2707C174.356 17.0722 182.728 19.8607 186.532 26.4878C188.218 29.4186 189.91 33.5479 193.205 33.1801C194.414 33.0436 195.438 32.2664 196.469 31.6079C203.104 27.3777 212.29 27.8879 218.441 32.83C223.397 36.811 226.813 43.4618 232.983 44.7315C235.541 45.2595 238.181 44.7315 240.776 44.4941C249.256 43.7407 267.316 47.8047 270.643 57.6593C274.543 69.2225 245.312 67.2765 239.873 66.0781C236.565 65.3483 233.321 64.2804 229.962 63.8117C225.324 63.1709 220.623 63.699 215.966 64.1083C201.831 65.3602 187.601 65.5441 173.44 64.6542C169.731 64.4228 163.211 66.1789 162.219 62.5005C161.716 60.6316 156.958 59.5281 155.857 60.1274C148.223 64.2804 137.975 59.3086 137.409 59.5341C128.503 63.0938 119.756 57.6711 99.2339 59.0001C97.071 59.1425 94.8445 59.2315 92.8088 58.4839C88.1968 56.7871 87.6815 51.2458 91.7655 48.5463C95.2389 46.2503 101.785 46.8792 105.589 47.5199C108.553 48.0183 110.983 50.516 113.293 48.2378C114.991 46.5588 115.659 41.4624 116.849 39.2079C118.458 36.1525 120.507 33.3462 123.115 31.1154V31.1095Z" fill="white"/>
</svg>
