<svg width="58" height="58" viewBox="0 0 58 58" fill="none" xmlns="http://www.w3.org/2000/svg">
<path d="M39.0918 15.3987H43.8478V49.7893H15.3118V15.3987H20.0678V12.9422C20.0678 11.6392 20.5689 10.3896 21.4608 9.46826C22.3527 8.54691 23.5624 8.0293 24.8238 8.0293H34.3358C35.5972 8.0293 36.8069 8.54691 37.6988 9.46826C38.5907 10.3896 39.0918 11.6392 39.0918 12.9422V15.3987ZM46.2258 15.3987H48.6038C49.8652 15.3987 51.0749 15.9163 51.9668 16.8377C52.8587 17.759 53.3598 19.0087 53.3598 20.3117V44.8764C53.3598 46.1794 52.8587 47.429 51.9668 48.3503C51.0749 49.2717 49.8652 49.7893 48.6038 49.7893H46.2258V15.3987ZM12.9338 15.3987V49.7893H10.5558C9.29444 49.7893 8.08473 49.2717 7.19281 48.3503C6.30088 47.429 5.7998 46.1794 5.7998 44.8764V20.3117C5.7998 17.6095 7.94 15.3987 10.5558 15.3987H12.9338ZM24.8238 12.9422V15.3987H34.3358V12.9422H24.8238Z" fill="#FFCE1F"/>
</svg>
