<svg width="58" height="58" viewBox="0 0 58 58" fill="none" xmlns="http://www.w3.org/2000/svg">
<path d="M33.6 13V45H11.05C10.5063 45 9.98488 44.8127 9.60043 44.4793C9.21598 44.1459 9 43.6937 9 43.2222V33.4444C10.3592 33.4444 11.6628 32.9762 12.6239 32.1427C13.585 31.3092 14.125 30.1787 14.125 29C14.125 27.8213 13.585 26.6908 12.6239 25.8573C11.6628 25.0238 10.3592 24.5556 9 24.5556V14.7778C9 14.3063 9.21598 13.8541 9.60043 13.5207C9.98488 13.1873 10.5063 13 11.05 13H33.6ZM37.7 13H47.95C48.4937 13 49.0151 13.1873 49.3996 13.5207C49.784 13.8541 50 14.3063 50 14.7778V24.5556C48.6408 24.5556 47.3372 25.0238 46.3761 25.8573C45.4149 26.6908 44.875 27.8213 44.875 29C44.875 30.1787 45.4149 31.3092 46.3761 32.1427C47.3372 32.9762 48.6408 33.4444 50 33.4444V43.2222C50 43.6937 49.784 44.1459 49.3996 44.4793C49.0151 44.8127 48.4937 45 47.95 45H37.7V13Z" fill="#FFCE1F"/>
</svg>
