<svg width="58" height="58" viewBox="0 0 58 58" fill="none" xmlns="http://www.w3.org/2000/svg">
<path d="M16.4 33.2H22.8575L33.305 22.7C33.62 22.385 33.8566 22.0259 34.0148 21.6227C34.173 21.2195 34.2514 20.8261 34.25 20.4425C34.2486 20.0589 34.1702 19.683 34.0148 19.3148C33.8594 18.9466 33.6403 18.605 33.3575 18.29L31.415 16.295C31.1 15.98 30.75 15.7441 30.365 15.5873C29.98 15.4305 29.5775 15.3514 29.1575 15.35C28.7725 15.35 28.3875 15.4291 28.0025 15.5873C27.6175 15.7455 27.2675 15.9814 26.9525 16.295L16.4 26.7425V33.2ZM29.105 22.49L27.11 20.5475L29.1575 18.5L31.1 20.495L29.105 22.49ZM27.32 33.2H41.6V29H31.52L27.32 33.2ZM8 50V12.2C8 11.045 8.4116 10.0566 9.2348 9.2348C10.058 8.413 11.0464 8.0014 12.2 8H45.8C46.955 8 47.9441 8.4116 48.7673 9.2348C49.5905 10.058 50.0014 11.0464 50 12.2V37.4C50 38.555 49.5891 39.5441 48.7673 40.3673C47.9455 41.1905 46.9564 41.6014 45.8 41.6H16.4L8 50Z" fill="#FFCE1F"/>
</svg>
