<svg width="58" height="58" viewBox="0 0 58 58" fill="none" xmlns="http://www.w3.org/2000/svg">
<path d="M16.5 15.25C16.5 13.5924 17.1585 12.0027 18.3306 10.8306C19.5027 9.65848 21.0924 9 22.75 9C24.4076 9 25.9973 9.65848 27.1694 10.8306C28.3415 12.0027 29 13.5924 29 15.25C29 13.5924 29.6585 12.0027 30.8306 10.8306C32.0027 9.65848 33.5924 9 35.25 9C36.9076 9 38.4973 9.65848 39.6694 10.8306C40.8415 12.0027 41.5 13.5924 41.5 15.25V15.265C41.5 15.44 41.5 15.94 41.405 16.5H46.5C47.163 16.5 47.7989 16.7634 48.2678 17.2322C48.7366 17.7011 49 18.337 49 19V21.5C49 22.163 48.7366 22.7989 48.2678 23.2678C47.7989 23.7366 47.163 24 46.5 24H11.5C10.837 24 10.2011 23.7366 9.73223 23.2678C9.26339 22.7989 9 22.163 9 21.5V19C9 18.337 9.26339 17.7011 9.73223 17.2322C10.2011 16.7634 10.837 16.5 11.5 16.5H16.595C16.5293 16.0917 16.4976 15.6786 16.5 15.265V15.25ZM19.17 16.5H26.5V15.25C26.5 14.7575 26.403 14.2699 26.2145 13.8149C26.0261 13.36 25.7499 12.9466 25.4017 12.5983C25.0534 12.2501 24.64 11.9739 24.1851 11.7855C23.7301 11.597 23.2425 11.5 22.75 11.5C22.2575 11.5 21.7699 11.597 21.3149 11.7855C20.86 11.9739 20.4466 12.2501 20.0983 12.5983C19.7501 12.9466 19.4739 13.36 19.2855 13.8149C19.097 14.2699 19 14.7575 19 15.25C19 15.4625 19.005 15.935 19.1125 16.325L19.17 16.5ZM31.5 16.5H38.83L38.8875 16.325C38.995 15.935 39 15.4625 39 15.25C39 14.2554 38.6049 13.3016 37.9017 12.5983C37.1984 11.8951 36.2446 11.5 35.25 11.5C34.2554 11.5 33.3016 11.8951 32.5983 12.5983C31.8951 13.3016 31.5 14.2554 31.5 15.25V16.5ZM46.5 26.5V45.25C46.5 46.2446 46.1049 47.1984 45.4016 47.9016C44.6984 48.6049 43.7446 49 42.75 49H31.5V26.5H46.5ZM15.25 49C14.2554 49 13.3016 48.6049 12.5983 47.9016C11.8951 47.1984 11.5 46.2446 11.5 45.25V26.5H26.5V49H15.25Z" fill="#FFCE1F"/>
</svg>
