<svg width="58" height="58" viewBox="0 0 58 58" fill="none" xmlns="http://www.w3.org/2000/svg">
<path d="M9 29.0422C9 26.2697 9.52337 23.6642 10.5701 21.2257C11.6169 18.7873 13.0362 16.6661 14.8281 14.8623C16.6201 13.0585 18.7289 11.6309 21.1544 10.5793C23.58 9.52778 26.1703 9.00134 28.9253 9C33.1428 9 36.904 10.1691 40.209 12.5074C43.5139 14.8456 45.9129 17.8687 47.406 21.5765C47.6384 22.1443 47.6471 22.7122 47.4319 23.28C47.2167 23.8479 46.8262 24.232 46.2603 24.4325C45.7289 24.5995 45.2228 24.5494 44.742 24.2821C44.2611 24.0149 43.9204 23.6141 43.7198 23.0796C42.9228 21.0754 41.7771 19.305 40.2827 17.7684C38.7883 16.2319 36.995 15.0461 34.9029 14.211V15.0126C34.9029 16.115 34.513 17.059 33.7332 17.8446C32.9535 18.6303 32.015 19.0224 30.9178 19.0211H26.9328V23.0295C26.9328 23.5974 26.7415 24.0737 26.3589 24.4585C25.9763 24.8433 25.5034 25.0351 24.9402 25.0337H20.9552V29.0422H22.9477C23.5122 29.0422 23.9858 29.2346 24.3684 29.6194C24.7509 30.0042 24.9416 30.4799 24.9402 31.0464V35.0548H22.9477L13.3836 25.4346C13.2839 26.0358 13.1929 26.6371 13.1106 27.2384C13.0282 27.8396 12.9864 28.4409 12.9851 29.0422C12.9851 33.1174 14.322 36.6749 16.996 39.7146C19.67 42.7543 23.032 44.508 27.0822 44.9757C27.6135 45.0425 28.0539 45.2683 28.4032 45.6531C28.7526 46.0379 28.9266 46.5136 28.9253 47.0801C28.924 47.6466 28.7327 48.123 28.3514 48.5091C27.9702 48.8953 27.5139 49.0536 26.9826 48.9841C21.9016 48.4831 17.6343 46.3452 14.1806 42.5706C10.7269 38.796 9 34.2865 9 29.0422ZM45.6625 46.6793L40.6812 41.6687C39.9838 42.0696 39.2366 42.4036 38.4396 42.6708C37.6426 42.9381 36.7958 43.0717 35.8991 43.0717C33.4085 43.0717 31.2917 42.1952 29.5489 40.4421C27.8061 38.6891 26.9341 36.5593 26.9328 34.0527C26.9314 31.5461 27.8035 29.4169 29.5489 27.6653C31.2944 25.9136 33.4111 25.0364 35.8991 25.0337C38.3871 25.0311 40.5045 25.9082 42.2513 27.6653C43.9981 29.4223 44.8695 31.5514 44.8655 34.0527C44.8655 34.9546 44.7327 35.8064 44.467 36.6081C44.2013 37.4098 43.8692 38.1613 43.4707 38.8628L48.4521 43.8734C48.8173 44.2408 49 44.7084 49 45.2763C49 45.8442 48.8173 46.3118 48.4521 46.6793C48.0868 47.0467 47.6218 47.2304 47.0573 47.2304C46.4927 47.2304 46.0278 47.0467 45.6625 46.6793ZM35.8991 39.0632C37.2939 39.0632 38.4728 38.5789 39.4359 37.6102C40.3989 36.6415 40.8804 35.4557 40.8804 34.0527C40.8804 32.6497 40.3989 31.4639 39.4359 30.4952C38.4728 29.5265 37.2939 29.0422 35.8991 29.0422C34.5044 29.0422 33.3254 29.5265 32.3624 30.4952C31.3993 31.4639 30.9178 32.6497 30.9178 34.0527C30.9178 35.4557 31.3993 36.6415 32.3624 37.6102C33.3254 38.5789 34.5044 39.0632 35.8991 39.0632Z" fill="#FFCE1F"/>
</svg>
