<svg xmlns="http://www.w3.org/2000/svg" width="26" height="26" viewBox="0 0 26 26" fill="none">
  <g clip-path="url(#clip0_382_861)">
    <path d="M3.44993 1.99512H22.2201C23.7041 1.99512 24.8672 3.15225 24.8672 4.58869V16.4792C24.8672 17.9157 23.7041 19.0728 22.2201 19.0728H19.4527V23.5417L15.2816 19.0728H3.40982C1.96596 19.0728 0.762743 17.9157 0.762743 16.4792V4.58869C0.802851 3.15225 1.96596 1.99512 3.44993 1.99512Z" fill="#8A8A8A"/>
    <path d="M19.252 12.2096C18.3217 12.2096 17.5675 11.4593 17.5675 10.5338C17.5675 9.60821 18.3217 8.85791 19.252 8.85791C20.1823 8.85791 20.9365 9.60821 20.9365 10.5338C20.9365 11.4593 20.1823 12.2096 19.252 12.2096Z" fill="#FFFDED"/>
    <path d="M12.835 12.2096C11.9047 12.2096 11.1505 11.4593 11.1505 10.5338C11.1505 9.60821 11.9047 8.85791 12.835 8.85791C13.7654 8.85791 14.5195 9.60821 14.5195 10.5338C14.5195 11.4593 13.7654 12.2096 12.835 12.2096Z" fill="#FFFDED"/>
    <path d="M6.41804 12.2096C5.48771 12.2096 4.73353 11.4593 4.73353 10.5338C4.73353 9.60821 5.48771 8.85791 6.41804 8.85791C7.34836 8.85791 8.10254 9.60821 8.10254 10.5338C8.10254 11.4593 7.34836 12.2096 6.41804 12.2096Z" fill="#FFFDED"/>
  </g>
  <defs>
    <clipPath id="clip0_382_861">
      <rect width="25.6686" height="25.5367" fill="white" transform="matrix(-1 0 0 1 25.6689 0)"/>
    </clipPath>
  </defs>
</svg>