<svg width="308" height="328" viewBox="0 0 308 328" fill="none" xmlns="http://www.w3.org/2000/svg">
<g clip-path="url(#clip0_121_686)">
<path opacity="0.4" d="M66.6804 328C103.507 328 133.361 323.024 133.361 316.886C133.361 310.748 103.507 305.771 66.6804 305.771C29.8538 305.771 0 310.748 0 316.886C0 323.024 29.8538 328 66.6804 328Z" fill="#CEC158"/>
<path d="M82.6201 314.981C82.6201 316.156 81.6675 317.14 80.4609 317.14C79.2543 317.14 78.3018 316.187 78.3018 314.981C78.3018 313.774 79.2543 312.821 80.4609 312.821C81.6675 312.821 82.6201 313.774 82.6201 314.981Z" fill="#2D2C2C"/>
<path d="M80.4609 311.392H81.5723C81.9533 311.392 82.1756 311.805 81.9851 312.122L81.4135 313.107L80.842 314.06C80.6515 314.377 80.1752 314.377 79.9847 314.06L79.4131 313.107L78.8416 312.122C78.6511 311.805 78.9051 311.392 79.2543 311.392H80.3657H80.4609Z" fill="#2D2C2C"/>
<path d="M111.578 309.296L97.7021 253.312C97.4799 252.359 96.5908 251.692 95.6064 251.692H63.6951C62.298 251.692 61.2819 252.994 61.5994 254.36L75.4753 310.344C75.6976 311.297 76.5867 311.964 77.571 311.964H109.482C110.879 311.964 111.896 310.662 111.578 309.296Z" fill="#FC5B35"/>
<path d="M97.9245 260.266H77.9521L69.0614 224.319C68.6486 222.7 69.8869 221.112 71.5698 221.112H86.2078C87.3826 221.112 88.4305 221.937 88.7162 223.081L97.9245 260.266ZM79.0634 258.869H96.1463L87.6366 224.478C87.3509 223.335 86.303 222.509 85.1282 222.509H73.3797C71.6968 222.509 70.4585 224.097 70.8713 225.716L79.0634 258.837V258.869Z" fill="#4073A2"/>
<path d="M93.3203 314.981C93.3203 316.156 92.3677 317.14 91.1611 317.14C89.9545 317.14 89.002 316.187 89.002 314.981C89.002 313.774 89.9545 312.821 91.1611 312.821C92.3677 312.821 93.3203 313.774 93.3203 314.981Z" fill="#2D2C2C"/>
<path d="M91.1615 311.392H92.2728C92.6539 311.392 92.8761 311.805 92.6856 312.122L92.1141 313.107L91.5425 314.06C91.352 314.377 90.8757 314.377 90.6852 314.06L90.1137 313.107L89.5421 312.122C89.3516 311.805 89.5739 311.392 89.9549 311.392H91.0662H91.1615Z" fill="#2D2C2C"/>
<path d="M116.595 314.981C116.595 316.156 115.642 317.14 114.436 317.14C113.229 317.14 112.276 316.187 112.276 314.981C112.276 313.774 113.229 312.821 114.436 312.821C115.642 312.821 116.595 313.774 116.595 314.981Z" fill="#2D2C2C"/>
<path d="M114.436 311.392H115.547C115.928 311.392 116.151 311.805 115.96 312.122L115.388 313.107L114.817 314.06C114.626 314.377 114.15 314.377 113.96 314.06L113.388 313.107L112.817 312.122C112.626 311.805 112.848 311.392 113.229 311.392H114.341H114.436Z" fill="#2D2C2C"/>
<path d="M120.31 309.296L106.435 253.312C106.212 252.359 105.323 251.692 104.339 251.692H72.4275C71.0304 251.692 70.0143 252.994 70.3319 254.36L84.2077 310.344C84.43 311.297 85.3191 311.964 86.3034 311.964H118.215C119.612 311.964 120.628 310.662 120.31 309.296Z" fill="#FAAC40"/>
<path d="M85.8583 223.811H71.4743C71.0933 223.811 70.7758 223.557 70.6805 223.176L70.2042 221.144C70.0772 220.636 70.4583 220.159 70.998 220.159H85.382C85.763 220.159 86.0805 220.413 86.1758 220.794L86.6521 222.827C86.7791 223.335 86.398 223.811 85.8583 223.811Z" fill="#2D2C2C"/>
<path d="M79.3495 306.629C77.4761 299.42 75.6345 292.18 73.7611 284.971C71.8877 277.763 70.046 270.523 68.1726 263.314C67.6646 261.346 67.1565 259.345 66.6485 257.376C66.2357 255.757 65.8864 253.851 66.8708 252.359C67.0613 252.073 66.2357 251.978 66.0452 252.232C65.2196 253.534 65.3149 255.09 65.6007 256.551C65.9499 258.297 66.458 260.012 66.9025 261.758C67.8233 265.378 68.7759 269.03 69.6968 272.65C71.5702 279.922 73.4436 287.226 75.317 294.498C76.3648 298.594 77.4126 302.659 78.4605 306.756C78.524 307.041 79.3813 306.978 79.286 306.629H79.3495Z" fill="#FAAC40"/>
<path d="M111.324 297.07C111.324 296.784 111.228 296.499 111.006 296.308C110.403 295.705 109.323 295.864 108.72 296.372C108.244 296.784 107.958 297.356 107.799 297.991C107.386 297.578 106.91 297.229 106.37 297.007C105.926 296.816 105.354 296.689 104.91 296.975C104.497 297.229 104.37 297.801 104.433 298.245C104.56 299.325 105.45 300.246 106.18 301.008C106.593 301.452 107.037 301.865 107.482 302.278C107.926 302.659 108.339 303.072 108.847 303.358C109.038 303.453 109.45 303.485 109.546 303.262C110.054 302.246 110.466 301.198 110.847 300.15C111.165 299.23 111.673 298.086 111.324 297.102V297.07Z" fill="white"/>
<path d="M92.0181 279.764C92.0181 279.478 91.9228 279.192 91.7005 279.001C91.0972 278.398 90.0177 278.557 89.4144 279.065C88.9381 279.478 88.6523 280.049 88.4935 280.684C88.0808 280.272 87.6045 279.922 87.0647 279.7C86.6201 279.51 86.0486 279.383 85.6041 279.668C85.1913 279.922 85.0643 280.494 85.1278 280.939C85.2548 282.018 86.1439 282.939 86.8742 283.701C87.2869 284.146 87.7315 284.559 88.176 284.971C88.6206 285.353 89.0333 285.765 89.5414 286.051C89.7319 286.146 90.1447 286.178 90.2399 285.956C90.748 284.94 91.1608 283.892 91.5418 282.844C91.8593 281.923 92.3674 280.78 92.0181 279.795V279.764Z" fill="white"/>
<path d="M106.942 260.044C106.942 259.758 106.847 259.472 106.624 259.282C106.021 258.678 104.941 258.837 104.338 259.345C103.862 259.758 103.576 260.33 103.417 260.965C103.005 260.552 102.528 260.203 101.988 259.98C101.544 259.79 100.972 259.663 100.528 259.949C100.115 260.203 99.9881 260.774 100.052 261.219C100.179 262.298 101.068 263.219 101.798 263.981C102.211 264.426 102.655 264.839 103.1 265.252C103.544 265.633 103.957 266.046 104.465 266.331C104.656 266.427 105.068 266.458 105.164 266.236C105.672 265.22 106.085 264.172 106.466 263.124C106.783 262.203 107.291 261.06 106.942 260.076V260.044Z" fill="white"/>
<path d="M81.604 256.36C81.604 256.074 81.5088 255.789 81.2865 255.598C80.6832 254.995 79.6036 255.154 79.0003 255.662C78.524 256.074 78.2382 256.646 78.0795 257.281C77.6667 256.868 77.1904 256.519 76.6506 256.297C76.2061 256.106 75.6345 255.979 75.19 256.265C74.7772 256.519 74.6502 257.091 74.7137 257.535C74.8407 258.615 75.7298 259.536 76.4601 260.298C76.8729 260.742 77.3174 261.155 77.7619 261.568C78.2065 261.949 78.6193 262.362 79.1273 262.648C79.3178 262.743 79.7306 262.775 79.8259 262.553C80.3339 261.536 80.7467 260.488 81.1277 259.441C81.4452 258.52 81.9533 257.376 81.604 256.392V256.36Z" fill="white"/>
<path d="M76.3646 213.967C78.5556 215.364 80.81 216.793 82.4611 218.794C83.0644 219.556 83.0009 220.731 83.0327 221.684C83.0327 222.065 83.0327 222.414 82.9692 222.795C82.8739 223.176 82.6834 223.684 82.3024 223.875C81.9531 224.065 81.4451 224.161 81.191 223.779C81.1275 223.684 81.064 223.557 81.0323 223.462C81.0005 223.335 80.937 223.208 80.9053 223.049C80.8735 223.398 80.5877 223.684 80.302 223.938C80.0162 224.192 79.5399 224.319 79.1906 224.097C79.0319 224.002 78.9366 223.843 78.8096 223.684C78.6191 224.034 78.2698 224.319 77.8888 224.383C77.476 224.446 77.0632 224.319 76.7774 224.034C76.3647 224.288 75.8249 224.351 75.3486 224.256C74.9358 224.192 74.2372 223.97 74.5865 223.462C74.8088 223.144 74.9358 222.89 74.8088 222.477C74.7135 222.223 74.5548 222.001 74.3642 221.811C74.0467 221.461 73.7609 221.334 73.3799 221.144C72.9989 220.985 72.5861 220.731 72.3321 220.413C71.8875 219.874 71.6653 219.048 71.5065 218.381C71.316 217.524 71.189 216.666 71.1572 215.777C71.1572 215.491 71.1572 215.142 71.3477 214.952C71.6335 214.666 72.3321 214.539 72.7131 214.38C73.7292 213.904 75.2851 213.332 76.3646 213.999V213.967Z" fill="#F7967C"/>
<path d="M81.2224 220.223C81.2224 220.223 80.8096 220.064 80.8096 220.223C80.8731 220.985 80.8413 221.747 80.8096 222.509C80.8096 222.668 81.1906 222.668 81.2224 222.509C81.2859 221.747 81.3176 220.985 81.2224 220.223Z" fill="#DB634F"/>
<path d="M79.3811 220.35C79.3811 220.35 78.9683 220.191 78.9683 220.35C79.0636 221.271 79.0318 222.192 78.873 223.081C78.873 223.208 79.2541 223.24 79.2858 223.081C79.4128 222.16 79.4446 221.271 79.3811 220.35Z" fill="#DB634F"/>
<path d="M77.1267 222.35C77.095 221.842 77.0315 221.334 76.9362 220.826C76.9362 220.667 76.5234 220.699 76.5234 220.826C76.6187 221.303 76.6822 221.779 76.714 222.287C76.7457 222.732 76.8092 223.24 76.6187 223.652C76.5552 223.811 76.9362 223.843 76.9997 223.716C77.1902 223.271 77.1267 222.795 77.095 222.35H77.1267Z" fill="#DB634F"/>
<path d="M79.1586 212.57C78.9363 212.125 78.7458 211.681 78.5553 211.204C78.1742 210.41 77.7932 209.648 77.4122 208.886C76.3326 206.758 75.4118 204.567 74.5227 202.344C72.8715 198.312 71.3474 194.247 69.8868 190.15C69.22 188.277 68.5532 186.435 67.8864 184.562C67.7911 184.562 67.6641 184.625 67.5689 184.657C64.3936 185.705 61.5994 187.642 58.8687 189.547C57.1223 190.786 56.4237 191.77 56.7095 193.898C56.9635 195.835 57.9478 197.518 58.8687 199.201C60.4563 202.122 61.8217 205.171 63.187 208.219C64.8064 211.839 66.1718 215.713 68.3309 219.016C68.6167 219.461 68.9977 219.937 69.5375 220.032C69.9821 220.096 70.4266 219.873 70.8394 219.651C73.2526 218.286 75.507 216.603 78.079 215.555C78.6188 215.332 79.1586 215.142 79.6031 214.761C79.6984 214.665 79.7936 214.57 79.8889 214.443C79.6984 213.808 79.4761 213.173 79.1903 212.57H79.1586Z" fill="#4073A2"/>
<path d="M69.8552 190.15C68.3628 186.054 66.9022 181.989 65.7273 177.798C65.124 175.702 64.5842 173.606 64.0444 171.51C63.5046 169.383 62.8061 167.287 62.1393 165.159C61.4725 163.095 60.8692 161.063 60.3611 158.967C60.1071 157.855 59.8531 156.744 59.5356 155.632C59.4403 155.442 59.345 155.283 59.218 155.124C57.9797 153.156 55.4395 149.821 52.804 150.107C48.8349 150.52 50.5178 160.078 50.7084 162.555C51.1529 168.335 51.5974 174.178 53.1215 179.798C54.2646 184.053 55.9793 188.118 57.8209 192.088C58.1702 192.818 58.6782 194.977 59.4403 195.263C59.9166 195.454 60.4564 195.358 60.9644 195.231C63.8539 194.533 66.6481 193.358 69.2201 191.833C69.4424 191.706 69.8234 191.484 70.2044 191.23C70.0774 190.881 69.9504 190.532 69.8234 190.214L69.8552 190.15Z" fill="#4073A2"/>
<path d="M46.6756 139.628C46.5486 140.581 46.3581 141.501 46.1675 142.454C45.977 143.439 45.7548 144.391 45.5642 145.376C45.5007 145.598 45.469 145.82 45.4372 146.074C45.215 147.154 44.9927 148.234 44.7704 149.313C44.5482 150.456 44.3894 151.187 43.2145 151.441C41.9444 151.727 40.5156 151.695 39.2137 151.6C36.483 151.409 33.8158 150.679 31.1486 149.948C30.5453 149.79 29.8785 149.567 29.4974 149.059C28.9576 148.265 29.3387 147.217 29.7197 146.36C30.7675 144.042 32.2599 141.628 32.9267 139.183C33.4665 137.31 33.276 135.277 34.2286 133.499C34.8636 132.324 35.7844 131.657 37.0545 132.229C37.6896 132.515 38.6422 133.531 39.4677 134.007C39.7218 134.166 39.944 134.229 40.1663 134.229C40.4203 134.325 40.7061 134.388 40.9919 134.42C41.5317 134.484 42.0715 134.484 42.516 134.769C42.7383 134.896 42.9288 135.15 43.151 135.309C43.5003 135.531 43.8813 135.722 44.2624 135.913C44.7704 136.198 45.2785 136.452 45.723 136.833C46.1675 137.214 46.5168 137.691 46.6438 138.262C46.7391 138.739 46.6756 139.215 46.6121 139.691L46.6756 139.628Z" fill="#F7967C"/>
<path d="M46.6758 139.628C46.5488 140.58 46.3583 141.501 46.1678 142.454C45.882 142.391 45.5645 142.295 45.3739 142.232C44.8341 142.041 44.3261 141.787 43.8498 141.501C42.929 140.962 42.1034 140.295 41.5001 139.437C40.7063 138.326 39.722 135.404 41.0556 134.356C41.5954 134.42 42.1352 134.42 42.5797 134.706C42.802 134.833 42.9925 135.087 43.2148 135.246C43.564 135.468 43.9451 135.658 44.3261 135.849C44.8341 136.135 45.3422 136.389 45.7867 136.77C46.2313 137.151 46.5805 137.627 46.7075 138.199C46.8028 138.675 46.7393 139.151 46.6758 139.628Z" fill="#DB634F"/>
<path d="M38.6742 110.349C37.7216 110.413 36.769 110.572 35.8482 110.826C34.6416 111.112 33.4668 111.524 32.2919 111.905C30.9901 112.318 29.4342 112.668 28.2911 113.43C27.4973 113.938 26.894 114.954 26.2907 115.684C24.6078 117.748 23.4329 120.225 22.9566 122.829C22.3534 126.036 22.6709 130.069 24.4808 132.864C26.2589 135.627 29.2119 137.818 32.3237 138.834C33.054 139.056 33.562 138.897 34.2923 138.929C35.2767 138.929 36.134 139.437 37.1183 139.596C38.3249 139.787 39.5315 139.945 40.7381 140.009C43.2148 140.168 45.6915 140.104 48.1364 139.755C49.7876 139.532 51.4387 139.215 52.8676 138.389C53.5344 138.008 54.2964 137.468 54.5505 136.706C54.7092 136.23 54.741 135.69 54.741 135.15C54.741 133.88 54.6457 132.61 54.487 131.34C54.36 130.323 53.9154 129.149 54.1694 128.132C54.5187 126.672 55.6301 124.989 53.8519 124.036C52.7406 123.464 51.5022 123.274 50.4861 122.48C49.5653 121.75 48.835 120.67 48.5175 119.558C48.1364 118.32 48.1682 117.05 47.6284 115.843C47.1521 114.732 46.4218 113.715 45.5327 112.89C43.8181 111.27 41.4684 110.318 39.087 110.349C38.96 110.349 38.8012 110.349 38.6742 110.349Z" fill="#F7967C"/>
<path d="M47.4699 119.305C47.4699 119.305 47.3429 119.273 47.2794 119.241C44.7074 119.051 43.0563 121.337 42.707 123.623C42.707 123.655 42.707 123.719 42.707 123.75C42.7388 123.814 42.834 123.814 42.8975 123.782C42.9611 123.75 42.9928 123.687 43.0563 123.623C44.0406 122.258 45.3107 121.051 46.8984 120.448C47.1841 120.353 47.4699 120.257 47.6287 120.003C47.8509 119.717 47.7557 119.368 47.4699 119.241V119.305Z" fill="#FC5B35"/>
<path d="M48.644 124.766C48.644 124.449 48.5487 124.131 48.4535 123.877C48.3265 123.591 48.1677 123.305 47.9772 123.147C47.8184 123.02 47.5962 122.988 47.4057 122.988C47.2469 122.988 47.0246 123.083 46.9294 123.274C46.7706 123.528 46.8341 123.94 46.8659 124.258C46.9294 124.576 46.9929 124.893 47.1199 125.147C47.3422 125.56 47.6597 125.719 48.009 125.687C48.2947 125.655 48.6758 125.433 48.644 124.988C48.644 124.988 48.644 124.957 48.644 124.925C48.644 124.861 48.644 124.798 48.644 124.734V124.766Z" fill="#2D2C2C"/>
<path d="M52.2959 130.927C52.2959 130.927 52.0102 130.863 51.8832 130.927C50.9941 131.34 50.0098 131.022 49.1207 130.768C48.9937 130.736 48.8349 130.736 48.7397 130.832C48.6444 130.927 48.7397 131.022 48.8349 131.054C49.9462 131.403 51.1528 131.689 52.2642 131.181C52.3594 131.117 52.3594 131.022 52.2642 130.959L52.2959 130.927Z" fill="#DB634F"/>
<path d="M46.136 231.273C44.6754 231.273 43.2466 231.559 41.9129 232.163C39.9125 233.115 38.1026 234.989 37.2771 237.053C36.4515 239.244 37.3406 242.229 37.5628 244.515C38.1026 250.39 38.4519 256.297 38.0709 262.203C37.9121 264.362 37.6899 266.522 37.5311 268.681C37.0548 276.239 37.8486 283.797 38.8012 291.291C39.722 298.372 39.722 305.676 40.103 312.821C40.103 313.043 40.103 313.234 40.2301 313.424C40.3571 313.583 40.5476 313.71 40.7381 313.774C41.9764 314.282 43.5641 314.345 44.7707 313.71C45.5962 313.265 46.9299 312.694 47.4696 311.9C48.1682 310.884 47.9777 308.852 48.1047 307.645C48.1682 307.041 48.2317 306.406 48.2952 305.803C50.7084 283.352 54.2964 261.25 53.9472 238.577C53.9472 237.18 53.8837 235.719 53.1851 234.481C52.3913 233.052 50.8037 232.194 49.2478 231.718C48.2317 231.432 47.1521 231.273 46.1043 231.273H46.136Z" fill="#F7967C"/>
<path d="M53.2811 316.377C52.5508 316.822 51.8205 316.6 51.0267 316.6H41.4056C40.8341 316.6 38.9289 316.854 38.6432 316.346C38.5162 316.092 38.5162 315.774 38.5479 315.457C38.6114 314.663 38.7384 313.869 38.8654 313.107C38.8654 312.98 38.8972 312.821 38.9289 312.694C39.056 311.836 39.5957 311.201 40.3578 310.884C40.5801 310.789 40.8341 310.725 41.0881 310.693C41.6279 310.63 42.1677 310.693 42.7075 310.852C42.9298 310.916 43.152 310.979 43.3743 311.011C43.5013 311.043 43.5966 311.074 43.7236 311.106C44.5809 311.328 45.5652 311.455 46.359 311.043C47.0259 310.693 47.5339 309.963 48.3595 310.407C49.0898 310.82 49.9153 311.519 50.5821 312.059C51.2172 312.599 51.8205 313.234 52.5508 313.678C52.9636 313.932 53.4399 314.155 53.7574 314.536C54.3607 315.234 54.0432 315.965 53.3446 316.409L53.2811 316.377Z" fill="#FAAC40"/>
<path d="M41.0877 310.693C40.5479 312.503 40.3257 314.377 40.4209 316.251C40.4209 316.505 39.7541 316.505 39.7541 316.251C39.6589 314.44 39.8494 312.63 40.3574 310.884C40.5797 310.789 40.8337 310.725 41.0877 310.693Z" fill="#FC5B35"/>
<path d="M43.3422 311.011C43.1835 312.853 43.0882 314.694 43.0247 316.505C43.0247 316.536 43.0247 316.568 42.9929 316.6C42.8659 316.727 42.5167 316.727 42.3896 316.6C42.3896 316.6 42.3896 316.536 42.3896 316.505C42.4532 314.599 42.5802 312.726 42.7389 310.82C42.9612 310.884 43.1835 310.947 43.4057 310.979L43.3422 311.011Z" fill="#FC5B35"/>
<path d="M55.1859 316.695C55.0906 317.171 54.5508 317.108 53.9158 317.108H38.1983C38.1983 317.108 38.1348 317.108 38.1348 317.044C38.1348 315.837 38.2618 315.552 39.5001 315.552C40.8972 315.552 42.2944 315.552 43.6915 315.552H48.6766C49.7245 315.552 50.7723 315.679 51.8519 315.647C52.8362 315.647 53.757 315.298 54.7414 315.647C55.2494 315.806 55.2812 316.25 55.2176 316.695H55.1859Z" fill="#FC5B35"/>
<path d="M25.8782 231.273C24.4176 231.273 22.9887 231.559 21.6551 232.163C19.6547 233.115 17.8448 234.989 17.0193 237.053C16.1937 239.244 17.0828 242.229 17.305 244.515C17.8448 250.39 18.1941 256.297 17.8131 262.203C17.6543 264.362 17.432 266.522 17.2733 268.681C16.797 276.239 17.5908 283.797 18.5434 291.291C19.4642 298.372 19.4642 305.676 19.8452 312.821C19.8452 313.043 19.8452 313.234 19.9722 313.424C20.0993 313.615 20.2898 313.71 20.4803 313.774C21.7186 314.282 23.3063 314.345 24.5129 313.71C25.3384 313.265 26.672 312.694 27.2118 311.9C27.9104 310.884 27.7199 308.852 27.8469 307.645C27.9104 307.041 27.9739 306.406 28.0374 305.803C30.4506 283.352 34.0386 261.25 33.6894 238.577C33.6894 237.18 33.6259 235.719 32.9273 234.481C32.1335 233.052 30.5459 232.194 28.99 231.718C27.9739 231.432 26.8943 231.273 25.8465 231.273H25.8782Z" fill="#F7967C"/>
<path d="M33.0228 316.377C32.2925 316.822 31.5622 316.6 30.7366 316.6H21.1156C20.5441 316.6 18.6389 316.854 18.3531 316.346C18.2261 316.092 18.2261 315.774 18.2579 315.457C18.3214 314.663 18.4484 313.869 18.5754 313.107C18.5754 312.98 18.6072 312.821 18.6389 312.694C18.7659 311.836 19.3057 311.201 20.0678 310.884C20.29 310.789 20.5441 310.725 20.7981 310.693C21.3379 310.63 21.8777 310.693 22.4175 310.852C22.6397 310.916 22.862 310.979 23.0843 311.011C23.2113 311.043 23.3065 311.074 23.4335 311.106C24.2909 311.328 25.2752 311.455 26.069 311.043C26.7358 310.693 27.2439 309.963 28.0694 310.407C28.7997 310.82 29.6253 311.519 30.2921 312.059C30.9272 312.599 31.5305 313.234 32.2608 313.678C32.6735 313.932 33.1498 314.155 33.4674 314.536C34.0707 315.234 33.7531 315.965 33.0546 316.409L33.0228 316.377Z" fill="#FAAC40"/>
<path d="M20.7977 310.693C20.2579 312.503 20.0356 314.377 20.1309 316.251C20.1309 316.505 19.4641 316.505 19.4641 316.251C19.3688 314.44 19.5594 312.63 20.0674 310.884C20.2897 310.789 20.5437 310.725 20.7977 310.693Z" fill="#FC5B35"/>
<path d="M23.0834 311.011C22.9247 312.853 22.8294 314.694 22.7659 316.505C22.7659 316.536 22.7659 316.568 22.7342 316.6C22.6071 316.727 22.2579 316.727 22.1309 316.6C22.1309 316.6 22.1309 316.536 22.1309 316.505C22.1944 314.599 22.3214 312.726 22.4801 310.82C22.7024 310.884 22.9247 310.947 23.1469 310.979L23.0834 311.011Z" fill="#FC5B35"/>
<path d="M34.8959 316.695C34.8006 317.171 34.2608 317.108 33.6258 317.108H17.9082C17.9082 317.108 17.8447 317.108 17.8447 317.044C17.8447 315.837 17.9717 315.552 19.2101 315.552C20.6072 315.552 22.0043 315.552 23.4014 315.552H28.3866C29.4344 315.552 30.4823 315.679 31.5618 315.647C32.5462 315.647 33.467 315.298 34.4513 315.647C34.9594 315.806 34.9911 316.25 34.9276 316.695H34.8959Z" fill="#FC5B35"/>
<path d="M7.62049 181.799C7.30296 183.418 7.01719 185.038 6.79492 186.657C5.9376 192.786 7.62049 204.821 16.924 201.773C18.3529 201.297 19.5912 200.344 20.639 199.264C24.3858 195.358 25.9735 189.865 26.672 184.498C27.3388 179.513 27.3706 174.4 26.164 169.51C25.5289 166.969 24.0366 164.842 23.1793 162.428C22.5442 160.65 21.9091 152.298 18.2258 154.204C17.3368 154.648 16.8287 155.601 16.3842 156.49C12.5104 164.365 9.39863 173.066 7.62049 181.799Z" fill="#4073A2"/>
<path d="M14.2886 256.456H59.028C58.901 246.103 58.774 235.751 58.6469 225.399C58.6152 222.986 58.5834 220.572 58.3612 218.159C58.2659 216.952 58.1707 215.65 57.8849 214.475C57.6309 213.395 56.9323 213.268 55.8527 213.078C55.0907 212.951 54.2968 212.919 53.5983 212.919C47.2795 212.824 40.9608 212.856 34.642 212.983H33.9752C33.5624 212.983 33.1814 213.014 32.7686 213.014C32.3876 213.014 31.9748 213.014 31.5937 213.046C31.3715 213.046 31.1492 213.046 30.9269 213.046C28.0057 213.141 25.0845 213.268 22.1632 213.427C20.4803 213.523 18.734 213.459 17.0511 213.713C15.2729 213.999 15.2729 214.094 15.0507 215.841C13.209 228.892 13.3678 242.991 14.3521 256.17C14.3521 256.233 14.3521 256.329 14.3521 256.392L14.2886 256.456Z" fill="#FAAC40"/>
<path d="M34.7382 243.246C34.9287 247.66 35.1192 252.074 35.3415 256.488H36.0083C35.9765 255.852 35.9448 255.249 35.913 254.614C35.4685 245.977 35.1509 237.339 34.9287 228.702C34.8017 223.462 34.6746 218.254 34.6111 213.015H33.9443C33.9443 214.475 33.9761 215.904 34.0078 217.333C34.1349 225.971 34.3889 234.608 34.7382 243.246Z" fill="#FC5B35"/>
<path d="M32.0068 242.579L32.5466 256.456H33.2134L33.1182 254.392C32.7689 245.437 32.4196 236.482 32.1021 227.527C31.9116 222.732 31.7211 217.905 31.5623 213.11C31.34 213.11 31.1178 213.11 30.8955 213.11C30.9273 213.967 30.959 214.856 30.9908 215.714C31.34 224.669 31.6893 233.624 32.0068 242.579Z" fill="#FC5B35"/>
<path d="M17.4643 256.456C16.4165 256.392 15.3687 256.297 14.2891 256.233C14.2891 256.297 14.2891 256.392 14.2891 256.456H17.4326H17.4643Z" fill="#4073A2"/>
<path d="M50.2327 218.762C50.2327 218.762 50.2327 218.73 50.2327 218.699C50.1692 218.445 49.4072 218.476 49.4072 218.762C49.4072 218.826 49.4072 218.921 49.4072 218.984C49.4072 218.984 49.4072 218.984 49.4072 219.016C49.3754 219.08 49.4072 219.143 49.4072 219.175C49.4072 220.35 49.4072 221.493 49.3437 222.668C49.3437 223.303 49.3119 223.97 49.2802 224.605C49.2802 224.923 49.2484 225.24 49.2167 225.59C49.2167 225.875 49.2484 226.32 49.0262 226.542C48.8356 226.733 48.5816 226.891 48.3593 227.05C48.1053 227.241 47.8831 227.4 47.6608 227.59C47.1845 227.971 46.74 228.352 46.2637 228.733C45.4699 229.432 44.7078 230.162 43.9775 230.924C42.5169 229.559 40.7705 228.543 39.0876 227.495C38.8971 227.368 38.5796 227.241 38.4208 227.05C38.2303 226.828 38.3255 226.352 38.3255 226.098C38.3255 225.462 38.3255 224.827 38.3255 224.192C38.3255 222.89 38.3255 221.62 38.3255 220.318C38.3255 220.001 37.5 220.001 37.4682 220.318C37.4682 221.62 37.4365 222.954 37.4682 224.256C37.4682 224.923 37.4682 225.558 37.4682 226.225C37.4682 226.479 37.4365 226.796 37.5317 227.05C37.627 227.304 37.881 227.431 38.0715 227.558C39.9767 228.797 42.0088 229.876 43.6282 231.528C43.787 231.687 44.1998 231.687 44.3585 231.528C45.2158 230.639 46.1049 229.749 47.0257 228.956C47.502 228.543 48.0101 228.13 48.5181 227.717C48.7404 227.527 48.9944 227.336 49.2484 227.177C49.4707 227.018 49.7247 226.86 49.8835 226.637C50.0422 226.415 50.0105 226.129 50.0422 225.875C50.0422 225.558 50.074 225.24 50.1057 224.891C50.1375 224.224 50.1692 223.557 50.201 222.859C50.2328 221.588 50.2645 220.286 50.2645 219.016C50.2645 218.921 50.2645 218.857 50.2645 218.762H50.2327Z" fill="#FC5B35"/>
<path d="M28.8949 218.762C28.8949 218.762 28.8949 218.73 28.8949 218.699C28.8314 218.445 28.0693 218.476 28.0693 218.762C28.0693 218.826 28.0693 218.921 28.0693 218.984C28.0693 218.984 28.0693 218.984 28.0693 219.016C28.0375 219.08 28.0693 219.143 28.0693 219.175C28.0693 220.35 28.0693 221.493 28.0058 222.668C28.0058 223.303 27.974 223.97 27.9423 224.605C27.9423 224.923 27.9105 225.24 27.8788 225.59C27.8788 225.875 27.9105 226.32 27.6883 226.542C27.4977 226.733 27.2437 226.891 27.0215 227.05C26.7674 227.241 26.5452 227.4 26.3229 227.59C25.8466 227.971 25.4021 228.352 24.9258 228.733C24.132 229.432 23.3699 230.162 22.6396 230.924C21.179 229.559 19.4326 228.543 17.7497 227.495C17.5592 227.368 17.2417 227.241 17.0829 227.05C16.8924 226.828 16.9876 226.352 16.9876 226.098C16.9876 225.462 16.9876 224.827 16.9876 224.192C16.9876 222.89 16.9876 221.62 16.9876 220.318C16.9876 220.001 16.1621 220.001 16.1303 220.318C16.1303 221.62 16.0986 222.954 16.1303 224.256C16.1303 224.923 16.1303 225.558 16.1303 226.225C16.1303 226.479 16.0986 226.796 16.1938 227.05C16.2891 227.304 16.5431 227.431 16.7336 227.558C18.6388 228.797 20.6709 229.876 22.2903 231.528C22.4491 231.687 22.8619 231.687 23.0206 231.528C23.878 230.639 24.767 229.749 25.6878 228.956C26.1641 228.543 26.6722 228.13 27.1802 227.717C27.4025 227.527 27.6565 227.336 27.9105 227.177C28.1328 227.018 28.3868 226.86 28.5456 226.637C28.7043 226.415 28.6726 226.129 28.7043 225.875C28.7043 225.558 28.7361 225.24 28.7679 224.891C28.7996 224.224 28.8314 223.557 28.8631 222.859C28.8949 221.588 28.9266 220.286 28.9266 219.016C28.9266 218.921 28.9266 218.857 28.9266 218.762H28.8949Z" fill="#FC5B35"/>
<path d="M13.0819 221.239C13.0819 221.239 13.0819 221.144 13.0819 221.08C11.2085 209.204 10.6687 197.073 12.034 185.133C13.0184 176.528 13.4629 167.922 15.8444 159.507C17.0827 155.061 18.9244 150.838 21.9726 147.313C23.9095 145.058 26.799 143.979 29.6567 143.915C35.2769 143.82 41.0559 143.756 46.2316 145.947C47.5652 146.519 48.8035 147.218 50.0736 147.916C52.6456 149.345 55.0588 150.425 56.6464 152.965C58.0753 155.252 58.0435 158.11 58.2976 160.714C59.1231 169.954 59.0596 179.227 59.1549 188.499C59.2184 193.167 59.5041 197.677 59.4724 202.345C59.4724 207.584 59.5359 212.856 59.7264 218.095C59.7582 219.016 59.7899 219.937 59.4724 220.794C58.9326 222.223 57.5672 222.446 56.2019 222.509C42.1355 223.113 28.0373 222.954 13.971 222.033C13.7804 222.033 13.5582 222.033 13.3994 221.874C13.2089 221.747 13.1454 221.525 13.1136 221.303L13.0819 221.239Z" fill="#4073A2"/>
<path d="M59.4404 199.582C56.4874 192.945 54.1059 186.054 52.3596 179.005C51.8515 176.972 51.407 174.908 51.0259 172.844C50.9942 172.622 50.4226 172.653 50.4544 172.844C51.8198 180.052 53.8519 187.102 56.4874 193.929C57.2495 195.867 58.0433 197.772 58.8688 199.645C58.9641 199.836 59.5039 199.772 59.4086 199.55L59.4404 199.582Z" fill="#034D9A"/>
<path d="M58.9641 155.632C57.4082 155.378 55.8206 155.728 54.5505 156.68C53.8837 157.157 53.3439 157.792 52.8359 158.395C52.3278 159.03 51.7563 159.665 51.5023 160.459C51.4387 160.682 51.9785 160.745 52.042 160.555C52.2643 159.856 52.7406 159.284 53.2169 158.713C53.6614 158.173 54.1377 157.601 54.6775 157.157C55.8206 156.172 57.313 155.728 58.8054 155.982C59.0911 156.014 59.3134 155.759 58.9641 155.696V155.632Z" fill="#034D9A"/>
<path d="M19.7178 154.648C20.2258 155.474 22.258 154.172 22.8613 153.918C23.4964 153.664 24.1314 153.315 24.5442 152.775C24.9252 152.267 25.1157 151.663 25.2427 151.028C25.3063 150.774 25.338 150.52 25.4015 150.298C25.592 149.345 25.719 148.234 26.2271 147.408C26.7351 146.487 27.1479 145.566 27.4654 144.55C27.4972 144.423 27.5289 144.296 27.4972 144.169C27.4019 143.883 26.9891 143.852 26.6716 143.915C25.9096 144.042 25.1475 144.169 24.4172 144.296C23.9726 144.36 23.5599 144.455 23.1471 144.614C22.3533 144.931 21.8135 145.439 21.4007 146.106C20.9562 146.805 20.7021 147.599 20.5116 148.393C20.4799 148.551 20.4481 148.678 20.4164 148.837C20.4164 148.933 20.3846 149.028 20.3529 149.123C20.0353 150.616 19.7496 152.14 19.6543 153.664C19.6543 153.759 19.6543 153.855 19.6543 153.95C19.6543 154.204 19.6543 154.458 19.7813 154.648H19.7178Z" fill="white"/>
<path d="M38.2617 153.918C38.6427 155.125 40.6114 155.887 41.6592 156.268C42.2943 156.522 43.0246 156.681 43.6596 156.395C44.3264 156.078 44.6439 155.347 45.025 154.712C45.152 154.49 45.279 154.267 45.4378 154.077C46.6444 152.362 48.4225 151.124 50.2324 150.044C50.931 149.631 52.1693 149.218 51.7883 148.202C51.5343 147.472 49.5338 146.869 48.8353 146.583C47.978 146.233 47.0254 145.916 46.0728 145.852C45.3425 145.789 44.6439 145.852 44.0089 146.202C43.7231 146.329 43.4691 146.519 43.1833 146.71C42.6118 147.123 42.1037 147.631 41.5957 148.17C40.9606 148.869 40.3573 149.663 39.8176 150.298C39.5953 150.584 39.2778 150.933 39.0237 151.314C38.4839 152.108 38.0077 153.061 38.2617 153.918Z" fill="white"/>
<path d="M10.7319 206.06C10.7319 207.076 10.7319 208.061 10.7319 209.077C10.7319 210.633 10.7955 212.252 11.4623 213.681C11.7163 214.221 12.0656 214.634 12.4466 214.983C14.0025 216.317 16.4792 216.349 18.5113 216.635C18.7654 216.666 18.9876 216.698 19.2416 216.73C20.9563 216.92 22.6709 216.92 24.3538 216.889C25.7509 216.889 27.148 216.825 28.5451 216.825C31.6251 216.857 34.6734 216.825 37.7534 216.825C39.3093 216.825 40.8334 216.762 42.3893 216.73C43.4371 216.73 44.4532 216.666 45.501 216.635C46.3266 216.603 47.1522 216.539 47.9777 216.444C48.2 216.444 48.454 216.412 48.6763 216.381C49.6924 216.285 50.7402 216.158 51.7563 216.031C52.1056 215.999 52.4548 215.936 52.8041 215.872C53.1534 215.809 53.4709 215.682 53.7884 215.523C55.0903 214.793 55.4713 213.237 55.5666 211.681C55.5666 211.681 55.5666 211.49 55.5666 211.395C55.5666 211.141 55.5666 210.855 55.5666 210.601C55.5666 210.22 55.5666 209.871 55.5348 209.49C55.0585 198.756 54.233 187.96 52.9629 177.29C52.7406 175.384 52.5183 173.511 52.2643 171.606C52.2643 171.542 52.2643 171.479 52.2643 171.415C51.661 166.684 50.8672 161.761 48.454 157.538C47.5967 156.046 46.5806 154.934 45.4375 154.077C43.5959 152.679 41.4367 151.949 39.0235 151.282C38.4519 151.123 37.8804 150.965 37.2771 150.806C33.3398 149.758 29.1484 149.822 25.2429 150.965C23.814 151.378 22.4486 151.917 21.1468 152.616C20.8928 152.743 20.6705 152.87 20.4482 152.997C20.1625 153.188 19.8767 153.378 19.6227 153.569C18.9241 154.108 18.3526 154.712 17.8445 155.379C17.7175 155.537 17.5905 155.696 17.4952 155.855C15.9076 158.141 15.1138 160.999 14.3517 163.826C13.2086 168.144 12.5418 172.463 12.0973 176.845C11.9385 178.56 11.7798 180.275 11.6528 181.99C11.5575 183.165 11.494 184.339 11.3988 185.514C11.113 189.992 10.8907 194.469 10.7955 198.947C10.7319 201.297 10.7002 203.615 10.7002 205.965L10.7319 206.06Z" fill="white"/>
<path d="M48.5809 211.967C48.5809 212.348 48.6444 212.729 48.8349 213.046C48.9937 213.364 49.2795 213.555 49.5335 213.777C51.1211 214.952 52.8993 215.841 54.7727 216.444C55.5347 216.698 56.3285 216.921 57.1223 217.079C57.8527 217.238 59.1545 217.81 59.8848 217.556C60.6786 217.302 60.2659 215.047 60.2659 214.38C60.2659 213.745 60.3294 212.697 59.7578 212.284C59.218 211.903 58.1702 211.84 57.5351 211.617C55.884 211.078 54.2964 210.443 52.7723 209.585C52.2325 209.268 51.6609 208.95 51.0576 208.759C50.3273 208.537 48.8984 208.664 48.5492 209.49C48.2316 210.188 48.5492 211.141 48.5809 211.872V211.967Z" fill="white"/>
<path d="M31.9435 169.192C32.515 168.303 34.2932 168.271 35.0235 168.97C35.1822 169.129 35.3727 169.288 35.5315 169.478C35.5315 169.478 35.595 169.542 35.595 169.573C35.595 169.573 35.595 169.573 35.595 169.605C35.6585 169.669 35.6903 169.764 35.722 169.859C36.3253 172.177 35.6268 175.512 32.5468 175.004C29.816 174.527 30.8956 170.812 31.9117 169.224L31.9435 169.192Z" fill="#FAAC40"/>
<path d="M41.691 157.983C41.437 156.967 44.1042 156.586 44.771 157.411C45.7236 158.618 48.3908 161.857 45.8188 162.778C44.6122 163.223 43.1834 162.873 42.5166 161.762C41.9133 160.777 41.6275 159.571 41.5322 158.459C41.5322 158.269 41.564 158.142 41.691 158.015V157.983Z" fill="#FAAC40"/>
<path d="M42.4533 150.362C44.6759 151.282 46.5494 149.218 46.4858 147.123C46.4858 146.773 46.2001 146.487 45.819 146.36C45.8508 146.297 45.9143 146.233 45.9461 146.138C46.0096 146.043 46.0413 145.948 46.0413 145.884C45.311 145.821 44.6124 145.884 43.9774 146.233C43.6916 146.36 43.4376 146.551 43.1518 146.741C42.5803 147.154 42.0722 147.662 41.5642 148.202C41.3737 149.123 41.5007 150.012 42.4215 150.393L42.4533 150.362Z" fill="#FAAC40"/>
<path d="M27.7196 158.078C27.9419 156.967 28.4817 155.824 29.2438 155.316C30.0058 154.808 31.4347 155.03 32.1967 155.474C32.8 155.824 33.1811 156.522 33.1493 157.221C33.1493 158.078 32.5143 158.809 32.2285 159.603C32.165 159.761 32.0697 159.857 31.911 159.984C31.784 160.142 31.6569 160.269 31.5299 160.396C30.9584 160.873 30.2916 161.19 29.5295 161.19C28.7357 161.19 27.8149 160.936 27.6561 160.047C27.5609 159.507 27.5926 158.809 27.7514 158.11L27.7196 158.078Z" fill="#FAAC40"/>
<path d="M20.3848 148.837C20.5435 149.377 20.8293 149.885 21.2738 150.139C22.2899 150.679 24.4173 150.552 24.4808 149.06C24.4808 148.551 24.3538 148.075 24.1633 147.631C24.3538 147.313 24.2268 146.932 23.814 146.646C23.687 146.583 23.56 146.519 23.433 146.456C23.0837 146.011 22.1312 145.948 21.4008 146.106C20.9563 146.805 20.7023 147.599 20.5118 148.393C20.48 148.551 20.4483 148.678 20.4165 148.837H20.3848Z" fill="#FAAC40"/>
<path d="M18.8298 166.366C19.052 165.858 19.2743 165.223 19.6553 164.81C20.2269 164.175 21.1159 164.048 21.9415 164.175C22.4178 164.27 23.1481 164.493 23.1799 165.064C23.1799 165.16 23.1799 165.287 23.1799 165.382C23.1799 165.382 23.1799 165.445 23.1799 165.477C23.3704 166.43 23.2751 167.382 22.7671 168.24C21.9733 169.51 20.2269 170.113 18.925 169.224C17.9407 168.557 18.4805 167.255 18.8298 166.398V166.366Z" fill="#FAAC40"/>
<path d="M21.4646 177.322C21.4646 177.322 21.5599 177.195 21.5916 177.131C21.7186 176.242 24.3859 176.052 24.8939 177.004C25.4654 178.116 26.1322 179.481 26.164 180.751C26.164 182.212 24.8304 182.943 23.4968 182.72C21.0836 182.339 20.512 179.164 21.4646 177.322Z" fill="#FAAC40"/>
<path d="M41.1509 180.592C41.1509 180.592 41.2779 180.434 41.3732 180.37C41.3732 179.735 42.6433 179.544 43.0561 179.544C43.6594 179.544 44.4532 179.703 44.6755 180.338C44.8025 180.497 44.866 180.688 44.866 180.91C44.866 181.005 44.866 181.132 44.8025 181.227C44.8342 182.625 44.1674 183.99 43.0878 184.848C42.548 185.26 41.8495 185.387 41.1827 185.26C40.7382 185.197 39.9443 184.943 39.9443 184.371C39.9443 183.038 40.3254 181.64 41.1509 180.561V180.592Z" fill="#FAAC40"/>
<path d="M49.6292 176.973C50.2007 178.084 52.0106 177.893 52.9632 177.322C52.741 175.417 52.5187 173.543 52.2647 171.638C51.1533 171.892 50.5183 172.622 50.0102 173.765C49.661 174.591 49.1847 176.083 49.6292 176.973Z" fill="#FAAC40"/>
<path d="M49.2166 189.42C49.2166 189.42 49.1531 189.325 49.1214 189.293C48.6769 188.69 49.9152 188.214 50.2962 188.15C51.0265 188.023 51.8839 188.15 52.3602 188.785C53.027 189.674 53.4397 190.627 53.6938 191.675C53.9478 192.786 54.1383 193.834 52.8682 194.279C50.1057 195.2 48.9626 191.961 49.0579 189.801C49.0579 189.643 49.1214 189.516 49.2166 189.389V189.42Z" fill="#FAAC40"/>
<path d="M43.0252 204.568C43.311 203.933 43.5015 203.298 44.1366 202.885C44.4859 202.663 44.8986 202.536 45.3114 202.504C46.264 202.345 47.5024 202.599 47.6294 203.393C47.8199 204.632 47.5341 205.902 46.8038 206.918C45.9147 208.156 44.0731 209.045 42.676 207.966C41.5646 207.108 42.6125 205.552 43.0252 204.568Z" fill="#FAAC40"/>
<path d="M50.2648 213.967C51.5031 214.825 53.313 214.316 54.3926 213.396C54.9324 212.951 55.3452 212.316 55.5674 211.649C55.5674 211.649 55.6309 211.49 55.6309 211.395C55.6309 211.395 55.5992 211.395 55.5674 211.395C55.5674 211.141 55.5674 210.855 55.5674 210.601C55.5674 210.22 55.5674 209.871 55.5357 209.49C55.2817 209.299 54.9006 209.204 54.6149 209.14C53.5035 208.95 52.6462 209.267 51.9476 209.902C51.5666 210.22 51.2491 210.601 50.9316 211.046C50.3918 211.808 49.2169 213.237 50.2965 213.967H50.2648Z" fill="#FAAC40"/>
<path d="M30.0065 191.326C30.0065 190.754 30.1018 190.31 30.5463 189.929C31.2449 189.357 32.3879 189.293 33.1818 189.611C33.5628 189.77 33.9438 190.024 34.0073 190.373C34.0708 190.437 34.1343 190.5 34.1978 190.595C34.8329 191.516 35.4362 193.072 34.9599 194.184C34.3566 195.581 32.1339 195.549 31.0543 194.819C30.0383 194.12 29.943 192.437 30.0065 191.294V191.326Z" fill="#FAAC40"/>
<path d="M29.4986 209.458C29.9749 208.474 30.5464 207.553 31.1815 206.664C31.626 206.029 32.5151 205.902 33.2454 206.029C33.5629 206.092 34.452 206.378 34.5155 206.854C34.579 206.95 34.6107 207.077 34.579 207.204C34.4837 209.268 33.2771 212.157 30.7687 211.776C30.2289 211.681 29.5621 211.491 29.3081 210.951C29.054 210.474 29.3081 209.966 29.4986 209.49V209.458Z" fill="#FAAC40"/>
<path d="M37.7222 216.793C39.2781 216.793 40.8022 216.73 42.3581 216.698C42.2628 216.063 42.1358 215.46 41.977 214.983C41.723 214.094 39.5638 214.062 38.897 214.793C38.516 214.888 38.2302 215.079 38.1032 215.364C37.9127 215.809 37.7857 216.285 37.6904 216.825L37.7222 216.793Z" fill="#FAAC40"/>
<path d="M15.4316 190.055C15.4951 189.706 15.9396 189.42 16.2572 189.293C16.9875 189.039 17.9401 189.135 18.5434 189.611C20.0992 190.881 21.7186 194.628 18.6386 195.105C16.924 195.359 15.9714 194.469 15.2728 193.04C14.7648 191.993 14.4473 190.786 15.4316 190.024V190.055Z" fill="#FAAC40"/>
<path d="M11.6533 182.085C11.6533 182.085 11.8121 182.053 11.9073 182.022C13.368 181.641 14.5428 180.434 14.5111 178.878C14.5111 178.687 14.4158 178.497 14.2888 178.37C14.3523 178.306 14.4158 178.243 14.5111 178.179C15.1144 177.671 14.4158 177.1 13.9078 176.909C13.368 176.718 12.6694 176.718 12.0979 176.909C11.9391 178.624 11.7803 180.339 11.6533 182.053V182.085Z" fill="#FAAC40"/>
<path d="M17.8129 205.965C18.1304 204.758 19.0513 203.297 20.1944 202.726C21.0517 202.281 22.2265 202.25 23.1156 202.662C23.7506 202.98 24.2587 203.615 23.6554 204.218C23.6236 205.489 22.5758 206.409 21.5915 207.108C20.7659 207.68 19.7181 207.838 18.7655 207.521C18.0352 207.267 17.6224 206.695 17.8129 205.933V205.965Z" fill="#FAAC40"/>
<path d="M10.7324 206.06C10.7324 206.06 10.9864 206.029 11.1135 205.997C13.7807 205.33 12.0978 201.456 11.2722 199.678C11.2405 199.582 11.177 199.487 11.1452 199.424C11.0817 199.297 10.9547 199.169 10.8277 199.074C10.7642 201.424 10.7324 203.742 10.7324 206.092V206.06Z" fill="#FAAC40"/>
<path d="M19.2105 216.73C20.9251 216.921 22.6397 216.921 24.3226 216.889C24.4814 216.571 24.5766 216.222 24.6402 215.841C24.6402 215.777 24.6402 215.682 24.6402 215.619C25.1482 215.555 25.5927 215.365 25.7515 215.015C26.1325 214.285 25.4975 213.65 24.8307 213.396C23.9416 213.046 22.8303 213.142 22.0047 213.65C20.8298 214.348 19.8138 215.492 19.1787 216.73H19.2105Z" fill="#FAAC40"/>
<path d="M39.2773 151.632C39.2773 151.632 39.5949 151.473 39.6901 151.505C41.5953 151.918 43.4369 152.616 45.1198 153.632C45.2468 153.696 45.2468 153.823 45.1198 153.886C44.9928 153.95 44.7705 153.95 44.6435 153.886C43.0559 152.965 41.3095 152.267 39.4996 151.854C39.4044 151.854 39.2138 151.759 39.2773 151.632Z" fill="#4073A2"/>
<path d="M53.4068 215.587C54.0736 215.428 54.5817 214.825 54.8675 214.221C55.2167 213.427 55.2485 212.538 55.2485 211.681C55.2485 211.427 55.9153 211.427 55.9153 211.681C55.9153 212.633 55.8835 213.618 55.439 214.475C55.058 215.206 54.4229 215.777 53.5974 215.936C53.4703 215.936 53.2481 215.936 53.1846 215.809C53.1211 215.65 53.3116 215.618 53.4068 215.587Z" fill="#4073A2"/>
<path d="M13.7481 186.34C13.9069 184.403 14.2244 182.434 15.2087 180.719C15.6215 180.021 16.1931 179.354 16.9551 179.036C17.8759 178.655 18.9873 178.655 20.0034 178.528C24.1947 178.084 28.4813 177.988 32.6726 178.719C34.5143 179.036 36.4512 179.481 38.1023 180.402C38.8326 180.815 39.4994 181.354 40.0075 182.021C40.5473 182.752 40.8013 183.641 40.9601 184.53C41.1506 185.673 41.1506 186.848 41.2141 188.023L41.4046 191.929C41.5316 194.501 41.6586 197.105 41.7856 199.677C41.7856 199.931 41.1188 199.931 41.1188 199.677C40.8966 195.358 40.6743 191.008 40.452 186.689C40.3568 184.847 40.2298 182.879 38.8009 181.513C37.499 180.306 35.6891 179.798 34.0063 179.386C30.0372 178.433 25.8776 178.401 21.8133 178.719C20.7654 178.814 19.7493 178.909 18.7015 179.036C18.2252 179.1 17.6854 179.132 17.2409 179.354C16.7964 179.576 16.4471 179.925 16.1295 180.338C15.05 181.831 14.6689 183.768 14.4467 185.578C14.1926 187.896 14.0974 190.214 13.9069 192.532C13.7164 194.977 13.5576 197.423 13.3671 199.868C13.3671 200.122 12.6685 200.122 12.7003 199.868C13.0178 195.358 13.3036 190.817 13.6846 186.308L13.7481 186.34Z" fill="#4073A2"/>
<path d="M40.103 204.758C40.103 205.362 40.1665 205.997 40.4206 206.505C40.8969 207.394 41.8494 207.426 42.421 206.663C42.9608 205.933 42.8973 205.012 42.8655 204.091C42.8655 203.043 42.802 202.122 42.5797 201.075C42.4527 200.439 42.294 199.804 41.9129 199.392C41.0239 198.502 40.5476 199.519 40.3571 200.598C40.2618 201.075 40.1983 201.551 40.1348 202.059C40.0713 202.948 40.0713 203.869 40.0713 204.758H40.103Z" fill="#4073A2"/>
<path d="M16.5419 161.635C17.1135 161.317 17.685 161.032 18.2883 160.777C23.1782 158.586 28.8302 157.983 34.1011 159.063C36.7048 159.603 39.372 160.492 41.563 162.016C43.6904 163.508 45.024 165.604 45.6908 167.986C46.3894 170.399 46.4529 172.971 46.5481 175.448L47.469 202.79C47.5642 205.87 47.6912 208.918 47.7865 211.999C47.85 213.459 47.8817 214.952 47.9452 216.444C48.1675 216.444 48.4215 216.413 48.6438 216.381C48.5803 214.825 48.5485 213.237 48.485 211.681C48.3898 208.442 48.2628 205.203 48.1675 201.996C47.9452 195.549 47.723 189.103 47.5007 182.689C47.4054 179.608 47.3419 176.496 47.1832 173.416C47.0562 170.876 46.7386 168.303 45.6591 165.954C43.3729 161.063 37.3716 158.999 32.1642 158.396C26.6393 157.761 20.9238 158.777 16.0657 161.413C15.7164 161.603 16.3514 161.794 16.5737 161.667L16.5419 161.635Z" fill="#4073A2"/>
<path d="M13.9703 166.557C13.8751 167.16 13.7798 167.764 13.9703 168.335C14.2561 169.288 15.1769 169.542 15.8755 168.907C16.5423 168.304 16.6693 167.383 16.8281 166.494C17.0186 165.446 17.1774 164.557 17.1774 163.477C17.1774 162.842 17.1774 162.175 16.8598 161.699C16.1613 160.619 15.4945 161.572 15.0817 162.556C14.8912 163.001 14.7324 163.477 14.5736 163.921C14.3196 164.779 14.1291 165.668 13.9703 166.557ZM16.3835 164.715C16.3518 165.35 16.2565 166.049 16.0978 166.684C16.0978 166.684 16.066 166.684 16.066 166.748C15.9708 166.97 15.812 167.129 15.6532 167.224C15.3675 167.383 15.1452 167.287 15.0182 166.938C14.5419 165.414 15.0182 164.112 15.7167 162.651C15.8437 162.397 16.1295 162.429 16.1613 162.683C16.2565 163.318 16.3518 163.985 16.3835 164.652C16.3835 164.652 16.3835 164.684 16.3835 164.715Z" fill="#4073A2"/>
<path d="M19.8126 153.092C20.5746 152.616 21.3367 152.108 22.0987 151.663C22.8291 151.251 23.6864 151.06 24.4802 150.806C24.6072 150.774 24.8295 150.774 24.9247 150.87C25.02 150.965 24.9247 151.092 24.7977 151.124C24.0356 151.378 23.1783 151.536 22.4798 151.981C21.7177 152.426 20.9874 152.902 20.2571 153.378C20.1301 153.474 19.9078 153.442 19.7808 153.378C19.6538 153.315 19.6538 153.188 19.7808 153.124L19.8126 153.092Z" fill="#4073A2"/>
<path d="M42.8024 110.127C42.5166 110.064 42.2309 110 41.9451 109.937C37.722 109.302 33.0544 109.588 29.0853 111.207C27.1167 112.001 25.2115 113.144 24.0367 114.891C22.0045 117.876 22.4173 121.972 20.5756 125.021C19.6548 126.545 18.2259 127.72 17.4321 129.308C16.9876 130.197 16.7653 131.213 16.7971 132.229C16.8606 133.594 17.3686 134.96 17.1781 136.325C17.0828 137.119 16.7336 137.881 16.4478 138.644C15.781 140.581 15.5905 142.772 16.4478 144.614C17.6544 147.186 21.5282 148.329 24.1319 147.662C24.8305 147.472 25.4655 147.217 26.1641 147.027C29.3711 146.233 33.0544 147.948 35.9121 146.297C38.0713 145.058 38.8969 142.295 38.8651 139.787C38.8651 138.517 38.6428 137.215 38.9604 135.976C39.3731 134.357 40.6115 133.023 40.9925 131.403C41.4053 129.625 40.7068 127.815 40.3892 126.005C40.0082 123.719 40.2622 121.337 41.056 119.146C41.8498 117.018 43.7232 115.589 44.5171 113.589C44.8346 112.731 45.1204 111.588 44.3901 110.921C43.9773 110.508 43.4057 110.254 42.8342 110.096L42.8024 110.127Z" fill="#FC5B35"/>
<path d="M41.2471 114.636C39.1831 116.51 38.2623 119.304 38.1353 122.035C37.9765 125.211 39.1514 128.482 38.1988 131.562C37.7543 132.991 36.8652 134.356 35.4681 134.96C35.1188 135.087 35.5316 135.309 35.7539 135.214C38.4211 134.102 39.2149 131.054 39.1196 128.418C39.0561 126.64 38.7069 124.893 38.6751 123.115C38.6751 121.686 38.8021 120.257 39.2466 118.892C39.7229 117.336 40.5485 115.907 41.7551 114.827C41.9456 114.636 41.4058 114.541 41.2788 114.668L41.2471 114.636Z" fill="#F7B576"/>
<path d="M35.3415 128.704C35.0557 130.737 33.6586 132.356 32.2298 133.722C32.0392 133.912 32.579 134.007 32.706 133.88C34.1667 132.451 35.5955 130.8 35.9131 128.704C35.9131 128.514 35.3733 128.482 35.3415 128.704Z" fill="#F7B576"/>
<path d="M21.783 127.085C21.783 127.085 21.4972 127.085 21.402 127.148C20.0048 128.292 19.2745 130.165 19.5603 131.975C19.5921 132.198 20.1636 132.166 20.1319 131.975C19.8461 130.229 20.5446 128.419 21.91 127.307C22.0053 127.212 21.91 127.117 21.8147 127.085H21.783Z" fill="#F7B576"/>
<path d="M22.3542 145.058C21.4017 144.804 20.6714 144.106 20.2268 143.248C19.7188 142.232 19.6553 141.057 19.814 139.946C19.814 139.755 19.2742 139.723 19.2425 139.946C19.052 141.121 19.1472 142.391 19.7188 143.47C20.2268 144.36 21.0206 145.058 22.0367 145.344C22.132 145.344 22.3542 145.376 22.4177 145.28C22.4813 145.185 22.4177 145.09 22.3225 145.058H22.3542Z" fill="#F7B576"/>
<path d="M28.228 143.788C26.9896 143.629 25.9101 142.708 25.4655 141.533C25.402 141.343 24.8305 141.406 24.9257 141.628C25.4338 142.962 26.6721 143.915 28.0692 144.105C28.1645 144.105 28.355 144.105 28.4185 144.01C28.482 143.883 28.2915 143.82 28.228 143.82V143.788Z" fill="#F7B576"/>
<path d="M29.8798 112.668C29.2447 112.795 28.7367 113.144 28.2922 113.589C27.8476 114.033 27.4348 114.541 27.0538 115.081C26.2917 116.161 25.752 117.368 25.752 118.701C25.752 118.924 26.3235 118.924 26.3235 118.701C26.3235 117.495 26.7998 116.383 27.4348 115.399C27.7524 114.891 28.1334 114.446 28.5462 114.002C28.959 113.557 29.4353 113.081 30.0386 112.954C30.4196 112.89 30.1656 112.604 29.8798 112.668Z" fill="#F7B576"/>
<path opacity="0.4" d="M227.031 328C271.749 328 308 323.024 308 316.886C308 310.748 271.749 305.771 227.031 305.771C182.313 305.771 146.062 310.748 146.062 316.886C146.062 323.024 182.313 328 227.031 328Z" fill="#CEC158"/>
<path d="M260.023 138.485C260.023 138.485 260.245 138.739 260.372 138.834C260.785 139.215 261.356 139.469 261.928 139.501C262.055 139.501 262.182 139.501 262.277 139.406C262.372 139.342 262.436 139.247 262.468 139.12C262.69 138.516 262.531 137.849 262.341 137.214C261.96 135.976 261.579 134.737 261.198 133.467C260.975 132.705 260.34 131.848 259.546 131.562C256.593 130.482 258.88 136.516 259.388 137.437C259.578 137.786 259.8 138.135 260.054 138.453L260.023 138.485Z" fill="#F7967C"/>
<path d="M281.487 206.79H252.369C250.877 206.79 249.639 205.552 249.639 204.059V137.151C249.639 135.658 250.877 134.42 252.369 134.42H281.487C282.979 134.42 284.217 135.658 284.217 137.151V204.059C284.217 205.552 282.979 206.79 281.487 206.79ZM252.369 136.103C251.798 136.103 251.322 136.579 251.322 137.151V204.059C251.322 204.631 251.798 205.107 252.369 205.107H281.487C282.058 205.107 282.534 204.631 282.534 204.059V137.151C282.534 136.579 282.058 136.103 281.487 136.103H252.369Z" fill="#494848"/>
<path d="M279.2 132.356H254.338C253.444 132.356 252.719 133.081 252.719 133.975V136.484C252.719 137.379 253.444 138.104 254.338 138.104H279.2C280.095 138.104 280.82 137.379 280.82 136.484V133.975C280.82 133.081 280.095 132.356 279.2 132.356Z" fill="#2D2C2C"/>
<path d="M246.178 306.883H248.178C248.845 306.883 249.289 307.613 248.94 308.185L247.956 309.9L246.971 311.614C246.622 312.186 245.797 312.186 245.447 311.614L244.463 309.9L243.479 308.185C243.129 307.613 243.574 306.883 244.241 306.883H246.241H246.178Z" fill="#494848"/>
<path d="M250.02 313.297C250.02 315.425 248.305 317.14 246.178 317.14C244.051 317.14 242.336 315.425 242.336 313.297C242.336 311.17 244.051 309.455 246.178 309.455C248.305 309.455 250.02 311.17 250.02 313.297Z" fill="#2D2C2C"/>
<path d="M287.711 306.883H289.711C290.378 306.883 290.823 307.613 290.473 308.185L289.489 309.9L288.505 311.614C288.155 312.186 287.33 312.186 286.981 311.614L285.996 309.9L285.012 308.185C284.663 307.613 285.107 306.883 285.774 306.883H287.774H287.711Z" fill="#494848"/>
<path d="M291.521 313.297C291.521 315.425 289.806 317.14 287.679 317.14C285.552 317.14 283.837 315.425 283.837 313.297C283.837 311.17 285.552 309.455 287.679 309.455C289.806 309.455 291.521 311.17 291.521 313.297Z" fill="#2D2C2C"/>
<path d="M299.364 208.886V299.135C299.364 301.802 298.125 304.184 296.157 305.708C295.49 306.248 294.728 306.661 293.934 306.978C293.013 307.328 292.029 307.518 290.981 307.518H242.876C242.304 307.518 241.733 307.455 241.193 307.359C240.399 307.201 239.637 306.915 238.97 306.565C236.303 305.168 234.493 302.374 234.493 299.166V208.918C234.493 204.282 238.24 200.535 242.876 200.535H290.981C295.617 200.535 299.364 204.282 299.364 208.918V208.886Z" fill="#2D2C2C"/>
<path d="M245.511 200.503C245.194 201.678 244.463 202.726 243.733 203.742C242.685 205.171 241.669 206.632 240.621 208.061C240.304 208.505 239.986 208.918 239.669 209.363C238.303 211.268 236.843 213.237 234.715 214.189C234.652 214.189 234.588 214.253 234.493 214.285V208.886C234.493 204.25 238.24 200.503 242.876 200.503H245.48H245.511Z" fill="#494848"/>
<path d="M299.364 208.886V214.285C299.364 214.285 299.237 214.221 299.142 214.189C297.014 213.205 295.554 211.236 294.188 209.363C293.871 208.918 293.553 208.505 293.236 208.061C292.188 206.632 291.172 205.203 290.124 203.742C289.394 202.758 288.663 201.678 288.346 200.503H290.949C295.585 200.503 299.332 204.25 299.332 208.886H299.364Z" fill="#494848"/>
<path d="M299.364 293.768V299.166C299.364 301.834 298.126 304.216 296.157 305.74C295.49 306.28 294.728 306.692 293.935 307.01C293.014 307.359 292.029 307.55 290.982 307.55H288.378C288.695 306.375 289.426 305.327 290.156 304.311C291.204 302.882 292.22 301.421 293.268 299.992C293.585 299.548 293.903 299.135 294.22 298.69C295.586 296.785 297.046 294.816 299.174 293.863C299.237 293.863 299.301 293.8 299.396 293.768H299.364Z" fill="#494848"/>
<path d="M245.512 307.518H242.908C242.337 307.518 241.765 307.455 241.225 307.359C240.431 307.201 239.669 306.915 239.002 306.565C236.335 305.168 234.525 302.374 234.525 299.166V293.768C234.525 293.768 234.652 293.832 234.748 293.863C236.875 294.848 238.336 296.817 239.701 298.69C240.019 299.135 240.336 299.548 240.654 299.992C241.701 301.421 242.718 302.85 243.765 304.311C244.496 305.295 245.226 306.375 245.544 307.55L245.512 307.518Z" fill="#494848"/>
<path d="M234.525 286.147H299.364V283.892H234.525V286.147ZM234.525 273.73H299.364V271.476H234.525V273.73ZM234.525 261.346H299.364V259.091H234.525V261.346ZM234.525 248.961H299.364V246.707H234.525V248.961ZM234.525 236.577H299.364V234.322H234.525V236.577ZM234.525 221.906V224.16H299.364V221.906H234.525Z" fill="#494848"/>
<path d="M264.88 138.421C265.293 138.358 265.706 138.199 266.023 137.945C266.817 138.707 268.246 138.643 268.976 137.818C269.23 138.04 269.548 138.294 269.897 138.262C270.31 138.262 270.596 137.881 270.723 137.5C270.977 136.802 270.881 136.008 270.786 135.246C270.659 134.484 270.564 133.721 270.437 132.959C270.85 133.594 271.135 134.293 271.294 135.023C271.389 135.563 271.675 136.294 272.088 136.643C272.247 136.77 272.437 136.833 272.628 136.77C272.945 136.675 273.04 136.294 273.072 135.944C273.231 133.404 271.802 130.736 269.643 129.466C266.976 127.878 264.054 126.704 261.038 126.068C260.879 126.037 260.689 126.005 260.498 126.068C260.339 126.1 260.212 126.227 260.085 126.354C259.45 126.958 258.879 127.561 258.434 128.291C257.831 129.339 257.926 130.228 257.863 131.372C257.863 131.784 257.831 132.229 258.307 132.451C258.53 132.546 258.784 132.515 259.038 132.546C259.99 132.578 260.911 133.086 261.483 133.848C262.086 134.579 262.372 135.563 262.372 136.516C262.372 136.929 262.308 137.469 262.594 137.818C262.848 138.135 263.324 138.326 263.673 138.421C264.055 138.516 264.467 138.548 264.848 138.485L264.88 138.421Z" fill="#F7967C"/>
<path d="M267.452 132.515C267.452 132.515 266.944 132.483 267.071 132.642C268.151 133.912 268.437 135.627 268.373 137.246C268.373 137.405 268.786 137.405 268.818 137.246C268.913 135.595 268.595 133.817 267.452 132.547V132.515Z" fill="#DB6357"/>
<path d="M265.389 133.182C265.389 133.182 264.881 133.086 264.976 133.245C265.643 134.547 265.643 136.071 265.643 137.5C265.643 137.659 266.087 137.659 266.087 137.5C266.087 136.04 266.087 134.515 265.42 133.182H265.389Z" fill="#DB6357"/>
<path d="M287.647 200.598H247.353C245.575 200.598 244.368 198.82 244.972 197.168L246.432 193.262L253.291 174.908C253.799 173.574 255.069 172.717 256.466 172.717H278.502C279.931 172.717 281.201 173.606 281.678 174.908L288.536 193.262L289.997 197.168C290.632 198.82 289.393 200.598 287.615 200.598H287.647Z" fill="#FC5B35"/>
<path d="M281.71 175.67H253.291L256.466 162.428C257.292 158.967 260.34 156.521 263.865 156.521H271.136C274.661 156.521 277.677 158.935 278.534 162.428L281.71 175.67ZM255.799 173.701H279.201L276.597 162.873C275.962 160.3 273.74 158.49 271.136 158.49H263.865C261.261 158.49 259.006 160.3 258.403 162.873L255.799 173.701Z" fill="#FC5B35"/>
<path d="M274.628 187.768C274.628 188.054 274.628 188.34 274.787 188.562C275.009 188.848 275.422 188.911 275.739 188.753C276.057 188.594 276.279 188.245 276.343 187.927C276.438 187.578 276.406 187.228 276.406 186.847C276.343 185.704 276.216 184.593 276.025 183.481C275.993 183.291 275.962 183.068 275.803 182.91C274.787 182.052 274.755 184.212 274.755 184.561C274.723 185.609 274.66 186.657 274.628 187.736V187.768Z" fill="white"/>
<path d="M276.121 182.465H260.117C259.768 182.465 259.768 184.021 260.117 184.021H276.121C276.47 184.021 276.47 182.465 276.121 182.465Z" fill="#FAAC40"/>
<path d="M287.647 200.598H247.353C245.575 200.598 244.368 198.819 244.972 197.168L246.432 193.262H288.536L289.997 197.168C290.632 198.819 289.393 200.598 287.615 200.598H287.647Z" fill="#FAAC40"/>
<path d="M192.389 15.211C191.976 15.2745 191.595 15.3381 191.214 15.4651C190.484 15.6874 189.785 16.1002 189.309 16.7035C188.642 17.5927 188.579 18.7676 188.515 19.8473C188.293 23.8802 188.198 27.9131 188.039 31.9461C187.88 35.9155 186.959 39.8214 187.15 43.8225C187.309 46.9663 188.102 50.1736 189.912 52.7775C190.833 54.1112 192.008 55.2544 193.215 56.3658C195.469 58.4617 197.819 60.4305 200.327 62.177C202.772 63.8918 205.408 64.9398 207.757 66.9086C209.758 68.5916 211.695 70.4334 214.044 71.6719C216.362 72.8786 219.22 73.4184 221.633 72.3705C223.443 71.5766 224.808 69.8936 225.38 67.9883C225.983 65.9242 225.666 63.7331 225.666 61.6055C225.666 57.6678 226.555 53.3491 224.364 50.1101C222.903 47.9189 220.3 46.744 218.585 44.7117C215.854 41.5044 215.632 36.5506 212.393 33.8196C210.774 32.4541 208.646 31.8508 207.027 30.5171C203.661 27.7226 203.439 22.5782 200.835 19.0534C198.898 16.4495 195.628 14.7982 192.389 15.211Z" fill="#FC5B35"/>
<path d="M262.054 126.482C254.973 117.558 247.892 108.603 240.78 99.6801C237.351 95.3931 233.699 88.407 227.126 90.8839C221.601 92.948 220.141 97.616 224.078 102.093C229.73 108.476 235.826 114.415 242.367 119.876C245.701 122.671 249.162 125.338 252.719 127.879C255.64 129.975 259.101 133.436 262.435 129.879C262.943 129.339 263.261 128.546 263.007 127.847C262.88 127.529 262.657 127.244 262.467 126.958C262.34 126.799 262.213 126.609 262.054 126.45V126.482Z" fill="#F7967C"/>
<path d="M230.333 87.7403C227.349 83.1993 224.681 78.436 222.141 73.6092C221.316 72.0214 220.49 70.4337 219.665 68.8142C219.03 67.5757 218.109 66.7818 217.378 65.6386C215.632 62.9394 214.33 60.0497 211.949 57.7633C209.599 55.5405 206.201 54.1432 203.121 55.1276C197.501 56.9377 200.867 63.3205 202.391 66.8771C205.281 73.6092 209.123 80.0555 212.933 86.3113C215.346 90.2807 217.886 94.1866 220.522 97.9972C221.284 99.1087 222.078 100.252 223.126 101.109C224.173 101.967 225.507 102.57 226.872 102.443C227.857 102.348 228.778 101.871 229.635 101.427C232.112 100.125 233.477 98.9181 234.176 96.1237C234.398 94.3454 234.207 93.361 233.096 91.8367C232.112 90.503 231.191 89.1375 230.27 87.772L230.333 87.7403Z" fill="#F7967C"/>
<path d="M227.825 79.8331C227.444 80.0554 227.095 80.2776 226.745 80.5317C226.015 81.0715 225.285 81.6749 224.586 82.2147C221.792 84.4058 218.712 86.1524 215.695 87.9624C214.933 88.407 214.171 88.8833 213.441 89.3596C212.679 89.8677 211.917 90.3758 211.186 90.9474C211.059 91.0427 210.932 91.1379 210.805 91.2332C210.71 91.1379 210.615 91.0427 210.52 90.9474C210.424 90.8204 210.329 90.6934 210.266 90.5663C210.202 90.4711 210.17 90.3758 210.107 90.2805C209.948 89.9948 209.821 89.709 209.662 89.3914C209.218 88.5023 208.773 87.6131 208.329 86.6922C207.471 84.9139 206.646 83.1356 205.852 81.3573C205.63 80.9128 205.439 80.4364 205.249 79.9918C205.249 79.9283 205.185 79.8648 205.153 79.7696C205.058 79.579 204.995 79.3885 204.899 79.1662C204.677 78.6264 204.423 78.0865 204.201 77.5467C202.582 73.7361 201.057 69.8937 199.629 65.9878C199.438 65.4797 199.247 64.9716 199.089 64.4635C198.644 63.1933 198.2 61.9231 197.755 60.6529C196.803 57.8267 196.199 54.8734 196.136 51.8884C196.136 51.5709 196.136 51.2216 196.136 50.904C196.136 50.7135 196.136 50.523 196.136 50.3642C196.199 48.8082 196.422 47.2839 196.834 45.7914C197.184 44.5212 197.311 43.124 198.295 42.3936C198.708 42.1396 203.756 43.9814 204.423 44.2037C208.138 45.4739 210.615 47.411 212.52 50.2054C212.869 50.6817 213.187 51.2216 213.473 51.7614C213.854 52.4283 214.235 53.1587 214.584 53.9208C216.203 57.4139 217.823 60.9069 219.442 64.4C219.664 64.9081 219.918 65.4162 220.141 65.8925C220.236 66.083 220.299 66.2736 220.395 66.4641C220.998 67.7978 221.633 69.068 222.3 70.3065C222.554 70.7828 222.808 71.2274 223.062 71.7037C224.173 73.7043 225.38 75.6414 226.682 77.6737C226.904 78.0865 227.126 78.4994 227.349 78.9122C227.507 79.198 227.634 79.452 227.793 79.7378L227.825 79.8331Z" fill="#FAAC40"/>
<path d="M122.247 69.703C121.517 67.6071 120.787 65.4795 120.088 63.3837C119.612 61.9229 119.676 60.3034 121.231 59.5731C123.645 58.3981 126.217 60.9068 127.741 62.6216C130.884 66.1146 133.266 70.3063 136.028 74.0852C139.553 78.9438 143.172 83.7388 146.919 88.4068C148.094 89.8993 149.047 91.5823 150.222 93.0431C151.111 94.1545 151.619 94.6626 151.65 96.2186C151.746 99.2671 150.285 102.284 148.094 104.348C147.459 104.951 146.729 105.491 145.903 105.745C141.648 107.047 137.902 102.284 135.933 99.2354C130.027 90.0898 125.836 79.9599 122.216 69.703H122.247Z" fill="#F7967C"/>
<path d="M142.918 106.126C138.727 104.634 139.235 99.013 140.442 95.6787C141.204 93.5194 142.124 91.4235 143.045 89.3594C145.268 84.2151 147.999 79.1025 149.84 73.7993C151.523 68.909 153.206 63.9552 154.508 58.9061C155.111 56.5562 155.683 54.1428 156.858 52.0152C158.445 49.1573 160.922 47.9823 163.875 46.8709C164.319 46.7121 164.764 46.5533 165.209 46.3946C165.272 46.3946 165.367 46.3311 165.431 46.3311C167.908 46.5851 169.305 48.4587 168.733 51.2531C168.035 54.7462 166.637 58.0805 165.463 61.4466C164.446 64.3998 163.589 67.4165 162.795 70.4333C162.065 73.196 160.827 76.2445 160.573 79.0707C160.223 83.4212 158.89 87.6129 157.302 91.6458C155.81 95.4564 154.381 98.8225 151.745 102.03C150.666 103.363 149.428 104.665 147.935 105.491C146.411 106.348 144.569 106.698 142.95 106.126H142.918Z" fill="#F7967C"/>
<path d="M169.686 64.5267C169.559 65.0666 169.432 65.5746 169.305 66.1145C169.051 67.1942 168.765 68.2738 168.479 69.3218C167.749 72.1797 166.987 75.0059 166.193 77.8639C166.066 78.372 165.907 78.8801 165.749 79.3882C165.145 81.5158 164.51 83.6751 163.844 85.771C163.367 87.2952 162.415 89.1053 160.827 88.9465C160.637 88.9465 160.446 88.883 160.255 88.8512C160.16 88.8512 160.097 88.8195 160.001 88.7877C158.636 88.3749 157.239 87.3587 156.064 86.7554C154.095 85.771 152.095 84.8501 150.158 83.8022C148.729 83.04 147.332 82.2779 145.903 81.5158C145.745 81.4523 145.586 81.357 145.522 81.1982C145.459 81.0394 145.522 80.8489 145.554 80.6901C145.649 80.4361 145.713 80.1821 145.808 79.928C145.999 79.3247 146.189 78.7213 146.411 78.118C146.57 77.6099 146.761 77.1018 146.919 76.5937C147.332 75.3235 147.777 74.085 148.221 72.8466C148.412 72.3068 148.602 71.7987 148.793 71.2588C149.46 69.417 150.126 67.5752 150.825 65.7652C151.015 65.2571 151.206 64.749 151.428 64.2092C151.968 62.7802 152.54 61.3512 153.111 59.954C154.318 57.0007 155.62 53.5076 157.652 50.8084C158.065 50.2686 158.509 49.7605 158.954 49.3159C160.192 48.1092 161.653 47.1883 163.431 46.7755C164.161 46.6167 164.923 46.5215 165.749 46.5215C166.638 46.5215 167.559 46.712 168.321 47.2201C169.305 47.887 169.845 49.0619 170.162 50.2368C170.194 50.3956 170.226 50.5226 170.258 50.6814C170.353 51.0625 170.416 51.4753 170.512 51.8564C171.242 56.0481 170.639 60.335 169.686 64.5585V64.5267Z" fill="#FAAC40"/>
<path d="M112.817 60.7481V60.8116C111.833 60.8116 110.848 60.4941 109.927 60.113C109.483 59.9225 109.038 59.7002 108.594 59.5097C108.308 59.3826 107.864 59.2239 107.546 59.4461C107.26 59.6367 107.324 60.0177 107.451 60.3035C108.118 61.669 110.213 62.1453 111.515 62.7487C114.436 64.1459 117.612 64.7175 120.819 65.0033C122.025 65.0986 123.327 64.8445 124.248 63.9871C124.851 63.4155 125.296 62.6534 125.582 61.8595C126.471 59.5096 125.931 57.6043 124.153 55.9213C122.152 54.0477 119.93 52.4917 117.866 50.7134C117.516 50.4276 117.135 50.1101 116.691 50.0148C115.484 49.8243 115.865 51.0628 116.31 51.6661C116.977 52.6188 118.215 53.5714 118.31 54.8099C117.675 54.9369 116.691 54.4288 116.088 54.2065C115.357 53.9207 114.659 53.5714 113.928 53.2856C113.262 53.0316 112.595 52.7458 111.96 52.3965C111.229 51.9837 110.594 51.5073 109.832 51.1898C109.546 51.0628 109.038 50.9357 108.784 51.158C108.213 51.6026 109.07 52.8093 109.451 53.1268C109.959 53.5714 110.563 53.8572 111.166 54.143C112.182 54.5876 113.198 55.1274 114.214 55.5402C114.627 55.699 114.024 55.7625 113.833 55.7308C113.611 55.6673 113.389 55.572 113.166 55.4767C112.69 55.318 112.214 55.1909 111.737 55.0322C110.785 54.7146 109.864 54.3335 109.038 53.762C108.562 53.4444 108.118 53.0633 107.578 52.8093C107.197 52.6188 106.625 52.6188 106.53 53.1268C106.403 53.6349 106.657 54.2383 106.943 54.6511C107.229 55.0322 107.641 55.4132 108.054 55.6355C108.467 55.8578 108.88 56.1118 109.292 56.3341C110.277 56.8422 111.356 57.1598 112.404 57.5726C112.626 57.6678 113.325 57.8266 113.008 58.1759C112.753 58.43 112.214 58.303 111.928 58.2077C110.975 57.9536 110.023 57.6043 109.134 57.128C108.689 56.9057 108.245 56.6517 107.832 56.3659C107.514 56.1436 107.133 55.7308 106.784 55.6355C106.339 55.4767 106.117 55.9848 106.117 56.3341C106.117 56.8105 106.308 57.3185 106.593 57.6678C107.006 58.2077 107.641 58.557 108.245 58.8428C109.07 59.2874 109.928 59.7002 110.817 60.0177C111.134 60.1448 111.515 60.2083 111.864 60.3035C112.087 60.367 112.277 60.4306 112.499 60.4941C112.595 60.4941 112.722 60.5576 112.785 60.6211C112.785 60.6211 112.849 60.7163 112.88 60.7799L112.817 60.7481Z" fill="#F7967C"/>
<path d="M148.538 91.5503C147.745 89.6767 146.665 87.9302 145.712 86.1519C145.617 85.9613 145.046 86.0249 145.173 86.2471C146.093 87.9619 147.11 89.645 147.903 91.3915C148.634 93.0745 149.046 94.9798 148.316 96.7264C148.221 96.9487 148.792 96.9804 148.856 96.8216C149.586 95.1069 149.237 93.2015 148.538 91.5503Z" fill="#DB6357"/>
<path d="M124.978 63.0659C124.978 63.0659 124.724 63.0659 124.629 63.1612C124.248 63.6693 123.867 64.1774 123.359 64.5267C122.914 64.8442 122.279 65.0983 121.708 64.9712C121.581 64.9712 121.422 64.9395 121.327 65.0348C121.231 65.13 121.327 65.2253 121.422 65.257C122.184 65.4476 122.946 65.257 123.613 64.8442C124.248 64.4314 124.724 63.8281 125.169 63.2247C125.232 63.1294 125.042 63.0342 124.978 63.0342V63.0659Z" fill="#DB6357"/>
<path d="M195.056 243.118C194.326 243.118 193.564 243.118 192.865 243.34C192.516 243.436 192.198 243.595 191.913 243.849C188.769 246.421 190.801 253.566 191.023 256.9C191.404 262.394 191.786 267.856 192.167 273.349C192.611 279.319 193.056 285.257 193.532 291.227C193.754 294.212 194.008 297.197 194.23 300.182C194.453 302.945 195.12 305.2 193.246 307.486C192.738 308.121 192.23 308.915 192.484 309.677C196.199 311.074 200.295 310.82 204.233 310.535C204.709 310.503 205.249 310.408 205.439 309.995C205.566 309.741 205.503 309.455 205.439 309.201C204.963 306.502 204.614 304.088 204.518 301.389C204.36 297.451 204.836 293.546 205.312 289.671C206.042 283.574 206.138 277.096 206.36 270.936C206.614 264.235 206.519 257.503 206.106 250.803C205.947 248.517 205.566 245.944 203.693 244.388C201.629 242.642 197.628 243.245 195.056 243.213V243.118Z" fill="#F7967C"/>
<path d="M179.783 173.257C179.021 160.301 178.386 147.344 178.069 134.42C177.942 129.244 177.815 124.036 177.878 118.86C177.91 116.447 178.005 113.97 178.99 111.778C180.926 107.396 185.277 107.015 189.468 106.825C192.484 106.698 197.501 105.269 200.2 106.825C202.709 108.285 204.773 113.493 205.916 116.034C209.44 123.814 209.599 134.261 210.234 142.708C210.964 152.584 211.028 162.492 210.837 172.368C210.329 195.93 209.536 219.461 208.742 243.023C208.361 254.931 207.948 266.808 207.599 278.716C207.503 281.574 207.44 284.432 207.345 287.29C207.313 288.719 208.011 294.943 206.964 295.8C206.17 296.467 202.264 295.8 201.216 295.8C200.2 295.8 190.484 296.689 190.325 294.879C186.547 254.328 182.26 213.967 179.815 173.288L179.783 173.257Z" fill="white"/>
<path d="M200.519 302.786C201.122 302.786 201.693 302.913 202.233 303.231C202.836 303.58 203.281 304.12 203.726 304.628C204.773 305.898 205.885 307.264 205.948 308.915C206.012 310.852 207.822 313.297 205.154 314.472C202.995 315.425 199.598 315.012 197.311 315.012C195.629 315.012 193.946 315.711 192.231 315.901C190.485 316.092 188.707 315.996 186.96 315.933C185.849 315.901 184.737 315.838 183.658 315.647C182.864 315.488 181.276 315.107 182.039 313.964C182.42 313.424 182.864 313.107 183.531 313.011C184.134 312.916 184.737 312.789 185.341 312.63C187.69 311.932 189.659 310.376 191.596 308.851C193.914 307.041 195.152 304.025 198.137 303.167C198.931 302.945 199.756 302.754 200.55 302.786H200.519Z" fill="#F7967C"/>
<path d="M207.282 317.108H181.054C181.054 317.108 180.99 317.076 180.99 317.044C180.609 316.663 180.673 316.092 180.673 315.488C180.673 315.107 180.736 314.853 180.863 314.663C180.927 314.567 181.022 314.504 181.149 314.44H182.769C183.594 314.535 184.42 314.599 185.245 314.631C186.96 314.726 188.643 314.694 190.357 314.567C191.215 314.504 192.072 314.44 192.929 314.345L205.154 314.25C206.234 314.25 207.853 313.361 207.948 315.266C207.98 315.933 207.821 316.727 207.282 317.076V317.108Z" fill="#494848"/>
<path d="M197.66 315.044C197.121 315.139 195.723 315.647 195.279 315.266C195.12 315.107 195.025 314.885 194.93 314.695C194.136 312.885 193.12 311.17 191.85 309.646C191.723 309.487 191.564 309.296 191.5 309.106C191.31 308.471 191.977 308.09 192.326 307.645C192.675 307.169 193.215 306.692 193.818 307.042C194.009 307.137 194.136 307.327 194.263 307.486C195.184 308.693 195.882 309.963 196.644 311.265C197.343 312.408 197.883 313.615 198.137 314.949C198.137 314.949 197.946 315.044 197.66 315.107V315.044Z" fill="#494848"/>
<path d="M190.897 316.6C190.897 316.6 190.802 316.6 190.738 316.6C189.976 316.632 189.214 316.695 188.42 316.6C188.008 316.568 188.039 316.409 187.944 316.092C187.881 315.774 187.754 315.457 187.595 315.139C187.246 314.409 186.865 313.678 186.452 313.012C186.325 312.821 186.229 312.631 186.198 312.44C186.071 311.773 186.833 311.519 187.214 311.106C187.627 310.693 188.198 310.281 188.77 310.693C188.928 310.82 189.055 311.011 189.151 311.202C189.627 311.995 190.008 312.853 190.357 313.71C190.675 314.441 191.278 315.361 191.215 316.155C191.215 316.314 191.151 316.473 191.024 316.568C190.992 316.568 190.929 316.6 190.897 316.632V316.6Z" fill="#494848"/>
<path d="M197.089 312.725C196.93 312.852 196.771 312.979 196.644 313.17C195.946 314.123 197.121 315.456 198.168 315.266C198.391 315.234 198.581 315.139 198.772 315.044C201.375 313.869 203.947 312.725 206.551 311.55C206.678 311.487 206.837 311.423 206.9 311.296C206.996 311.138 206.964 310.947 206.9 310.757C206.773 310.185 206.71 308.978 206.265 308.565C205.884 308.216 205.122 308.565 204.678 308.724C203.916 309.01 203.217 309.518 202.519 309.931C200.994 310.757 199.439 311.55 197.883 312.313C197.597 312.44 197.311 312.567 197.089 312.757V312.725Z" fill="#494848"/>
<path d="M162.733 257.313C162.447 257.408 162.161 257.535 161.907 257.725C158.891 259.917 162.606 268.586 163.336 271.253C164.955 277.7 166.448 284.178 168.258 290.56C169.083 293.482 169.972 296.403 170.417 299.388C170.639 300.849 170.798 302.405 170.703 303.898C170.703 304.31 169.782 306.787 170.353 306.883C174.259 307.549 178.228 306.565 182.038 305.549C182.483 305.422 183.023 305.231 183.15 304.787C183.213 304.533 183.15 304.247 183.023 303.993C179.149 293.863 178.672 282.971 177.529 272.301C176.958 267.03 176.196 261.758 174.672 256.678C174.227 255.122 173.465 254.264 171.782 254.677C168.861 255.407 166.003 256.233 163.145 257.154C162.987 257.217 162.86 257.249 162.701 257.313H162.733Z" fill="#F7967C"/>
<path d="M176.449 298.404C177.053 298.277 177.624 298.245 178.228 298.404C178.894 298.594 179.466 299.007 180.006 299.388C181.339 300.341 182.768 301.421 183.213 303.008C183.753 304.85 186.102 306.787 183.816 308.566C181.974 310.026 178.577 310.471 176.354 311.042C174.735 311.487 173.242 312.567 171.655 313.17C170.004 313.773 168.289 314.154 166.543 314.536C165.463 314.758 164.383 315.012 163.272 315.075C162.478 315.139 160.827 315.139 161.303 313.837C161.526 313.202 161.907 312.821 162.51 312.535C163.082 312.281 163.653 312.027 164.161 311.709C166.257 310.439 167.781 308.439 169.273 306.501C171.052 304.183 171.496 300.944 174.195 299.357C174.894 298.944 175.656 298.563 176.449 298.372V298.404Z" fill="#F7967C"/>
<path d="M186.578 310.566L161.208 317.108C161.208 317.108 161.145 317.108 161.113 317.076C160.636 316.79 160.573 316.25 160.414 315.647C160.319 315.298 160.319 315.012 160.414 314.789C160.446 314.662 160.541 314.567 160.636 314.504L162.192 314.091C163.018 313.964 163.812 313.837 164.637 313.678C166.288 313.329 167.94 312.884 169.559 312.344C170.385 312.09 171.178 311.804 172.004 311.487L183.816 308.343C184.864 308.057 186.197 306.819 186.769 308.629C186.959 309.264 187.023 310.09 186.578 310.566Z" fill="#494848"/>
<path d="M176.767 310.947C176.291 311.17 175.052 312.027 174.512 311.773C174.322 311.678 174.163 311.487 174.004 311.297C172.798 309.741 171.369 308.343 169.781 307.168C169.623 307.041 169.432 306.914 169.305 306.724C168.956 306.152 169.527 305.612 169.718 305.104C169.94 304.564 170.321 303.961 171.02 304.152C171.21 304.215 171.401 304.342 171.56 304.469C172.766 305.39 173.75 306.47 174.83 307.518C175.783 308.439 176.608 309.455 177.18 310.693C177.18 310.693 177.021 310.82 176.735 310.947H176.767Z" fill="#494848"/>
<path d="M170.607 314.155C170.607 314.155 170.511 314.186 170.448 314.218C169.717 314.44 168.987 314.694 168.225 314.79C167.812 314.853 167.781 314.726 167.654 314.44C167.495 314.155 167.304 313.869 167.082 313.583C166.574 312.948 166.002 312.376 165.431 311.805C165.272 311.646 165.113 311.487 165.018 311.297C164.732 310.693 165.399 310.249 165.653 309.772C165.939 309.264 166.415 308.724 167.082 308.978C167.273 309.074 167.431 309.201 167.59 309.359C168.257 310.026 168.828 310.757 169.4 311.487C169.876 312.122 170.702 312.853 170.829 313.646C170.829 313.805 170.829 313.964 170.734 314.091C170.702 314.123 170.67 314.155 170.607 314.186V314.155Z" fill="#494848"/>
<path d="M175.623 308.883C175.496 309.042 175.369 309.232 175.306 309.423C174.861 310.534 176.322 311.519 177.306 311.074C177.497 310.979 177.655 310.852 177.846 310.725C180.069 308.947 182.291 307.168 184.514 305.422C184.641 305.327 184.768 305.231 184.8 305.073C184.863 304.882 184.768 304.691 184.673 304.533C184.387 304.025 184.038 302.881 183.498 302.596C183.053 302.342 182.387 302.881 182.005 303.135C181.339 303.612 180.799 304.279 180.196 304.818C178.925 305.993 177.624 307.168 176.29 308.28C176.068 308.47 175.814 308.693 175.623 308.915V308.883Z" fill="#494848"/>
<path d="M182.959 109.746C178.545 107.999 172.131 105.046 167.273 106.253C163.59 107.142 163.971 111.556 163.685 114.446C163.24 119.304 161.621 124.195 160.446 128.99C157.842 139.659 155.334 150.329 153.238 161.094C151.079 172.145 149.079 183.228 147.904 194.437C146.824 205.044 145.554 217.015 147.84 227.526C150.38 239.117 153.746 250.485 157.43 261.758C161.018 272.714 163.209 283.987 166.987 294.943C167.146 295.387 167.336 295.864 167.717 296.149C168.225 296.499 168.892 296.435 169.496 296.34C173.496 295.768 177.529 295.197 181.53 294.657C182.355 294.53 183.213 294.403 183.848 293.863C185.594 292.402 183.625 287.29 183.34 285.448C182.546 280.43 181.784 275.445 180.704 270.491C178.482 260.234 175.656 250.136 173.75 239.816C173.242 237.148 172.83 234.481 172.385 231.781C171.845 228.479 171.305 225.145 170.766 221.842C170.416 219.746 170.099 217.65 170.258 215.555C170.416 213.332 171.147 211.204 171.845 209.076C173.973 202.789 175.846 196.406 177.719 190.023C180.482 180.624 183.276 171.256 186.039 161.856C189.373 150.552 194.072 138.167 192.262 126.163C191.818 123.274 190.865 120.479 189.5 117.875C188.547 116.065 187.785 113.271 186.388 111.778C185.467 110.794 184.197 110.191 182.927 109.714L182.959 109.746Z" fill="white"/>
<path d="M180.672 160.681C180.672 158.617 180.672 156.585 180.672 154.521C180.672 152.044 180.672 149.535 180.672 147.058C180.672 146.836 180.101 146.836 180.101 147.058C180.101 151.822 180.101 156.585 180.101 161.348C176.957 169.573 173.845 177.829 170.702 186.054C169.114 190.277 167.495 194.469 165.907 198.692C164.447 202.535 162.891 206.441 162.573 210.601C162.224 214.983 163.367 219.302 164.319 223.557C165.272 227.907 166.193 232.289 167.082 236.64C168.86 245.373 170.479 254.169 172.035 262.965C173.591 271.698 175.052 280.462 176.512 289.227C176.703 290.338 176.894 291.449 177.052 292.561C177.084 292.783 177.656 292.751 177.624 292.561C176.163 283.796 174.703 275.032 173.178 266.299C171.654 257.535 170.067 248.802 168.352 240.101C167.495 235.782 166.606 231.432 165.685 227.113C164.764 222.826 163.526 218.508 163.176 214.157C162.827 209.807 163.938 205.679 165.431 201.614C166.955 197.422 168.574 193.262 170.162 189.102L179.688 164.079C179.847 163.666 180.005 163.285 180.132 162.872C180.132 166.334 180.132 169.795 180.132 173.256C180.132 175.733 180.132 178.242 180.132 180.719C180.132 180.941 180.704 180.941 180.704 180.719C180.704 174.273 180.704 167.826 180.704 161.38C180.767 161.221 180.831 161.031 180.894 160.872C180.926 160.777 180.831 160.713 180.704 160.681H180.672Z" fill="#4073A2"/>
<path d="M178.132 143.597C175.751 141.215 173.179 139.056 170.416 137.119C170.258 136.992 169.749 137.151 170.004 137.341C172.734 139.246 175.274 141.374 177.624 143.756C177.751 143.883 178.291 143.787 178.1 143.597H178.132Z" fill="#4073A2"/>
<path d="M182.228 105.491C182.228 105.269 181.656 105.269 181.656 105.491C181.72 112.731 181.561 119.971 181.18 127.18C181.085 129.117 180.958 131.086 180.831 133.023C179.688 132.515 178.513 131.975 177.592 131.086C176.417 129.942 176.068 128.418 175.941 126.862C175.814 125.116 175.814 123.369 175.75 121.623C175.687 119.781 175.623 117.939 175.56 116.097C175.496 114.033 175.433 112.001 175.369 109.937C175.369 109.714 174.798 109.714 174.798 109.937C174.925 113.716 175.052 117.494 175.147 121.273C175.211 123.083 175.211 124.893 175.338 126.672C175.433 128.164 175.719 129.688 176.703 130.863C177.783 132.134 179.37 132.8 180.831 133.467C180.958 133.531 181.307 133.563 181.307 133.372C181.783 126.164 182.069 118.923 182.133 111.683C182.133 109.619 182.133 107.587 182.133 105.523L182.228 105.491Z" fill="#4073A2"/>
<path d="M206.646 141.819C206.265 130.705 205.217 119.336 200.898 108.984C200.359 107.714 199.787 106.475 199.184 105.237C199.089 105.046 198.549 105.11 198.644 105.332C203.788 115.494 205.376 126.926 205.947 138.167C206.55 150.329 206.455 162.523 206.519 174.686C206.582 187.419 206.519 200.153 206.328 212.855C206.169 225.526 205.884 238.196 205.471 250.835C205.09 263.569 204.55 276.271 203.947 289.004C203.883 290.561 203.788 292.148 203.724 293.704C203.724 293.927 204.264 293.927 204.296 293.704C204.931 281.002 205.471 268.268 205.915 255.566C206.328 242.769 206.646 230.003 206.868 217.206C207.058 204.472 207.154 191.738 207.122 179.036C207.122 166.652 207.122 154.235 206.709 141.851L206.646 141.819Z" fill="#4073A2"/>
<path d="M161.653 79.7375C161.24 80.055 160.478 79.9598 160.065 79.7375C155.969 77.6734 152.031 75.3553 148.253 72.7831C148.443 72.2432 148.634 71.7352 148.824 71.1953C152.921 74.0533 157.207 76.5937 161.653 78.8483C162.129 79.0706 162.002 79.4834 161.653 79.7375Z" fill="white"/>
<path d="M227.825 79.833C227.444 80.0553 227.094 80.2776 226.745 80.5316C226.015 81.0714 225.285 81.6748 224.586 82.2146C221.792 84.4057 218.712 86.1523 215.695 87.9623C214.933 88.4069 214.171 88.8832 213.441 89.3595C212.679 89.8676 211.917 90.3757 211.186 90.9473C211.059 91.0426 210.932 91.1378 210.805 91.2331C210.71 91.1378 210.615 91.0426 210.52 90.9473C210.424 90.8203 210.329 90.6933 210.266 90.5663C215.981 86.6921 221.697 82.8497 227.412 78.9756C227.571 79.2614 227.698 79.5154 227.857 79.8012L227.825 79.833Z" fill="white"/>
<path d="M160.319 88.8197C160.319 88.8197 160.16 88.788 160.065 88.7562C158.7 88.3434 157.302 87.3272 156.128 86.7239C154.159 85.7394 152.159 84.8185 150.222 83.7706C148.793 83.0085 147.396 82.2464 145.967 81.4842C145.808 81.4207 145.649 81.3255 145.586 81.1667C145.522 81.0079 145.586 80.8174 145.618 80.6586C145.713 80.4046 145.776 80.1505 145.872 79.8965C150.793 82.7227 155.588 85.7077 160.319 88.8197Z" fill="white"/>
<path d="M214.044 64.1459C214.044 64.1459 214.044 64.3999 214.012 64.5269C213.949 65.035 213.885 65.5431 213.758 66.0194C213.758 66.0829 213.758 66.1465 213.727 66.21C212.869 69.7983 211.663 73.2914 210.583 76.8162C210.52 77.0385 210.456 77.2608 210.393 77.4831C210.234 78.0229 210.107 78.5628 209.98 79.1343C209.377 81.6748 208.964 84.2152 208.361 86.7556V86.8191C208.138 87.7083 207.948 88.5657 207.789 89.4548C207.694 89.9629 207.598 90.5027 207.503 91.0108C206.678 96.1552 206.424 101.363 205.757 106.507C205.693 107.015 205.63 107.555 205.535 108.063C205.471 108.571 205.376 109.048 205.312 109.556C205.249 110.032 205.122 110.699 204.868 111.271H162.891C162.891 111.271 162.637 111.017 162.573 110.89C162.288 110.35 162.129 109.746 162.065 109.143C162.034 108.826 162.002 108.508 161.97 108.19C161.97 108 161.97 107.809 161.938 107.619C161.557 102.284 161.081 96.949 160.446 91.6142C160.382 91.1061 160.319 90.598 160.255 90.0582C160.192 89.6136 160.16 89.169 160.097 88.7244C159.97 87.6448 159.811 86.5651 159.684 85.4854C159.398 83.3578 159.081 81.262 158.89 79.1343C158.827 78.6263 158.795 78.1182 158.763 77.6101C158.699 76.6892 158.668 75.7365 158.636 74.8156C158.604 71.8306 158.922 68.8774 159.271 65.9242C159.335 65.4161 159.398 64.8762 159.462 64.3682C159.493 64.0824 159.525 63.7966 159.557 63.5425C159.938 60.4623 160.922 56.5246 160.287 53.4761C160.097 52.5552 159.684 51.6978 159.493 50.8404C159.398 50.3641 159.366 49.856 159.493 49.3162C159.493 49.1891 159.557 49.0621 159.589 48.9351C159.843 48.7763 160.097 48.6175 160.351 48.4588C161.017 48.0777 161.684 47.7284 162.351 47.3473C162.732 47.1568 163.113 46.9663 163.494 46.744C163.589 46.6805 163.716 46.6487 163.812 46.5852C166.098 45.442 168.575 44.5846 170.956 43.5367C171.305 43.3779 171.655 43.2509 171.972 43.0604C173.306 42.4253 174.608 41.7267 175.814 40.8693C176.163 40.6152 177.116 40.6152 177.529 40.4882C178.227 40.2977 178.862 40.0754 179.593 39.9801C181.307 39.7896 183.022 39.8849 184.737 39.9801C187.372 40.1389 189.976 40.4247 192.579 40.7422C194.04 41.1868 195.469 41.6314 196.93 42.076C197.374 42.2347 197.85 42.3618 198.295 42.5205C199.216 42.8063 200.137 43.1239 201.057 43.4414C203.058 44.1401 205.058 44.8704 206.868 45.9819C207.122 46.1406 207.376 46.2994 207.63 46.4582C208.9 47.6331 210.012 48.9351 211.028 50.3323C211.187 50.5546 211.314 50.7451 211.472 50.9674C211.599 51.2532 211.758 51.5708 211.853 51.8883C212.139 52.6187 212.425 53.3808 212.647 54.1112C213.536 57.0962 214.267 60.8116 214.012 64.1141L214.044 64.1459Z" fill="#FAAC40"/>
<path d="M196.929 42.076C196.929 42.076 196.802 42.2665 196.707 42.3618C192.389 47.9507 182.609 48.2365 176.163 46.3947C174.544 45.9501 172.924 45.315 171.686 44.2671C171.4 44.0448 171.146 43.7908 170.924 43.505C171.273 43.3462 171.622 43.2192 171.94 43.0286C173.274 42.3935 174.575 41.6949 175.782 40.8375C176.131 40.5835 177.084 40.5835 177.497 40.4565C178.195 40.2659 178.83 40.0436 179.561 39.9484C181.275 39.7579 182.99 39.8531 184.704 39.9484C187.34 40.1072 189.944 40.393 192.547 40.7105C194.008 41.1551 195.437 41.5997 196.897 42.0442L196.929 42.076Z" fill="#F7967C"/>
<path d="M223.094 71.7986C221.379 72.8465 219.664 73.8944 217.95 74.8789C214.362 76.9429 210.742 78.9435 207.059 80.7853C206.9 80.8806 206.741 80.9441 206.582 81.0394C206.582 80.9759 206.519 80.8806 206.487 80.8171C206.36 80.4043 206.201 80.0232 206.074 79.6104C206.233 79.5151 206.392 79.4516 206.551 79.3563C210.012 77.5781 213.441 75.7045 216.807 73.7357C218.648 72.656 220.49 71.5446 222.332 70.4014C222.586 70.8777 222.84 71.3223 223.094 71.7986Z" fill="white"/>
<path d="M188.61 106.698C179.751 106.92 170.797 107.777 161.906 107.65C161.906 107.841 161.906 108.031 161.938 108.222C161.938 108.539 161.97 108.857 162.033 109.175C170.702 109.27 179.402 108.476 188.039 108.254C193.849 108.095 199.692 108.063 205.503 108.095C205.566 107.587 205.661 107.079 205.725 106.539C200.009 106.475 194.294 106.539 188.61 106.666V106.698ZM212.552 50.3321C212.044 50.3321 211.567 50.3321 211.059 50.3321C208.614 50.3321 206.169 50.3639 203.693 50.3956C201.184 50.3956 198.644 50.4274 196.136 50.4591C192.579 50.4591 189.023 50.5226 185.467 50.5544C180.323 50.5861 175.242 50.6179 170.162 50.2051C169.273 50.1416 168.352 50.0463 167.463 49.951C164.796 49.6652 162.097 49.3794 159.43 49.2842C159.271 49.2842 159.144 49.2842 158.985 49.2842C158.509 49.7605 158.096 50.2368 157.683 50.7767C158.287 50.7767 158.858 50.7767 159.461 50.8084C162.065 50.9037 164.701 51.2212 167.273 51.507C168.352 51.6341 169.432 51.7293 170.511 51.7928C175.115 52.1104 179.72 52.1422 184.387 52.1104L196.136 52.0151L211.917 51.8881H213.536C213.219 51.3483 212.901 50.8084 212.583 50.3321H212.552ZM219.442 64.4949C217.632 64.4949 215.822 64.4949 214.012 64.4949C209.821 64.4949 205.661 64.5267 201.47 64.5585C201.28 64.5585 201.089 64.5585 200.899 64.5585C200.295 64.5585 199.66 64.5585 199.057 64.5585C189.277 64.5585 179.466 64.5585 169.686 64.4949C168.066 64.4949 166.447 64.4632 164.828 64.4314C163.018 64.4314 161.24 64.3679 159.43 64.3362C156.762 64.2727 154.095 64.2091 151.46 64.1456C151.269 64.6537 151.047 65.1618 150.856 65.7016C153.651 65.7969 156.445 65.8604 159.239 65.9239C162.605 65.9874 165.971 66.0509 169.336 66.0827C179.434 66.178 189.531 66.1462 199.628 66.0827C200.232 66.0827 200.835 66.0827 201.438 66.0827C201.629 66.0827 201.819 66.0827 202.01 66.0827C205.947 66.0827 209.884 66.051 213.79 66.0192C215.917 66.0192 218.045 66.0192 220.172 66.0192C219.95 65.5111 219.696 65.003 219.474 64.5267L219.442 64.4949ZM171.781 89.9627C167.939 89.9944 164.097 90.0579 160.223 90.0897C160.287 90.5978 160.35 91.1058 160.414 91.6457C176.1 91.4869 191.786 91.2646 207.471 91.0423C207.567 90.5343 207.63 89.9944 207.757 89.4863C195.755 89.6769 183.752 89.8356 171.781 89.9627ZM205.947 77.6099C205.757 77.6099 205.566 77.6099 205.376 77.6099C204.963 77.6099 204.582 77.6099 204.169 77.6416C201.438 77.7369 198.739 77.8639 196.072 77.8957C186.134 78.0544 176.163 78.0227 166.225 77.8004C165.431 77.8004 164.637 77.7686 163.843 77.7369C162.129 77.7051 160.446 77.6734 158.731 77.6099C158.763 78.1179 158.826 78.626 158.858 79.1341C159.049 79.1341 159.239 79.1341 159.398 79.1341C161.525 79.1976 163.653 79.2611 165.812 79.3246C168.987 79.3882 172.194 79.4517 175.369 79.4834C185.213 79.5787 195.056 79.4834 204.868 79.2294C205.217 79.2294 205.566 79.2294 205.947 79.2294C206.138 79.2294 206.328 79.2294 206.519 79.2294C206.328 78.6895 206.138 78.1497 205.947 77.6099Z" fill="white"/>
<path d="M208.201 85.7395C207.662 84.1835 207.122 82.6274 206.582 81.0714C206.582 81.0079 206.519 80.9127 206.487 80.8491C206.36 80.4363 206.201 80.0553 206.074 79.6425C206.042 79.5154 205.979 79.3884 205.947 79.2614C205.757 78.7215 205.566 78.1817 205.376 77.6419C204.042 73.7995 202.74 69.9571 201.406 66.1147C201.248 65.6066 201.057 65.0985 200.898 64.5905C200.771 64.2412 200.676 63.9236 200.549 63.5743C200.486 63.352 201.025 63.2885 201.089 63.479C201.216 63.8283 201.343 64.2094 201.47 64.5587C201.629 65.0668 201.819 65.5749 201.978 66.083C202.232 66.8451 202.518 67.6072 202.772 68.4011C203.82 71.4496 204.867 74.5299 205.947 77.5784C206.138 78.1182 206.328 78.658 206.519 79.1979C206.519 79.2614 206.55 79.2931 206.582 79.3567C206.741 79.833 206.9 80.3093 207.09 80.7856C207.662 82.4052 208.201 84.0247 208.773 85.6124C208.837 85.8347 208.297 85.8982 208.233 85.7077L208.201 85.7395Z" fill="#FC5B35"/>
<path d="M161.303 62.7803C161.367 62.5581 160.827 62.4946 160.763 62.6851C158.572 69.0361 157.874 75.8635 158.699 82.5321C158.922 84.4057 159.271 86.2475 159.747 88.0575C159.811 88.2481 160.35 88.2163 160.287 87.9623C158.636 81.5477 158.477 74.7838 159.811 68.274C160.192 66.4004 160.7 64.5586 161.303 62.7486V62.7803Z" fill="#FC5B35"/>
<path d="M198.803 42.9014C196.485 46.2357 192.547 47.7917 188.674 48.3633C186.451 48.6809 184.196 48.8079 181.942 48.7761C179.783 48.7761 177.592 48.5221 175.496 47.9188C173.369 47.2836 171.368 46.2357 169.749 44.648C169.622 44.5209 169.082 44.6162 169.273 44.8067C172.384 47.8235 176.766 48.9032 180.989 49.0619C183.339 49.1572 185.689 49.0619 188.007 48.7761C190.166 48.5221 192.357 48.014 194.326 47.0931C196.294 46.1722 198.072 44.8067 199.311 42.9967C199.438 42.8379 198.898 42.7426 198.771 42.9014H198.803Z" fill="#FC5B35"/>
<path d="M192.866 42.4253C192.802 44.1083 191.119 44.6482 189.913 44.9657C188.547 45.3468 187.15 45.6326 185.753 45.8231C183.276 46.1407 180.609 46.1089 178.418 44.7117C178.037 44.4894 177.688 44.2036 177.466 43.8225C176.989 43.0922 176.958 42.076 176.958 41.1551C176.958 40.0119 176.862 38.8687 176.767 37.7573C176.704 37.1857 176.672 36.6141 176.608 36.0425C176.481 34.7723 176.323 33.5021 176.196 32.2319C176.132 31.438 176.068 30.6441 176.037 29.8502C176.037 29.755 176.037 29.6915 176.037 29.5962V29.3104C176.037 28.8658 176.005 28.4212 176.132 27.9767C176.545 26.643 178.831 27.0875 179.879 27.0558L187.753 26.77C188.325 26.77 189.69 26.1666 190.135 26.6747C190.389 26.9605 190.325 28.453 190.389 28.8976C190.484 29.6915 190.579 30.4853 190.706 31.2792C191.151 34.4547 191.786 37.5985 192.58 40.6788C192.739 41.2504 192.866 41.822 192.866 42.4253Z" fill="#F7967C"/>
<path d="M187.119 32.708C186.134 36.3281 182.769 38.7098 179.466 38.6145C179.085 38.6145 178.673 38.5827 178.292 38.4875C177.784 38.3605 177.275 38.1064 176.767 37.7571C176.704 37.1855 176.672 36.6139 176.609 36.0423C176.482 34.7721 176.323 33.5019 176.196 32.2317C176.132 31.4378 176.069 30.6439 176.037 29.8501C176.101 29.8183 176.132 29.7548 176.196 29.723C177.466 28.7704 179.022 28.4528 180.546 28.3576C182.134 28.2623 183.753 28.3576 185.245 28.9609C186.96 29.6595 187.69 30.6439 187.119 32.7398V32.708Z" fill="#DB6357"/>
<path d="M170.67 7.74851C172.893 5.36687 175.56 3.87437 178.894 3.96964C181.942 4.0649 184.927 5.17634 187.277 7.11341C191.119 10.2889 192.484 14.7982 192.262 19.625C192.135 22.3877 191.468 25.1186 190.484 27.6908C189.436 30.39 187.848 32.9622 185.657 34.931C183.816 36.5505 181.085 37.4397 178.64 37.1221C176.481 36.8363 174.734 35.7249 173.337 34.0736C172.226 32.7399 171.4 31.2156 170.67 29.6596C169.114 26.3888 168.543 22.9593 167.971 19.4027C167.717 17.7197 167.527 16.0366 167.717 14.3536C167.971 12.1625 168.955 9.90787 170.321 8.16133C170.416 8.03431 170.543 7.87553 170.67 7.74851Z" fill="#F7967C"/>
<path d="M171.591 9.36797C169.749 11.3368 168.257 13.6232 167.114 16.0683C167.05 15.6555 166.765 15.4015 166.701 14.9886C165.749 9.24094 170.226 3.33447 175.274 1.1116C178.831 -0.444408 183.117 -0.412653 186.515 1.49266C189.214 3.01691 192.04 5.52558 193.056 8.47882C194.675 13.2104 195.405 20.1012 191.5 23.8801C191.436 23.9436 191.341 24.0071 191.246 24.0389C191.024 24.0389 190.928 23.7848 190.897 23.5626C190.738 22.5781 190.547 21.4985 190.23 20.4823C189.658 18.6405 188.388 17.6243 186.991 16.3859C185.149 14.7346 183.911 12.5435 182.165 10.8287C180.291 9.01866 178.227 7.43089 175.909 6.2242C175.782 6.16069 175.655 6.09717 175.528 6.09717C175.338 6.09717 175.179 6.2242 175.052 6.31946C173.845 7.24036 172.702 8.25653 171.655 9.39972L171.591 9.36797Z" fill="#FC5B35"/>
<path d="M191.468 17.8784C192.198 17.9102 192.897 18.323 193.246 18.9264C193.595 19.498 193.659 20.1966 193.627 20.8317C193.532 23.3403 191.69 26.5476 189.023 27.0557C188.896 27.0557 188.737 27.0875 188.61 27.0557C188.419 26.9922 188.292 26.7699 188.197 26.5794C187.467 24.9916 187.848 22.6417 188.292 21.0222C188.515 20.2918 188.8 19.5297 189.277 18.9264C189.753 18.323 190.483 17.8784 191.245 17.8467C191.309 17.8467 191.372 17.8467 191.436 17.8467L191.468 17.8784Z" fill="#F7967C"/>
<path d="M168.829 20.1333C168.829 20.1333 168.829 20.165 168.797 20.1968C168.797 20.2285 168.67 20.3873 168.638 20.3238C168.606 20.2921 168.606 20.1968 168.606 20.165C168.606 19.8157 168.765 19.5299 168.924 19.2759C169.242 18.7043 169.591 18.2915 170.099 18.0374C170.702 17.7516 171.369 17.6246 172.067 17.5929C172.417 17.5929 173.242 17.5293 173.179 18.3867C173.179 18.6725 172.925 18.7678 172.734 18.8313C172.48 18.8948 172.226 18.8948 171.94 18.8313C171.559 18.7678 171.178 18.6725 170.797 18.6725C170.416 18.6725 170.067 18.8631 169.781 19.0854C169.527 19.2759 169.337 19.4982 169.114 19.784C169.019 19.911 168.956 20.038 168.86 20.1333H168.829Z" fill="#FC5B35"/>
<path d="M185.467 18.069C185.213 17.3704 183.943 16.7988 183.308 16.5448C181.943 15.9732 180.355 15.8462 178.926 16.259C178.386 16.4178 177.878 17.0846 178.545 17.4974C178.736 17.6245 178.99 17.6245 179.212 17.6245C179.752 17.6245 180.323 17.5927 180.863 17.4657C181.593 17.3069 182.355 17.0211 183.086 17.1481C183.53 17.2116 183.943 17.4339 184.356 17.6245C184.642 17.7832 185.15 18.1325 185.467 18.0373V18.069Z" fill="#FC5B35"/>
<path d="M180.926 20.2918C181.085 20.006 181.434 19.9742 181.72 20.0377C181.974 20.0377 182.228 20.1648 182.387 20.3235C182.641 20.5776 182.8 20.9269 182.831 21.2762C182.863 21.5937 182.831 21.9431 182.704 22.2289C182.546 22.5782 182.196 22.7369 181.815 22.7052C181.815 22.7052 181.784 22.7052 181.752 22.7052C181.688 22.7052 181.657 22.7052 181.593 22.6734C181.561 22.6734 181.53 22.6734 181.498 22.6417C181.434 22.6417 181.339 22.5782 181.276 22.5464C180.958 22.3241 180.768 21.9113 180.736 21.5302C180.704 21.3079 180.736 21.0539 180.736 20.8316C180.736 20.6411 180.799 20.4506 180.895 20.2918H180.926Z" fill="#2D2C2C"/>
<path d="M170.957 21.6258C171.115 21.34 171.465 21.3082 171.75 21.3717C172.004 21.3717 172.258 21.4987 172.417 21.6575C172.671 21.9116 172.83 22.2609 172.862 22.6102C172.893 22.9277 172.862 23.277 172.735 23.5628C172.576 23.9121 172.227 24.0709 171.846 24.0392C171.846 24.0392 171.814 24.0392 171.782 24.0392C171.719 24.0392 171.687 24.0392 171.623 24.0074C171.592 24.0074 171.56 24.0074 171.528 23.9757C171.465 23.9757 171.369 23.9121 171.306 23.8804C170.988 23.6581 170.798 23.2453 170.766 22.8642C170.734 22.6419 170.766 22.3879 170.766 22.1656C170.766 21.9751 170.83 21.7845 170.925 21.6258H170.957Z" fill="#2D2C2C"/>
<path d="M178.069 27.6589C177.561 27.6589 177.085 27.6589 176.608 27.5001C176.386 27.4366 176.132 27.3413 176.037 27.1191C175.941 26.9285 175.973 26.6745 176.005 26.4522C176.068 25.436 176.164 24.4516 176.164 23.4354C176.164 21.7207 175.814 19.9424 174.703 18.5769C174.576 18.4181 174.036 18.5134 174.227 18.7357C175.56 20.3552 175.687 22.5145 175.592 24.5151C175.592 25.055 175.529 25.6266 175.465 26.1664C175.465 26.5475 175.338 27.0238 175.592 27.3413C175.846 27.6271 176.259 27.7224 176.608 27.8177C177.085 27.9447 177.593 27.9764 178.069 27.9447C178.418 27.9447 178.418 27.6271 178.069 27.6271V27.6589Z" fill="#DB6357"/>
<path d="M180.672 29.469C180.672 29.469 180.513 29.1832 180.323 29.1197C179.942 28.9927 179.529 29.1197 179.18 29.2785C178.83 29.469 178.481 29.6913 178.1 29.7548C177.751 29.8183 177.401 29.7548 177.02 29.6913C176.671 29.6278 176.29 29.596 175.973 29.7548C175.687 29.8818 175.401 30.1041 175.528 30.4534C175.623 30.6757 175.814 30.8027 176.004 30.9298C176.354 31.1838 176.735 31.3743 177.147 31.5014C177.814 31.6919 178.545 31.6601 179.18 31.3743C179.846 31.0885 180.894 30.2629 180.609 29.4373L180.672 29.469Z" fill="white"/>
<path d="M188.483 14.4803C185.975 10.7014 182.545 7.62119 178.545 5.52534C178.386 5.43008 177.846 5.58885 178.132 5.74763C182.069 7.77997 185.467 10.8285 187.943 14.5438C188.07 14.7026 188.61 14.6391 188.483 14.4486V14.4803Z" fill="#F7B576"/>
<path d="M188.292 9.43126C187.213 7.62121 185.752 6.09696 183.974 4.98552C183.815 4.89026 183.307 5.01728 183.561 5.20781C185.276 6.28749 186.705 7.77998 187.752 9.52652C187.848 9.71705 188.419 9.62179 188.292 9.43126Z" fill="#F7B576"/>
<path d="M211.98 36.7727C210.869 35.0261 209.345 33.6606 207.503 32.7397C205.629 31.7871 203.534 31.0885 202.327 29.2467C201.343 27.7542 200.93 25.9759 200.454 24.2611C199.914 22.3875 199.279 20.4505 197.691 19.212C197.533 19.085 196.993 19.212 197.215 19.3708C200.073 21.6254 199.819 25.8171 201.47 28.8021C201.914 29.596 202.486 30.2946 203.216 30.8662C204.042 31.5013 204.963 31.9459 205.915 32.3904C206.9 32.835 207.884 33.3113 208.773 33.9464C209.599 34.5498 210.361 35.2802 210.964 36.1058C212.361 37.9794 213.155 40.2975 213.123 42.6156C213.123 42.8379 213.695 42.8379 213.695 42.6156C213.695 40.5515 213.123 38.5192 212.043 36.7727H211.98Z" fill="#F7B576"/>
<path d="M204.931 36.2325C204.931 36.2325 204.265 36.2007 204.455 36.3912C206.138 38.106 207.218 40.3606 207.503 42.7423C207.503 42.9646 208.107 42.9328 208.075 42.7423C207.757 40.2971 206.678 38.0107 204.931 36.2325Z" fill="#F7B576"/>
<path d="M195.468 28.802C195.468 28.802 195.246 28.675 195.119 28.7068C195.056 28.7068 194.833 28.802 194.929 28.8973C195.691 29.9452 196.135 31.1837 196.262 32.4856C196.262 32.7079 196.834 32.7079 196.834 32.4856C196.739 31.1519 196.262 29.8817 195.5 28.802H195.468Z" fill="#F7B576"/>
<path d="M218.902 49.2204C218.902 49.2204 218.648 49.1251 218.521 49.1569C218.458 49.1569 218.299 49.2839 218.426 49.3792C221.411 51.5703 222.998 55.3809 222.49 59.0328C222.49 59.2233 223.03 59.255 223.062 59.0328C223.57 55.3174 221.919 51.4433 218.934 49.2204H218.902Z" fill="#F7B576"/>
</g>
<defs>
<clipPath id="clip0_121_686">
<rect width="308" height="328" fill="white"/>
</clipPath>
</defs>
</svg>
