<svg width="80" height="80" viewBox="0 0 80 80" fill="none" xmlns="http://www.w3.org/2000/svg">
<rect width="80" height="80" rx="20" fill="#FFCE1F"/>
<path d="M27.6074 9.5713C25.8503 9.5713 24.361 10.8892 24.1789 12.6517C23.9146 15.1659 23.4824 19.7177 23.4824 22.5177C23.4824 25.1606 24.6931 27.5213 26.5842 29.0749C27.2056 29.5856 27.5003 30.1463 27.5003 30.6177V31.7999L27.4985 31.8838C27.4253 32.9534 26.6074 44.8963 26.6074 47.0713C26.6074 47.7748 26.746 48.4714 27.0152 49.1214C27.2844 49.7713 27.679 50.3619 28.1765 50.8594C28.6739 51.3568 29.2645 51.7514 29.9145 52.0207C30.5644 52.2899 31.2611 52.4284 31.9646 52.4284C32.6681 52.4284 33.3647 52.2899 34.0147 52.0207C34.6646 51.7514 35.2552 51.3568 35.7526 50.8594C36.2501 50.3619 36.6447 49.7713 36.9139 49.1214C37.1831 48.4714 37.3217 47.7748 37.3217 47.0713C37.3217 44.8963 36.5056 32.9534 36.4306 31.8838L36.4289 31.7999V30.6177C36.4289 30.1445 36.7235 29.5856 37.3449 29.0749C38.3156 28.2801 39.0974 27.2795 39.6338 26.1454C40.1703 25.0114 40.4479 23.7723 40.4467 22.5177C40.4467 19.7177 40.0146 15.1659 39.7503 12.6517C39.661 11.8051 39.2612 11.0216 38.6279 10.4526C37.9947 9.88371 37.173 9.5697 36.3217 9.5713C35.5056 9.5713 34.7538 9.85344 34.161 10.3267C33.5335 9.83718 32.7604 9.57133 31.9646 9.5713C31.1687 9.57133 30.3957 9.83718 29.7681 10.3267C29.155 9.83606 28.3927 9.56957 27.6074 9.5713ZM31.0717 13.1427C31.0717 12.9059 31.1658 12.6788 31.3332 12.5114C31.5007 12.3439 31.7278 12.2499 31.9646 12.2499C32.2014 12.2499 32.4285 12.3439 32.5959 12.5114C32.7634 12.6788 32.8574 12.9059 32.8574 13.1427V22.5177C32.8574 22.8729 32.9985 23.2136 33.2497 23.4647C33.5009 23.7159 33.8415 23.857 34.1967 23.857C34.5519 23.857 34.8926 23.7159 35.1437 23.4647C35.3949 23.2136 35.536 22.8729 35.536 22.5177V13.0356C35.536 12.8272 35.6188 12.6273 35.7661 12.48C35.9135 12.3326 36.1133 12.2499 36.3217 12.2499C36.7235 12.2499 37.0485 12.5481 37.0878 12.9302C37.3521 15.4659 37.7681 19.8802 37.7681 22.5177C37.7694 23.3764 37.5795 24.2246 37.2123 25.0008C36.8451 25.777 36.3097 26.4617 35.6449 27.0052C34.6842 27.7945 33.7503 29.0409 33.7503 30.6177V31.7999C33.7503 31.8892 33.7521 31.9713 33.7592 32.0677C33.8378 33.2195 34.6431 45.0159 34.6431 47.0713C34.6431 47.7817 34.3609 48.463 33.8586 48.9653C33.3563 49.4677 32.675 49.7499 31.9646 49.7499C31.2542 49.7499 30.5729 49.4677 30.0705 48.9653C29.5682 48.463 29.286 47.7817 29.286 47.0713C29.286 45.0177 30.0896 33.2195 30.1699 32.0677C30.1771 31.9713 30.1789 31.8892 30.1789 31.7999V30.6177C30.1789 29.0392 29.2449 27.7945 28.2842 27.0052C27.6195 26.4617 27.0841 25.777 26.7168 25.0008C26.3496 24.2246 26.1597 23.3764 26.161 22.5177C26.161 19.8802 26.5771 15.4677 26.8414 12.9302C26.8617 12.7419 26.9515 12.568 27.0931 12.4422C27.2347 12.3164 27.418 12.2479 27.6074 12.2499C27.8158 12.2499 28.0157 12.3326 28.163 12.48C28.3104 12.6273 28.3931 12.8272 28.3931 13.0356V22.5177C28.3931 22.8729 28.5342 23.2136 28.7854 23.4647C29.0366 23.7159 29.3772 23.857 29.7324 23.857C30.0876 23.857 30.4283 23.7159 30.6794 23.4647C30.9306 23.2136 31.0717 22.8729 31.0717 22.5177V13.1427ZM55.1789 12.2606V29.6606C55.1789 30.2856 55.3467 33.2267 55.5324 36.4642L55.5431 36.6517C55.7931 41.0017 56.0717 45.8749 56.0717 47.0713C56.0717 47.7817 55.7895 48.463 55.2872 48.9653C54.7848 49.4677 54.1035 49.7499 53.3931 49.7499C52.6827 49.7499 52.0014 49.4677 51.4991 48.9653C50.9968 48.463 50.7146 47.7817 50.7146 47.0713C50.7146 46.0088 50.9342 41.7088 51.1592 37.607C51.2909 35.2032 51.4266 32.7996 51.5663 30.3963L51.6056 29.7392L51.6074 29.6606C51.6074 29.3054 51.4663 28.9647 51.2152 28.7136C50.964 28.4624 50.6233 28.3213 50.2681 28.3213H46.6967C46.5783 28.3213 46.4648 28.2743 46.381 28.1905C46.2973 28.1068 46.2503 27.9933 46.2503 27.8749V21.6249C46.2503 19.2158 47.1777 16.8991 48.8402 15.1556C50.5026 13.412 52.7725 12.3753 55.1789 12.2606ZM48.8485 30.9999L48.7914 31.9927C48.7074 33.4517 48.5949 35.4213 48.4842 37.4606C48.2628 41.5088 48.036 45.9142 48.036 47.0713C48.036 47.7748 48.1746 48.4714 48.4438 49.1214C48.713 49.7713 49.1076 50.3619 49.6051 50.8594C50.1025 51.3568 50.6931 51.7514 51.343 52.0207C51.993 52.2899 52.6896 52.4284 53.3931 52.4284C54.0966 52.4284 54.7933 52.2899 55.4432 52.0207C56.0932 51.7514 56.6838 51.3568 57.1812 50.8594C57.6787 50.3619 58.0733 49.7713 58.3425 49.1214C58.6117 48.4714 58.7503 47.7748 58.7503 47.0713C58.7503 45.7838 58.4681 40.8677 58.2253 36.6159L58.2181 36.4981C58.0235 33.107 57.8574 30.1963 57.8574 29.6606V10.9106C57.8574 10.5554 57.7163 10.2147 57.4652 9.96356C57.214 9.7124 56.8733 9.5713 56.5181 9.5713H55.6253C52.4285 9.5713 49.3626 10.8412 47.1021 13.1017C44.8416 15.3622 43.5717 18.4281 43.5717 21.6249V27.8749C43.5717 29.5999 44.9717 30.9999 46.6967 30.9999H48.8485Z" fill="white"/>
<path d="M28.8351 66.2027H26.3391L25.8058 70H23.7364L25.1018 60.3147H30.1578L29.9231 61.9787H26.9364L26.5524 64.624H29.0484L28.8351 66.2027ZM34.8785 68.5707C35.4617 68.5707 35.9168 68.2791 36.2439 67.696C36.571 67.0987 36.8057 66.2596 36.9479 65.1787C37.1043 64.0836 37.0972 63.2444 36.9265 62.6613C36.7559 62.064 36.3861 61.7653 35.8172 61.7653C35.2625 61.7653 34.8217 62.064 34.4945 62.6613C34.1674 63.2444 33.9257 64.0836 33.7692 65.1787C33.6128 66.2596 33.6128 67.0987 33.7692 67.696C33.9257 68.2791 34.2954 68.5707 34.8785 68.5707ZM36.0519 60.144C37.2465 60.144 38.107 60.5493 38.6332 61.36C39.1594 62.1707 39.3017 63.4436 39.0599 65.1787C38.8181 66.8996 38.3203 68.1653 37.5665 68.976C36.8128 69.7867 35.8385 70.192 34.6439 70.192C32.1834 70.192 31.1879 68.5209 31.6572 65.1787C31.899 63.4436 32.3968 62.1707 33.1505 61.36C33.9043 60.5493 34.8714 60.144 36.0519 60.144ZM44.0148 68.5707C44.5979 68.5707 45.053 68.2791 45.3801 67.696C45.7072 67.0987 45.9419 66.2596 46.0841 65.1787C46.2406 64.0836 46.2335 63.2444 46.0628 62.6613C45.8921 62.064 45.5223 61.7653 44.9535 61.7653C44.3988 61.7653 43.9579 62.064 43.6308 62.6613C43.3037 63.2444 43.0619 64.0836 42.9055 65.1787C42.749 66.2596 42.749 67.0987 42.9055 67.696C43.0619 68.2791 43.4317 68.5707 44.0148 68.5707ZM45.1881 60.144C46.3828 60.144 47.2432 60.5493 47.7695 61.36C48.2957 62.1707 48.4379 63.4436 48.1961 65.1787C47.9543 66.8996 47.4566 68.1653 46.7028 68.976C45.949 69.7867 44.9748 70.192 43.7801 70.192C41.3197 70.192 40.3241 68.5209 40.7935 65.1787C41.0352 63.4436 41.533 62.1707 42.2868 61.36C43.0406 60.5493 44.0077 60.144 45.1881 60.144ZM52.5324 68.4853C53.215 68.4853 53.7413 68.2151 54.111 67.6747C54.495 67.12 54.7724 66.288 54.943 65.1787C55.0995 64.0124 55.0568 63.1662 54.815 62.64C54.5875 62.1138 54.1395 61.8507 53.471 61.8507C53.471 61.8507 53.3502 61.8507 53.1084 61.8507C52.9946 61.8507 52.8808 61.8578 52.767 61.872L51.8284 68.4853C52.0702 68.4853 52.3048 68.4853 52.5324 68.4853ZM50.9324 60.3147C50.9324 60.3147 51.7857 60.2933 53.4924 60.2507C54.175 60.2507 54.7653 60.3218 55.263 60.464C55.775 60.592 56.1875 60.8409 56.5004 61.2107C57.0977 61.9502 57.2755 63.2729 57.0337 65.1787C56.6782 67.8667 55.647 69.4311 53.9404 69.872C53.3999 70.0142 52.8168 70.0853 52.191 70.0853C51.5653 70.0853 51.0319 70.0711 50.591 70.0427C50.1502 70.0142 49.8088 70 49.567 70L50.9324 60.3147Z" fill="white"/>
</svg>
