<svg width="80" height="80" viewBox="0 0 80 80" fill="none" xmlns="http://www.w3.org/2000/svg">
<rect width="80" height="80" rx="20" fill="#1FD7FF"/>
<path d="M55.44 21.0216C56.9586 31.8204 48.774 40.8721 42.5914 41.7423C36.4088 42.6124 26.0406 36.127 24.525 25.3673C24.2397 23.3376 24.357 21.2716 24.8701 19.2873C25.3833 17.303 26.2822 15.4392 27.5157 13.8022C28.7492 12.1653 30.293 10.7874 32.0589 9.74714C33.8249 8.70686 35.7785 8.0246 37.8082 7.73932C39.8378 7.45405 41.9038 7.57133 43.8881 8.08448C45.8725 8.59763 47.7363 9.4966 49.3732 10.7301C51.0101 11.9635 52.388 13.5073 53.4283 15.2733C54.4686 17.0393 55.1508 18.9929 55.4361 21.0225L55.44 21.0216Z" stroke="white" stroke-width="2.5" stroke-miterlimit="10"/>
<path d="M38.0527 36.083C34.8467 34.8135 31.502 31.874 30.0186 27.7373M50.9082 54.416C47.7021 53.1465 44.7256 50.5039 43.2422 46.3682" stroke="white" stroke-width="2.5" stroke-miterlimit="10" stroke-linecap="round"/>
<path d="M41.0459 41.958L40.1504 46.8027L46.333 45.9336L44.1367 41.5234L41.0459 41.958Z" stroke="white" stroke-width="2.5" stroke-linecap="round" stroke-linejoin="round"/>
<path d="M23.5738 66.2027H21.0778L20.5445 70H18.4752L19.8405 60.3147H24.8965L24.6618 61.9787H21.6752L21.2912 64.624H23.7872L23.5738 66.2027ZM28.0813 70H26.0333L27.3986 60.3147H29.4466L28.0813 70ZM30.4664 70L31.8317 60.3147H37.0584L36.8024 61.9787H33.6664L33.3464 64.2187H35.7357L35.5224 65.776H33.1117L32.7491 68.336H35.9277L35.7144 70H30.4664ZM42.7149 60.144C43.3975 60.144 43.9024 60.208 44.2295 60.336C44.5567 60.464 44.7842 60.5636 44.9122 60.6347C45.0544 60.7058 45.1611 60.7556 45.2322 60.784L44.5282 62.256L44.2509 62.1067C43.6678 61.8222 43.1558 61.68 42.7149 61.68C42.3451 61.68 42.018 61.808 41.7335 62.064C41.4775 62.3058 41.3495 62.5333 41.3495 62.7467C41.3069 63.0453 41.3567 63.3013 41.4989 63.5147C41.6553 63.728 41.8544 63.9271 42.0962 64.112C42.338 64.2969 42.6011 64.4818 42.8855 64.6667C43.1842 64.8516 43.4473 65.0649 43.6749 65.3067C44.2438 65.8613 44.4642 66.5582 44.3362 67.3973C44.2224 68.2364 43.8598 68.912 43.2482 69.424C42.6367 69.936 41.7975 70.192 40.7309 70.192C39.8633 70.192 39.1095 70.0142 38.4695 69.6587C38.3415 69.5733 38.2349 69.5093 38.1495 69.4667L38.8322 67.9947C38.9033 68.0231 38.9958 68.0729 39.1095 68.144C39.2375 68.2151 39.3798 68.2791 39.5362 68.336C39.9344 68.5067 40.3042 68.592 40.6455 68.592C41.2713 68.592 41.7407 68.3787 42.0535 67.952C42.1531 67.824 42.2171 67.6462 42.2455 67.4187C42.2882 67.1769 42.2313 66.9636 42.0749 66.7787C41.9184 66.5796 41.7193 66.3947 41.4775 66.224C41.2358 66.0391 40.9727 65.8542 40.6882 65.6693C40.4038 65.4702 40.1407 65.2498 39.8989 65.008C39.3442 64.4533 39.1238 63.7564 39.2375 62.9173C39.3513 62.064 39.714 61.3884 40.3255 60.8907C40.9371 60.3929 41.7335 60.144 42.7149 60.144ZM52.3643 61.9787H50.4016L49.271 70H47.223L48.3323 61.9787H46.3483L46.5616 60.3147H52.6203L52.3643 61.9787ZM58.7365 62.2133C58.6369 62.4551 58.5231 62.7609 58.3951 63.1307C58.2671 63.5004 58.1249 63.8987 57.9685 64.3253C57.812 64.7378 57.6485 65.1716 57.4778 65.6267C57.3213 66.0676 57.1578 66.5013 56.9871 66.928H59.0778C59.0493 66.5013 59.0138 66.0676 58.9711 65.6267C58.9285 65.1716 58.8929 64.7378 58.8645 64.3253C58.836 63.8987 58.8076 63.5004 58.7791 63.1307C58.7507 62.7609 58.7365 62.4551 58.7365 62.2133ZM57.8191 60.3147H60.2725L61.5525 70H59.3978L59.2058 68.3147H56.4965L55.8138 70H53.7658L57.8191 60.3147Z" fill="white"/>
</svg>
