<svg width="80" height="80" viewBox="0 0 80 80" fill="none" xmlns="http://www.w3.org/2000/svg">
<rect width="80" height="80" rx="20" fill="#FFACB6"/>
<path d="M27.4997 51.8332C26.3538 51.8332 25.3733 51.4255 24.558 50.6103C23.7427 49.795 23.3344 48.8137 23.333 47.6665V22.6665C23.333 21.5207 23.7413 20.5401 24.558 19.7248C25.3747 18.9096 26.3552 18.5012 27.4997 18.4998H31.6663C31.6663 16.2082 32.4823 14.2464 34.1143 12.6144C35.7462 10.9825 37.708 10.1665 39.9997 10.1665C42.2913 10.1665 44.2531 10.9825 45.8851 12.6144C47.517 14.2464 48.333 16.2082 48.333 18.4998H52.4997C53.6455 18.4998 54.6268 18.9082 55.4434 19.7248C56.2601 20.5415 56.6677 21.5221 56.6663 22.6665V47.6665C56.6663 48.8123 56.2587 49.7936 55.4434 50.6103C54.6281 51.4269 53.6469 51.8346 52.4997 51.8332H27.4997ZM27.4997 47.6665H52.4997V22.6665H48.333V26.8332C48.333 27.4234 48.133 27.9186 47.733 28.3186C47.333 28.7186 46.8386 28.9179 46.2497 28.9165C45.6608 28.9151 45.1663 28.7151 44.7663 28.3165C44.3663 27.9179 44.1663 27.4234 44.1663 26.8332V22.6665H35.833V26.8332C35.833 27.4234 35.633 27.9186 35.233 28.3186C34.833 28.7186 34.3386 28.9179 33.7497 28.9165C33.1608 28.9151 32.6663 28.7151 32.2663 28.3165C31.8663 27.9179 31.6663 27.4234 31.6663 26.8332V22.6665H27.4997V47.6665ZM35.833 18.4998H44.1663C44.1663 17.354 43.7587 16.3734 42.9434 15.5582C42.1281 14.7429 41.1469 14.3346 39.9997 14.3332C38.8525 14.3318 37.8719 14.7401 37.058 15.5582C36.2441 16.3762 35.8358 17.3568 35.833 18.4998Z" fill="white"/>
<path d="M28.3564 60.144C29.0391 60.144 29.544 60.208 29.8711 60.336C30.1982 60.464 30.4258 60.5636 30.5538 60.6347C30.696 60.7058 30.8027 60.7556 30.8738 60.784L30.1698 62.256L29.8924 62.1067C29.3093 61.8222 28.7973 61.68 28.3564 61.68C27.9867 61.68 27.6595 61.808 27.3751 62.064C27.1191 62.3058 26.9911 62.5333 26.9911 62.7467C26.9484 63.0453 26.9982 63.3013 27.1404 63.5147C27.2969 63.728 27.496 63.9271 27.7378 64.112C27.9795 64.2969 28.2427 64.4818 28.5271 64.6667C28.8258 64.8516 29.0889 65.0649 29.3164 65.3067C29.8853 65.8613 30.1058 66.5582 29.9778 67.3973C29.864 68.2364 29.5013 68.912 28.8898 69.424C28.2782 69.936 27.4391 70.192 26.3724 70.192C25.5049 70.192 24.7511 70.0142 24.1111 69.6587C23.9831 69.5733 23.8764 69.5093 23.7911 69.4667L24.4738 67.9947C24.5449 68.0231 24.6373 68.0729 24.7511 68.144C24.8791 68.2151 25.0213 68.2791 25.1778 68.336C25.576 68.5067 25.9458 68.592 26.2871 68.592C26.9129 68.592 27.3822 68.3787 27.6951 67.952C27.7947 67.824 27.8587 67.6462 27.8871 67.4187C27.9298 67.1769 27.8729 66.9636 27.7164 66.7787C27.56 66.5796 27.3609 66.3947 27.1191 66.224C26.8773 66.0391 26.6142 65.8542 26.3298 65.6693C26.0453 65.4702 25.7822 65.2498 25.5404 65.008C24.9858 64.4533 24.7653 63.7564 24.8791 62.9173C24.9929 62.064 25.3555 61.3884 25.9671 60.8907C26.5787 60.3929 27.3751 60.144 28.3564 60.144ZM38.6885 70H36.6619L37.2379 66.0107H34.5925L34.0379 70H31.9899L33.3552 60.3147H35.4032L34.8272 64.3893H37.4512L38.0059 60.3147H40.0539L38.6885 70ZM44.6007 68.5707C45.1838 68.5707 45.639 68.2791 45.9661 67.696C46.2932 67.0987 46.5278 66.2596 46.6701 65.1787C46.8265 64.0836 46.8194 63.2444 46.6487 62.6613C46.4781 62.064 46.1083 61.7653 45.5394 61.7653C44.9847 61.7653 44.5438 62.064 44.2167 62.6613C43.8896 63.2444 43.6478 64.0836 43.4914 65.1787C43.335 66.2596 43.335 67.0987 43.4914 67.696C43.6478 68.2791 44.0176 68.5707 44.6007 68.5707ZM45.7741 60.144C46.9687 60.144 47.8292 60.5493 48.3554 61.36C48.8816 62.1707 49.0238 63.4436 48.7821 65.1787C48.5403 66.8996 48.0425 68.1653 47.2887 68.976C46.535 69.7867 45.5607 70.192 44.3661 70.192C41.9056 70.192 40.9101 68.5209 41.3794 65.1787C41.6212 63.4436 42.119 62.1707 42.8727 61.36C43.6265 60.5493 44.5936 60.144 45.7741 60.144ZM53.9076 61.7867C53.8081 61.7867 53.7085 61.7867 53.609 61.7867C53.5094 61.7867 53.4028 61.7938 53.289 61.808L52.777 65.328H53.353C54.0356 65.328 54.5121 65.0151 54.7823 64.3893C54.8819 64.1618 54.9601 63.8773 55.017 63.536C55.1734 62.3698 54.8036 61.7867 53.9076 61.7867ZM51.5183 60.3147L54.057 60.2507C55.3085 60.2507 56.1619 60.528 56.617 61.0827C57.0863 61.6373 57.2356 62.4551 57.065 63.536C56.9085 64.688 56.4676 65.5484 55.7423 66.1173C55.1308 66.5867 54.3059 66.8213 53.2676 66.8213C53.1539 66.8213 53.0401 66.8213 52.9263 66.8213C52.8125 66.8213 52.6988 66.8142 52.585 66.8L52.137 70H50.153L51.5183 60.3147Z" fill="white"/>
</svg>
