<svg width="80" height="80" viewBox="0 0 80 80" fill="none" xmlns="http://www.w3.org/2000/svg">
<rect width="80" height="80" rx="20" fill="#DFABFF"/>
<path d="M51.4583 31C50.6295 31 49.8347 30.6708 49.2486 30.0847C48.6626 29.4987 48.3333 28.7038 48.3333 27.875C48.3333 27.0462 48.6626 26.2513 49.2486 25.6653C49.8347 25.0792 50.6295 24.75 51.4583 24.75C52.2871 24.75 53.082 25.0792 53.668 25.6653C54.2541 26.2513 54.5833 27.0462 54.5833 27.875C54.5833 28.7038 54.2541 29.4987 53.668 30.0847C53.082 30.6708 52.2871 31 51.4583 31ZM45.2083 22.6667C44.3795 22.6667 43.5847 22.3374 42.9986 21.7514C42.4126 21.1653 42.0833 20.3705 42.0833 19.5417C42.0833 18.7129 42.4126 17.918 42.9986 17.332C43.5847 16.7459 44.3795 16.4167 45.2083 16.4167C46.0371 16.4167 46.832 16.7459 47.418 17.332C48.0041 17.918 48.3333 18.7129 48.3333 19.5417C48.3333 20.3705 48.0041 21.1653 47.418 21.7514C46.832 22.3374 46.0371 22.6667 45.2083 22.6667ZM34.7917 22.6667C33.9629 22.6667 33.168 22.3374 32.582 21.7514C31.9959 21.1653 31.6667 20.3705 31.6667 19.5417C31.6667 18.7129 31.9959 17.918 32.582 17.332C33.168 16.7459 33.9629 16.4167 34.7917 16.4167C35.6205 16.4167 36.4153 16.7459 37.0014 17.332C37.5874 17.918 37.9167 18.7129 37.9167 19.5417C37.9167 20.3705 37.5874 21.1653 37.0014 21.7514C36.4153 22.3374 35.6205 22.6667 34.7917 22.6667ZM28.5417 31C27.7129 31 26.918 30.6708 26.332 30.0847C25.7459 29.4987 25.4167 28.7038 25.4167 27.875C25.4167 27.0462 25.7459 26.2513 26.332 25.6653C26.918 25.0792 27.7129 24.75 28.5417 24.75C29.3705 24.75 30.1653 25.0792 30.7514 25.6653C31.3374 26.2513 31.6667 27.0462 31.6667 27.875C31.6667 28.7038 31.3374 29.4987 30.7514 30.0847C30.1653 30.6708 29.3705 31 28.5417 31ZM40 12.25C35.0272 12.25 30.2581 14.2254 26.7417 17.7417C23.2254 21.2581 21.25 26.0272 21.25 31C21.25 35.9728 23.2254 40.7419 26.7417 44.2583C30.2581 47.7746 35.0272 49.75 40 49.75C40.8288 49.75 41.6237 49.4208 42.2097 48.8347C42.7958 48.2487 43.125 47.4538 43.125 46.625C43.125 45.8125 42.8125 45.0833 42.3125 44.5417C41.8333 43.9792 41.5208 43.25 41.5208 42.4583C41.5208 41.6295 41.8501 40.8347 42.4361 40.2486C43.0222 39.6626 43.817 39.3333 44.6458 39.3333H48.3333C51.096 39.3333 53.7455 38.2359 55.699 36.2824C57.6525 34.3289 58.75 31.6793 58.75 28.9167C58.75 19.7083 50.3542 12.25 40 12.25Z" fill="white"/>
<path d="M33.6971 62.2133C33.5975 62.4551 33.4838 62.7609 33.3558 63.1307C33.2278 63.5004 33.0855 63.8987 32.9291 64.3253C32.7726 64.7378 32.6091 65.1716 32.4384 65.6267C32.282 66.0676 32.1184 66.5013 31.9478 66.928H34.0384C34.01 66.5013 33.9744 66.0676 33.9318 65.6267C33.8891 65.1716 33.8535 64.7378 33.8251 64.3253C33.7966 63.8987 33.7682 63.5004 33.7398 63.1307C33.7113 62.7609 33.6971 62.4551 33.6971 62.2133ZM32.7798 60.3147H35.2331L36.5131 70H34.3584L34.1664 68.3147H31.4571L30.7744 70H28.7264L32.7798 60.3147ZM40.3575 64.816L41.2535 64.8587C42.0641 64.8587 42.5477 64.3538 42.7041 63.344C42.8748 62.3058 42.505 61.7867 41.5948 61.7867C41.3815 61.7867 41.1041 61.8009 40.7628 61.8293L40.3575 64.816ZM40.8908 66.3307L40.1441 66.3093L39.6321 70H37.6908L39.0561 60.3147C39.0561 60.3147 39.9237 60.2933 41.6588 60.2507C42.8961 60.2507 43.7495 60.4853 44.2188 60.9547C44.7166 61.424 44.8943 62.2347 44.7521 63.3867C44.6383 64.1547 44.3895 64.7591 44.0055 65.2C43.6215 65.6267 43.2019 65.9111 42.7468 66.0533L44.0908 70H41.9148L40.8908 66.3307ZM52.0774 61.9787H50.1147L48.9841 70H46.9361L48.0454 61.9787H46.0614L46.2747 60.3147H52.3334L52.0774 61.9787Z" fill="white"/>
</svg>
