<svg width="243" height="280" viewBox="0 0 243 280" fill="none" xmlns="http://www.w3.org/2000/svg">
<rect x="74" y="1" width="168" height="100" rx="50" fill="white"/>
<path d="M82.4566 102.874L100.091 89.2772L87.6397 81.2879L82.4566 102.874Z" fill="white"/>
<path d="M100.146 63.165H97.627V66.8799H96.7012V63.165H94.0293V66.8799H93.0801V63.165H90.6074V62.4033H100.146V63.165ZM95.3535 56.8838C96.0801 56.8838 96.7207 56.9775 97.2754 57.165C97.8301 57.3486 98.2598 57.6123 98.5645 57.9561C98.8691 58.2998 99.0215 58.7002 99.0215 59.1572C99.0215 59.6143 98.8672 60.0127 98.5586 60.3525C98.2539 60.6924 97.8242 60.9541 97.2695 61.1377C96.7188 61.3213 96.0801 61.4111 95.3535 61.4072C94.627 61.4111 93.9863 61.3213 93.4316 61.1377C92.8809 60.9541 92.4512 60.6924 92.1426 60.3525C91.8379 60.0127 91.6855 59.6143 91.6855 59.1572C91.6855 58.7002 91.8379 58.2998 92.1426 57.9561C92.4473 57.6123 92.877 57.3486 93.4316 57.165C93.9863 56.9775 94.627 56.8838 95.3535 56.8838ZM95.3535 57.6338C94.8145 57.6338 94.3379 57.6963 93.9238 57.8213C93.5137 57.9463 93.1953 58.124 92.9688 58.3545C92.7422 58.585 92.6309 58.8525 92.6348 59.1572C92.6309 59.4619 92.7422 59.7295 92.9688 59.96C93.1953 60.1865 93.5137 60.3623 93.9238 60.4873C94.3379 60.6084 94.8145 60.6689 95.3535 60.6689C95.8887 60.6689 96.3633 60.6084 96.7773 60.4873C97.1914 60.3623 97.5117 60.1865 97.7383 59.96C97.9688 59.7295 98.084 59.4619 98.084 59.1572C98.084 58.8525 97.9688 58.585 97.7383 58.3545C97.5117 58.124 97.1914 57.9463 96.7773 57.8213C96.3633 57.6963 95.8887 57.6338 95.3535 57.6338ZM109.627 62.1924H108.701V59.4033H106.721V58.6416H108.701V56.4736H109.627V62.1924ZM103.721 63.9619H108.713V62.6846H109.627V66.7393H102.807V62.6846H103.721V63.9619ZM108.713 65.9893V64.7002H103.721V65.9893H108.713ZM106.053 59.7197H102.35V61.1611C103.275 61.1572 104.082 61.1338 104.77 61.0908C105.461 61.0479 106.178 60.9658 106.92 60.8447L107.002 61.6182C106.221 61.7354 105.469 61.8154 104.746 61.8584C104.023 61.9014 103.182 61.9229 102.221 61.9229H101.436V59.0049H105.162V57.6572H101.412V56.9072H106.053V59.7197ZM123.01 64.4189H122.084V62.1807H120.279V61.4307H122.084V60.0127H120.279V59.251H122.084V56.4736H123.01V64.4189ZM120.279 58.501H114.385V57.751H116.916V56.4619H117.83V57.751H120.279V58.501ZM117.361 59.0752C117.822 59.0752 118.232 59.1592 118.592 59.3271C118.955 59.4912 119.236 59.7236 119.436 60.0244C119.639 60.3252 119.74 60.6729 119.74 61.0674C119.74 61.458 119.639 61.8037 119.436 62.1045C119.236 62.4053 118.955 62.6396 118.592 62.8076C118.232 62.9756 117.822 63.0596 117.361 63.0596C116.9 63.0596 116.49 62.9756 116.131 62.8076C115.775 62.6396 115.498 62.4053 115.299 62.1045C115.1 61.8037 115.002 61.458 115.006 61.0674C115.002 60.6729 115.1 60.3252 115.299 60.0244C115.498 59.7236 115.775 59.4912 116.131 59.3271C116.49 59.1592 116.9 59.0752 117.361 59.0752ZM117.361 59.8018C117.068 59.8057 116.807 59.8604 116.576 59.9658C116.35 60.0713 116.174 60.2197 116.049 60.4111C115.924 60.6025 115.861 60.8213 115.861 61.0674C115.861 61.3135 115.924 61.5322 116.049 61.7236C116.174 61.9111 116.35 62.0576 116.576 62.1631C116.807 62.2686 117.068 62.3213 117.361 62.3213C117.654 62.3213 117.914 62.2686 118.141 62.1631C118.371 62.0576 118.549 61.9111 118.674 61.7236C118.803 61.5322 118.869 61.3135 118.873 61.0674C118.869 60.8213 118.803 60.6025 118.674 60.4111C118.549 60.2197 118.371 60.0713 118.141 59.9658C117.914 59.8604 117.654 59.8057 117.361 59.8018ZM123.244 66.6572H116.271V63.7158H117.197V65.8838H123.244V66.6572ZM128.471 59.6611C128.471 60.2354 128.598 60.8076 128.852 61.3779C129.105 61.9443 129.447 62.4502 129.877 62.8955C130.311 63.3369 130.783 63.6689 131.295 63.8916L130.779 64.6182C130.166 64.3369 129.613 63.9131 129.121 63.3467C128.629 62.7764 128.262 62.1338 128.02 61.4189C127.777 62.1846 127.41 62.8779 126.918 63.499C126.43 64.1162 125.889 64.5752 125.295 64.876L124.744 64.1494C125.236 63.9111 125.695 63.5518 126.121 63.0713C126.551 62.5908 126.895 62.0498 127.152 61.4482C127.41 60.8428 127.541 60.2471 127.545 59.6611V58.3018H125.084V57.54H130.955V58.3018H128.471V59.6611ZM133.334 66.8799H132.408V56.4619H133.334V66.8799ZM146.189 60.7041H147.877V61.4775H146.189V66.8799H145.275V56.4619H146.189V60.7041ZM143.494 57.5869C143.494 59.1377 143.105 60.5439 142.328 61.8057C141.551 63.0635 140.346 64.0947 138.713 64.8994L138.197 64.1729C139.537 63.5049 140.574 62.6807 141.309 61.7002C142.043 60.7158 142.463 59.6025 142.568 58.3604H138.678V57.5869H143.494ZM157.088 66.9033H156.162V56.4619H157.088V66.9033ZM151.545 57.2705C152.061 57.2744 152.52 57.4268 152.922 57.7275C153.324 58.0244 153.639 58.4463 153.865 58.9932C154.092 59.54 154.205 60.1768 154.205 60.9033C154.205 61.6299 154.092 62.2666 153.865 62.8135C153.639 63.3604 153.324 63.7822 152.922 64.0791C152.52 64.376 152.061 64.5244 151.545 64.5244C151.029 64.5244 150.568 64.376 150.162 64.0791C149.76 63.7822 149.445 63.3604 149.219 62.8135C148.996 62.2666 148.885 61.6299 148.885 60.9033C148.885 60.1768 148.996 59.54 149.219 58.9932C149.445 58.4463 149.76 58.0244 150.162 57.7275C150.564 57.4268 151.025 57.2744 151.545 57.2705ZM151.545 58.0908C151.197 58.0947 150.889 58.2139 150.619 58.4482C150.354 58.6787 150.146 59.0068 149.998 59.4326C149.85 59.8545 149.775 60.3447 149.775 60.9033C149.775 61.4619 149.85 61.9541 149.998 62.3799C150.146 62.8018 150.355 63.1279 150.625 63.3584C150.895 63.5889 151.201 63.7041 151.545 63.7041C151.889 63.7041 152.195 63.5889 152.465 63.3584C152.734 63.1279 152.943 62.8018 153.092 62.3799C153.24 61.9541 153.314 61.4619 153.314 60.9033C153.314 60.3447 153.24 59.8545 153.092 59.4326C152.943 59.0068 152.734 58.6787 152.465 58.4482C152.199 58.2139 151.893 58.0947 151.545 58.0908ZM167.283 62.2393H160.088V57.4346H167.178V58.1963H161.002V61.4775H167.283V62.2393ZM168.408 65.4619H158.869V64.6885H168.408V65.4619ZM178.744 61.583H169.24V60.8447H178.744V61.583ZM177.607 59.9893H170.506V56.8252H177.502V57.5635H171.432V59.2393H177.607V59.9893ZM177.514 64.9346H171.326V66.0127H177.83V66.7627H170.412V64.2432H176.611V63.2354H170.389V62.5205H177.514V64.9346ZM188.201 66.9033H187.275V56.4619H188.201V66.9033ZM182.658 57.2705C183.174 57.2744 183.633 57.4268 184.035 57.7275C184.438 58.0244 184.752 58.4463 184.979 58.9932C185.205 59.54 185.318 60.1768 185.318 60.9033C185.318 61.6299 185.205 62.2666 184.979 62.8135C184.752 63.3604 184.438 63.7822 184.035 64.0791C183.633 64.376 183.174 64.5244 182.658 64.5244C182.143 64.5244 181.682 64.376 181.275 64.0791C180.873 63.7822 180.559 63.3604 180.332 62.8135C180.109 62.2666 179.998 61.6299 179.998 60.9033C179.998 60.1768 180.109 59.54 180.332 58.9932C180.559 58.4463 180.873 58.0244 181.275 57.7275C181.678 57.4268 182.139 57.2744 182.658 57.2705ZM182.658 58.0908C182.311 58.0947 182.002 58.2139 181.732 58.4482C181.467 58.6787 181.26 59.0068 181.111 59.4326C180.963 59.8545 180.889 60.3447 180.889 60.9033C180.889 61.4619 180.963 61.9541 181.111 62.3799C181.26 62.8018 181.469 63.1279 181.738 63.3584C182.008 63.5889 182.314 63.7041 182.658 63.7041C183.002 63.7041 183.309 63.5889 183.578 63.3584C183.848 63.1279 184.057 62.8018 184.205 62.3799C184.354 61.9541 184.428 61.4619 184.428 60.9033C184.428 60.3447 184.354 59.8545 184.205 59.4326C184.057 59.0068 183.848 58.6787 183.578 58.4482C183.312 58.2139 183.006 58.0947 182.658 58.0908ZM201.631 64.1143H200.705V60.1182H198.561V59.3564H200.705V56.4736H201.631V64.1143ZM201.924 66.6572H194.939V63.4229H195.865V65.8838H201.924V66.6572ZM196.615 58.6182C196.615 59.0635 196.723 59.499 196.938 59.9248C197.156 60.3467 197.459 60.7217 197.846 61.0498C198.236 61.3779 198.682 61.626 199.182 61.7939L198.701 62.5322C198.119 62.3213 197.607 62.0088 197.166 61.5947C196.729 61.1768 196.396 60.6963 196.17 60.1533C195.943 60.7549 195.6 61.2861 195.139 61.7471C194.678 62.2041 194.139 62.5479 193.521 62.7783L193.041 62.0283C193.549 61.8486 194.004 61.5869 194.406 61.2432C194.809 60.8955 195.123 60.4951 195.35 60.042C195.576 59.585 195.689 59.1104 195.689 58.6182V58.0791H193.334V57.3174H198.947V58.0791H196.615V58.6182ZM211.428 60.7627H213.174V61.5244H211.428V66.8799H210.514V56.4619H211.428V60.7627ZM209.506 58.8994H203.307V58.1377H205.99V56.5908H206.904V58.1377H209.506V58.8994ZM206.459 59.7666C206.947 59.7666 207.385 59.8682 207.771 60.0713C208.158 60.2744 208.461 60.5576 208.68 60.9209C208.898 61.2842 209.01 61.6963 209.014 62.1572C209.01 62.6182 208.898 63.0303 208.68 63.3936C208.461 63.7568 208.158 64.04 207.771 64.2432C207.385 64.4463 206.947 64.5479 206.459 64.5479C205.967 64.5479 205.525 64.4463 205.135 64.2432C204.748 64.04 204.445 63.7568 204.227 63.3936C204.008 63.0303 203.9 62.6182 203.904 62.1572C203.9 61.6963 204.008 61.2842 204.227 60.9209C204.445 60.5576 204.748 60.2744 205.135 60.0713C205.525 59.8682 205.967 59.7666 206.459 59.7666ZM206.459 60.54C206.139 60.54 205.85 60.6104 205.592 60.751C205.338 60.8877 205.139 61.0791 204.994 61.3252C204.85 61.5713 204.779 61.8486 204.783 62.1572C204.779 62.4697 204.85 62.749 204.994 62.9951C205.139 63.2373 205.338 63.4268 205.592 63.5635C205.85 63.7002 206.139 63.7666 206.459 63.7627C206.775 63.7666 207.061 63.7002 207.314 63.5635C207.568 63.4268 207.768 63.2373 207.912 62.9951C208.057 62.749 208.131 62.4697 208.135 62.1572C208.131 61.8486 208.057 61.5713 207.912 61.3252C207.768 61.0791 207.568 60.8877 207.314 60.751C207.061 60.6104 206.775 60.54 206.459 60.54ZM222.162 60.3643H215.025V56.8486H215.939V59.626H222.162V60.3643ZM223.264 62.5322H213.725V61.7822H223.264V62.5322ZM222.221 66.6221H214.967V63.5986H215.881V65.8604H222.221V66.6221ZM121.176 72.5361C121.176 72.9189 121.262 73.2959 121.434 73.667C121.609 74.0381 121.859 74.3721 122.184 74.6689C122.508 74.9658 122.887 75.1963 123.32 75.3604L122.84 76.0635C122.348 75.8721 121.922 75.6006 121.562 75.249C121.207 74.8975 120.934 74.4932 120.742 74.0361C120.543 74.5518 120.258 75.0146 119.887 75.4248C119.516 75.8311 119.082 76.1416 118.586 76.3564L118.082 75.6416C118.527 75.4463 118.916 75.1807 119.248 74.8447C119.584 74.5049 119.842 74.1338 120.021 73.7314C120.205 73.3252 120.297 72.9268 120.297 72.5361V71.1182H121.176V72.5361ZM126.918 76.9072H126.039V74.0361H124.656V76.5791H123.789V70.6729H124.656V73.2744H126.039V70.4736H126.918V76.9072ZM123.473 77.1416C124.191 77.1416 124.812 77.2158 125.336 77.3643C125.863 77.5088 126.268 77.7217 126.549 78.0029C126.834 78.2803 126.977 78.6143 126.977 79.0049C126.977 79.3916 126.834 79.7236 126.549 80.001C126.268 80.2783 125.863 80.4893 125.336 80.6338C124.812 80.7822 124.191 80.8564 123.473 80.8564C122.754 80.8564 122.131 80.7822 121.604 80.6338C121.076 80.4893 120.672 80.2783 120.391 80.001C120.113 79.7236 119.977 79.3916 119.98 79.0049C119.977 78.6143 120.113 78.2803 120.391 78.0029C120.672 77.7217 121.074 77.5088 121.598 77.3643C122.125 77.2158 122.75 77.1416 123.473 77.1416ZM123.473 77.8447C122.945 77.8447 122.486 77.8916 122.096 77.9854C121.705 78.0752 121.406 78.208 121.199 78.3838C120.992 78.5596 120.891 78.7666 120.895 79.0049C120.891 79.2393 120.992 79.4424 121.199 79.6143C121.406 79.7861 121.703 79.917 122.09 80.0068C122.48 80.0967 122.941 80.1416 123.473 80.1416C124 80.1416 124.457 80.0967 124.844 80.0068C125.23 79.917 125.529 79.7861 125.74 79.6143C125.951 79.4424 126.059 79.2393 126.062 79.0049C126.059 78.7666 125.951 78.5596 125.74 78.3838C125.529 78.208 125.229 78.0752 124.838 77.9854C124.451 77.8916 123.996 77.8447 123.473 77.8447ZM131.547 72.5361C131.547 72.9189 131.633 73.2959 131.805 73.667C131.98 74.0381 132.23 74.3721 132.555 74.6689C132.879 74.9658 133.258 75.1963 133.691 75.3604L133.211 76.0635C132.719 75.8721 132.293 75.6006 131.934 75.249C131.578 74.8975 131.305 74.4932 131.113 74.0361C130.914 74.5518 130.629 75.0146 130.258 75.4248C129.887 75.8311 129.453 76.1416 128.957 76.3564L128.453 75.6416C128.898 75.4463 129.287 75.1807 129.619 74.8447C129.955 74.5049 130.213 74.1338 130.393 73.7314C130.576 73.3252 130.668 72.9268 130.668 72.5361V71.1182H131.547V72.5361ZM137.289 76.9072H136.41V74.0361H135.027V76.5791H134.16V70.6729H135.027V73.2744H136.41V70.4736H137.289V76.9072ZM133.844 77.1416C134.562 77.1416 135.184 77.2158 135.707 77.3643C136.234 77.5088 136.639 77.7217 136.92 78.0029C137.205 78.2803 137.348 78.6143 137.348 79.0049C137.348 79.3916 137.205 79.7236 136.92 80.001C136.639 80.2783 136.234 80.4893 135.707 80.6338C135.184 80.7822 134.562 80.8564 133.844 80.8564C133.125 80.8564 132.502 80.7822 131.975 80.6338C131.447 80.4893 131.043 80.2783 130.762 80.001C130.484 79.7236 130.348 79.3916 130.352 79.0049C130.348 78.6143 130.484 78.2803 130.762 78.0029C131.043 77.7217 131.445 77.5088 131.969 77.3643C132.496 77.2158 133.121 77.1416 133.844 77.1416ZM133.844 77.8447C133.316 77.8447 132.857 77.8916 132.467 77.9854C132.076 78.0752 131.777 78.208 131.57 78.3838C131.363 78.5596 131.262 78.7666 131.266 79.0049C131.262 79.2393 131.363 79.4424 131.57 79.6143C131.777 79.7861 132.074 79.917 132.461 80.0068C132.852 80.0967 133.312 80.1416 133.844 80.1416C134.371 80.1416 134.828 80.0967 135.215 80.0068C135.602 79.917 135.9 79.7861 136.111 79.6143C136.322 79.4424 136.43 79.2393 136.434 79.0049C136.43 78.7666 136.322 78.5596 136.111 78.3838C135.9 78.208 135.6 78.0752 135.209 77.9854C134.822 77.8916 134.367 77.8447 133.844 77.8447ZM146.957 73.9072H148.527V74.6807H146.957V78.2783H146.043V70.4736H146.957V73.9072ZM145.047 72.501H138.836V71.751H141.484V70.4736H142.398V71.751H145.047V72.501ZM141.941 73.0752C142.434 73.0752 142.867 73.1553 143.242 73.3154C143.621 73.4756 143.916 73.7021 144.127 73.9951C144.338 74.2881 144.445 74.6299 144.449 75.0205C144.445 75.4072 144.338 75.7451 144.127 76.0342C143.916 76.3232 143.621 76.5479 143.242 76.708C142.867 76.8643 142.434 76.9424 141.941 76.9424C141.445 76.9424 141.006 76.8643 140.623 76.708C140.244 76.5479 139.949 76.3232 139.738 76.0342C139.531 75.7451 139.43 75.4072 139.434 75.0205C139.43 74.6299 139.531 74.2881 139.738 73.9951C139.949 73.7021 140.244 73.4756 140.623 73.3154C141.006 73.1553 141.445 73.0752 141.941 73.0752ZM141.941 73.8018C141.617 73.8018 141.33 73.8525 141.08 73.9541C140.834 74.0518 140.643 74.1943 140.506 74.3818C140.373 74.5654 140.309 74.7783 140.312 75.0205C140.309 75.2627 140.373 75.4756 140.506 75.6592C140.643 75.8389 140.834 75.9775 141.08 76.0752C141.33 76.1729 141.617 76.2197 141.941 76.2158C142.262 76.2197 142.545 76.1729 142.791 76.0752C143.041 75.9775 143.234 75.8389 143.371 75.6592C143.508 75.4756 143.578 75.2627 143.582 75.0205C143.578 74.7783 143.508 74.5654 143.371 74.3818C143.234 74.1943 143.041 74.0518 142.791 73.9541C142.545 73.8525 142.262 73.8018 141.941 73.8018ZM147.438 80.6572H140.441V77.6572H141.344V79.8838H147.438V80.6572ZM154.996 71.2705C155.473 71.2744 155.898 71.4092 156.273 71.6748C156.648 71.9365 156.949 72.3096 157.176 72.7939H159.918V70.4619H160.832V80.9033H159.918V76.8604H157.24C157.021 77.3916 156.717 77.8018 156.326 78.0908C155.939 78.3799 155.496 78.5244 154.996 78.5244C154.488 78.5244 154.035 78.376 153.637 78.0791C153.242 77.7822 152.934 77.3604 152.711 76.8135C152.492 76.2666 152.383 75.6299 152.383 74.9033C152.383 74.1768 152.492 73.54 152.711 72.9932C152.934 72.4463 153.242 72.0244 153.637 71.7275C154.031 71.4268 154.484 71.2744 154.996 71.2705ZM154.996 72.0908C154.656 72.0947 154.354 72.2139 154.088 72.4482C153.826 72.6787 153.623 73.0068 153.479 73.4326C153.334 73.8545 153.262 74.3447 153.262 74.9033C153.262 75.4619 153.334 75.9541 153.479 76.3799C153.623 76.8018 153.826 77.1279 154.088 77.3584C154.354 77.5889 154.656 77.7041 154.996 77.7041C155.332 77.7041 155.631 77.5889 155.893 77.3584C156.158 77.1279 156.363 76.8018 156.508 76.3799C156.656 75.9541 156.73 75.4619 156.73 74.9033C156.73 74.3447 156.656 73.8545 156.508 73.4326C156.363 73.0068 156.16 72.6787 155.898 72.4482C155.637 72.2139 155.336 72.0947 154.996 72.0908ZM157.445 73.5674C157.547 74.0049 157.598 74.4502 157.598 74.9033C157.598 75.3096 157.557 75.708 157.475 76.0986H159.918V73.5674H157.445ZM171.414 77.0596H170.535V74.0713H169.141V76.6846H168.273V70.6729H169.141V73.3096H170.535V70.4619H171.414V77.0596ZM167.852 72.4541H162.508V71.7158H164.734V70.5439H165.648V71.7158H167.852V72.4541ZM165.191 73.0166C165.629 73.0166 166.016 73.0908 166.352 73.2393C166.691 73.3838 166.955 73.5908 167.143 73.8604C167.33 74.126 167.426 74.4385 167.43 74.7979C167.426 75.1494 167.33 75.46 167.143 75.7295C166.955 75.9951 166.691 76.2021 166.352 76.3506C166.016 76.4951 165.629 76.5674 165.191 76.5674C164.758 76.5674 164.371 76.4951 164.031 76.3506C163.691 76.2021 163.428 75.9951 163.24 75.7295C163.053 75.46 162.961 75.1494 162.965 74.7979C162.961 74.4424 163.053 74.1299 163.24 73.8604C163.428 73.5908 163.689 73.3838 164.025 73.2393C164.365 73.0908 164.754 73.0166 165.191 73.0166ZM165.191 73.6963C164.918 73.6963 164.674 73.7432 164.459 73.8369C164.248 73.9268 164.082 74.0557 163.961 74.2236C163.844 74.3916 163.785 74.583 163.785 74.7979C163.785 75.0088 163.844 75.1963 163.961 75.3604C164.082 75.5244 164.248 75.6514 164.459 75.7412C164.674 75.8311 164.918 75.876 165.191 75.876C165.465 75.876 165.707 75.8311 165.918 75.7412C166.133 75.6514 166.299 75.5244 166.416 75.3604C166.537 75.1963 166.598 75.0088 166.598 74.7979C166.598 74.583 166.537 74.3916 166.416 74.2236C166.299 74.0557 166.133 73.9268 165.918 73.8369C165.707 73.7432 165.465 73.6963 165.191 73.6963ZM167.969 77.2354C168.699 77.2354 169.326 77.3076 169.85 77.4521C170.373 77.5928 170.773 77.7998 171.051 78.0732C171.332 78.3467 171.473 78.6768 171.473 79.0635C171.473 79.4385 171.332 79.7607 171.051 80.0303C170.773 80.2998 170.371 80.5049 169.844 80.6455C169.32 80.7861 168.695 80.8564 167.969 80.8564C167.242 80.8564 166.615 80.7861 166.088 80.6455C165.564 80.5049 165.164 80.2998 164.887 80.0303C164.609 79.7607 164.473 79.4385 164.477 79.0635C164.473 78.6768 164.609 78.3467 164.887 78.0732C165.164 77.7998 165.564 77.5928 166.088 77.4521C166.611 77.3076 167.238 77.2354 167.969 77.2354ZM167.969 77.9619C167.43 77.958 166.967 77.999 166.58 78.085C166.193 78.167 165.896 78.292 165.689 78.46C165.486 78.6279 165.387 78.8291 165.391 79.0635C165.387 79.29 165.486 79.4834 165.689 79.6436C165.896 79.8037 166.193 79.9268 166.58 80.0127C166.971 80.0986 167.434 80.1416 167.969 80.1416C168.504 80.1416 168.965 80.0986 169.352 80.0127C169.738 79.9268 170.035 79.8037 170.242 79.6436C170.449 79.4834 170.555 79.29 170.559 79.0635C170.555 78.708 170.324 78.4346 169.867 78.2432C169.414 78.0479 168.781 77.9541 167.969 77.9619ZM184.586 76.6729H183.66V73.9424H181.562V73.1807H183.66V70.4619H184.586V76.6729ZM181.129 77.001C181.852 77.001 182.475 77.0771 182.998 77.2295C183.521 77.3818 183.922 77.6025 184.199 77.8916C184.48 78.1807 184.621 78.5283 184.621 78.9346C184.621 79.3408 184.48 79.6885 184.199 79.9775C183.922 80.2705 183.521 80.4932 182.998 80.6455C182.475 80.7979 181.852 80.876 181.129 80.8799C180.406 80.876 179.783 80.7979 179.26 80.6455C178.736 80.4932 178.334 80.2705 178.053 79.9775C177.775 79.6885 177.637 79.3408 177.637 78.9346C177.637 78.5283 177.775 78.1807 178.053 77.8916C178.334 77.6025 178.736 77.3818 179.26 77.2295C179.783 77.0771 180.406 77.001 181.129 77.001ZM181.129 77.7158C180.602 77.7158 180.143 77.7646 179.752 77.8623C179.361 77.96 179.062 78.1006 178.855 78.2842C178.648 78.4678 178.547 78.6846 178.551 78.9346C178.547 79.1807 178.648 79.3955 178.855 79.5791C179.062 79.7588 179.361 79.8975 179.752 79.9951C180.143 80.0928 180.602 80.1416 181.129 80.1416C181.656 80.1416 182.113 80.0928 182.5 79.9951C182.891 79.8975 183.189 79.7588 183.396 79.5791C183.604 79.3955 183.707 79.1807 183.707 78.9346C183.707 78.6846 183.604 78.4678 183.396 78.2842C183.189 78.1006 182.891 77.96 182.5 77.8623C182.113 77.7646 181.656 77.7158 181.129 77.7158ZM179.57 72.3721C179.57 72.8213 179.678 73.2568 179.893 73.6787C180.107 74.0967 180.408 74.4697 180.795 74.7979C181.186 75.1221 181.633 75.3721 182.137 75.5479L181.656 76.2861C181.074 76.0752 180.562 75.7627 180.121 75.3486C179.684 74.9346 179.354 74.4561 179.131 73.9131C178.904 74.5225 178.559 75.0615 178.094 75.5303C177.633 75.9951 177.094 76.3447 176.477 76.5791L175.996 75.8408C176.508 75.6533 176.965 75.3838 177.367 75.0322C177.77 74.6768 178.082 74.2686 178.305 73.8076C178.531 73.3467 178.645 72.8721 178.645 72.3838V71.9971H176.289V71.2236H181.902V71.9971H179.57V72.3721ZM195.859 79.5439H186.32V78.7822H190.609V76.5322H187.445V71.2002H188.371V73.0869H193.785V71.2002H194.688V76.5322H191.512V78.7822H195.859V79.5439ZM193.785 75.7822V73.8369H188.371V75.7822H193.785ZM198.297 77.54H197.312L197.23 71.4463H198.379L198.297 77.54ZM197.805 80.001C197.668 80.001 197.541 79.9678 197.424 79.9014C197.311 79.8311 197.219 79.7373 197.148 79.6201C197.082 79.5029 197.051 79.376 197.055 79.2393C197.051 79.1064 197.082 78.9834 197.148 78.8701C197.219 78.7529 197.311 78.6611 197.424 78.5947C197.541 78.5244 197.668 78.4893 197.805 78.4893C197.938 78.4893 198.061 78.5244 198.174 78.5947C198.291 78.6611 198.383 78.7529 198.449 78.8701C198.52 78.9834 198.555 79.1064 198.555 79.2393C198.555 79.376 198.52 79.5029 198.449 79.6201C198.383 79.7373 198.291 79.8311 198.174 79.9014C198.061 79.9678 197.938 80.001 197.805 80.001Z" fill="#333333"/>
<path d="M130.658 37.7139H128.49V34.2373H125.873V32.499H128.49V30.5264H125.873V28.7686H128.49V24.2764H130.658V37.7139ZM125.775 27.9678H115.912V26.2295H119.857V24.2568H122.025V26.2295H125.775V27.9678ZM120.912 28.6904C121.706 28.6904 122.416 28.8369 123.041 29.1299C123.666 29.4163 124.154 29.82 124.506 30.3408C124.864 30.8617 125.046 31.4574 125.053 32.1279C125.046 32.7985 124.864 33.3942 124.506 33.915C124.154 34.4359 123.666 34.8428 123.041 35.1357C122.416 35.4222 121.706 35.5654 120.912 35.5654C120.124 35.5654 119.418 35.4222 118.793 35.1357C118.174 34.8428 117.689 34.4359 117.338 33.915C116.993 33.3877 116.824 32.792 116.83 32.1279C116.824 31.4639 116.993 30.8714 117.338 30.3506C117.689 29.8232 118.174 29.4163 118.793 29.1299C119.418 28.8369 120.124 28.6904 120.912 28.6904ZM120.912 30.3896C120.294 30.4027 119.796 30.5654 119.418 30.8779C119.04 31.1839 118.855 31.6006 118.861 32.1279C118.855 32.6748 119.04 33.1045 119.418 33.417C119.796 33.7295 120.294 33.8857 120.912 33.8857C121.531 33.8857 122.032 33.7295 122.416 33.417C122.807 33.1045 123.002 32.6748 123.002 32.1279C123.002 31.6006 122.807 31.1839 122.416 30.8779C122.032 30.5654 121.531 30.4027 120.912 30.3896ZM131.049 41.5615H119.018V36.5615H121.225V39.8037H131.049V41.5615ZM139.818 29.2764C139.818 30.2464 140.001 31.2067 140.365 32.1572C140.736 33.1012 141.264 33.9508 141.947 34.7061C142.637 35.4548 143.445 36.0212 144.369 36.4053L143.178 38.124C142.156 37.6878 141.267 37.0335 140.512 36.1611C139.757 35.2887 139.171 34.2764 138.754 33.124C138.337 34.361 137.748 35.458 136.986 36.415C136.231 37.3656 135.346 38.0785 134.33 38.5537L133.08 36.8545C133.985 36.4378 134.779 35.8258 135.463 35.0186C136.153 34.2113 136.684 33.3063 137.055 32.3037C137.426 31.2946 137.611 30.2855 137.611 29.2764V27.792H133.725V25.9951H143.686V27.792H139.818V29.2764ZM147.846 41.9131H145.658V24.2568H147.846V41.9131ZM166.537 35.1553H150.404V33.4365H157.377V32.1279H152.475V24.7256H164.604V26.4053H154.643V27.6162H164.174V29.2178H154.643V30.4678H164.74V32.1279H159.545V33.4365H166.537V35.1553ZM158.471 36.1318C159.76 36.1318 160.86 36.2458 161.771 36.4736C162.683 36.695 163.376 37.0205 163.852 37.4502C164.333 37.8734 164.577 38.391 164.584 39.0029C164.577 39.9469 164.044 40.6631 162.982 41.1514C161.928 41.6462 160.424 41.8936 158.471 41.8936C156.485 41.8936 154.962 41.6462 153.9 41.1514C152.846 40.6631 152.318 39.9469 152.318 39.0029C152.318 38.391 152.556 37.8734 153.031 37.4502C153.513 37.0205 154.213 36.695 155.131 36.4736C156.049 36.2458 157.162 36.1318 158.471 36.1318ZM158.471 37.7529C155.814 37.7529 154.486 38.1696 154.486 39.0029C154.486 39.4326 154.815 39.7516 155.473 39.96C156.137 40.1683 157.136 40.2725 158.471 40.2725C159.786 40.2725 160.769 40.1683 161.42 39.96C162.077 39.7516 162.41 39.4326 162.416 39.0029C162.396 38.1696 161.081 37.7529 158.471 37.7529ZM182.436 37.167H180.248V24.2764H182.436V37.167ZM182.924 41.5615H170.756V35.9365H172.943V39.8037H182.924V41.5615ZM174.311 26.9717C174.311 27.805 174.47 28.5993 174.789 29.3545C175.115 30.1097 175.596 30.7803 176.234 31.3662C176.872 31.9456 177.644 32.3883 178.549 32.6943L177.436 34.4131C176.446 34.068 175.593 33.5602 174.877 32.8896C174.161 32.2191 173.604 31.4248 173.207 30.5068C172.803 31.4964 172.234 32.3558 171.498 33.085C170.769 33.8141 169.896 34.361 168.881 34.7256L167.748 33.0068C168.679 32.6813 169.467 32.2093 170.111 31.5908C170.762 30.9658 171.251 30.2562 171.576 29.4619C171.902 28.6676 172.064 27.8376 172.064 26.9717V25.2529H174.311V26.9717ZM199.818 37.6357H197.631V36.0928H194.174V34.5693H197.631V24.2764H199.818V37.6357ZM200.229 41.5615H187.279V36.3467H189.447V39.8037H200.229V41.5615ZM184.936 32.2061C187.227 32.193 189.285 32.154 191.107 32.0889C192.93 32.0238 194.669 31.887 196.322 31.6787L196.439 33.2412C195.027 33.4756 193.542 33.6449 191.986 33.749V37.1475H189.818V33.8662C188.562 33.9183 187.025 33.9443 185.209 33.9443L184.936 32.2061ZM190.697 24.9209C191.55 24.9209 192.305 25.0544 192.963 25.3213C193.627 25.5817 194.145 25.9495 194.516 26.4248C194.893 26.8936 195.085 27.4339 195.092 28.0459C195.085 28.6709 194.896 29.2178 194.525 29.6865C194.154 30.1553 193.637 30.5166 192.973 30.7705C192.309 31.0244 191.55 31.1514 190.697 31.1514C189.831 31.1514 189.063 31.0244 188.393 30.7705C187.729 30.5166 187.211 30.1553 186.84 29.6865C186.469 29.2178 186.283 28.6709 186.283 28.0459C186.283 27.4339 186.469 26.8936 186.84 26.4248C187.211 25.9495 187.729 25.5817 188.393 25.3213C189.063 25.0544 189.831 24.9209 190.697 24.9209ZM190.697 26.5225C189.988 26.5225 189.415 26.6592 188.979 26.9326C188.549 27.1995 188.334 27.5706 188.334 28.0459C188.334 28.5212 188.549 28.8955 188.979 29.1689C189.415 29.4359 189.988 29.5693 190.697 29.5693C191.381 29.5693 191.938 29.4326 192.367 29.1592C192.797 28.8857 193.015 28.5146 193.021 28.0459C193.015 27.5771 192.797 27.2061 192.367 26.9326C191.938 26.6592 191.381 26.5225 190.697 26.5225Z" fill="#2B6763"/>
<g clip-path="url(#clip0_506_3702)">
<path opacity="0.4" d="M65.2017 279.658C101.212 279.658 130.403 276.365 130.403 272.304C130.403 268.242 101.212 264.949 65.2017 264.949C29.1918 264.949 0 268.242 0 272.304C0 276.365 29.1918 279.658 65.2017 279.658Z" fill="#79B0BF"/>
<path d="M101.021 208.183H84.3055C83.3089 208.183 82.4961 207.371 82.4961 206.376V167.135C82.4961 166.14 83.3089 165.328 84.3055 165.328H101.021C102.017 165.328 102.83 166.14 102.83 167.135V206.376C102.83 207.371 102.017 208.183 101.021 208.183ZM84.3055 166.449C83.9233 166.449 83.6137 166.758 83.6137 167.14V206.381C83.6137 206.763 83.9233 207.072 84.3055 207.072H101.021C101.403 207.072 101.713 206.763 101.713 206.381V167.14C101.713 166.758 101.403 166.449 101.021 166.449H84.3055Z" fill="#494848"/>
<path d="M100.561 164.212H84.581C84.4608 164.212 84.3633 164.309 84.3633 164.429V167.348C84.3633 167.468 84.4608 167.565 84.581 167.565H100.561C100.681 167.565 100.779 167.468 100.779 167.348V164.429C100.779 164.309 100.681 164.212 100.561 164.212Z" fill="#2D2C2C"/>
<path d="M82.7769 270.225C82.7769 271.458 81.7754 272.463 80.5369 272.463C79.2983 272.463 78.2969 271.462 78.2969 270.225C78.2969 268.988 79.2983 267.988 80.5369 267.988C81.7754 267.988 82.7769 268.988 82.7769 270.225Z" fill="#2D2C2C"/>
<path d="M80.5366 266.5H81.7025C82.0992 266.5 82.3411 266.925 82.1476 267.268L81.5671 268.278L80.9865 269.288C80.7881 269.631 80.2947 269.631 80.0963 269.288L79.5157 268.278L78.9303 267.268C78.732 266.925 78.9787 266.5 79.3754 266.5H80.5414H80.5366Z" fill="#2D2C2C"/>
<path d="M107.03 270.225C107.03 271.458 106.028 272.463 104.79 272.463C103.551 272.463 102.55 271.462 102.55 270.225C102.55 268.988 103.551 267.988 104.79 267.988C106.028 267.988 107.03 268.988 107.03 270.225Z" fill="#2D2C2C"/>
<path d="M104.789 266.5H105.955C106.352 266.5 106.599 266.925 106.401 267.268L105.815 268.278L105.235 269.288C105.036 269.631 104.543 269.631 104.344 269.288L103.764 268.278L103.183 267.268C102.985 266.925 103.232 266.5 103.628 266.5H104.794H104.789Z" fill="#2D2C2C"/>
<path d="M111.601 209.343V261.988C111.601 263.544 110.871 264.931 109.734 265.825C109.342 266.134 108.902 266.385 108.428 266.564C107.891 266.767 107.31 266.873 106.705 266.873H78.6207C78.2868 266.873 77.9627 266.839 77.6434 266.776C77.1789 266.685 76.7435 266.525 76.3371 266.308C74.7841 265.491 73.7246 263.858 73.7246 261.983V209.338C73.7246 206.642 75.9162 204.453 78.6158 204.453H106.7C109.4 204.453 111.592 206.642 111.592 209.338L111.601 209.343Z" fill="#A9A7FC"/>
<path d="M111.601 240.79H73.7295V242.095H111.601V240.79Z" fill="#9696EA"/>
<path d="M77.6481 240.79V266.777C77.1836 266.685 76.7482 266.525 76.3418 266.308V240.79H77.6481Z" fill="#9696EA"/>
<path d="M85.6695 240.79H84.3633V266.873H85.6695V240.79Z" fill="#9696EA"/>
<path d="M93.69 240.79H92.3838V266.873H93.69V240.79Z" fill="#9696EA"/>
<path d="M101.713 240.79H100.406V266.873H101.713V240.79Z" fill="#9696EA"/>
<path d="M109.734 265.825V242.095V240.79H108.428V242.095V266.564L109.734 265.825Z" fill="#9696EA"/>
<path d="M14.7987 110.527C14.8955 114.577 15.4518 118.621 16.4726 122.545C16.8694 124.071 17.3483 125.603 18.2385 126.903C19.1287 128.203 20.5027 129.256 22.0702 129.425C23.1152 129.541 24.1892 129.222 25.0359 128.609C26.139 127.807 26.2357 127.014 26.3809 125.739C27.063 119.607 26.5066 113.412 26.5841 107.246C26.6179 104.666 26.7534 102.047 26.168 99.5297C26.0664 99.0851 25.9358 98.6406 25.6842 98.2588C25.3746 97.7901 24.9004 97.4519 24.3876 97.2151C22.2202 96.2149 19.627 96.2922 17.8273 97.9786C14.7406 100.863 14.8132 104.966 14.7842 108.913C14.7842 109.45 14.7842 109.991 14.7987 110.527Z" fill="white"/>
<path d="M26.6096 269.148C27.4175 268.003 28.0755 266.235 28.24 264.838C28.6851 261.026 28.3997 257.17 28.0513 253.343C27.9642 252.381 27.6014 250.545 28.1384 249.671C28.6222 248.893 30.7703 249.144 31.6605 249.129C32.3136 249.115 32.9667 249.115 33.6199 249.091C34.0504 249.071 34.5875 248.893 35.0035 248.941C36.184 249.071 36.0002 250.661 35.884 251.545C35.5115 254.396 35.2503 257.266 35.1003 260.137C34.9697 262.683 34.5633 265.529 35.4051 267.994C35.7244 268.936 35.9518 270.129 35.11 270.772C34.9164 270.917 34.6891 270.994 34.4665 271.052C32.691 271.54 30.8187 271.381 28.9851 271.216C28.2207 271.149 27.3305 271.173 26.5999 270.83C26.479 270.772 26.358 270.704 26.2709 270.588C26.1161 270.376 26.121 270.052 26.208 269.806C26.2951 269.554 26.4596 269.356 26.6048 269.148H26.6096Z" fill="#FFCFC5"/>
<path d="M18.1242 272.313C18.1435 272.338 18.1629 272.362 18.1822 272.386L36.1651 272.463C36.1796 272.333 36.1941 272.202 36.2038 272.072C36.228 271.777 36.2376 271.487 36.2328 271.192C36.2086 270.081 35.9425 268.984 35.3813 267.994C35.2604 267.781 35.1007 267.554 34.854 267.501C34.583 267.443 34.3266 267.612 34.0896 267.752C33.1994 268.279 31.8931 268.554 30.9013 268.177C30.253 267.931 29.6967 267.496 29.2467 266.984C29.0484 266.761 28.8597 266.525 28.6033 266.365C28.3227 266.191 27.9985 266.167 27.6841 266.239C26.7939 266.442 26.0004 267.191 25.207 267.631C24.2975 268.129 23.3444 268.564 22.3671 268.921C21.5398 269.226 20.6932 269.477 19.9046 269.859C19.4159 270.1 18.5935 270.555 18.1871 271.115C17.921 271.477 17.8339 271.888 18.1194 272.313H18.1242Z" fill="#2D2C2C"/>
<path d="M18.1242 272.313C18.1436 272.337 18.1629 272.361 18.1823 272.385L36.1651 272.462C36.1796 272.332 36.1941 272.201 36.2038 272.071C36.228 271.776 36.2377 271.486 36.2329 271.192L18.192 271.114C17.9259 271.477 17.8388 271.887 18.1242 272.313Z" fill="#494848"/>
<path d="M22.198 269.593C22.2851 269.395 22.5463 269.332 22.7302 269.26C23.7655 268.844 24.7669 268.346 25.7249 267.781C26.2667 267.462 26.7941 267.119 27.3069 266.752C27.3891 266.694 27.5004 266.679 27.5972 266.713C27.6552 266.733 27.7568 266.81 27.6746 266.868C26.7021 267.559 25.6813 268.177 24.6073 268.709C24.0848 268.97 23.5478 269.207 23.0011 269.429C22.8946 269.472 22.7156 269.506 22.6382 269.598C22.5415 269.709 22.6382 269.869 22.7011 269.97C22.8027 270.139 23.3736 270.748 23.2285 270.961C23.0059 271.294 22.6334 270.651 22.5753 270.521C22.5221 270.4 22.4592 270.279 22.3867 270.168C22.2851 270.004 22.1157 269.791 22.2028 269.588L22.198 269.593Z" fill="#494848"/>
<path d="M32.8125 270.893C33.0641 269.685 33.6688 268.496 34.7912 267.849C34.8735 267.8 35.0089 267.8 35.0912 267.849C35.1686 267.892 35.1686 267.965 35.0912 268.008C34.0414 268.617 33.4753 269.767 33.2382 270.893C33.2044 271.052 32.7883 271.033 32.8173 270.893H32.8125Z" fill="#494848"/>
<path d="M25.8551 266.862C25.9083 266.848 25.9663 266.843 26.0196 266.853C26.0631 266.862 26.1163 266.872 26.1453 266.906C26.3679 267.138 26.5953 267.375 26.8178 267.606C26.8807 267.674 26.8178 267.742 26.7404 267.761C26.6872 267.776 26.6291 267.78 26.5759 267.771C26.5324 267.761 26.4792 267.751 26.4501 267.718C26.2276 267.486 26.005 267.249 25.7777 267.017C25.7148 266.949 25.7777 266.882 25.8551 266.862Z" fill="white"/>
<path d="M24.9122 267.423C24.9993 267.399 25.1299 267.399 25.2025 267.466C25.4202 267.669 25.6185 267.887 25.8024 268.119C25.8266 268.148 25.8411 268.172 25.8217 268.206C25.8072 268.24 25.7588 268.264 25.725 268.273C25.6717 268.288 25.6137 268.293 25.5605 268.283C25.5218 268.278 25.4589 268.264 25.4347 268.23C25.2508 267.998 25.0525 267.78 24.8348 267.578C24.767 267.515 24.8444 267.442 24.9122 267.423Z" fill="white"/>
<path d="M23.7844 267.993C23.7989 267.96 23.8473 267.935 23.8811 267.926C23.9343 267.911 23.9924 267.906 24.0456 267.916C24.0843 267.926 24.1472 267.935 24.1714 267.969C24.3311 268.172 24.4907 268.375 24.6504 268.578C24.6745 268.607 24.6891 268.631 24.6697 268.665C24.6552 268.699 24.6068 268.723 24.573 268.733C24.5197 268.747 24.4617 268.752 24.4085 268.742C24.3698 268.733 24.3069 268.723 24.2827 268.689C24.123 268.486 23.9634 268.283 23.8037 268.08C23.7795 268.051 23.765 268.027 23.7844 267.993Z" fill="white"/>
<path d="M22.6905 268.38C22.7825 268.356 22.9082 268.356 22.9808 268.423C23.2179 268.641 23.4259 268.887 23.5904 269.163C23.6098 269.192 23.5904 269.23 23.5662 269.25C23.5372 269.279 23.4791 269.298 23.4404 269.303C23.3533 269.313 23.2324 269.303 23.1792 269.221C23.1405 269.158 23.1018 269.095 23.0582 269.032C23.0389 269.003 23.0147 268.969 22.9905 268.94C22.9905 268.94 22.9857 268.931 22.9808 268.926C22.9808 268.926 22.9663 268.907 22.9663 268.911C22.9566 268.897 22.9421 268.882 22.9324 268.868C22.8357 268.752 22.7292 268.641 22.618 268.539C22.5502 268.477 22.6276 268.404 22.6954 268.385L22.6905 268.38Z" fill="white"/>
<path d="M58.534 269.167C57.7116 268.022 57.0391 266.249 56.8698 264.857C56.4102 261.045 56.7004 257.184 57.0439 253.362C57.131 252.4 57.4987 250.564 56.9472 249.689C56.4585 248.907 54.2718 249.158 53.3622 249.139C52.6994 249.124 52.0366 249.124 51.3738 249.095C50.9384 249.076 50.3917 248.897 49.9659 248.94C48.7661 249.066 48.9596 250.661 49.0758 251.545C49.458 254.396 49.7289 257.266 49.8837 260.141C50.024 262.687 50.4352 265.534 49.5837 267.998C49.2596 268.94 49.0274 270.134 49.8885 270.776C50.0821 270.921 50.3143 270.999 50.5417 271.061C52.3462 271.554 54.2476 271.395 56.115 271.235C56.894 271.168 57.7987 271.192 58.534 270.854C58.655 270.796 58.7808 270.728 58.8679 270.612C59.0227 270.399 59.0227 270.08 58.9308 269.829C58.8388 269.578 58.6743 269.38 58.5292 269.172L58.534 269.167Z" fill="#FFCFC5"/>
<path d="M66.8364 272.313C66.817 272.338 66.7977 272.362 66.7783 272.386L48.8003 272.463C48.7858 272.333 48.7713 272.202 48.7568 272.072C48.7326 271.777 48.7229 271.487 48.7278 271.192C48.752 270.081 49.0181 268.984 49.5793 267.994C49.7002 267.781 49.8599 267.554 50.1066 267.501C50.3775 267.443 50.6339 267.612 50.871 267.752C51.7612 268.279 53.0675 268.554 54.0592 268.177C54.7075 267.931 55.2639 267.496 55.7138 266.984C55.9122 266.761 56.1009 266.525 56.3573 266.365C56.6379 266.191 56.962 266.167 57.2765 266.239C58.1667 266.442 58.9601 267.191 59.7536 267.631C60.6631 268.129 61.6162 268.564 62.5935 268.921C63.4208 269.226 64.2674 269.477 65.056 269.859C65.5446 270.1 66.3671 270.555 66.7735 271.115C67.0396 271.477 67.1267 271.888 66.8412 272.313H66.8364Z" fill="#2D2C2C"/>
<path d="M66.8364 272.314C66.817 272.338 66.7977 272.362 66.7783 272.386L48.8003 272.463C48.7858 272.333 48.7713 272.202 48.7568 272.072C48.7326 271.777 48.7229 271.487 48.7278 271.193L66.7687 271.115C67.0347 271.478 67.1218 271.888 66.8364 272.314Z" fill="#494848"/>
<path d="M62.7673 269.593C62.6802 269.395 62.4189 269.332 62.2351 269.26C61.1998 268.844 60.1983 268.346 59.2404 267.781C58.6985 267.462 58.1712 267.119 57.6583 266.752C57.5761 266.694 57.4648 266.679 57.3681 266.713C57.31 266.733 57.2084 266.81 57.2907 266.868C58.2631 267.559 59.2839 268.177 60.3579 268.709C60.8804 268.97 61.4175 269.207 61.9642 269.429C62.0706 269.472 62.2496 269.506 62.327 269.598C62.4238 269.709 62.327 269.869 62.2641 269.97C62.1625 270.139 61.5916 270.748 61.7368 270.961C61.9593 271.294 62.3318 270.651 62.3899 270.521C62.4431 270.4 62.506 270.279 62.5786 270.168C62.6802 270.004 62.8495 269.791 62.7624 269.588L62.7673 269.593Z" fill="#494848"/>
<path d="M52.1483 270.893C51.8967 269.685 51.2919 268.496 50.1695 267.849C50.0873 267.8 49.9518 267.8 49.8696 267.849C49.7922 267.892 49.7922 267.965 49.8696 268.008C50.9194 268.617 51.4855 269.767 51.7225 270.893C51.7564 271.052 52.1725 271.033 52.1434 270.893H52.1483Z" fill="#494848"/>
<path d="M59.1096 266.862C59.0563 266.848 58.9983 266.843 58.9451 266.853C58.9015 266.862 58.8483 266.872 58.8193 266.906C58.5967 267.138 58.3693 267.375 58.1468 267.606C58.0839 267.674 58.1468 267.742 58.2242 267.761C58.2774 267.776 58.3355 267.78 58.3887 267.771C58.4322 267.761 58.4855 267.751 58.5145 267.718C58.737 267.486 58.9596 267.249 59.187 267.017C59.2499 266.949 59.187 266.882 59.1096 266.862Z" fill="white"/>
<path d="M60.0533 267.424C59.9662 267.4 59.8356 267.4 59.763 267.467C59.5501 267.67 59.3469 267.888 59.1631 268.12C59.1389 268.149 59.1244 268.173 59.1437 268.207C59.1582 268.24 59.2066 268.265 59.2405 268.274C59.2937 268.289 59.3518 268.294 59.405 268.284C59.4437 268.279 59.5066 268.265 59.5308 268.231C59.7146 267.999 59.913 267.781 60.1307 267.579C60.1984 267.516 60.121 267.443 60.0533 267.424Z" fill="white"/>
<path d="M61.1756 267.993C61.1611 267.96 61.1127 267.935 61.0788 267.926C61.0256 267.911 60.9675 267.906 60.9143 267.916C60.8756 267.926 60.8127 267.935 60.7885 267.969C60.6289 268.172 60.4692 268.375 60.3096 268.578C60.2854 268.607 60.2709 268.631 60.2902 268.665C60.3047 268.699 60.3531 268.723 60.387 268.733C60.4402 268.747 60.4983 268.752 60.5515 268.742C60.5902 268.733 60.6482 268.723 60.6773 268.689C60.8369 268.486 60.9966 268.283 61.1562 268.08C61.1804 268.051 61.1949 268.027 61.1756 267.993Z" fill="white"/>
<path d="M62.2741 268.38C62.1822 268.356 62.0564 268.356 61.9838 268.423C61.7467 268.641 61.5387 268.887 61.3742 269.163C61.3549 269.192 61.3742 269.23 61.3936 269.25C61.4226 269.279 61.4807 269.298 61.5194 269.303C61.6065 269.313 61.7322 269.303 61.7806 269.221C61.8193 269.158 61.858 269.095 61.9016 269.032C61.9209 269.003 61.9451 268.969 61.9693 268.94C61.9693 268.94 61.979 268.931 61.979 268.926C61.979 268.926 61.9935 268.907 61.9935 268.911C62.0032 268.897 62.0177 268.882 62.0274 268.868C62.1241 268.752 62.2305 268.641 62.3467 268.539C62.4144 268.477 62.337 268.404 62.2693 268.385L62.2741 268.38Z" fill="white"/>
<path d="M22.9898 190.62C22.9511 199.356 23.0769 208.092 23.372 216.819C23.672 225.7 23.7252 234.591 23.7058 243.477C23.6962 247.98 23.6671 252.489 23.643 256.992C23.6381 258.099 23.2995 260.147 23.5994 261.471H38.0457C38.3505 258.698 38.2972 255.77 38.5682 253.001C38.9165 249.416 39.2697 245.835 39.618 242.25C40.305 235.2 40.9968 228.155 41.6838 221.105C43.5803 201.632 44.4173 182.115 44.8866 162.56C44.9156 161.231 44.9156 159.816 44.1948 158.704C42.5498 156.167 39.3906 156.926 36.9378 157.076C33.5318 157.288 30.6822 157.163 27.6827 159.192C24.8863 161.086 23.4446 163.005 23.2317 166.416C22.8592 172.422 22.9366 178.622 22.9801 184.749C22.9947 186.715 23.0043 188.672 22.9947 190.615L22.9898 190.62Z" fill="#494848"/>
<path d="M43.3971 193.257C43.5471 205.236 43.9583 217.205 44.4856 229.173C44.7517 235.155 45.0468 241.138 45.3516 247.12C45.5065 250.111 45.6613 253.102 45.8161 256.093C45.879 257.286 45.6032 259.789 46.0144 261.471H61.2009C61.496 260.147 61.1622 258.103 61.1574 256.991C61.1332 252.488 61.1042 247.98 61.0945 243.476C61.0751 234.59 61.1283 225.699 61.4283 216.818C61.7234 208.087 61.8492 199.35 61.8105 190.619C61.8008 188.657 61.8589 186.705 61.9556 184.758C62.4927 173.523 63.4844 161.255 60.0301 150.387C59.7689 149.571 59.4254 148.687 58.6706 148.276C58.1336 147.986 57.4902 147.996 56.8757 148.02C52.5022 148.194 48.1432 148.735 43.8567 149.638C43.1262 149.793 42.3618 149.977 41.8102 150.484C41.0749 151.165 40.9152 152.248 40.8475 153.248C40.5765 157.263 41.8441 160.82 41.9312 164.71C42.0376 169.266 42.1731 173.818 42.3472 178.374C42.5359 183.419 43.3245 188.237 43.3874 193.262L43.3971 193.257Z" fill="#494848"/>
<path d="M43.5078 175.997V197.688C43.5078 197.828 43.8803 197.828 43.8803 197.688V175.997C43.8803 175.857 43.5078 175.857 43.5078 175.997Z" fill="#2D2C2C"/>
<path d="M64.4794 99.7772C64.1504 108.407 64.0827 117.042 64.1069 125.677C64.1262 133.596 63.3279 141.376 63.1538 149.339C63.1344 150.209 63.0909 151.146 62.5587 151.837C62.0507 152.494 61.2041 152.775 60.4058 152.987C58.1271 153.591 55.7662 153.891 53.4052 153.876C49.2881 153.852 47.2319 157.689 44.5952 160.337C41.6682 163.275 38.18 165.584 34.7209 167.87C31.8713 169.75 28.9588 171.673 25.7029 172.789C24.9094 173.06 22.1082 174.21 21.3196 173.678C20.4101 173.064 20.5988 169.827 20.5165 168.783C19.8827 160.902 20.2746 152.987 19.9602 145.092C19.5925 135.824 19.157 126.556 18.5958 117.298C18.3491 113.278 18.0491 109.262 17.5508 105.262C17.4154 104.189 17.2847 103.106 17.1009 102.039C16.9896 101.391 16.6171 100.681 16.5687 100.043C16.4574 98.5644 18.1411 97.4868 19.2586 96.7958C22.8291 94.5634 26.8446 93.2105 30.6231 91.3936C30.8021 91.3067 30.9763 91.2245 31.1553 91.1375C32.897 90.2823 34.629 89.3159 36.1239 88.0789C37.793 86.7018 40.1007 86.5568 42.2101 87.0255C43.1438 87.2284 44.0437 87.5763 44.9339 87.9194C47.4593 88.8955 49.9799 89.8667 52.5054 90.8428C55.9887 92.1861 59.4672 93.5294 62.9506 94.8775C65.3647 95.8101 64.552 97.6463 64.4697 99.7772H64.4794Z" fill="white"/>
<path d="M52.5151 90.8427C52.4715 90.9104 52.4231 90.978 52.3748 91.036C51.6442 91.9686 50.5799 92.5726 49.5107 93.08C46.3708 94.5586 42.8633 95.38 39.4186 94.9983C38.0253 94.8437 36.6464 94.4812 35.3595 93.9207C34.3823 93.4955 32.2584 92.4228 31.1602 91.1327C32.9018 90.2774 34.6338 89.311 36.1288 88.074C37.7979 86.6969 40.1056 86.5519 42.215 87.0206C43.1487 87.2236 44.0486 87.5715 44.9388 87.9145C47.4642 88.8906 49.9848 89.8618 52.5102 90.8379L52.5151 90.8427Z" fill="#FFCFC5"/>
<path d="M48.3449 84.7643C48.132 85.6437 48.0014 86.5425 47.9192 87.4412C47.8514 88.0791 47.8127 88.7169 47.7789 89.3547C47.745 89.9007 47.7063 90.4806 47.3821 90.9155C47.1112 91.2827 46.6806 91.4856 46.25 91.6403C45.476 91.9157 44.61 92.1524 43.7972 92.0558C41.6007 91.7949 39.3414 91.5146 37.4159 90.4322C36.9708 90.181 36.5354 89.8766 36.2644 89.4369C36.0709 89.1276 36.0274 88.8425 36.0612 88.5719C36.1096 88.166 36.3273 87.7843 36.4628 87.3398C36.7386 86.412 36.9514 85.4601 37.1643 84.5227C37.5804 82.6914 37.9239 80.8407 38.0738 78.9707C38.1367 78.1589 38.0738 76.6272 38.6834 75.9894C39.2833 75.3564 40.7928 75.5303 41.5185 75.7526C43.0134 76.2068 44.4793 76.9316 45.5921 78.0478C46.1291 78.589 46.5742 79.2268 47.0677 79.8066C47.5273 80.343 48.0691 81.0581 48.3884 81.7926C48.5433 82.1453 48.6449 82.5029 48.6642 82.8508C48.6981 83.4935 48.5046 84.1265 48.3546 84.7498L48.3449 84.7643Z" fill="#FFCFC5"/>
<path d="M48.3459 84.7642C48.133 85.6436 48.0024 86.5424 47.9201 87.4411C47.2912 87.2334 46.6623 86.7743 46.222 86.3829C45.2399 85.518 43.5756 83.532 44.6206 82.1839C45.5205 81.319 47.1606 81.2803 48.3846 81.8022C48.5394 82.1549 48.641 82.5125 48.6604 82.8604C48.6942 83.5031 48.5007 84.136 48.3507 84.7594L48.3459 84.7642Z" fill="#FFCFC5"/>
<path d="M53.1212 67.6289C53.1357 67.6627 53.1551 67.6965 53.1696 67.7303C53.3002 68.0009 53.3002 68.4116 53.3873 68.7209C53.4937 69.0978 53.576 69.4844 53.605 69.8806C53.6582 70.5957 53.2131 71.277 53.2663 71.9922C53.2905 72.3159 53.4889 72.5817 53.6389 72.8619C53.8179 73.1953 54.0114 73.5191 54.2146 73.838C54.6307 74.4903 55.0999 75.1088 55.6079 75.6887C55.9659 76.0897 56.3627 76.5294 56.3675 77.0658C56.3772 77.9307 55.4725 78.2303 54.8193 78.5299C54.1178 78.8536 54.0114 79.8152 53.9678 80.4772C53.905 81.3759 53.992 82.2602 53.8904 83.1638C53.7647 84.28 53.3437 85.2512 52.1246 85.4445C50.4071 85.7199 48.6219 85.459 47.0205 84.8067C45.7674 84.2945 44.6208 83.5552 43.6097 82.6709C42.7389 81.9123 41.4713 81.3373 40.8859 80.3081C40.2763 79.2402 39.2265 79.4721 38.1863 78.9696C37.7702 78.7715 37.4703 78.4477 37.0978 78.1965C36.7639 77.9694 36.5898 77.7278 36.4156 77.3557C36.0044 76.4521 35.5399 75.4422 35.3609 74.4662C35.1722 73.4321 35.0416 72.4077 35.0513 71.3543C35.061 70.2671 35.4383 69.1461 35.9125 68.1749C36.3866 67.194 37.6445 66.5513 38.4137 65.7734C39.062 65.1162 39.628 64.3866 40.3828 63.8454C41.7809 62.85 43.063 61.9512 44.8192 61.9561C45.99 61.9561 47.0785 62.1832 48.2203 62.391C49.275 62.5842 50.1555 63.2897 50.8812 64.058C51.8488 65.0872 52.5019 66.358 53.1115 67.6289H53.1212Z" fill="#FFCFC5"/>
<path d="M39.763 80.9948C39.8259 80.9465 39.8888 80.903 39.9469 80.8595C40.3388 80.5696 40.7742 80.3328 41.0887 79.9463C41.5241 79.4099 41.616 78.7044 41.8821 78.0859C42.1385 77.4916 42.8352 77.2017 42.9852 76.5445C43.1158 75.9888 43.1303 75.5346 43.6093 75.1239C43.9915 74.7953 44.4172 74.6262 44.7317 74.2203C45.0171 73.8483 45.1719 73.3892 45.259 72.935C45.3751 72.3262 45.3896 71.698 45.5203 71.0892C45.6509 70.4803 45.9267 69.8715 46.4395 69.5188C46.7152 69.3303 47.0442 69.2288 47.3635 69.1225C48.2731 68.8278 49.202 68.4751 49.9325 67.8421C50.5421 67.3105 51.2775 66.7645 51.3791 65.8996C51.4178 65.5807 51.3791 65.2521 51.4371 64.9332C52.3176 65.7063 52.5015 67.0351 53.3143 67.8807C53.3385 67.9097 53.3675 67.9339 53.4062 67.9387C53.4594 67.9435 53.503 67.9 53.5368 67.8614C54.1416 67.1221 54.1658 65.7595 53.8174 64.909C53.6094 64.4017 53.2756 63.9523 52.9224 63.5319C52.7337 63.3096 52.5354 63.0874 52.2983 62.9134C51.9693 62.667 51.5823 62.5123 51.2001 62.3626C50.6485 62.1451 50.097 61.9277 49.5406 61.7102C49.1584 61.5604 48.7762 61.4106 48.3795 61.2995C47.4264 61.0337 46.4056 61.0096 45.4429 61.2319C44.9494 61.3478 44.4704 61.5218 43.9721 61.6184C43.4448 61.7199 42.9029 61.7247 42.3707 61.8069C41.2096 61.9808 39.8743 62.464 39.0664 63.3483C38.5342 63.933 38.2052 64.6529 37.765 65.3004C37.5279 65.6532 37.3731 65.8319 36.9812 65.9721C36.5942 66.117 36.212 66.3103 35.8878 66.5616C35.0702 67.2042 34.6493 68.219 34.3784 69.2192C34.0349 70.4852 33.672 71.8768 34.1848 73.1573C34.4026 73.6985 34.7896 74.1817 34.8912 74.7567C34.9686 75.1964 34.8767 75.6554 34.9638 76.0951C35.0895 76.7185 35.5637 77.2017 35.9604 77.6994C36.3039 78.1294 36.6087 78.5981 36.8312 79.1055C37.0489 79.5984 37.1892 80.1202 37.4069 80.6131C37.5908 81.0335 38.7277 82.7198 39.2744 81.8646C39.3712 81.7148 39.3325 81.4925 39.4292 81.3282C39.5066 81.1978 39.6373 81.0866 39.763 80.9851V80.9948Z" fill="#FC5B35"/>
<path d="M47.2955 76.9846C47.2955 76.9846 47.2955 76.9411 47.2955 76.9218C47.3294 75.2451 45.5297 72.4087 43.5799 73.5974C42.8929 74.0129 42.5107 74.8344 42.5107 75.6317C42.5107 77.1876 44.0831 79.5359 45.8538 79.3282C46.9327 79.2025 47.2617 77.9027 47.2955 76.9846Z" fill="#FFCFC5"/>
<path d="M46.5894 86.6L41.4273 87.0301C41.1128 87.0542 40.8129 86.8754 40.6871 86.5855L35.5201 74.6021C35.3217 74.1382 35.6362 73.6164 36.1394 73.5729L41.3015 73.1429C41.616 73.1187 41.9159 73.2926 42.0417 73.5874L47.2087 85.5708C47.4071 86.0347 47.0926 86.5565 46.5894 86.6Z" fill="#494848"/>
<path d="M45.8443 86.6L40.6822 87.0301C40.3677 87.0542 40.0677 86.8754 39.942 86.5855L34.775 74.6021C34.5766 74.1382 34.8911 73.6164 35.3942 73.5729L40.5564 73.1429C40.8757 73.1187 41.1708 73.2926 41.2966 73.5874L46.4636 85.5708C46.6619 86.0347 46.3475 86.5565 45.8443 86.6Z" fill="#2D2C2C"/>
<path d="M37.8324 76.2685H37.01C36.8745 76.2685 36.7487 76.196 36.681 76.0752L36.1633 75.1475C36.023 74.8962 36.2069 74.5918 36.4923 74.5918H37.3148C37.4502 74.5918 37.576 74.6643 37.6438 74.7851L38.1614 75.7128C38.3017 75.9641 38.1179 76.2685 37.8324 76.2685Z" fill="#494848"/>
<path d="M52.8689 70.6495C52.8496 70.5818 52.8205 70.519 52.7818 70.461C52.4674 70.0116 51.7029 70.2049 51.2627 70.2967C50.6821 70.4175 50.1596 70.7364 49.6952 71.0892C49.2404 71.4274 48.7856 71.8623 48.7324 72.4228C48.7324 72.4566 48.7324 72.4905 48.7469 72.5146C48.863 72.6596 49.5404 72.1184 49.6516 72.0459C49.8113 71.9444 49.9855 71.872 50.1596 71.7995C50.8031 71.5337 51.4852 71.3308 52.1819 71.3211C52.3319 71.3211 52.4915 71.3211 52.6318 71.2631C52.8737 71.152 52.9366 70.8814 52.8689 70.6495Z" fill="#FC5B35"/>
<path d="M51.0885 73.4759C51.0836 73.273 51.1078 73.0797 51.2094 72.9637C51.282 72.8816 51.3884 72.8333 51.4997 72.8043C51.8238 72.7318 52.0561 72.8961 52.1528 73.157C52.2109 73.3213 52.2206 73.5049 52.2157 73.6837C52.2109 73.8673 52.1819 74.0606 52.119 74.2394C52.0851 74.336 52.027 74.4134 51.9351 74.4713C51.5481 74.7178 51.282 74.481 51.1949 74.1428C51.1562 73.9881 51.0933 73.7224 51.0885 73.4711V73.4759Z" fill="#7C391C"/>
<path d="M50.3776 64.6563C50.0389 66.4683 48.723 68.058 46.9861 68.7055C46.7588 68.7925 47.0345 68.9375 47.1748 68.8843C49.0036 68.203 50.3921 66.5746 50.7501 64.6563C50.7743 64.5307 50.4066 64.5113 50.3776 64.6563Z" fill="#F7B576"/>
<path d="M48.4513 65.6427C48.3691 65.6283 48.2723 65.6427 48.2239 65.7152C47.5273 66.6671 46.55 67.4016 45.4372 67.7978C45.3743 67.822 45.3163 67.8751 45.3695 67.938C45.4227 68.0008 45.5533 68.0008 45.6259 67.9766C46.8112 67.5514 47.8417 66.7831 48.5819 65.7684C48.6303 65.7007 48.4949 65.6476 48.4513 65.6427Z" fill="#F7B576"/>
<path d="M42.1679 62.5791C41.8051 62.6033 41.4858 62.7434 41.181 62.9367C40.8762 63.13 40.5665 63.3329 40.2908 63.5697C39.7828 64.0094 39.4586 64.623 39.3764 65.2899C39.3619 65.4252 39.7344 65.4348 39.7489 65.2899C39.8166 64.6955 40.0973 64.1398 40.5423 63.7388C40.7746 63.5262 41.0455 63.3474 41.3116 63.1734C41.568 63.0043 41.8534 62.8159 42.1679 62.7917C42.226 62.7917 42.3566 62.7724 42.3566 62.6902C42.3566 62.6129 42.226 62.5839 42.1679 62.5888V62.5791Z" fill="#F7B576"/>
<path d="M36.3907 67.7444C34.8474 69.1505 34.412 71.4119 35.3215 73.2868C35.3796 73.4076 35.7472 73.3689 35.6795 73.2336C34.799 71.4119 35.2151 69.2134 36.7148 67.8459C36.8455 67.7299 36.4875 67.6575 36.3907 67.7444Z" fill="#F7B576"/>
<path d="M38.3742 73.2098C37.6243 72.3256 37.7066 71.0934 37.9485 70.0352C37.9775 69.9096 37.6098 69.8902 37.5759 70.0352C37.3195 71.1466 37.2663 72.3932 38.0501 73.3113C38.1323 73.4079 38.4903 73.3451 38.3742 73.2098Z" fill="#F7B576"/>
<path d="M51.7851 81.1786C51.8915 81.2172 52.0028 81.2511 52.1141 81.2752C52.2689 81.3091 52.4334 81.3284 52.5785 81.2607C52.6656 81.2221 52.7333 81.1496 52.7962 81.0771C53.1252 80.6761 53.3042 80.0576 52.6414 79.9319C52.3172 79.8691 51.935 79.7821 51.6544 79.5985C51.4319 79.4584 51.2964 79.2313 50.9868 79.2651C50.5901 79.3086 50.4014 79.7048 50.5078 80.0624C50.5562 80.2315 50.6675 80.3765 50.7836 80.5069C51.0545 80.8017 51.4029 81.0336 51.7802 81.1738L51.7851 81.1786Z" fill="white"/>
<path d="M38.8679 80.2794C38.8292 80.3567 38.7954 80.4341 38.7615 80.5162C38.3454 81.5068 38.389 82.507 38.36 83.5604C38.3309 84.7201 38.3019 85.8749 38.2729 87.0346C38.2342 88.6147 38.2245 90.1754 38.0987 91.7796C38.0697 92.1372 38.0552 92.5431 38.2971 92.8089C38.4712 93.0021 38.7373 93.0794 38.9889 93.1423C40.8902 93.5965 42.1675 93.7898 42.8303 91.6878C43.3237 90.1271 42.7432 88.3006 43.4544 86.8461C43.6285 86.4837 43.7592 86.6287 44.1027 86.6287C44.3639 86.7543 44.5381 87.0732 44.8235 87.0877C44.9687 87.0926 45.1041 87.0153 45.1912 86.8993C45.5299 86.4596 45.3025 85.6478 45.0993 85.1888C44.9832 84.9327 44.8042 84.6911 44.5526 84.5606C44.6784 84.5364 44.78 84.4301 44.8332 84.3142C44.8864 84.1934 44.9009 84.0629 44.9009 83.9324C44.9106 83.541 44.8042 83.2028 44.5187 82.9322C44.48 82.8936 43.943 82.5263 43.9188 82.5891C44.1172 82.0045 43.8221 81.3666 43.2705 81.1202C42.8254 80.9221 42.3126 80.9366 41.8336 81.0236C41.4659 81.0912 41.1031 81.1927 40.7596 81.3328C40.6774 81.3666 40.0097 81.5744 40.0097 81.6904C40.0097 81.4874 39.9323 81.2362 39.9807 81.0381C40.0291 80.8399 40.15 80.6708 40.2468 80.4872C40.4838 80.0572 40.7644 79.6513 41.1031 79.2937C41.345 79.0376 42.361 77.8924 41.524 77.6605C41.374 77.617 41.2144 77.6991 41.0837 77.7813C40.121 78.3805 39.3421 79.2647 38.8631 80.2891L38.8679 80.2794Z" fill="#FFCFC5"/>
<path d="M43.5756 82.5168C43.0676 82.4926 42.5596 82.541 42.0613 82.6569C41.6162 82.7632 41.0889 82.8985 40.7599 83.2368C40.6438 83.3527 40.9728 83.4156 41.055 83.3334C41.3501 83.0338 41.8339 82.913 42.2355 82.8212C42.6757 82.7197 43.1257 82.6859 43.5756 82.7101C43.6288 82.7101 43.7449 82.6908 43.7449 82.6183C43.7449 82.5458 43.624 82.5265 43.5756 82.5265V82.5168Z" fill="#DB6357"/>
<path d="M44.2 84.3814C43.2421 84.2654 42.2552 84.478 41.4472 85.0047C41.2827 85.111 41.5875 85.2028 41.6891 85.1352C42.4051 84.6713 43.2615 84.4538 44.1081 84.5601C44.171 84.5698 44.2919 84.5601 44.3161 84.4925C44.3452 84.4249 44.2484 84.3862 44.1952 84.3765L44.2 84.3814Z" fill="#DB6357"/>
<path d="M24.7261 109.277C23.7198 110.475 22.7619 111.722 21.891 113.046C20.8654 114.607 19.9461 116.274 19.5639 118.105C19.1866 119.931 19.4091 121.951 20.5025 123.464C21.6007 124.976 23.6666 125.831 25.4276 125.208C26.5936 124.797 27.1886 124.039 27.8514 123.072C28.5626 122.033 29.4915 121.144 30.2317 120.101C32.3895 117.056 33.9667 113.539 35.7035 110.248C37.5516 106.74 39.2207 103.135 40.6963 99.4534C41.2188 98.1439 41.722 96.8151 42.0026 95.4331C42.3267 93.8241 42.2154 90.2194 39.7432 90.6059C38.5289 90.7944 38.0596 92.2295 37.5177 93.1428C36.7872 94.3749 36.018 95.5829 35.2052 96.7668C33.5457 99.1924 31.7218 101.502 29.7479 103.681C28.0546 105.556 26.3275 107.363 24.7212 109.282L24.7261 109.277Z" fill="#FFCFC5"/>
<path d="M80.5956 141.438C80.2666 140.892 79.928 140.356 79.5748 139.824C77.688 137.021 75.3464 134.47 74.0208 131.358C72.9274 128.792 72.4146 127.787 69.6085 129.029C67.8717 129.798 65.2833 131.006 64.5141 132.876C63.4788 135.403 65.5494 138.36 66.9428 140.312C68.9312 143.095 70.9873 145.83 73.1161 148.502C76.1979 152.373 79.4296 156.127 82.7969 159.756C84.0403 161.095 85.5545 163.467 87.3785 163.897C88.3654 164.129 89.8555 163.829 90.4119 162.902C91.2489 161.505 89.6959 159.601 89.0911 158.364C87.3736 154.847 85.6561 151.334 83.9387 147.816C82.884 145.656 81.8245 143.491 80.5908 141.433L80.5956 141.438Z" fill="#FFCFC5"/>
<path d="M66.0479 99.8733C65.9608 99.5496 65.8737 99.2258 65.7818 98.9021C65.4625 97.7762 65.119 96.6117 64.3594 95.7178C63.6821 94.9253 62.729 94.4228 61.7614 94.0314C60.7987 93.6448 59.7779 93.3452 58.7425 93.4129C55.6946 93.611 55.4382 97.3075 55.2543 99.7332C55.0705 102.144 55.264 104.565 55.5156 106.972C56.4542 115.964 57.8136 125.14 60.1697 133.847C60.2617 134.195 60.4068 134.591 60.7503 134.693C60.9438 134.751 61.1519 134.693 61.3454 134.63C63.8998 133.842 66.4543 133.055 69.0088 132.267C70.286 131.876 71.5632 131.48 72.8405 131.088C73.5226 130.88 76.169 130.474 76.4738 129.866C76.7641 129.291 75.5884 127.16 75.3804 126.561C74.9353 125.29 74.4854 124.024 74.0403 122.753C73.1452 120.216 72.2454 117.679 71.3503 115.138C69.5603 110.079 67.4316 105.029 66.0431 99.8685L66.0479 99.8733Z" fill="white"/>
<path d="M90.7446 167.865C90.9865 167.865 91.2333 167.754 91.4655 167.763C91.6687 167.773 91.867 167.865 92.0847 167.86C92.3363 167.86 92.6363 167.855 92.8782 167.797C92.9653 167.778 93.5023 167.546 93.4442 167.41C93.5023 167.541 93.6377 167.633 93.7829 167.647C93.928 167.662 94.0732 167.609 94.1844 167.522C94.3876 167.362 94.4892 167.106 94.5134 166.855C94.5376 166.599 94.4941 166.347 94.4505 166.096C94.4263 165.966 94.1215 164.56 94.2667 164.516C94.3344 164.497 94.3973 164.564 94.436 164.622C94.7843 165.193 94.9246 165.864 95.2246 166.459C95.2827 166.575 95.3455 166.686 95.4471 166.768C95.5439 166.85 95.6842 166.893 95.8052 166.855C96.0084 166.787 96.0713 166.536 96.0858 166.323C96.1487 165.265 95.6552 164.294 95.123 163.41C94.5183 162.409 93.599 161.617 92.5685 161.085C91.5574 160.559 90.4834 160.022 89.3464 160.085C88.4514 160.138 87.5322 160.592 86.9178 161.235C86.671 161.491 86.3517 161.878 86.2453 162.226C86.0856 162.752 85.9889 164.183 86.7436 164.27C86.9371 164.294 87.1306 164.25 87.3242 164.236C88.0886 164.168 88.8772 164.511 89.3513 165.11C89.8254 165.71 89.9754 166.555 89.7335 167.285C89.7044 167.381 89.6657 167.483 89.6996 167.58C89.748 167.715 89.9173 167.763 90.0576 167.787C90.2947 167.831 90.5269 167.86 90.7543 167.86L90.7446 167.865Z" fill="#FFCFC5"/>
<path d="M92.4233 164.067C92.3604 163.994 92.0943 164.043 92.1814 164.144C92.8877 164.961 93.0764 166.077 93.0232 167.126C93.0184 167.232 93.299 167.232 93.3038 167.126C93.357 166.043 93.1538 164.908 92.4233 164.067Z" fill="#DB6357"/>
<path d="M91.0784 164.507C91.0301 164.415 90.7591 164.449 90.8075 164.55C91.2478 165.405 91.2429 166.382 91.2381 167.319C91.2381 167.425 91.5187 167.425 91.5187 167.319C91.5284 166.367 91.5187 165.376 91.0784 164.507Z" fill="#DB6357"/>
<path d="M38.4371 83.0192C38.4371 82.9129 38.1565 82.9129 38.1565 83.0192C38.2 84.5799 38.2097 86.1407 38.1758 87.6966C38.1565 88.4649 38.1323 89.2332 38.0936 90.0014C38.0549 90.7456 37.9823 91.4849 37.7646 92.2C37.542 92.9296 37.1937 93.6158 36.7438 94.2343C36.6809 94.3164 36.9518 94.3599 37.0147 94.2729C37.8517 93.1278 38.2532 91.8038 38.35 90.3977C38.4613 88.8321 38.4758 87.252 38.4758 85.6865C38.4758 84.7974 38.4613 83.9083 38.4371 83.0192Z" fill="#DB6357"/>
<path d="M45.1956 86.7832C45.0456 87.0731 44.7118 87.1407 44.4651 86.933C44.2861 86.7783 44.1361 86.5802 43.8845 86.5464C43.6136 86.5126 43.4201 86.6769 43.3136 86.9136C43.1782 87.2181 43.1008 87.5563 43.0185 87.88C42.8395 88.6193 42.7621 89.3683 42.7331 90.1269C42.704 90.8952 42.6702 91.6587 42.3847 92.3835C42.2299 92.7749 42.0848 93.1614 42.0025 93.577C41.9155 94.007 41.8719 94.4419 41.8284 94.8768C41.8187 94.9783 42.0993 94.9879 42.109 94.8768C42.1864 94.094 42.2928 93.3354 42.5879 92.6009C42.7186 92.2723 42.8347 91.9486 42.8976 91.6007C42.9653 91.2286 42.9895 90.8517 43.004 90.4797C43.0379 89.7307 43.0669 88.9914 43.2169 88.2521C43.2943 87.8655 43.3959 87.4838 43.5217 87.1117C43.5652 86.9813 43.6184 86.8267 43.7249 86.7349C43.8652 86.6189 44.02 86.8122 44.1167 86.9088C44.3199 87.1021 44.5231 87.2277 44.8134 87.2084C45.0795 87.1939 45.3311 87.0586 45.4617 86.817C45.5149 86.7204 45.2392 86.6865 45.1908 86.7783L45.1956 86.7832Z" fill="#DB6357"/>
<path d="M24.0739 108.345C24.0256 108.277 23.8853 108.292 23.8175 108.306C21.205 108.929 18.9118 110.688 17.6491 113.061C17.5765 113.191 17.9442 113.235 18.0071 113.114C19.2408 110.804 21.4566 109.094 24.0062 108.485C24.0788 108.466 24.1175 108.408 24.0739 108.345Z" fill="#88B7E2"/>
<path d="M29.2312 122.082C28.5732 125.044 25.922 127.011 23.1111 127.76C22.2161 127.996 21.292 128.127 20.3679 128.185C20.1454 128.199 20.1406 128.402 20.3679 128.388C23.5272 128.199 26.817 127.078 28.6409 124.334C29.1005 123.648 29.4247 122.884 29.6037 122.077C29.6327 121.952 29.265 121.932 29.2312 122.077V122.082Z" fill="#88B7E2"/>
<path d="M63.4789 105.281C63.4692 108.871 63.4644 112.466 63.4547 116.056C63.445 119.666 63.4402 123.27 63.4305 126.88C63.4305 128.909 63.4209 130.939 63.416 132.963C63.416 133.104 63.7885 133.104 63.7885 132.963C63.7982 129.368 63.8031 125.778 63.8127 122.188C63.8224 118.579 63.8321 114.974 63.8369 111.364C63.8369 109.335 63.8466 107.305 63.8514 105.281C63.8514 105.141 63.4789 105.141 63.4789 105.281Z" fill="#88B7E2"/>
<path d="M60.7025 145.218C60.3542 146.542 59.8462 147.832 59.0915 148.982C58.7093 149.562 58.269 150.094 57.761 150.567C57.2385 151.055 56.6531 151.476 56.1258 151.959C55.9758 152.094 55.8307 152.239 55.6952 152.389C55.613 152.481 55.4727 152.602 55.4727 152.742C55.4727 152.988 55.8452 153.007 55.9903 152.877C56.0871 152.79 55.9226 152.732 55.792 152.737C55.8452 152.708 55.8887 152.669 55.9129 152.611C55.9468 152.573 55.9855 152.529 56.0193 152.49C56.0919 152.413 56.1645 152.336 56.2419 152.259C56.3774 152.128 56.5177 151.998 56.658 151.877C56.9628 151.611 57.2821 151.36 57.5917 151.099C58.1819 150.606 58.7093 150.065 59.164 149.446C60.0784 148.204 60.6687 146.755 61.0557 145.276C61.0944 145.122 60.7267 145.097 60.6977 145.223L60.7025 145.218Z" fill="#88B7E2"/>
<path d="M44.9643 156.289C43.3097 158.734 41.1036 160.768 38.6604 162.416C36.0043 164.203 33.0773 165.542 30.0826 166.663C28.3313 167.32 26.5557 167.9 24.7753 168.47C24.5431 168.543 24.8237 168.692 24.964 168.649C28.1716 167.624 31.3744 166.547 34.4223 165.102C37.1848 163.793 39.8167 162.169 42.0712 160.101C43.2952 158.98 44.3934 157.724 45.3272 156.351C45.4046 156.235 45.0417 156.182 44.9691 156.298L44.9643 156.289Z" fill="#88B7E2"/>
<path d="M40.4653 153.973C36.2514 155.563 31.8198 157.235 27.2334 156.732C26.0046 156.597 24.7999 156.302 23.663 155.824C23.5227 155.766 23.2517 155.906 23.4743 156.003C27.7656 157.8 32.5552 156.955 36.8223 155.539C38.1141 155.109 39.3864 154.63 40.6588 154.152C40.8862 154.065 40.6105 153.92 40.4702 153.973H40.4653Z" fill="#88B7E2"/>
<path d="M53.7504 145.054C53.523 146.561 53.1699 148.045 52.6909 149.494C52.6425 149.644 53.0102 149.673 53.0489 149.547C53.5279 148.078 53.8859 146.576 54.1181 145.054C54.1375 144.923 53.7649 144.909 53.7456 145.054H53.7504Z" fill="#88B7E2"/>
</g>
<defs>
<clipPath id="clip0_506_3702">
<rect width="130.408" height="218.571" fill="white" transform="translate(0 61.082)"/>
</clipPath>
</defs>
</svg>
