<svg width="80" height="80" viewBox="0 0 80 80" fill="none" xmlns="http://www.w3.org/2000/svg">
<rect width="80" height="80" rx="20" fill="#B3B3B3"/>
<g clip-path="url(#clip0_121_581)">
<path d="M39.9997 14.3335C36.7033 14.3335 33.481 15.311 30.7402 17.1423C27.9994 18.9737 25.8632 21.5767 24.6017 24.6221C23.3402 27.6675 23.0102 31.0187 23.6533 34.2517C24.2963 37.4847 25.8837 40.4544 28.2146 42.7853C30.5454 45.1162 33.5152 46.7035 36.7482 47.3466C39.9812 47.9897 43.3323 47.6596 46.3777 46.3982C49.4232 45.1367 52.0262 43.0005 53.8575 40.2597C55.6889 37.5188 56.6664 34.2965 56.6664 31.0002C56.6664 26.5799 54.9104 22.3407 51.7848 19.2151C48.6592 16.0894 44.42 14.3335 39.9997 14.3335ZM37.2219 21.4863C37.2219 20.9369 37.3848 20.3998 37.69 19.943C37.9953 19.4862 38.4291 19.1302 38.9367 18.9199C39.4442 18.7097 40.0028 18.6547 40.5416 18.7619C41.0804 18.8691 41.5754 19.1336 41.9639 19.5221C42.3523 19.9106 42.6169 20.4055 42.7241 20.9444C42.8313 21.4832 42.7763 22.0417 42.566 22.5493C42.3558 23.0569 41.9997 23.4907 41.5429 23.7959C41.0861 24.1011 40.5491 24.2641 39.9997 24.2641C39.6234 24.2829 39.2472 24.225 38.894 24.0938C38.5408 23.9627 38.2179 23.7611 37.9451 23.5012C37.6723 23.2414 37.4551 22.9288 37.3069 22.5824C37.1587 22.236 37.0825 21.863 37.083 21.4863H37.2219ZM46.9441 39.3335C46.9441 39.7019 46.7978 40.0551 46.5373 40.3156C46.2769 40.5761 45.9236 40.7224 45.5552 40.7224H35.833C35.4647 40.7224 35.1114 40.5761 34.8509 40.3156C34.5905 40.0551 34.4441 39.7019 34.4441 39.3335C34.4441 38.9651 34.5905 38.6119 34.8509 38.3514C35.1114 38.0909 35.4647 37.9446 35.833 37.9446H38.6108V29.6113H37.2219C36.8535 29.6113 36.5003 29.4649 36.2398 29.2045C35.9793 28.944 35.833 28.5907 35.833 28.2224C35.833 27.854 35.9793 27.5008 36.2398 27.2403C36.5003 26.9798 36.8535 26.8335 37.2219 26.8335H42.7775V37.9446H45.5552C45.9236 37.9446 46.2769 38.0909 46.5373 38.3514C46.7978 38.6119 46.9441 38.9651 46.9441 39.3335Z" fill="white"/>
</g>
<path d="M27.5188 70H25.4708L26.8361 60.3147H28.8841L27.5188 70ZM33.1039 60.3147L35.3012 66.3947H35.3226C35.351 66.3093 35.3866 65.9538 35.4292 65.328L36.1332 60.3147H37.9466L36.5812 70H34.7679L32.5066 63.8987C32.4924 63.9982 32.4781 64.1476 32.4639 64.3467C32.4497 64.5458 32.4212 64.7591 32.3786 64.9867L31.6959 70H29.9039L31.2692 60.3147H33.1039ZM44.1388 66.2027H41.6428L41.1095 70H39.0402L40.4055 60.3147H45.4615L45.2268 61.9787H42.2402L41.8562 64.624H44.3522L44.1388 66.2027ZM50.1823 68.5707C50.7654 68.5707 51.2205 68.2791 51.5476 67.696C51.8747 67.0987 52.1094 66.2596 52.2516 65.1787C52.4081 64.0836 52.401 63.2444 52.2303 62.6613C52.0596 62.064 51.6898 61.7653 51.121 61.7653C50.5663 61.7653 50.1254 62.064 49.7983 62.6613C49.4712 63.2444 49.2294 64.0836 49.073 65.1787C48.9165 66.2596 48.9165 67.0987 49.073 67.696C49.2294 68.2791 49.5992 68.5707 50.1823 68.5707ZM51.3556 60.144C52.5503 60.144 53.4107 60.5493 53.937 61.36C54.4632 62.1707 54.6054 63.4436 54.3636 65.1787C54.1218 66.8996 53.6241 68.1653 52.8703 68.976C52.1165 69.7867 51.1423 70.192 49.9476 70.192C47.4872 70.192 46.4916 68.5209 46.961 65.1787C47.2027 63.4436 47.7005 62.1707 48.4543 61.36C49.2081 60.5493 50.1752 60.144 51.3556 60.144Z" fill="white"/>
<defs>
<clipPath id="clip0_121_581">
<rect width="50" height="50" fill="white" transform="translate(15 6)"/>
</clipPath>
</defs>
</svg>
