<svg width="343" height="429" viewBox="0 0 343 429" fill="none" xmlns="http://www.w3.org/2000/svg">
<rect x="129" width="214" height="128" rx="64" fill="white"/>
<path d="M139.149 130.071L161.612 112.751L145.751 102.574L139.149 130.071Z" fill="white"/>
<path d="M167.921 77.8848V78.7734H164.981V83.1074H163.901V78.7734H160.784V83.1074H159.677V78.7734H156.792V77.8848H167.921ZM162.329 71.4453C164.886 71.4453 166.608 72.4707 166.608 74.0977C166.608 75.7109 164.886 76.7363 162.329 76.7227C159.772 76.7363 158.05 75.7109 158.05 74.0977C158.05 72.4707 159.772 71.4453 162.329 71.4453ZM162.329 72.3203C160.429 72.3203 159.144 73.0176 159.157 74.0977C159.144 75.1777 160.429 75.8613 162.329 75.8613C164.216 75.8613 165.515 75.1777 165.515 74.0977C165.515 73.0176 164.216 72.3203 162.329 72.3203ZM178.981 70.9668V77.6387H177.901V74.3848H175.591V73.4961H177.901V70.9668H178.981ZM172.091 78.2129V79.7031H177.915V78.2129H178.981V82.9434H171.024V78.2129H172.091ZM172.091 82.0684H177.915V80.5645H172.091V82.0684ZM174.812 71.4727V74.7539H170.491V76.4355C172.494 76.4287 173.998 76.3604 175.823 76.0664L175.919 76.9688C174.005 77.2559 172.446 77.3242 170.341 77.3242H169.425V73.9199H173.772V72.3477H169.397V71.4727H174.812ZM194.595 70.9668V80.2363H193.515V77.625H191.409V76.75H193.515V75.0957H191.409V74.207H193.515V70.9668H194.595ZM191.409 72.457V73.332H184.532V72.457H187.485V70.9531H188.552V72.457H191.409ZM188.005 74.002C189.632 74.002 190.78 74.9316 190.78 76.3262C190.78 77.707 189.632 78.6504 188.005 78.6504C186.378 78.6504 185.243 77.707 185.257 76.3262C185.243 74.9316 186.378 74.002 188.005 74.002ZM188.005 74.8496C186.966 74.8633 186.255 75.4512 186.255 76.3262C186.255 77.2012 186.966 77.7891 188.005 77.7891C189.044 77.7891 189.755 77.2012 189.769 76.3262C189.755 75.4512 189.044 74.8633 188.005 74.8496ZM194.868 81.9453V82.8477H186.733V79.416H187.813V81.9453H194.868ZM200.966 74.6855C200.966 76.75 202.47 78.8418 204.261 79.6211L203.659 80.4688C202.237 79.8193 201.007 78.418 200.446 76.7363C199.872 78.5205 198.648 80.0723 197.261 80.7695L196.618 79.9219C198.354 79.0879 199.872 76.791 199.886 74.6855V73.0996H197.015V72.2109H203.864V73.0996H200.966V74.6855ZM206.64 70.9531V83.1074H205.56V70.9531H206.64ZM221.638 70.9531V75.9023H223.606V76.8047H221.638V83.1074H220.571V70.9531H221.638ZM218.493 72.2656C218.493 75.7109 216.88 78.8418 212.915 80.7969L212.313 79.9492C215.458 78.3838 217.167 76.0459 217.413 73.168H212.874V72.2656H218.493ZM234.353 70.9531V83.1348H233.272V70.9531H234.353ZM227.886 71.8965C229.69 71.9102 230.989 73.5508 230.989 76.1348C230.989 78.7188 229.69 80.3594 227.886 80.3594C226.067 80.3594 224.782 78.7188 224.782 76.1348C224.782 73.5508 226.067 71.9102 227.886 71.8965ZM227.886 72.8535C226.669 72.8672 225.821 74.1523 225.821 76.1348C225.821 78.1172 226.669 79.4023 227.886 79.4023C229.103 79.4023 229.95 78.1172 229.95 76.1348C229.95 74.1523 229.103 72.8672 227.886 72.8535ZM246.247 76.8047V77.6934H237.853V72.0879H246.124V72.9766H238.919V76.8047H246.247ZM247.56 80.5508V81.4531H236.431V80.5508H247.56ZM259.618 76.0664V76.9277H248.53V76.0664H259.618ZM258.292 74.1934V75.0684H250.007V71.377H258.169V72.2383H251.087V74.1934H258.292ZM258.183 78.0215V80.8379H250.964V82.0957H258.552V82.9707H249.897V80.0312H257.13V78.8555H249.87V78.0215H258.183ZM270.651 70.9531V83.1348H269.571V70.9531H270.651ZM264.185 71.8965C265.989 71.9102 267.288 73.5508 267.288 76.1348C267.288 78.7188 265.989 80.3594 264.185 80.3594C262.366 80.3594 261.081 78.7188 261.081 76.1348C261.081 73.5508 262.366 71.9102 264.185 71.8965ZM264.185 72.8535C262.968 72.8672 262.12 74.1523 262.12 76.1348C262.12 78.1172 262.968 79.4023 264.185 79.4023C265.401 79.4023 266.249 78.1172 266.249 76.1348C266.249 74.1523 265.401 72.8672 264.185 72.8535ZM286.319 70.9668V79.8809H285.239V75.2188H282.737V74.3301H285.239V70.9668H286.319ZM286.661 81.9453V82.8477H278.513V79.0742H279.593V81.9453H286.661ZM280.468 73.4688C280.468 75.041 281.685 76.5723 283.462 77.1738L282.901 78.0352C281.527 77.543 280.468 76.5176 279.948 75.2598C279.422 76.6611 278.301 77.7822 276.858 78.3223L276.298 77.4473C278.089 76.8184 279.388 75.2188 279.388 73.4688V72.8398H276.64V71.9512H283.188V72.8398H280.468V73.4688ZM297.749 70.9531V75.9707H299.786V76.8594H297.749V83.1074H296.683V70.9531H297.749ZM295.507 72.9082V73.7969H288.274V72.9082H291.405V71.1035H292.472V72.9082H295.507ZM291.952 74.8086C293.675 74.8086 294.919 75.957 294.933 77.5977C294.919 79.2383 293.675 80.3867 291.952 80.3867C290.216 80.3867 288.958 79.2383 288.972 77.5977C288.958 75.957 290.216 74.8086 291.952 74.8086ZM291.952 75.7109C290.817 75.7109 289.983 76.5039 289.997 77.5977C289.983 78.7051 290.817 79.4844 291.952 79.4707C293.073 79.4844 293.894 78.7051 293.907 77.5977C293.894 76.5039 293.073 75.7109 291.952 75.7109ZM310.272 74.6445V75.5059H301.946V71.4043H303.013V74.6445H310.272ZM311.558 77.1602V78.0352H300.429V77.1602H311.558ZM310.341 81.918V82.8066H301.878V79.2793H302.944V81.918H310.341ZM192.455 90.373C192.455 91.7129 193.398 93.0801 194.957 93.668L194.396 94.4883C193.228 94.0371 192.387 93.1689 191.949 92.123C191.498 93.2852 190.63 94.3174 189.434 94.8301L188.846 93.9961C190.445 93.2988 191.43 91.7266 191.43 90.373V88.7188H192.455V90.373ZM199.154 87.9668V95.4727H198.129V92.123H196.516V95.0898H195.504V88.1992H196.516V91.2344H198.129V87.9668H199.154ZM195.135 95.7461C197.65 95.7461 199.223 96.5391 199.223 97.9199C199.223 99.2871 197.65 100.08 195.135 100.08C192.605 100.08 191.047 99.2871 191.061 97.9199C191.047 96.5391 192.605 95.7461 195.135 95.7461ZM195.135 96.5664C193.275 96.5664 192.113 97.0723 192.127 97.9199C192.113 98.7539 193.275 99.2461 195.135 99.2461C196.98 99.2461 198.143 98.7539 198.156 97.9199C198.143 97.0723 196.98 96.5664 195.135 96.5664ZM204.555 90.373C204.555 91.7129 205.498 93.0801 207.057 93.668L206.496 94.4883C205.327 94.0371 204.486 93.1689 204.049 92.123C203.598 93.2852 202.729 94.3174 201.533 94.8301L200.945 93.9961C202.545 93.2988 203.529 91.7266 203.529 90.373V88.7188H204.555V90.373ZM211.254 87.9668V95.4727H210.229V92.123H208.615V95.0898H207.604V88.1992H208.615V91.2344H210.229V87.9668H211.254ZM207.234 95.7461C209.75 95.7461 211.322 96.5391 211.322 97.9199C211.322 99.2871 209.75 100.08 207.234 100.08C204.705 100.08 203.146 99.2871 203.16 97.9199C203.146 96.5391 204.705 95.7461 207.234 95.7461ZM207.234 96.5664C205.375 96.5664 204.213 97.0723 204.227 97.9199C204.213 98.7539 205.375 99.2461 207.234 99.2461C209.08 99.2461 210.242 98.7539 210.256 97.9199C210.242 97.0723 209.08 96.5664 207.234 96.5664ZM222.533 87.9668V91.9727H224.365V92.875H222.533V97.0723H221.467V87.9668H222.533ZM220.305 89.457V90.332H213.059V89.457H216.148V87.9668H217.215V89.457H220.305ZM216.682 91.002C218.418 91.002 219.594 91.8906 219.607 93.2715C219.594 94.6387 218.418 95.5137 216.682 95.5137C214.932 95.5137 213.742 94.6387 213.756 93.2715C213.742 91.8906 214.932 91.002 216.682 91.002ZM216.682 91.8496C215.533 91.8496 214.768 92.4102 214.781 93.2715C214.768 94.1328 215.533 94.6797 216.682 94.666C217.816 94.6797 218.582 94.1328 218.596 93.2715C218.582 92.4102 217.816 91.8496 216.682 91.8496ZM223.094 98.9453V99.8477H214.932V96.3477H215.984V98.9453H223.094ZM231.912 88.8965C233.026 88.9033 233.929 89.5527 234.455 90.6738H237.654V87.9531H238.721V100.135H237.654V95.418H234.537C234.024 96.6484 233.088 97.3594 231.912 97.3594C230.121 97.3594 228.863 95.7188 228.863 93.1348C228.863 90.5508 230.121 88.9102 231.912 88.8965ZM231.912 89.8535C230.709 89.8672 229.889 91.1523 229.889 93.1348C229.889 95.1172 230.709 96.4023 231.912 96.4023C233.102 96.4023 233.936 95.1172 233.936 93.1348C233.936 91.1523 233.102 89.8672 231.912 89.8535ZM234.77 91.5762C234.879 92.0479 234.947 92.5674 234.947 93.1348C234.947 93.6338 234.893 94.1055 234.811 94.5293H237.654V91.5762H234.77ZM251.066 87.9531V95.6504H250.041V92.1641H248.414V95.2129H247.402V88.1992H248.414V91.2754H250.041V87.9531H251.066ZM246.91 89.416V90.2773H240.676V89.416H243.273V88.0488H244.34V89.416H246.91ZM243.807 90.9336C245.352 90.9336 246.404 91.7402 246.418 93.0117C246.404 94.2559 245.352 95.0762 243.807 95.0762C242.275 95.0762 241.195 94.2559 241.209 93.0117C241.195 91.7402 242.275 90.9336 243.807 90.9336ZM243.807 91.7266C242.836 91.7266 242.166 92.2461 242.166 93.0117C242.166 93.7637 242.836 94.2695 243.807 94.2695C244.777 94.2695 245.447 93.7637 245.447 93.0117C245.447 92.2461 244.777 91.7266 243.807 91.7266ZM247.047 95.8555C249.604 95.8555 251.135 96.6211 251.135 97.9883C251.135 99.3145 249.604 100.08 247.047 100.08C244.49 100.08 242.959 99.3145 242.973 97.9883C242.959 96.6211 244.49 95.8555 247.047 95.8555ZM247.047 96.7031C245.16 96.6895 244.025 97.1543 244.039 97.9883C244.025 98.7812 245.16 99.2461 247.047 99.2461C248.934 99.2461 250.055 98.7812 250.068 97.9883C250.055 97.1543 248.934 96.6895 247.047 96.7031ZM266.434 87.9531V95.1992H265.354V92.0137H262.906V91.125H265.354V87.9531H266.434ZM262.4 95.582C264.93 95.582 266.475 96.4023 266.475 97.8379C266.475 99.2734 264.93 100.094 262.4 100.107C259.871 100.094 258.326 99.2734 258.326 97.8379C258.326 96.4023 259.871 95.582 262.4 95.582ZM262.4 96.416C260.541 96.416 259.379 96.9492 259.393 97.8379C259.379 98.7129 260.541 99.2461 262.4 99.2461C264.26 99.2461 265.408 98.7129 265.408 97.8379C265.408 96.9492 264.26 96.416 262.4 96.416ZM260.582 90.1816C260.582 91.7676 261.799 93.2715 263.576 93.8867L263.016 94.748C261.648 94.2559 260.589 93.2373 260.076 91.9727C259.543 93.4014 258.415 94.543 256.973 95.0898L256.412 94.2285C258.217 93.5723 259.502 91.9316 259.502 90.1953V89.7441H256.754V88.8418H263.303V89.7441H260.582V90.1816ZM279.586 97.6602V98.5488H268.457V97.6602H273.461V95.0352H269.77V88.8145H270.85V91.0156H277.166V88.8145H278.219V95.0352H274.514V97.6602H279.586ZM270.85 94.1602H277.166V91.8906H270.85V94.1602ZM282.525 89.1016L282.43 96.2109H281.281L281.186 89.1016H282.525ZM281.855 99.082C281.377 99.082 280.967 98.6855 280.98 98.1934C280.967 97.7148 281.377 97.3184 281.855 97.3184C282.334 97.3184 282.73 97.7148 282.73 98.1934C282.73 98.6855 282.334 99.082 281.855 99.082Z" fill="#333333"/>
<path d="M202.59 29.9219V46.0469H199.988V41.875H196.848V39.7891H199.988V37.4219H196.848V35.3125H199.988V29.9219H202.59ZM196.73 32.2656V34.3516H184.895V32.2656H189.629V29.8984H192.23V32.2656H196.73ZM190.895 35.2188C193.777 35.2188 195.84 36.9062 195.863 39.3438C195.84 41.7812 193.777 43.4688 190.895 43.4688C188.035 43.4688 185.973 41.7812 185.996 39.3438C185.973 36.9062 188.035 35.2188 190.895 35.2188ZM190.895 37.2578C189.441 37.2812 188.41 38.0547 188.434 39.3438C188.41 40.6797 189.441 41.4531 190.895 41.4531C192.348 41.4531 193.402 40.6797 193.402 39.3438C193.402 38.0547 192.348 37.2812 190.895 37.2578ZM203.059 48.5547V50.6641H188.621V44.6641H191.27V48.5547H203.059ZM213.582 35.9219C213.582 39.3906 215.621 43.0469 219.043 44.4766L217.613 46.5391C215.105 45.4609 213.277 43.2344 212.316 40.5391C211.332 43.4453 209.48 45.8828 206.996 47.0547L205.496 45.0156C208.848 43.4688 210.934 39.5312 210.934 35.9219V34.1406H206.27V31.9844H218.223V34.1406H213.582V35.9219ZM223.215 29.8984V51.0859H220.59V29.8984H223.215ZM245.645 40.9141V42.9766H226.285V40.9141H234.652V39.3438H228.77V30.4609H243.324V32.4766H231.371V33.9297H242.809V35.8516H231.371V37.3516H243.488V39.3438H237.254V40.9141H245.645ZM235.965 44.1484C240.629 44.1484 243.277 45.3906 243.301 47.5938C243.277 49.8672 240.629 51.0625 235.965 51.0625C231.23 51.0625 228.582 49.8672 228.582 47.5938C228.582 45.3906 231.23 44.1484 235.965 44.1484ZM235.965 46.0938C232.777 46.0938 231.184 46.5859 231.184 47.5938C231.184 48.625 232.777 49.1172 235.965 49.1172C239.105 49.1172 240.676 48.625 240.699 47.5938C240.676 46.5859 239.105 46.0938 235.965 46.0938ZM264.723 29.9219V45.3906H262.098V29.9219H264.723ZM265.309 48.5547V50.6641H250.707V43.9141H253.332V48.5547H265.309ZM254.973 33.1562C254.973 36.1094 256.707 38.8984 260.059 40.0234L258.723 42.0859C256.309 41.2422 254.586 39.5547 253.66 37.3984C252.699 39.707 250.953 41.5586 248.457 42.4609L247.098 40.3984C250.543 39.1797 252.277 36.2031 252.277 33.1562V31.0938H254.973V33.1562ZM285.582 29.9219V45.9531H282.957V44.1016H278.809V42.2734H282.957V29.9219H285.582ZM286.074 48.5547V50.6641H270.535V44.4062H273.137V48.5547H286.074ZM267.723 39.4375C271.637 39.4141 276.887 39.3672 281.387 38.8047L281.527 40.6797C279.781 40.9727 277.977 41.1719 276.184 41.2891V45.3672H273.582V41.4297C271.602 41.5117 269.715 41.5234 268.051 41.5234L267.723 39.4375ZM274.637 30.6953C277.73 30.6953 279.887 32.2188 279.91 34.4453C279.887 36.7188 277.73 38.1719 274.637 38.1719C271.496 38.1719 269.34 36.7188 269.34 34.4453C269.34 32.2188 271.496 30.6953 274.637 30.6953ZM274.637 32.6172C272.949 32.6172 271.801 33.2969 271.801 34.4453C271.801 35.5938 272.949 36.2734 274.637 36.2734C276.254 36.2734 277.402 35.5938 277.426 34.4453C277.402 33.2969 276.254 32.6172 274.637 32.6172Z" fill="#2B6763"/>
<g clip-path="url(#clip0_381_1635)">
<path opacity="0.4" d="M106.496 429.008C165.312 429.008 212.992 423.63 212.992 416.996C212.992 410.362 165.312 404.984 106.496 404.984C47.6799 404.984 0 410.362 0 416.996C0 423.63 47.6799 429.008 106.496 429.008Z" fill="#79B0BF"/>
<path d="M165.002 312.265H137.7C136.073 312.265 134.745 310.939 134.745 309.314V245.22C134.745 243.594 136.073 242.269 137.7 242.269H165.002C166.63 242.269 167.957 243.594 167.957 245.22V309.314C167.957 310.939 166.63 312.265 165.002 312.265ZM137.7 244.1C137.076 244.1 136.57 244.605 136.57 245.228V309.321C136.57 309.945 137.076 310.45 137.7 310.45H165.002C165.626 310.45 166.132 309.945 166.132 309.321V245.228C166.132 244.605 165.626 244.1 165.002 244.1H137.7Z" fill="#494848"/>
<path d="M164.251 240.445H138.151C137.954 240.445 137.795 240.604 137.795 240.8V245.567C137.795 245.764 137.954 245.923 138.151 245.923H164.251C164.447 245.923 164.607 245.764 164.607 245.567V240.8C164.607 240.604 164.447 240.445 164.251 240.445Z" fill="#2D2C2C"/>
<path d="M135.204 413.602C135.204 415.614 133.568 417.256 131.545 417.256C129.522 417.256 127.887 415.622 127.887 413.602C127.887 411.581 129.522 409.948 131.545 409.948C133.568 409.948 135.204 411.581 135.204 413.602Z" fill="#2D2C2C"/>
<path d="M131.545 407.517H133.45C134.098 407.517 134.493 408.212 134.177 408.772L133.229 410.421L132.28 412.071C131.956 412.631 131.15 412.631 130.826 412.071L129.878 410.421L128.922 408.772C128.598 408.212 129.001 407.517 129.649 407.517H131.553H131.545Z" fill="#2D2C2C"/>
<path d="M174.817 413.602C174.817 415.614 173.182 417.256 171.159 417.256C169.136 417.256 167.5 415.622 167.5 413.602C167.5 411.581 169.136 409.948 171.159 409.948C173.182 409.948 174.817 411.581 174.817 413.602Z" fill="#2D2C2C"/>
<path d="M171.159 407.517H173.063C173.711 407.517 174.114 408.212 173.79 408.772L172.834 410.421L171.886 412.071C171.562 412.631 170.756 412.631 170.432 412.071L169.483 410.421L168.535 408.772C168.211 408.212 168.614 407.517 169.262 407.517H171.167H171.159Z" fill="#2D2C2C"/>
<path d="M182.284 314.159V400.146C182.284 402.687 181.091 404.952 179.234 406.412C178.594 406.917 177.875 407.328 177.1 407.62C176.223 407.951 175.275 408.125 174.287 408.125H128.416C127.871 408.125 127.341 408.07 126.82 407.967C126.061 407.817 125.35 407.557 124.686 407.202C122.149 405.868 120.419 403.2 120.419 400.138V314.151C120.419 309.748 123.999 306.172 128.408 306.172H174.279C178.689 306.172 182.268 309.748 182.268 314.151L182.284 314.159Z" fill="#A9A7FC"/>
<path d="M182.284 365.522H120.427V367.653H182.284V365.522Z" fill="#9696EA"/>
<path d="M126.828 365.522V407.967C126.069 407.817 125.358 407.557 124.694 407.202V365.522H126.828Z" fill="#9696EA"/>
<path d="M139.929 365.522H137.796V408.125H139.929V365.522Z" fill="#9696EA"/>
<path d="M153.031 365.522H150.897V408.125H153.031V365.522Z" fill="#9696EA"/>
<path d="M166.133 365.522H163.999V408.125H166.133V365.522Z" fill="#9696EA"/>
<path d="M179.234 406.412V367.653V365.522H177.101V367.653V407.62L179.234 406.412Z" fill="#9696EA"/>
<path d="M24.1721 152.762C24.3302 159.376 25.2389 165.982 26.9063 172.39C27.5542 174.884 28.3365 177.386 29.7905 179.509C31.2445 181.632 33.4887 183.353 36.0489 183.629C37.7558 183.818 39.51 183.297 40.8929 182.295C42.6946 180.985 42.8526 179.691 43.0897 177.607C44.2039 167.592 43.2951 157.474 43.4216 147.403C43.4769 143.189 43.6981 138.911 42.742 134.799C42.576 134.073 42.3627 133.347 41.9518 132.724C41.446 131.958 40.6716 131.406 39.834 131.019C36.2939 129.385 32.0584 129.511 29.1188 132.266C24.0773 136.978 24.1958 143.678 24.1484 150.126C24.1484 151.002 24.1484 151.886 24.1721 152.762Z" fill="white"/>
<path d="M43.4609 411.842C44.7805 409.972 45.8552 407.083 46.1239 404.802C46.8509 398.575 46.3846 392.277 45.8157 386.027C45.6735 384.456 45.0808 381.457 45.9579 380.028C46.7481 378.758 50.2567 379.168 51.7106 379.145C52.7774 379.121 53.8442 379.121 54.911 379.081C55.6143 379.05 56.4914 378.758 57.171 378.837C59.0991 379.05 58.7988 381.646 58.6091 383.091C58.0007 387.747 57.574 392.435 57.329 397.123C57.1156 401.282 56.4519 405.931 57.8268 409.956C58.3484 411.495 58.7198 413.444 57.3448 414.494C57.0287 414.731 56.6573 414.857 56.2938 414.952C53.3938 415.749 50.3357 415.489 47.3408 415.22C46.0923 415.11 44.6383 415.149 43.4451 414.589C43.2475 414.494 43.05 414.384 42.9077 414.194C42.6549 413.847 42.6628 413.318 42.805 412.916C42.9473 412.505 43.2159 412.182 43.453 411.842H43.4609Z" fill="#FFCFC5"/>
<path d="M29.6007 417.012C29.6323 417.051 29.6639 417.09 29.6955 417.13L59.0674 417.256C59.0911 417.043 59.1149 416.83 59.1307 416.617C59.1702 416.135 59.186 415.662 59.1781 415.181C59.1386 413.365 58.7039 411.574 57.7873 409.956C57.5898 409.609 57.329 409.238 56.926 409.151C56.4835 409.056 56.0647 409.332 55.6775 409.561C54.2235 410.421 52.0899 410.871 50.47 410.256C49.4111 409.853 48.5024 409.143 47.7675 408.306C47.4435 407.943 47.1353 407.557 46.7165 407.296C46.2582 407.012 45.7288 406.973 45.2151 407.091C43.7612 407.422 42.4652 408.646 41.1693 409.364C39.6837 410.177 38.127 410.887 36.5308 411.471C35.1795 411.968 33.7967 412.379 32.5086 413.002C31.7105 413.397 30.3672 414.139 29.7034 415.054C29.2688 415.646 29.1265 416.317 29.5928 417.012H29.6007Z" fill="#2D2C2C"/>
<path d="M29.6006 417.011C29.6322 417.051 29.6638 417.09 29.6954 417.13L59.0674 417.256C59.0911 417.043 59.1148 416.83 59.1306 416.617C59.1701 416.135 59.1859 415.662 59.178 415.18L29.7112 415.054C29.2766 415.646 29.1343 416.317 29.6006 417.011Z" fill="#494848"/>
<path d="M36.2541 412.568C36.3964 412.245 36.8231 412.142 37.1233 412.024C38.8144 411.345 40.4501 410.532 42.0147 409.608C42.8997 409.088 43.7611 408.527 44.5987 407.927C44.733 407.833 44.9148 407.809 45.0728 407.864C45.1676 407.896 45.3336 408.022 45.1992 408.117C43.6109 409.245 41.9436 410.256 40.1893 411.124C39.3359 411.55 38.4588 411.937 37.5659 412.3C37.392 412.371 37.0996 412.426 36.9732 412.576C36.8152 412.758 36.9732 413.018 37.0759 413.184C37.2419 413.46 38.1743 414.454 37.9373 414.802C37.5738 415.346 36.9653 414.297 36.8705 414.083C36.7836 413.886 36.6808 413.689 36.5623 413.507C36.3964 413.239 36.1198 412.892 36.262 412.56L36.2541 412.568Z" fill="#494848"/>
<path d="M53.5918 414.691C54.0027 412.718 54.9905 410.776 56.8237 409.719C56.9581 409.64 57.1793 409.64 57.3137 409.719C57.4401 409.79 57.4401 409.908 57.3137 409.979C55.5989 410.974 54.6744 412.852 54.2872 414.691C54.2319 414.951 53.5523 414.92 53.5997 414.691H53.5918Z" fill="#494848"/>
<path d="M42.228 408.109C42.3149 408.085 42.4097 408.077 42.4966 408.093C42.5678 408.109 42.6547 408.125 42.7021 408.18C43.0656 408.559 43.437 408.946 43.8005 409.324C43.9032 409.435 43.8005 409.545 43.6741 409.577C43.5871 409.601 43.4923 409.608 43.4054 409.593C43.3343 409.577 43.2473 409.561 43.1999 409.506C42.8364 409.127 42.4729 408.74 42.1015 408.362C41.9988 408.251 42.1015 408.141 42.228 408.109Z" fill="white"/>
<path d="M40.6877 409.024C40.83 408.985 41.0433 408.985 41.1619 409.096C41.5174 409.427 41.8414 409.782 42.1417 410.161C42.1812 410.208 42.2049 410.248 42.1733 410.303C42.1496 410.358 42.0706 410.398 42.0153 410.414C41.9284 410.437 41.8335 410.445 41.7466 410.429C41.6834 410.421 41.5807 410.398 41.5412 410.343C41.2409 409.964 40.9169 409.609 40.5613 409.277C40.4507 409.174 40.5771 409.056 40.6877 409.024Z" fill="white"/>
<path d="M38.8457 409.956C38.8694 409.901 38.9484 409.861 39.0037 409.845C39.0907 409.822 39.1855 409.814 39.2724 409.829C39.3356 409.845 39.4384 409.861 39.4779 409.916C39.7386 410.248 39.9994 410.579 40.2602 410.911C40.2997 410.958 40.3234 410.998 40.2918 411.053C40.2681 411.108 40.1891 411.148 40.1337 411.163C40.0468 411.187 39.952 411.195 39.8651 411.179C39.8019 411.163 39.6991 411.148 39.6596 411.092C39.3988 410.761 39.1381 410.429 38.8773 410.098C38.8378 410.051 38.8141 410.011 38.8457 409.956Z" fill="white"/>
<path d="M37.0597 410.587C37.2099 410.548 37.4153 410.548 37.5338 410.658C37.921 411.013 38.2608 411.416 38.5295 411.866C38.5611 411.913 38.5295 411.976 38.49 412.008C38.4426 412.055 38.3478 412.087 38.2845 412.094C38.1423 412.11 37.9447 412.094 37.8578 411.96C37.7946 411.858 37.7314 411.755 37.6603 411.652C37.6287 411.605 37.5892 411.55 37.5496 411.502C37.5496 411.502 37.5417 411.487 37.5338 411.479C37.5338 411.479 37.5101 411.447 37.5101 411.455C37.4943 411.431 37.4706 411.408 37.4548 411.384C37.2968 411.195 37.1229 411.013 36.9412 410.847C36.8306 410.745 36.957 410.626 37.0676 410.595L37.0597 410.587Z" fill="white"/>
<path d="M95.606 411.874C94.2627 410.003 93.1643 407.107 92.8877 404.834C92.137 398.607 92.6112 392.301 93.1722 386.058C93.3145 384.488 93.915 381.489 93.0142 380.06C92.2161 378.782 88.6443 379.192 87.1588 379.16C86.0762 379.137 84.9936 379.137 83.911 379.089C83.1998 379.058 82.3069 378.766 81.6115 378.837C79.6518 379.042 79.9679 381.646 80.1575 383.091C80.7818 387.747 81.2243 392.435 81.4772 397.131C81.7063 401.29 82.378 405.939 80.9872 409.964C80.4578 411.503 80.0785 413.452 81.4851 414.502C81.8012 414.739 82.1805 414.865 82.5518 414.968C85.4993 415.773 88.6048 415.512 91.655 415.252C92.9273 415.141 94.4049 415.181 95.606 414.628C95.8036 414.534 96.0091 414.423 96.1513 414.234C96.4042 413.886 96.4042 413.366 96.254 412.955C96.1039 412.545 95.8352 412.221 95.5982 411.882L95.606 411.874Z" fill="#FFCFC5"/>
<path d="M109.166 417.012C109.135 417.051 109.103 417.091 109.071 417.13L79.7074 417.257C79.6837 417.044 79.66 416.831 79.6363 416.617C79.5968 416.136 79.581 415.662 79.5889 415.181C79.6284 413.366 80.063 411.574 80.9797 409.956C81.1772 409.609 81.438 409.238 81.841 409.151C82.2835 409.057 82.7023 409.333 83.0895 409.562C84.5435 410.422 86.677 410.872 88.297 410.256C89.3558 409.854 90.2646 409.143 90.9995 408.307C91.3234 407.944 91.6316 407.557 92.0504 407.297C92.5088 407.012 93.0382 406.973 93.5518 407.091C95.0058 407.423 96.3017 408.646 97.5977 409.364C99.0833 410.177 100.64 410.888 102.236 411.472C103.587 411.969 104.97 412.379 106.258 413.003C107.056 413.397 108.4 414.139 109.064 415.055C109.498 415.647 109.64 416.318 109.174 417.012H109.166Z" fill="#2D2C2C"/>
<path d="M109.166 417.012C109.135 417.051 109.103 417.091 109.071 417.13L79.7074 417.257C79.6837 417.044 79.66 416.83 79.6363 416.617C79.5968 416.136 79.581 415.662 79.5889 415.181L109.056 415.055C109.49 415.647 109.633 416.317 109.166 417.012Z" fill="#494848"/>
<path d="M102.521 412.569C102.379 412.245 101.952 412.142 101.652 412.024C99.9607 411.345 98.325 410.532 96.7604 409.609C95.8753 409.088 95.014 408.528 94.1764 407.928C94.0421 407.833 93.8603 407.81 93.7023 407.865C93.6075 407.896 93.4415 408.023 93.5758 408.117C95.1642 409.246 96.8315 410.256 98.5858 411.124C99.4392 411.551 100.316 411.937 101.209 412.3C101.383 412.371 101.675 412.427 101.802 412.576C101.96 412.758 101.802 413.018 101.699 413.184C101.533 413.46 100.601 414.455 100.838 414.802C101.201 415.347 101.81 414.297 101.905 414.084C101.992 413.887 102.094 413.689 102.213 413.508C102.379 413.239 102.655 412.892 102.513 412.561L102.521 412.569Z" fill="#494848"/>
<path d="M85.1761 414.691C84.7652 412.718 83.7774 410.777 81.9441 409.719C81.8098 409.64 81.5885 409.64 81.4542 409.719C81.3278 409.79 81.3278 409.909 81.4542 409.98C83.1689 410.974 84.0935 412.853 84.4807 414.691C84.536 414.952 85.2156 414.92 85.1682 414.691H85.1761Z" fill="#494848"/>
<path d="M96.5471 408.109C96.4602 408.086 96.3654 408.078 96.2784 408.094C96.2073 408.109 96.1204 408.125 96.073 408.18C95.7095 408.559 95.3381 408.946 94.9746 409.325C94.8719 409.435 94.9746 409.546 95.101 409.577C95.1879 409.601 95.2828 409.609 95.3697 409.593C95.4408 409.577 95.5277 409.562 95.5751 409.506C95.9386 409.128 96.3021 408.741 96.6735 408.362C96.7763 408.252 96.6735 408.141 96.5471 408.109Z" fill="white"/>
<path d="M98.0871 409.025C97.9449 408.986 97.7316 408.986 97.613 409.096C97.2653 409.427 96.9334 409.783 96.6332 410.161C96.5937 410.209 96.57 410.248 96.6016 410.304C96.6253 410.359 96.7043 410.398 96.7596 410.414C96.8465 410.438 96.9414 410.446 97.0283 410.43C97.0915 410.422 97.1942 410.398 97.2337 410.343C97.534 409.964 97.858 409.609 98.2136 409.278C98.3242 409.175 98.1978 409.057 98.0871 409.025Z" fill="white"/>
<path d="M99.9207 409.956C99.897 409.901 99.818 409.862 99.7626 409.846C99.6757 409.822 99.5809 409.814 99.494 409.83C99.4308 409.846 99.328 409.862 99.2885 409.917C99.0278 410.248 98.767 410.58 98.5062 410.911C98.4667 410.959 98.443 410.998 98.4746 411.053C98.4983 411.109 98.5773 411.148 98.6326 411.164C98.7196 411.187 98.8144 411.195 98.9013 411.18C98.9645 411.164 99.0594 411.148 99.1068 411.093C99.3675 410.761 99.6283 410.43 99.8891 410.098C99.9286 410.051 99.9523 410.012 99.9207 409.956Z" fill="white"/>
<path d="M101.714 410.587C101.564 410.548 101.359 410.548 101.24 410.659C100.853 411.014 100.513 411.416 100.245 411.866C100.213 411.913 100.245 411.977 100.276 412.008C100.324 412.055 100.418 412.087 100.482 412.095C100.624 412.111 100.829 412.095 100.908 411.961C100.972 411.858 101.035 411.756 101.106 411.653C101.137 411.606 101.177 411.55 101.216 411.503C101.216 411.503 101.232 411.487 101.232 411.479C101.232 411.479 101.256 411.448 101.256 411.456C101.272 411.432 101.296 411.408 101.311 411.385C101.469 411.195 101.643 411.014 101.833 410.848C101.943 410.745 101.817 410.627 101.706 410.595L101.714 410.587Z" fill="white"/>
<path d="M37.5501 283.577C37.4869 297.846 37.6924 312.116 38.1744 326.369C38.6643 340.875 38.7513 355.397 38.7196 369.911C38.7038 377.266 38.6564 384.63 38.6169 391.986C38.609 393.793 38.0559 397.139 38.5458 399.302H62.1413C62.6392 394.772 62.5523 389.989 62.9948 385.467C63.5637 379.61 64.1406 373.762 64.7095 367.906C65.8316 356.391 66.9616 344.884 68.0837 333.37C71.1813 301.564 72.5484 269.687 73.3149 237.747C73.3623 235.576 73.3623 233.264 72.1849 231.448C69.4982 227.305 64.3381 228.544 60.3318 228.789C54.7687 229.136 50.1144 228.931 45.2151 232.246C40.6477 235.339 38.2929 238.473 37.9452 244.045C37.3368 253.855 37.4632 263.98 37.5343 273.988C37.558 277.2 37.5738 280.396 37.558 283.569L37.5501 283.577Z" fill="#494848"/>
<path d="M70.8806 287.886C71.1255 307.451 71.7972 327 72.6585 346.549C73.0932 356.32 73.5752 366.091 74.073 375.861C74.3259 380.747 74.5787 385.632 74.8316 390.517C74.9343 392.467 74.4839 396.555 75.1556 399.302H99.9602C100.442 397.139 99.8969 393.801 99.889 391.985C99.8495 384.63 99.8021 377.266 99.7863 369.911C99.7547 355.397 99.8416 340.875 100.332 326.369C100.814 312.107 101.019 297.838 100.956 283.577C100.94 280.373 101.035 277.184 101.193 274.003C102.07 255.654 103.69 235.615 98.0479 217.866C97.6212 216.532 97.0601 215.087 95.8274 214.417C94.9503 213.943 93.8993 213.959 92.8957 213.998C85.7523 214.282 78.6325 215.166 71.6313 216.642C70.4381 216.895 69.1895 217.195 68.2887 218.023C67.0876 219.136 66.8268 220.904 66.7162 222.538C66.2737 229.096 68.344 234.905 68.4863 241.258C68.6601 248.701 68.8814 256.135 69.1658 263.578C69.474 271.817 70.762 279.686 70.8648 287.894L70.8806 287.886Z" fill="#494848"/>
<path d="M71.0625 259.695V295.123C71.0625 295.352 71.671 295.352 71.671 295.123V259.695C71.671 259.466 71.0625 259.466 71.0625 259.695Z" fill="#2D2C2C"/>
<path d="M105.318 135.202C104.781 149.298 104.67 163.401 104.71 177.505C104.741 190.44 103.438 203.147 103.153 216.153C103.122 217.574 103.05 219.105 102.181 220.233C101.351 221.307 99.9686 221.765 98.6648 222.112C94.9429 223.098 91.0867 223.588 87.2305 223.564C80.5059 223.525 77.1475 229.791 72.8409 234.116C68.0601 238.915 62.3627 242.687 56.7128 246.42C52.0584 249.49 47.3014 252.631 41.9833 254.454C40.6874 254.896 36.1121 256.775 34.8241 255.907C33.3385 254.904 33.6466 249.616 33.5123 247.912C32.4771 235.039 33.1172 222.112 32.6036 209.216C32.003 194.078 31.2918 178.941 30.3752 163.819C29.9722 157.253 29.4823 150.694 28.6684 144.16C28.4471 142.408 28.2337 140.64 27.9335 138.895C27.7517 137.838 27.1433 136.678 27.0642 135.636C26.8825 133.221 29.6324 131.461 31.4578 130.332C37.2895 126.686 43.8482 124.476 50.0197 121.509C50.3121 121.367 50.5966 121.233 50.8889 121.09C53.7337 119.694 56.5626 118.115 59.0044 116.095C61.7306 113.845 65.4999 113.609 68.9451 114.374C70.4702 114.706 71.94 115.274 73.394 115.834C77.5189 117.428 81.6359 119.015 85.7607 120.609C91.4502 122.803 97.1318 124.997 102.821 127.199C106.764 128.722 105.437 131.721 105.303 135.202H105.318Z" fill="white"/>
<path d="M85.7762 120.609C85.7051 120.719 85.626 120.83 85.547 120.924C84.3538 122.448 82.6153 123.434 80.869 124.263C75.7406 126.678 70.0116 128.02 64.3853 127.396C62.1095 127.143 59.8574 126.552 57.7555 125.636C56.1592 124.942 52.6903 123.189 50.8965 121.082C53.7412 119.685 56.5702 118.107 59.0119 116.086C61.7381 113.837 65.5074 113.6 68.9527 114.366C70.4778 114.697 71.9476 115.266 73.4015 115.826C77.5264 117.42 81.6434 119.007 85.7683 120.601L85.7762 120.609Z" fill="#FFCFC5"/>
<path d="M78.9652 110.68C78.6175 112.117 78.4041 113.585 78.2698 115.053C78.1592 116.094 78.0959 117.136 78.0406 118.178C77.9853 119.07 77.9221 120.017 77.3927 120.727C76.9501 121.327 76.2469 121.658 75.5436 121.911C74.2792 122.361 72.8648 122.748 71.5372 122.59C67.9497 122.164 64.2594 121.706 61.1144 119.938C60.3874 119.527 59.6762 119.03 59.2337 118.312C58.9176 117.807 58.8465 117.341 58.9018 116.899C58.9809 116.236 59.3364 115.613 59.5577 114.887C60.0081 113.371 60.3558 111.817 60.7035 110.286C61.3831 107.294 61.9441 104.272 62.1891 101.217C62.2918 99.8914 62.1891 97.3896 63.1847 96.3478C64.1646 95.3139 66.63 95.598 67.8154 95.9611C70.2571 96.703 72.6514 97.8868 74.4689 99.7099C75.346 100.594 76.073 101.636 76.879 102.583C77.6297 103.459 78.5147 104.627 79.0363 105.826C79.2891 106.403 79.4551 106.987 79.4867 107.555C79.542 108.605 79.2259 109.638 78.981 110.657L78.9652 110.68Z" fill="#FFCFC5"/>
<path d="M78.9656 110.68C78.6179 112.116 78.4046 113.584 78.2702 115.052C77.243 114.713 76.2157 113.963 75.4966 113.324C73.8925 111.911 71.1742 108.667 72.881 106.466C74.3508 105.053 77.0296 104.99 79.0288 105.842C79.2817 106.418 79.4477 107.002 79.4793 107.57C79.5346 108.62 79.2185 109.654 78.9735 110.672L78.9656 110.68Z" fill="#FFCFC5"/>
<path d="M86.764 82.6943C86.7877 82.7495 86.8194 82.8048 86.8431 82.86C87.0564 83.302 87.0564 83.9728 87.1987 84.478C87.3725 85.0936 87.5068 85.7249 87.5542 86.3721C87.6412 87.5402 86.9142 88.653 87.0011 89.821C87.0406 90.3498 87.3646 90.7839 87.6096 91.2416C87.9019 91.7862 88.218 92.315 88.5499 92.8359C89.2295 93.9014 89.996 94.9116 90.8257 95.8586C91.4104 96.5137 92.0584 97.2319 92.0663 98.1079C92.0821 99.5207 90.6044 100.01 89.5377 100.499C88.3919 101.028 88.218 102.599 88.1469 103.68C88.0442 105.148 88.1864 106.592 88.0205 108.068C87.815 109.891 87.1275 111.477 85.1362 111.793C82.331 112.243 79.4151 111.817 76.7995 110.751C74.7529 109.915 72.8801 108.707 71.2286 107.263C69.8062 106.024 67.7359 105.085 66.7797 103.404C65.7841 101.659 64.0693 102.038 62.3704 101.218C61.6908 100.894 61.2009 100.365 60.5924 99.9547C60.0472 99.5838 59.7627 99.1892 59.4782 98.5815C58.8066 97.1056 58.048 95.4561 57.7556 93.8619C57.4474 92.1729 57.234 90.4998 57.2498 88.7793C57.2657 87.0035 57.882 85.1725 58.6564 83.5861C59.4308 81.984 61.4854 80.9343 62.7418 79.6637C63.8007 78.5903 64.7252 77.3986 65.9579 76.5146C68.2416 74.8888 70.3357 73.4209 73.2041 73.4287C75.1164 73.4287 76.8944 73.7997 78.7593 74.139C80.4819 74.4547 81.9201 75.607 83.1054 76.8619C84.6858 78.5429 85.7526 80.6186 86.7482 82.6943H86.764Z" fill="#FFCFC5"/>
<path d="M64.9468 104.524C65.0495 104.445 65.1522 104.374 65.247 104.303C65.8871 103.83 66.5983 103.443 67.1119 102.812C67.8231 101.936 67.9733 100.783 68.4079 99.7732C68.8267 98.8024 69.9646 98.3289 70.2095 97.2555C70.4229 96.3479 70.4466 95.606 71.2289 94.9352C71.8532 94.3985 72.5485 94.1223 73.0622 93.4593C73.5284 92.8516 73.7813 92.1019 73.9235 91.36C74.1132 90.3656 74.1369 89.3396 74.3502 88.3451C74.5636 87.3507 75.014 86.3563 75.8516 85.7801C76.302 85.4723 76.8394 85.3066 77.3609 85.133C78.8465 84.6515 80.3637 84.0754 81.5569 83.0415C82.5526 82.1734 83.7537 81.2815 83.9196 79.8688C83.9828 79.3479 83.9196 78.8112 84.0144 78.2904C85.4526 79.5531 85.7529 81.7235 87.0804 83.1046C87.1199 83.152 87.1674 83.1915 87.2306 83.1994C87.3175 83.2072 87.3886 83.1362 87.4439 83.0731C88.4317 81.8656 88.4712 79.6399 87.9022 78.2509C87.5625 77.4222 87.0172 76.6882 86.4404 76.0016C86.1322 75.6385 85.8082 75.2755 85.421 74.9914C84.8837 74.5889 84.2515 74.3363 83.6272 74.0917C82.7264 73.7365 81.8256 73.3813 80.9168 73.0262C80.2926 72.7815 79.6683 72.5369 79.0203 72.3553C77.4636 71.9213 75.7963 71.8818 74.2238 72.2449C73.4178 72.4343 72.6355 72.7184 71.8216 72.8762C70.9602 73.042 70.0752 73.0499 69.206 73.184C67.3095 73.4682 65.1285 74.2574 63.8089 75.7017C62.9396 76.6566 62.4023 77.8326 61.6832 78.8902C61.296 79.4663 61.0432 79.7583 60.4031 79.9872C59.7709 80.224 59.1467 80.5397 58.6172 80.9501C57.2818 81.9997 56.5943 83.6571 56.1518 85.2908C55.5907 87.3586 54.9981 89.6316 55.8357 91.723C56.1913 92.607 56.8235 93.3962 56.9894 94.3354C57.1158 95.0536 56.9657 95.8034 57.1079 96.5215C57.3134 97.5397 58.0878 98.3289 58.7358 99.1418C59.2968 99.8442 59.7946 100.61 60.1581 101.438C60.5137 102.243 60.7429 103.096 61.0985 103.901C61.3987 104.587 63.2557 107.342 64.1487 105.945C64.3067 105.7 64.2435 105.337 64.4015 105.069C64.528 104.856 64.7413 104.674 64.9468 104.509V104.524Z" fill="#FC5B35"/>
<path d="M77.2507 97.9736C77.2507 97.9736 77.2507 97.9026 77.2507 97.871C77.306 95.1324 74.3664 90.4996 71.1819 92.4411C70.0598 93.1199 69.4355 94.4616 69.4355 95.7638C69.4355 98.3051 72.0037 102.141 74.8959 101.801C76.658 101.596 77.1954 99.4732 77.2507 97.9736Z" fill="#FFCFC5"/>
<path d="M76.0961 113.679L67.6646 114.382C67.151 114.421 66.661 114.129 66.4556 113.656L58.0162 94.0829C57.6922 93.3253 58.2058 92.4729 59.0276 92.4019L67.4592 91.6994C67.9728 91.66 68.4627 91.9441 68.6682 92.4255L77.1076 111.998C77.4315 112.756 76.9179 113.608 76.0961 113.679Z" fill="#494848"/>
<path d="M74.8793 113.679L66.4478 114.382C65.9342 114.421 65.4442 114.129 65.2388 113.656L56.7994 94.0829C56.4754 93.3253 56.989 92.4729 57.8109 92.4019L66.2424 91.6994C66.7639 91.66 67.2459 91.9441 67.4514 92.4255L75.8908 111.998C76.2148 112.756 75.7011 113.608 74.8793 113.679Z" fill="#2D2C2C"/>
<path d="M61.7931 96.8055H60.4497C60.2284 96.8055 60.023 96.6871 59.9124 96.4898L59.0668 94.9745C58.8377 94.5641 59.138 94.0669 59.6042 94.0669H60.9475C61.1688 94.0669 61.3742 94.1853 61.4849 94.3826L62.3304 95.8979C62.5595 96.3083 62.2593 96.8055 61.7931 96.8055Z" fill="#494848"/>
<path d="M86.3539 87.6267C86.3223 87.5162 86.2749 87.4136 86.2117 87.3189C85.698 86.5849 84.4495 86.9006 83.7304 87.0506C82.7822 87.2479 81.9288 87.7688 81.1702 88.3449C80.4274 88.8974 79.6846 89.6077 79.5977 90.5232C79.5977 90.5784 79.5977 90.6337 79.6214 90.6731C79.811 90.9099 80.9173 90.026 81.099 89.9076C81.3598 89.7418 81.6443 89.6235 81.9288 89.5051C82.9797 89.071 84.0939 88.7395 85.2318 88.7237C85.4768 88.7237 85.7376 88.7237 85.9667 88.629C86.3618 88.4475 86.4645 88.0055 86.3539 87.6267Z" fill="#FC5B35"/>
<path d="M83.4463 92.2437C83.4384 91.9123 83.4779 91.5966 83.6438 91.4072C83.7623 91.273 83.9362 91.1941 84.1179 91.1467C84.6474 91.0283 85.0267 91.2967 85.1847 91.7229C85.2795 91.9912 85.2953 92.2911 85.2874 92.5831C85.2795 92.883 85.2321 93.1987 85.1294 93.4907C85.0741 93.6486 84.9793 93.7748 84.8291 93.8696C84.197 94.2721 83.7623 93.8853 83.6201 93.3329C83.5569 93.0803 83.4542 92.6462 83.4463 92.2359V92.2437Z" fill="#7C391C"/>
<path d="M82.2845 77.8403C81.7314 80.7999 79.582 83.3964 76.7452 84.454C76.3738 84.5961 76.8242 84.8328 77.0533 84.746C80.0403 83.6332 82.3082 80.9735 82.893 77.8403C82.9325 77.6351 82.3319 77.6035 82.2845 77.8403Z" fill="#F7B576"/>
<path d="M79.139 79.4506C79.0047 79.427 78.8466 79.4506 78.7676 79.569C77.6297 81.1238 76.0335 82.3234 74.216 82.9706C74.1133 83.0101 74.0185 83.0969 74.1054 83.1995C74.1923 83.3021 74.4057 83.3021 74.5242 83.2626C76.4602 82.5681 78.1433 81.3132 79.3523 79.6558C79.4314 79.5453 79.2101 79.4585 79.139 79.4506Z" fill="#F7B576"/>
<path d="M68.8746 74.4468C68.282 74.4862 67.7604 74.7151 67.2626 75.0308C66.7648 75.3465 66.259 75.678 65.8086 76.0647C64.9789 76.7829 64.4495 77.7852 64.3151 78.8744C64.2914 79.0953 64.8999 79.1111 64.9236 78.8744C65.0342 77.9036 65.4925 76.996 66.2195 76.3409C66.5988 75.9937 67.0413 75.7017 67.476 75.4175C67.8948 75.1413 68.361 74.8335 68.8746 74.794C68.9694 74.794 69.1828 74.7625 69.1828 74.6283C69.1828 74.502 68.9694 74.4547 68.8746 74.4626V74.4468Z" fill="#F7B576"/>
<path d="M59.4393 82.8835C56.9186 85.1801 56.2074 88.8737 57.693 91.9359C57.7878 92.1332 58.3884 92.0701 58.2777 91.8491C56.8396 88.8737 57.5191 85.2827 59.9688 83.0492C60.1821 82.8598 59.5974 82.7414 59.4393 82.8835Z" fill="#F7B576"/>
<path d="M62.6796 91.8097C61.4548 90.3654 61.5892 88.3529 61.9843 86.6244C62.0317 86.4192 61.4311 86.3877 61.3758 86.6244C60.957 88.4397 60.8701 90.4759 62.1502 91.9754C62.2845 92.1333 62.8693 92.0307 62.6796 91.8097Z" fill="#F7B576"/>
<path d="M84.5833 104.824C84.7571 104.887 84.9388 104.943 85.1206 104.982C85.3735 105.037 85.6421 105.069 85.8792 104.958C86.0214 104.895 86.1321 104.777 86.2348 104.659C86.7721 104.003 87.0645 102.993 85.9819 102.788C85.4525 102.685 84.8282 102.543 84.3699 102.243C84.0064 102.015 83.7851 101.644 83.2794 101.699C82.6314 101.77 82.3233 102.417 82.4971 103.001C82.5761 103.277 82.7579 103.514 82.9475 103.727C83.39 104.209 83.959 104.587 84.5754 104.816L84.5833 104.824Z" fill="white"/>
<path d="M63.4852 103.356C63.422 103.483 63.3667 103.609 63.3113 103.743C62.6318 105.361 62.7029 106.995 62.6555 108.715C62.6081 110.609 62.5606 112.496 62.5132 114.39C62.45 116.971 62.4342 119.52 62.2288 122.14C62.1813 122.724 62.1576 123.387 62.5527 123.821C62.8372 124.137 63.2718 124.263 63.6827 124.366C66.7882 125.108 68.8744 125.423 69.957 121.99C70.763 119.441 69.8147 116.458 70.9763 114.082C71.2608 113.49 71.4742 113.727 72.0352 113.727C72.4619 113.932 72.7464 114.453 73.2126 114.477C73.4497 114.485 73.6709 114.358 73.8132 114.169C74.3663 113.451 73.9949 112.125 73.663 111.375C73.4734 110.957 73.181 110.562 72.7701 110.349C72.9756 110.309 73.1415 110.136 73.2284 109.946C73.3153 109.749 73.3391 109.536 73.3391 109.323C73.3549 108.684 73.181 108.131 72.7148 107.689C72.6516 107.626 71.7744 107.026 71.7349 107.129C72.0589 106.174 71.5769 105.132 70.6761 104.73C69.9491 104.406 69.1115 104.43 68.3291 104.572C67.7286 104.682 67.1359 104.848 66.5749 105.077C66.4406 105.132 65.3501 105.472 65.3501 105.661C65.3501 105.329 65.2236 104.919 65.3027 104.595C65.3817 104.272 65.5792 103.996 65.7373 103.696C66.1245 102.993 66.5828 102.33 67.1359 101.746C67.531 101.328 69.1905 99.4576 67.8234 99.0788C67.5785 99.0077 67.3177 99.1419 67.1043 99.2761C65.5318 100.255 64.2596 101.699 63.4773 103.372L63.4852 103.356Z" fill="#FFCFC5"/>
<path d="M71.1743 107.01C70.3445 106.971 69.5148 107.05 68.7009 107.239C67.9739 107.413 67.1126 107.634 66.5753 108.186C66.3856 108.376 66.9229 108.478 67.0573 108.344C67.5393 107.855 68.3295 107.658 68.9854 107.508C69.7045 107.342 70.4394 107.287 71.1743 107.326C71.2612 107.326 71.4508 107.295 71.4508 107.176C71.4508 107.058 71.2533 107.026 71.1743 107.026V107.01Z" fill="#DB6357"/>
<path d="M72.1935 110.057C70.6289 109.868 69.0168 110.215 67.6972 111.075C67.4285 111.249 67.9264 111.399 68.0923 111.288C69.2618 110.531 70.6605 110.175 72.0433 110.349C72.1461 110.365 72.3436 110.349 72.3831 110.239C72.4305 110.128 72.2725 110.065 72.1856 110.049L72.1935 110.057Z" fill="#DB6357"/>
<path d="M40.3875 150.718C38.7439 152.675 37.1793 154.712 35.7569 156.874C34.0817 159.423 32.5803 162.146 31.956 165.137C31.3397 168.121 31.7032 171.42 33.489 173.89C35.2828 176.36 38.657 177.757 41.5333 176.739C43.4377 176.068 44.4097 174.829 45.4923 173.251C46.6539 171.554 48.1711 170.102 49.3801 168.397C52.9044 163.425 55.4805 157.679 58.3173 152.305C61.3359 146.575 64.0621 140.687 66.4722 134.673C67.3257 132.534 68.1475 130.364 68.6058 128.107C69.1352 125.479 68.9535 119.591 64.9155 120.222C62.9321 120.53 62.1656 122.874 61.2806 124.366C60.0874 126.378 58.8309 128.351 57.5034 130.285C54.793 134.247 51.8139 138.019 48.5899 141.579C45.8242 144.641 43.0031 147.593 40.3796 150.726L40.3875 150.718Z" fill="#FFCFC5"/>
<path d="M131.64 203.249C131.103 202.357 130.55 201.481 129.973 200.613C126.891 196.036 123.067 191.869 120.901 186.786C119.116 182.595 118.278 180.953 113.695 182.982C110.858 184.237 106.63 186.21 105.374 189.264C103.683 193.392 107.065 198.222 109.341 201.41C112.588 205.956 115.947 210.423 119.424 214.788C124.457 221.109 129.736 227.242 135.236 233.169C137.267 235.355 139.74 239.23 142.719 239.933C144.331 240.311 146.765 239.822 147.674 238.307C149.041 236.026 146.504 232.916 145.516 230.896C142.711 225.15 139.906 219.413 137.101 213.667C135.378 210.139 133.647 206.603 131.632 203.241L131.64 203.249Z" fill="#FFCFC5"/>
<path d="M107.879 135.36C107.737 134.831 107.595 134.302 107.444 133.773C106.923 131.934 106.362 130.032 105.121 128.572C104.015 127.278 102.458 126.457 100.878 125.818C99.3054 125.186 97.638 124.697 95.947 124.808C90.9687 125.131 90.5499 131.169 90.2496 135.131C89.9493 139.069 90.2654 143.023 90.6763 146.953C92.2093 161.641 94.4298 176.628 98.2781 190.85C98.4282 191.419 98.6653 192.066 99.2263 192.231C99.5424 192.326 99.8822 192.231 100.198 192.129C104.371 190.842 108.543 189.556 112.715 188.27C114.801 187.63 116.887 186.983 118.974 186.344C120.088 186.004 124.41 185.342 124.908 184.347C125.382 183.408 123.462 179.927 123.122 178.949C122.395 176.873 121.66 174.805 120.933 172.73C119.471 168.586 118.002 164.443 116.54 160.291C113.616 152.028 110.139 143.781 107.871 135.352L107.879 135.36Z" fill="white"/>
<path d="M148.22 246.412C148.615 246.412 149.018 246.231 149.397 246.246C149.729 246.262 150.053 246.412 150.408 246.404C150.819 246.404 151.309 246.396 151.704 246.302C151.847 246.27 152.724 245.891 152.629 245.67C152.724 245.883 152.945 246.033 153.182 246.057C153.419 246.081 153.656 245.994 153.838 245.852C154.17 245.591 154.336 245.173 154.375 244.763C154.415 244.344 154.344 243.934 154.272 243.523C154.233 243.31 153.735 241.014 153.972 240.943C154.083 240.911 154.186 241.022 154.249 241.116C154.818 242.048 155.047 243.145 155.537 244.115C155.632 244.305 155.734 244.486 155.9 244.621C156.058 244.755 156.288 244.826 156.485 244.763C156.817 244.652 156.92 244.242 156.943 243.894C157.046 242.166 156.24 240.58 155.371 239.135C154.383 237.502 152.882 236.207 151.199 235.339C149.547 234.479 147.793 233.603 145.936 233.705C144.474 233.792 142.973 234.534 141.969 235.584C141.566 236.002 141.044 236.634 140.871 237.202C140.61 238.062 140.452 240.398 141.684 240.54C142.001 240.58 142.317 240.509 142.633 240.485C143.881 240.374 145.169 240.935 145.944 241.913C146.718 242.892 146.963 244.273 146.568 245.465C146.521 245.623 146.457 245.789 146.513 245.946C146.592 246.167 146.868 246.246 147.097 246.286C147.485 246.357 147.864 246.404 148.235 246.404L148.22 246.412Z" fill="#FFCFC5"/>
<path d="M150.962 240.209C150.859 240.09 150.424 240.169 150.566 240.335C151.72 241.669 152.028 243.492 151.941 245.204C151.933 245.378 152.392 245.378 152.4 245.204C152.487 243.437 152.155 241.582 150.962 240.209Z" fill="#DB6357"/>
<path d="M148.764 240.927C148.685 240.777 148.243 240.832 148.322 240.998C149.041 242.395 149.033 243.989 149.025 245.52C149.025 245.694 149.484 245.694 149.484 245.52C149.499 243.965 149.484 242.347 148.764 240.927Z" fill="#DB6357"/>
<path d="M62.7821 107.831C62.7821 107.658 62.3237 107.658 62.3237 107.831C62.3949 110.381 62.4107 112.93 62.3553 115.471C62.3237 116.726 62.2842 117.981 62.221 119.236C62.1578 120.451 62.0393 121.659 61.6837 122.827C61.3202 124.018 60.7512 125.139 60.0163 126.149C59.9136 126.284 60.3561 126.355 60.4589 126.213C61.8259 124.342 62.4818 122.18 62.6398 119.883C62.8216 117.326 62.8453 114.745 62.8453 112.188C62.8453 110.736 62.8216 109.284 62.7821 107.831Z" fill="#DB6357"/>
<path d="M73.8205 113.979C73.5756 114.453 73.0303 114.563 72.6273 114.224C72.335 113.971 72.09 113.648 71.6791 113.593C71.2366 113.537 70.9205 113.806 70.7466 114.192C70.5254 114.69 70.399 115.242 70.2646 115.771C69.9722 116.978 69.8458 118.202 69.7984 119.441C69.751 120.696 69.6957 121.943 69.2294 123.127C68.9766 123.766 68.7395 124.397 68.6052 125.076C68.4629 125.778 68.3918 126.489 68.3207 127.199C68.3049 127.365 68.7632 127.38 68.779 127.199C68.9055 125.92 69.0793 124.681 69.5613 123.482C69.7747 122.945 69.9643 122.416 70.0671 121.848C70.1777 121.24 70.2172 120.625 70.2409 120.017C70.2962 118.794 70.3436 117.586 70.5886 116.379C70.715 115.747 70.881 115.124 71.0864 114.516C71.1576 114.303 71.2445 114.05 71.4183 113.9C71.6475 113.711 71.9003 114.027 72.0584 114.185C72.3903 114.5 72.7222 114.705 73.1963 114.674C73.6309 114.65 74.0418 114.429 74.2552 114.035C74.3421 113.877 73.8917 113.822 73.8126 113.971L73.8205 113.979Z" fill="#DB6357"/>
<path d="M39.3209 149.195C39.2419 149.084 39.0127 149.108 38.9021 149.132C34.635 150.15 30.8894 153.023 28.8269 156.898C28.7084 157.111 29.309 157.182 29.4117 156.985C31.4267 153.212 35.0459 150.418 39.2102 149.424C39.3288 149.392 39.392 149.297 39.3209 149.195Z" fill="#88B7E2"/>
<path d="M47.7444 171.633C46.6697 176.471 42.3393 179.683 37.7482 180.906C36.2864 181.293 34.7771 181.506 33.2678 181.601C32.9043 181.624 32.8964 181.956 33.2678 181.932C38.4278 181.624 43.8012 179.793 46.7803 175.311C47.531 174.19 48.0604 172.943 48.3528 171.625C48.4002 171.42 47.7997 171.388 47.7444 171.625V171.633Z" fill="#88B7E2"/>
<path d="M103.683 144.191C103.667 150.055 103.659 155.927 103.643 161.791C103.627 167.687 103.62 173.574 103.604 179.47C103.604 182.785 103.588 186.099 103.58 189.406C103.58 189.635 104.189 189.635 104.189 189.406C104.204 183.534 104.212 177.67 104.228 171.806C104.244 165.911 104.26 160.023 104.268 154.128C104.268 150.813 104.283 147.498 104.291 144.191C104.291 143.962 103.683 143.962 103.683 144.191Z" fill="#88B7E2"/>
<path d="M99.1476 209.421C98.5786 211.583 97.7489 213.691 96.5162 215.569C95.8919 216.516 95.1729 217.384 94.3431 218.158C93.4897 218.955 92.5336 219.641 91.6722 220.431C91.4273 220.652 91.1902 220.888 90.969 221.133C90.8346 221.283 90.6055 221.48 90.6055 221.709C90.6055 222.112 91.2139 222.143 91.451 221.93C91.609 221.788 91.3404 221.693 91.127 221.701C91.2139 221.654 91.285 221.591 91.3246 221.496C91.3799 221.433 91.4431 221.362 91.4984 221.299C91.6169 221.173 91.7355 221.046 91.8619 220.92C92.0832 220.707 92.3123 220.494 92.5415 220.297C93.0393 219.862 93.5608 219.452 94.0666 219.026C95.0306 218.221 95.8919 217.337 96.6347 216.327C98.1282 214.298 99.0923 211.931 99.7244 209.516C99.7877 209.263 99.1871 209.224 99.1397 209.429L99.1476 209.421Z" fill="#88B7E2"/>
<path d="M73.4417 227.502C70.7392 231.496 67.1358 234.818 63.1453 237.51C58.807 240.43 54.0263 242.616 49.1349 244.447C46.2744 245.52 43.3743 246.467 40.4664 247.399C40.0871 247.517 40.5454 247.762 40.7745 247.691C46.0136 246.018 51.2448 244.258 56.2231 241.898C60.7351 239.759 65.0339 237.107 68.7162 233.729C70.7154 231.898 72.5092 229.846 74.0343 227.605C74.1607 227.415 73.5681 227.329 73.4496 227.518L73.4417 227.502Z" fill="#88B7E2"/>
<path d="M66.0934 223.722C59.2107 226.318 51.9724 229.049 44.4813 228.228C42.4741 228.007 40.5065 227.526 38.6495 226.745C38.4204 226.65 37.9779 226.879 38.3414 227.037C45.3505 229.972 53.1735 228.591 60.1431 226.279C62.253 225.576 64.3312 224.795 66.4095 224.014C66.7809 223.872 66.3305 223.635 66.1013 223.722H66.0934Z" fill="#88B7E2"/>
<path d="M87.7924 209.153C87.421 211.615 86.8441 214.038 86.0618 216.406C85.9828 216.65 86.5834 216.698 86.6466 216.493C87.4289 214.093 88.0136 211.639 88.3929 209.153C88.4246 208.94 87.8161 208.916 87.7845 209.153H87.7924Z" fill="#88B7E2"/>
</g>
<defs>
<clipPath id="clip0_381_1635">
<rect width="213" height="357" fill="white" transform="translate(0 72)"/>
</clipPath>
</defs>
</svg>
