<svg width="80" height="80" viewBox="0 0 80 80" fill="none" xmlns="http://www.w3.org/2000/svg">
<rect width="80" height="80" rx="20" fill="#59B9FF"/>
<path d="M61.875 26.3125H59.7656L54.3398 14.1055C54.0943 13.5532 53.6939 13.0839 53.187 12.7546C52.6802 12.4253 52.0888 12.25 51.4844 12.25H28.5156C27.9112 12.25 27.3198 12.4253 26.813 12.7546C26.3061 13.0839 25.9057 13.5532 25.6602 14.1055L20.2344 26.3125H18.125C17.7106 26.3125 17.3132 26.4771 17.0201 26.7701C16.7271 27.0632 16.5625 27.4606 16.5625 27.875C16.5625 28.2894 16.7271 28.6868 17.0201 28.9799C17.3132 29.2729 17.7106 29.4375 18.125 29.4375H19.6875V45.0625C19.6875 45.8913 20.0167 46.6862 20.6028 47.2722C21.1888 47.8583 21.9837 48.1875 22.8125 48.1875H27.5C28.3288 48.1875 29.1237 47.8583 29.7097 47.2722C30.2958 46.6862 30.625 45.8913 30.625 45.0625V41.9375H49.375V45.0625C49.375 45.8913 49.7042 46.6862 50.2903 47.2722C50.8763 47.8583 51.6712 48.1875 52.5 48.1875H57.1875C58.0163 48.1875 58.8112 47.8583 59.3972 47.2722C59.9833 46.6862 60.3125 45.8913 60.3125 45.0625V29.4375H61.875C62.2894 29.4375 62.6868 29.2729 62.9799 28.9799C63.2729 28.6868 63.4375 28.2894 63.4375 27.875C63.4375 27.4606 63.2729 27.0632 62.9799 26.7701C62.6868 26.4771 62.2894 26.3125 61.875 26.3125ZM28.5156 15.375H51.4844L56.3457 26.3125H23.6543L28.5156 15.375ZM27.5 45.0625H22.8125V41.9375H27.5V45.0625ZM52.5 45.0625V41.9375H57.1875V45.0625H52.5ZM57.1875 38.8125H22.8125V29.4375H57.1875V38.8125ZM25.9375 34.125C25.9375 33.7106 26.1021 33.3132 26.3951 33.0201C26.6882 32.7271 27.0856 32.5625 27.5 32.5625H30.625C31.0394 32.5625 31.4368 32.7271 31.7299 33.0201C32.0229 33.3132 32.1875 33.7106 32.1875 34.125C32.1875 34.5394 32.0229 34.9368 31.7299 35.2299C31.4368 35.5229 31.0394 35.6875 30.625 35.6875H27.5C27.0856 35.6875 26.6882 35.5229 26.3951 35.2299C26.1021 34.9368 25.9375 34.5394 25.9375 34.125ZM47.8125 34.125C47.8125 33.7106 47.9771 33.3132 48.2701 33.0201C48.5632 32.7271 48.9606 32.5625 49.375 32.5625H52.5C52.9144 32.5625 53.3118 32.7271 53.6049 33.0201C53.8979 33.3132 54.0625 33.7106 54.0625 34.125C54.0625 34.5394 53.8979 34.9368 53.6049 35.2299C53.3118 35.5229 52.9144 35.6875 52.5 35.6875H49.375C48.9606 35.6875 48.5632 35.5229 48.2701 35.2299C47.9771 34.9368 47.8125 34.5394 47.8125 34.125Z" fill="white"/>
<path d="M20.7512 61.9787H18.7885L17.6578 70H15.6098L16.7192 61.9787H14.7352L14.9485 60.3147H21.0072L20.7512 61.9787ZM24.8193 64.816L25.7153 64.8587C26.526 64.8587 27.0096 64.3538 27.166 63.344C27.3367 62.3058 26.9669 61.7867 26.0567 61.7867C25.8433 61.7867 25.566 61.8009 25.2247 61.8293L24.8193 64.816ZM25.3527 66.3307L24.606 66.3093L24.094 70H22.1527L23.518 60.3147C23.518 60.3147 24.3856 60.2933 26.1207 60.2507C27.358 60.2507 28.2113 60.4853 28.6807 60.9547C29.1784 61.424 29.3562 62.2347 29.214 63.3867C29.1002 64.1547 28.8513 64.7591 28.4673 65.2C28.0833 65.6267 27.6638 65.9111 27.2087 66.0533L28.5527 70H26.3767L25.3527 66.3307ZM35.494 62.2133C35.3944 62.4551 35.2806 62.7609 35.1526 63.1307C35.0246 63.5004 34.8824 63.8987 34.726 64.3253C34.5695 64.7378 34.406 65.1716 34.2353 65.6267C34.0788 66.0676 33.9153 66.5013 33.7446 66.928H35.8353C35.8068 66.5013 35.7713 66.0676 35.7286 65.6267C35.686 65.1716 35.6504 64.7378 35.622 64.3253C35.5935 63.8987 35.5651 63.5004 35.5366 63.1307C35.5082 62.7609 35.494 62.4551 35.494 62.2133ZM34.5766 60.3147H37.03L38.31 70H36.1553L35.9633 68.3147H33.254L32.5713 70H30.5233L34.5766 60.3147ZM44.5863 66.2027H42.0903L41.557 70H39.4877L40.853 60.3147H45.909L45.6743 61.9787H42.6877L42.3037 64.624H44.7997L44.5863 66.2027ZM52.1445 66.2027H49.6485L49.1151 70H47.0458L48.4111 60.3147H53.4671L53.2325 61.9787H50.2458L49.8618 64.624H52.3578L52.1445 66.2027ZM56.6519 70H54.6039L55.9692 60.3147H58.0172L56.6519 70ZM61.533 65.1787C61.3624 66.3591 61.3908 67.2124 61.6184 67.7387C61.8744 68.3076 62.4006 68.592 63.197 68.592C63.5526 68.592 63.8797 68.5422 64.1784 68.4427C64.4913 68.3431 64.7259 68.272 64.8824 68.2293C64.8966 68.4853 64.9037 68.7413 64.9037 68.9973C64.9037 69.2533 64.9179 69.5093 64.9464 69.7653C64.5908 69.9076 64.1926 70.0213 63.7517 70.1067C63.3108 70.192 62.9339 70.2347 62.621 70.2347C61.2984 70.2347 60.3668 69.8222 59.8264 68.9973C59.3002 68.1724 59.1579 66.8996 59.3997 65.1787C59.6415 63.4436 60.1464 62.1707 60.9144 61.36C61.6824 60.5493 62.7277 60.144 64.0504 60.144C64.4913 60.144 64.8895 60.1867 65.245 60.272C65.6006 60.3573 65.8353 60.4284 65.949 60.4853C66.077 60.5422 66.1695 60.5778 66.2264 60.592L65.7357 62.128C65.5793 62.0853 65.3588 62.0142 65.0744 61.9147C64.8042 61.8151 64.5055 61.7653 64.1784 61.7653C63.325 61.7653 62.7064 62.0498 62.3224 62.6187C61.9384 63.1733 61.6753 64.0267 61.533 65.1787Z" fill="white"/>
</svg>
