<svg width="245" height="61" viewBox="0 0 245 61" fill="none" xmlns="http://www.w3.org/2000/svg">
<path d="M80.4324 5.402C81.0484 5.402 81.5944 5.584 82.0704 5.948C82.5464 6.30267 82.9151 6.81133 83.1764 7.474C83.4471 8.13667 83.5824 8.916 83.5824 9.812C83.5824 10.708 83.4471 11.4873 83.1764 12.15C82.9151 12.8127 82.5464 13.326 82.0704 13.69C81.5944 14.054 81.0484 14.236 80.4324 14.236C79.8257 14.236 79.2797 14.054 78.7944 13.69C78.3184 13.326 77.9451 12.8127 77.6744 12.15C77.4131 11.4873 77.2824 10.708 77.2824 9.812C77.2824 8.916 77.4131 8.13667 77.6744 7.474C77.9451 6.81133 78.3184 6.30267 78.7944 5.948C79.2797 5.584 79.8257 5.402 80.4324 5.402ZM80.4324 6.438C80.0311 6.438 79.6764 6.578 79.3684 6.858C79.0604 7.12867 78.8177 7.52067 78.6404 8.034C78.4724 8.538 78.3884 9.13067 78.3884 9.812C78.3884 10.4933 78.4724 11.0907 78.6404 11.604C78.8177 12.108 79.0604 12.5 79.3684 12.78C79.6764 13.06 80.0311 13.2 80.4324 13.2C80.8431 13.2 81.2024 13.06 81.5104 12.78C81.8184 12.5 82.0564 12.108 82.2244 11.604C82.4017 11.0907 82.4904 10.4933 82.4904 9.812C82.4904 9.13067 82.4017 8.538 82.2244 8.034C82.0564 7.52067 81.8184 7.12867 81.5104 6.858C81.2024 6.578 80.8431 6.438 80.4324 6.438ZM86.3264 4.422H87.4744V17.106H86.3264V4.422ZM83.2044 9.252H86.8444V10.19H83.2044V9.252ZM98.5193 4.422H99.6673V17.106H98.5193V4.422ZM99.4013 9.448H101.739V10.428H99.4013V9.448ZM90.4553 13.074H91.4633C92.2473 13.074 92.966 13.0647 93.6193 13.046C94.282 13.018 94.9213 12.976 95.5373 12.92C96.1533 12.8547 96.7786 12.7613 97.4133 12.64L97.5253 13.592C96.872 13.7133 96.2326 13.8067 95.6073 13.872C94.9913 13.9373 94.3473 13.984 93.6753 14.012C93.0033 14.04 92.266 14.054 91.4633 14.054H90.4553V13.074ZM90.4273 5.598H96.1393V10.148H91.6033V13.466H90.4553V9.182H94.9913V6.55H90.4273V5.598ZM102.802 10.848H114.282V11.8H102.802V10.848ZM108.052 11.45H109.228V14.362H108.052V11.45ZM104.272 15.846H113.008V16.812H104.272V15.846ZM104.272 13.116H105.434V16.112H104.272V13.116ZM108.528 4.744C109.424 4.744 110.204 4.84667 110.866 5.052C111.529 5.25733 112.042 5.55133 112.406 5.934C112.78 6.30733 112.966 6.76 112.966 7.292C112.966 7.80533 112.78 8.25333 112.406 8.636C112.042 9.01867 111.529 9.31267 110.866 9.518C110.204 9.72333 109.424 9.826 108.528 9.826C107.642 9.826 106.862 9.72333 106.19 9.518C105.528 9.31267 105.01 9.01867 104.636 8.636C104.272 8.25333 104.09 7.80533 104.09 7.292C104.09 6.76 104.272 6.30733 104.636 5.934C105.01 5.55133 105.528 5.25733 106.19 5.052C106.862 4.84667 107.642 4.744 108.528 4.744ZM108.528 5.682C107.894 5.682 107.334 5.74733 106.848 5.878C106.363 6.00867 105.985 6.19533 105.714 6.438C105.453 6.67133 105.322 6.956 105.322 7.292C105.322 7.61867 105.453 7.90333 105.714 8.146C105.985 8.37933 106.363 8.56133 106.848 8.692C107.334 8.81333 107.894 8.874 108.528 8.874C109.182 8.874 109.746 8.81333 110.222 8.692C110.698 8.56133 111.067 8.37933 111.328 8.146C111.599 7.90333 111.734 7.61867 111.734 7.292C111.734 6.956 111.599 6.67133 111.328 6.438C111.067 6.19533 110.698 6.00867 110.222 5.878C109.746 5.74733 109.182 5.682 108.528 5.682ZM117.151 10.498H125.845V11.45H117.151V10.498ZM115.695 14.404H127.175V15.37H115.695V14.404ZM117.151 5.598H125.719V6.55H118.299V10.918H117.151V5.598ZM133.175 11.254H141.869V12.192H133.175V11.254ZM131.705 14.488H143.185V15.454H131.705V14.488ZM133.175 5.514H141.743V6.466H134.351V11.534H133.175V5.514ZM133.987 8.328H141.463V9.266H133.987V8.328ZM145.004 13.088H145.83C146.604 13.088 147.36 13.0693 148.098 13.032C148.835 12.9853 149.628 12.892 150.478 12.752L150.59 13.704C149.712 13.8627 148.896 13.9653 148.14 14.012C147.393 14.0493 146.623 14.068 145.83 14.068H145.004V13.088ZM144.976 5.794H149.708V10.246H146.124V13.452H145.004V9.294H148.588V6.76H144.976V5.794ZM154.216 4.422H155.322V17.092H154.216V4.422ZM152.074 9.42H154.51V10.372H152.074V9.42ZM151.346 4.702H152.424V16.434H151.346V4.702ZM158.975 4.646H160.123V5.836H166.255V4.646H167.403V8.832H158.975V4.646ZM160.123 6.718V7.922H166.255V6.718H160.123ZM157.463 9.896H168.901V10.82H157.463V9.896ZM158.849 11.968H167.431V14.796H160.011V16.35H158.877V13.956H166.297V12.85H158.849V11.968ZM158.877 16.042H167.809V16.952H158.877V16.042Z" fill="#333333"/>
<path d="M14.9344 45.01H6.59441L5.21441 49H0.804414L8.33441 28.03H13.2244L20.7544 49H16.3144L14.9344 45.01ZM13.7944 41.65L10.7644 32.89L7.73441 41.65H13.7944ZM34.369 49L29.749 40.84H27.769V49H23.569V28.06H31.429C33.049 28.06 34.429 28.35 35.569 28.93C36.709 29.49 37.559 30.26 38.119 31.24C38.699 32.2 38.989 33.28 38.989 34.48C38.989 35.86 38.589 37.11 37.789 38.23C36.989 39.33 35.799 40.09 34.219 40.51L39.229 49H34.369ZM27.769 37.69H31.279C32.419 37.69 33.269 37.42 33.829 36.88C34.389 36.32 34.669 35.55 34.669 34.57C34.669 33.61 34.389 32.87 33.829 32.35C33.269 31.81 32.419 31.54 31.279 31.54H27.769V37.69ZM52.5078 49.21C50.5478 49.21 48.7478 48.75 47.1078 47.83C45.4678 46.91 44.1678 45.64 43.2078 44.02C42.2478 42.38 41.7678 40.53 41.7678 38.47C41.7678 36.43 42.2478 34.6 43.2078 32.98C44.1678 31.34 45.4678 30.06 47.1078 29.14C48.7478 28.22 50.5478 27.76 52.5078 27.76C54.4878 27.76 56.2878 28.22 57.9078 29.14C59.5478 30.06 60.8378 31.34 61.7778 32.98C62.7378 34.6 63.2178 36.43 63.2178 38.47C63.2178 40.53 62.7378 42.38 61.7778 44.02C60.8378 45.64 59.5478 46.91 57.9078 47.83C56.2678 48.75 54.4678 49.21 52.5078 49.21ZM52.5078 45.46C53.7678 45.46 54.8778 45.18 55.8378 44.62C56.7978 44.04 57.5478 43.22 58.0878 42.16C58.6278 41.1 58.8978 39.87 58.8978 38.47C58.8978 37.07 58.6278 35.85 58.0878 34.81C57.5478 33.75 56.7978 32.94 55.8378 32.38C54.8778 31.82 53.7678 31.54 52.5078 31.54C51.2478 31.54 50.1278 31.82 49.1478 32.38C48.1878 32.94 47.4378 33.75 46.8978 34.81C46.3578 35.85 46.0878 37.07 46.0878 38.47C46.0878 39.87 46.3578 41.1 46.8978 42.16C47.4378 43.22 48.1878 44.04 49.1478 44.62C50.1278 45.18 51.2478 45.46 52.5078 45.46ZM70.4825 28.06V41.02C70.4825 42.44 70.8525 43.53 71.5925 44.29C72.3325 45.03 73.3725 45.4 74.7125 45.4C76.0725 45.4 77.1225 45.03 77.8625 44.29C78.6025 43.53 78.9725 42.44 78.9725 41.02V28.06H83.2025V40.99C83.2025 42.77 82.8125 44.28 82.0325 45.52C81.2725 46.74 80.2425 47.66 78.9425 48.28C77.6625 48.9 76.2325 49.21 74.6525 49.21C73.0925 49.21 71.6725 48.9 70.3925 48.28C69.1325 47.66 68.1325 46.74 67.3925 45.52C66.6525 44.28 66.2825 42.77 66.2825 40.99V28.06H70.4825ZM105.17 49H100.97L91.4604 34.63V49H87.2604V28.03H91.4604L100.97 42.43V28.03H105.17V49ZM116.641 28.06C118.841 28.06 120.771 28.49 122.431 29.35C124.111 30.21 125.401 31.44 126.301 33.04C127.221 34.62 127.681 36.46 127.681 38.56C127.681 40.66 127.221 42.5 126.301 44.08C125.401 45.64 124.111 46.85 122.431 47.71C120.771 48.57 118.841 49 116.641 49H109.321V28.06H116.641ZM116.491 45.43C118.691 45.43 120.391 44.83 121.591 43.63C122.791 42.43 123.391 40.74 123.391 38.56C123.391 36.38 122.791 34.68 121.591 33.46C120.391 32.22 118.691 31.6 116.491 31.6H113.521V45.43H116.491ZM152.223 28.06V31.45H146.643V49H142.443V31.45H136.863V28.06H152.223ZM166.088 49L161.468 40.84H159.488V49H155.288V28.06H163.148C164.768 28.06 166.148 28.35 167.288 28.93C168.428 29.49 169.278 30.26 169.838 31.24C170.418 32.2 170.708 33.28 170.708 34.48C170.708 35.86 170.308 37.11 169.508 38.23C168.708 39.33 167.518 40.09 165.938 40.51L170.948 49H166.088ZM159.488 37.69H162.998C164.138 37.69 164.988 37.42 165.548 36.88C166.108 36.32 166.388 35.55 166.388 34.57C166.388 33.61 166.108 32.87 165.548 32.35C164.988 31.81 164.138 31.54 162.998 31.54H159.488V37.69ZM187.347 45.01H179.007L177.627 49H173.217L180.747 28.03H185.637L193.167 49H188.727L187.347 45.01ZM186.207 41.65L183.177 32.89L180.147 41.65H186.207ZM214.791 28.06L207.111 49H202.011L194.331 28.06H198.831L204.591 44.71L210.321 28.06H214.791ZM221.509 31.45V36.7H228.559V40.03H221.509V45.58H229.459V49H217.309V28.03H229.459V31.45H221.509ZM237.476 45.67H244.376V49H233.276V28.06H237.476V45.67Z" fill="#333333"/>
</svg>
