<svg width="327" height="63" viewBox="0 0 327 63" fill="none" xmlns="http://www.w3.org/2000/svg">
<path d="M19.88 51.68H8.76L6.92 57H1.04L11.08 29.04H17.6L27.64 57H21.72L19.88 51.68ZM18.36 47.2L14.32 35.52L10.28 47.2H18.36ZM45.7928 57L39.6328 46.12H36.9928V57H31.3928V29.08H41.8728C44.0328 29.08 45.8728 29.4667 47.3928 30.24C48.9128 30.9867 50.0461 32.0133 50.7928 33.32C51.5661 34.6 51.9528 36.04 51.9528 37.64C51.9528 39.48 51.4195 41.1467 50.3528 42.64C49.2861 44.1067 47.6995 45.12 45.5928 45.68L52.2728 57H45.7928ZM36.9928 41.92H41.6728C43.1928 41.92 44.3261 41.56 45.0728 40.84C45.8195 40.0933 46.1928 39.0667 46.1928 37.76C46.1928 36.48 45.8195 35.4933 45.0728 34.8C44.3261 34.08 43.1928 33.72 41.6728 33.72H36.9928V41.92ZM69.9778 57.28C67.3645 57.28 64.9645 56.6667 62.7778 55.44C60.5911 54.2133 58.8578 52.52 57.5778 50.36C56.2978 48.1733 55.6578 45.7067 55.6578 42.96C55.6578 40.24 56.2978 37.8 57.5778 35.64C58.8578 33.4533 60.5911 31.7467 62.7778 30.52C64.9645 29.2933 67.3645 28.68 69.9778 28.68C72.6178 28.68 75.0178 29.2933 77.1778 30.52C79.3645 31.7467 81.0845 33.4533 82.3378 35.64C83.6178 37.8 84.2578 40.24 84.2578 42.96C84.2578 45.7067 83.6178 48.1733 82.3378 50.36C81.0845 52.52 79.3645 54.2133 77.1778 55.44C74.9911 56.6667 72.5911 57.28 69.9778 57.28ZM69.9778 52.28C71.6578 52.28 73.1378 51.9067 74.4178 51.16C75.6978 50.3867 76.6978 49.2933 77.4178 47.88C78.1378 46.4667 78.4978 44.8267 78.4978 42.96C78.4978 41.0933 78.1378 39.4667 77.4178 38.08C76.6978 36.6667 75.6978 35.5867 74.4178 34.84C73.1378 34.0933 71.6578 33.72 69.9778 33.72C68.2978 33.72 66.8045 34.0933 65.4978 34.84C64.2178 35.5867 63.2178 36.6667 62.4978 38.08C61.7778 39.4667 61.4178 41.0933 61.4178 42.96C61.4178 44.8267 61.7778 46.4667 62.4978 47.88C63.2178 49.2933 64.2178 50.3867 65.4978 51.16C66.8045 51.9067 68.2978 52.28 69.9778 52.28ZM93.9441 29.08V46.36C93.9441 48.2533 94.4374 49.7067 95.4241 50.72C96.4107 51.7067 97.7974 52.2 99.5841 52.2C101.397 52.2 102.797 51.7067 103.784 50.72C104.771 49.7067 105.264 48.2533 105.264 46.36V29.08H110.904V46.32C110.904 48.6933 110.384 50.7067 109.344 52.36C108.331 53.9867 106.957 55.2133 105.224 56.04C103.517 56.8667 101.611 57.28 99.5041 57.28C97.4241 57.28 95.5307 56.8667 93.8241 56.04C92.1441 55.2133 90.8107 53.9867 89.8241 52.36C88.8374 50.7067 88.3441 48.6933 88.3441 46.32V29.08H93.9441ZM140.195 57H134.595L121.915 37.84V57H116.315V29.04H121.915L134.595 48.24V29.04H140.195V57ZM155.489 29.08C158.422 29.08 160.995 29.6533 163.209 30.8C165.449 31.9467 167.169 33.5867 168.369 35.72C169.595 37.8267 170.209 40.28 170.209 43.08C170.209 45.88 169.595 48.3333 168.369 50.44C167.169 52.52 165.449 54.1333 163.209 55.28C160.995 56.4267 158.422 57 155.489 57H145.729V29.08H155.489ZM155.289 52.24C158.222 52.24 160.489 51.44 162.089 49.84C163.689 48.24 164.489 45.9867 164.489 43.08C164.489 40.1733 163.689 37.9067 162.089 36.28C160.489 34.6267 158.222 33.8 155.289 33.8H151.329V52.24H155.289ZM202.932 29.08V33.6H195.492V57H189.892V33.6H182.452V29.08H202.932ZM221.418 57L215.258 46.12H212.618V57H207.018V29.08H217.498C219.658 29.08 221.498 29.4667 223.018 30.24C224.538 30.9867 225.671 32.0133 226.418 33.32C227.191 34.6 227.578 36.04 227.578 37.64C227.578 39.48 227.044 41.1467 225.978 42.64C224.911 44.1067 223.324 45.12 221.218 45.68L227.898 57H221.418ZM212.618 41.92H217.298C218.818 41.92 219.951 41.56 220.698 40.84C221.444 40.0933 221.818 39.0667 221.818 37.76C221.818 36.48 221.444 35.4933 220.698 34.8C219.951 34.08 218.818 33.72 217.298 33.72H212.618V41.92ZM249.763 51.68H238.643L236.803 57H230.923L240.963 29.04H247.483L257.523 57H251.603L249.763 51.68ZM248.243 47.2L244.203 35.52L240.163 47.2H248.243ZM286.356 29.08L276.116 57H269.316L259.076 29.08H265.076L272.756 51.28L280.396 29.08H286.356ZM295.313 33.6V40.6H304.713V45.04H295.313V52.44H305.913V57H289.713V29.04H305.913V33.6H295.313ZM316.602 52.56H325.802V57H311.002V29.08H316.602V52.56Z" fill="url(#paint0_linear_404_1703)"/>
<path d="M14.656 5.888C15.36 5.888 15.984 6.096 16.528 6.512C17.072 6.91733 17.4933 7.49867 17.792 8.256C18.1013 9.01333 18.256 9.904 18.256 10.928C18.256 11.952 18.1013 12.8427 17.792 13.6C17.4933 14.3573 17.072 14.944 16.528 15.36C15.984 15.776 15.36 15.984 14.656 15.984C13.9627 15.984 13.3387 15.776 12.784 15.36C12.24 14.944 11.8133 14.3573 11.504 13.6C11.2053 12.8427 11.056 11.952 11.056 10.928C11.056 9.904 11.2053 9.01333 11.504 8.256C11.8133 7.49867 12.24 6.91733 12.784 6.512C13.3387 6.096 13.9627 5.888 14.656 5.888ZM14.656 7.072C14.1973 7.072 13.792 7.232 13.44 7.552C13.088 7.86133 12.8107 8.30933 12.608 8.896C12.416 9.472 12.32 10.1493 12.32 10.928C12.32 11.7067 12.416 12.3893 12.608 12.976C12.8107 13.552 13.088 14 13.44 14.32C13.792 14.64 14.1973 14.8 14.656 14.8C15.1253 14.8 15.536 14.64 15.888 14.32C16.24 14 16.512 13.552 16.704 12.976C16.9067 12.3893 17.008 11.7067 17.008 10.928C17.008 10.1493 16.9067 9.472 16.704 8.896C16.512 8.30933 16.24 7.86133 15.888 7.552C15.536 7.232 15.1253 7.072 14.656 7.072ZM21.392 4.768H22.704V19.264H21.392V4.768ZM17.824 10.288H21.984V11.36H17.824V10.288ZM35.3268 4.768H36.6388V19.264H35.3268V4.768ZM36.3348 10.512H39.0068V11.632H36.3348V10.512ZM26.1108 14.656H27.2628C28.1588 14.656 28.9801 14.6453 29.7268 14.624C30.4841 14.592 31.2148 14.544 31.9188 14.48C32.6228 14.4053 33.3374 14.2987 34.0628 14.16L34.1908 15.248C33.4441 15.3867 32.7134 15.4933 31.9988 15.568C31.2948 15.6427 30.5588 15.696 29.7908 15.728C29.0228 15.76 28.1801 15.776 27.2628 15.776H26.1108V14.656ZM26.0788 6.112H32.6068V11.312H27.4228V15.104H26.1108V10.208H31.2948V7.2H26.0788V6.112ZM40.2215 12.112H53.3415V13.2H40.2215V12.112ZM46.2215 12.8H47.5655V16.128H46.2215V12.8ZM41.9015 17.824H51.8855V18.928H41.9015V17.824ZM41.9015 14.704H43.2295V18.128H41.9015V14.704ZM46.7655 5.136C47.7895 5.136 48.6802 5.25333 49.4375 5.488C50.1948 5.72267 50.7815 6.05867 51.1975 6.496C51.6242 6.92267 51.8375 7.44 51.8375 8.048C51.8375 8.63467 51.6242 9.14667 51.1975 9.584C50.7815 10.0213 50.1948 10.3573 49.4375 10.592C48.6802 10.8267 47.7895 10.944 46.7655 10.944C45.7522 10.944 44.8615 10.8267 44.0935 10.592C43.3362 10.3573 42.7442 10.0213 42.3175 9.584C41.9015 9.14667 41.6935 8.63467 41.6935 8.048C41.6935 7.44 41.9015 6.92267 42.3175 6.496C42.7442 6.05867 43.3362 5.72267 44.0935 5.488C44.8615 5.25333 45.7522 5.136 46.7655 5.136ZM46.7655 6.208C46.0402 6.208 45.4002 6.28267 44.8455 6.432C44.2908 6.58133 43.8588 6.79467 43.5495 7.072C43.2508 7.33867 43.1015 7.664 43.1015 8.048C43.1015 8.42133 43.2508 8.74667 43.5495 9.024C43.8588 9.29067 44.2908 9.49867 44.8455 9.648C45.4002 9.78667 46.0402 9.856 46.7655 9.856C47.5122 9.856 48.1575 9.78667 48.7015 9.648C49.2455 9.49867 49.6668 9.29067 49.9655 9.024C50.2748 8.74667 50.4295 8.42133 50.4295 8.048C50.4295 7.664 50.2748 7.33867 49.9655 7.072C49.6668 6.79467 49.2455 6.58133 48.7015 6.432C48.1575 6.28267 47.5122 6.208 46.7655 6.208ZM56.6203 11.712H66.5563V12.8H56.6203V11.712ZM54.9563 16.176H68.0763V17.28H54.9563V16.176ZM56.6203 6.112H66.4123V7.2H57.9323V12.192H56.6203V6.112ZM74.9331 12.576H84.8691V13.648H74.9331V12.576ZM73.2531 16.272H86.3731V17.376H73.2531V16.272ZM74.9331 6.016H84.7251V7.104H76.2771V12.896H74.9331V6.016ZM75.8611 9.232H84.4051V10.304H75.8611V9.232ZM88.4519 14.672H89.3959C90.2812 14.672 91.1452 14.6507 91.9879 14.608C92.8305 14.5547 93.7372 14.448 94.7079 14.288L94.8359 15.376C93.8332 15.5573 92.8999 15.6747 92.0359 15.728C91.1825 15.7707 90.3025 15.792 89.3959 15.792H88.4519V14.672ZM88.4199 6.336H93.8279V11.424H89.7319V15.088H88.4519V10.336H92.5479V7.44H88.4199V6.336ZM98.9799 4.768H100.244V19.248H98.9799V4.768ZM96.5319 10.48H99.3159V11.568H96.5319V10.48ZM95.6999 5.088H96.9319V18.496H95.6999V5.088ZM104.419 5.024H105.731V6.384H112.739V5.024H114.051V9.808H104.419V5.024ZM105.731 7.392V8.768H112.739V7.392H105.731ZM102.691 11.024H115.763V12.08H102.691V11.024ZM104.275 13.392H114.083V16.624H105.603V18.4H104.307V15.664H112.787V14.4H104.275V13.392ZM104.307 18.048H114.515V19.088H104.307V18.048Z" fill="#FFCD69"/>
<defs>
<linearGradient id="paint0_linear_404_1703" x1="0" y1="43" x2="327" y2="43" gradientUnits="userSpaceOnUse">
<stop stop-color="#FFD53F"/>
<stop offset="0.785" stop-color="#DBB8FF"/>
</linearGradient>
</defs>
</svg>
