<svg width="245" height="60" viewBox="0 0 245 60" fill="none" xmlns="http://www.w3.org/2000/svg">
<path d="M9.074 5.402C10.908 5.402 12.224 7.124 12.224 9.812C12.224 12.514 10.908 14.236 9.074 14.236C7.226 14.236 5.924 12.514 5.924 9.812C5.924 7.124 7.226 5.402 9.074 5.402ZM9.074 6.452C7.856 6.452 7.03 7.768 7.03 9.812C7.03 11.87 7.856 13.214 9.074 13.214C10.292 13.214 11.118 11.87 11.118 9.812C11.118 7.768 10.292 6.452 9.074 6.452ZM14.968 4.422H16.116V17.106H14.968V4.422ZM11.846 9.252H15.472V10.204H11.846V9.252ZM27.1469 4.422H28.3089V17.106H27.1469V4.422ZM28.0289 9.462H30.3809V10.442H28.0289V9.462ZM19.0829 13.088H20.0909C22.4709 13.088 24.1229 13.004 26.0409 12.64L26.1669 13.606C24.1929 13.956 22.5129 14.054 20.0909 14.054H19.0829V13.088ZM19.0549 5.612H24.7809V10.148H20.2309V13.48H19.0829V9.196H23.6329V6.564H19.0549V5.612ZM31.4438 10.848H42.9238V11.8H31.4438V10.848ZM36.6798 11.45H37.8558V14.362H36.6798V11.45ZM32.8998 15.846H41.6498V16.812H32.8998V15.846ZM32.8998 13.116H34.0618V16.112H32.8998V13.116ZM37.1698 4.744C39.8438 4.744 41.6078 5.724 41.6078 7.292C41.6078 8.86 39.8438 9.84 37.1698 9.84C34.4818 9.84 32.7318 8.86 32.7318 7.292C32.7318 5.724 34.4818 4.744 37.1698 4.744ZM37.1698 5.696C35.2378 5.696 33.9638 6.312 33.9638 7.292C33.9638 8.286 35.2378 8.888 37.1698 8.888C39.1018 8.888 40.3758 8.286 40.3758 7.292C40.3758 6.312 39.1018 5.696 37.1698 5.696ZM45.7787 10.498H54.4727V11.45H45.7787V10.498ZM44.3367 14.418H55.8027V15.384H44.3367V14.418ZM45.7787 5.598H54.3467V6.564H46.9407V10.918H45.7787V5.598ZM61.8165 11.254H70.5105V12.192H61.8165V11.254ZM60.3465 14.502H71.8125V15.468H60.3465V14.502ZM61.8165 5.514H70.3705V6.466H62.9925V11.548H61.8165V5.514ZM62.6145 8.342H70.1045V9.266H62.6145V8.342ZM73.6314 13.102H74.4714C76.0114 13.102 77.4114 13.046 79.1194 12.752L79.2174 13.718C77.4674 14.026 76.0394 14.068 74.4714 14.068H73.6314V13.102ZM73.6034 5.808H78.3494V10.26H74.7654V13.466H73.6314V9.308H77.2154V6.76H73.6034V5.808ZM82.8434 4.436H83.9634V17.092H82.8434V4.436ZM80.7014 9.434H83.1374V10.386H80.7014V9.434ZM79.9734 4.716H81.0654V16.448H79.9734V4.716ZM87.6163 4.66H88.7643V5.836H94.8823V4.66H96.0443V8.832H87.6163V4.66ZM88.7643 6.732V7.936H94.8823V6.732H88.7643ZM86.0903 9.896H97.5283V10.834H86.0903V9.896ZM87.4763 11.982H96.0723V14.81H88.6523V16.364H87.5043V13.97H94.9243V12.864H87.4763V11.982ZM87.5043 16.056H96.4503V16.952H87.5043V16.056Z" fill="#333333"/>
<path d="M14.91 44.01H6.57L5.19 48H0.78L8.31 27.03H13.2L20.73 48H16.29L14.91 44.01ZM13.77 40.65L10.74 31.89L7.71 40.65H13.77ZM34.3446 48L29.7246 39.84H27.7446V48H23.5446V27.06H31.4046C33.0246 27.06 34.4046 27.35 35.5446 27.93C36.6846 28.49 37.5346 29.26 38.0946 30.24C38.6746 31.2 38.9646 32.28 38.9646 33.48C38.9646 34.86 38.5646 36.11 37.7646 37.23C36.9646 38.33 35.7746 39.09 34.1946 39.51L39.2046 48H34.3446ZM27.7446 36.69H31.2546C32.3946 36.69 33.2446 36.42 33.8046 35.88C34.3646 35.32 34.6446 34.55 34.6446 33.57C34.6446 32.61 34.3646 31.87 33.8046 31.35C33.2446 30.81 32.3946 30.54 31.2546 30.54H27.7446V36.69ZM52.4834 48.21C50.5234 48.21 48.7234 47.75 47.0834 46.83C45.4434 45.91 44.1434 44.64 43.1834 43.02C42.2234 41.38 41.7434 39.53 41.7434 37.47C41.7434 35.43 42.2234 33.6 43.1834 31.98C44.1434 30.34 45.4434 29.06 47.0834 28.14C48.7234 27.22 50.5234 26.76 52.4834 26.76C54.4634 26.76 56.2634 27.22 57.8834 28.14C59.5234 29.06 60.8134 30.34 61.7534 31.98C62.7134 33.6 63.1934 35.43 63.1934 37.47C63.1934 39.53 62.7134 41.38 61.7534 43.02C60.8134 44.64 59.5234 45.91 57.8834 46.83C56.2434 47.75 54.4434 48.21 52.4834 48.21ZM52.4834 44.46C53.7434 44.46 54.8534 44.18 55.8134 43.62C56.7734 43.04 57.5234 42.22 58.0634 41.16C58.6034 40.1 58.8734 38.87 58.8734 37.47C58.8734 36.07 58.6034 34.85 58.0634 33.81C57.5234 32.75 56.7734 31.94 55.8134 31.38C54.8534 30.82 53.7434 30.54 52.4834 30.54C51.2234 30.54 50.1034 30.82 49.1234 31.38C48.1634 31.94 47.4134 32.75 46.8734 33.81C46.3334 34.85 46.0634 36.07 46.0634 37.47C46.0634 38.87 46.3334 40.1 46.8734 41.16C47.4134 42.22 48.1634 43.04 49.1234 43.62C50.1034 44.18 51.2234 44.46 52.4834 44.46ZM70.458 27.06V40.02C70.458 41.44 70.828 42.53 71.568 43.29C72.308 44.03 73.348 44.4 74.688 44.4C76.048 44.4 77.098 44.03 77.838 43.29C78.578 42.53 78.948 41.44 78.948 40.02V27.06H83.178V39.99C83.178 41.77 82.788 43.28 82.008 44.52C81.248 45.74 80.218 46.66 78.918 47.28C77.638 47.9 76.208 48.21 74.628 48.21C73.068 48.21 71.648 47.9 70.368 47.28C69.108 46.66 68.108 45.74 67.368 44.52C66.628 43.28 66.258 41.77 66.258 39.99V27.06H70.458ZM105.146 48H100.946L91.436 33.63V48H87.236V27.03H91.436L100.946 41.43V27.03H105.146V48ZM116.617 27.06C118.817 27.06 120.747 27.49 122.407 28.35C124.087 29.21 125.377 30.44 126.277 32.04C127.197 33.62 127.657 35.46 127.657 37.56C127.657 39.66 127.197 41.5 126.277 43.08C125.377 44.64 124.087 45.85 122.407 46.71C120.747 47.57 118.817 48 116.617 48H109.297V27.06H116.617ZM116.467 44.43C118.667 44.43 120.367 43.83 121.567 42.63C122.767 41.43 123.367 39.74 123.367 37.56C123.367 35.38 122.767 33.68 121.567 32.46C120.367 31.22 118.667 30.6 116.467 30.6H113.497V44.43H116.467ZM152.199 27.06V30.45H146.619V48H142.419V30.45H136.839V27.06H152.199ZM166.063 48L161.443 39.84H159.463V48H155.263V27.06H163.123C164.743 27.06 166.123 27.35 167.263 27.93C168.403 28.49 169.253 29.26 169.813 30.24C170.393 31.2 170.683 32.28 170.683 33.48C170.683 34.86 170.283 36.11 169.483 37.23C168.683 38.33 167.493 39.09 165.913 39.51L170.923 48H166.063ZM159.463 36.69H162.973C164.113 36.69 164.963 36.42 165.523 35.88C166.083 35.32 166.363 34.55 166.363 33.57C166.363 32.61 166.083 31.87 165.523 31.35C164.963 30.81 164.113 30.54 162.973 30.54H159.463V36.69ZM187.322 44.01H178.982L177.602 48H173.192L180.722 27.03H185.612L193.142 48H188.702L187.322 44.01ZM186.182 40.65L183.152 31.89L180.122 40.65H186.182ZM214.767 27.06L207.087 48H201.987L194.307 27.06H198.807L204.567 43.71L210.297 27.06H214.767ZM221.485 30.45V35.7H228.535V39.03H221.485V44.58H229.435V48H217.285V27.03H229.435V30.45H221.485ZM237.452 44.67H244.352V48H233.252V27.06H237.452V44.67Z" fill="#333333"/>
</svg>
