<svg width="1595" height="585" viewBox="0 0 1595 585" fill="none" xmlns="http://www.w3.org/2000/svg">
<path d="M1474.46 368.02C1340.9 335.799 1077.28 277.772 1091.22 303.42C1108.65 335.482 1207.74 344.417 1055.95 351.404C904.164 358.391 499.22 384.613 551.575 402.541C603.929 420.469 655.154 444.125 599.815 452.58C544.475 461.036 -132.828 449.701 55.4107 320.472C206.002 217.088 252.991 182.408 257.662 177.99" stroke="#D6D6D6" stroke-width="2" stroke-linejoin="round" stroke-dasharray="10 10"/>
<path d="M1512.59 423.585L1508.23 421.828C1507.79 421.652 1507.41 421.355 1507.12 420.965C1506.83 420.575 1506.64 420.105 1506.58 419.596C1506.51 419.088 1506.56 418.559 1506.73 418.056C1506.9 417.554 1507.18 417.095 1507.54 416.72L1528.83 394.874L1513.13 388.093L1504.13 393.611C1502.38 394.719 1501.22 395.056 1498.98 394.152L1496.04 392.97C1495.57 392.799 1495.15 392.504 1494.83 392.11C1494.5 391.716 1494.27 391.234 1494.16 390.704C1494.02 389.958 1494.04 388.806 1495 387.533L1503.6 375.813C1503.67 375.726 1503.74 375.641 1503.81 375.559C1503.81 375.55 1503.82 375.541 1503.82 375.531C1503.82 375.422 1503.84 375.313 1503.85 375.204L1505.99 360.786C1506.21 359.247 1507 358.426 1507.62 358.008C1508.04 357.727 1508.5 357.55 1508.98 357.492C1509.45 357.435 1509.92 357.498 1510.35 357.676L1513.45 358.924C1515.13 359.599 1516.41 361.097 1516.81 362.842L1519.3 372.838L1535.35 378.996L1535.5 348.69C1535.5 348.17 1535.63 347.648 1535.86 347.171C1536.09 346.695 1536.43 346.279 1536.84 345.962C1537.24 345.645 1537.71 345.436 1538.19 345.356C1538.67 345.276 1539.15 345.326 1539.59 345.501L1544 347.277C1544.61 347.539 1545.14 347.951 1545.56 348.483C1545.98 349.016 1546.28 349.654 1546.43 350.352L1555.46 386.492L1565.04 390.026C1565.75 390.262 1567.67 391.021 1568.12 391.2C1577.17 394.852 1581.22 400.321 1578.95 405.836C1578.24 407.572 1576.3 410.541 1571.31 410.92C1568.37 411.146 1564.86 410.444 1560.87 408.836C1560.43 408.66 1558.52 407.874 1557.83 407.548L1548.48 403.454L1516.49 423.071C1515.89 423.465 1515.23 423.716 1514.55 423.805C1513.88 423.894 1513.21 423.819 1512.59 423.585Z" fill="#DBB8FF"/>
</svg>
