<svg width="15" height="15" viewBox="0 0 15 15" fill="none" xmlns="http://www.w3.org/2000/svg">
<path fill-rule="evenodd" clip-rule="evenodd" d="M-3.27835e-07 7.5C-4.14783e-07 5.51088 0.790175 3.60322 2.1967 2.1967C3.60322 0.790175 5.51088 -2.40888e-07 7.5 -3.27835e-07C9.48912 -4.14783e-07 11.3968 0.790175 12.8033 2.1967C14.2098 3.60322 15 5.51088 15 7.5C15 9.48912 14.2098 11.3968 12.8033 12.8033C11.3968 14.2098 9.48912 15 7.5 15C5.51088 15 3.60322 14.2098 2.1967 12.8033C0.790175 11.3968 -2.40888e-07 9.48912 -3.27835e-07 7.5ZM5 7.5C5 6.83696 5.26339 6.20107 5.73223 5.73223C6.20107 5.26339 6.83696 5 7.5 5C8.16304 5 8.79893 5.26339 9.26777 5.73223C9.73661 6.20107 10 6.83696 10 7.5C10 8.16304 9.73661 8.79893 9.26777 9.26777C8.79893 9.73661 8.16304 10 7.5 10C6.83696 10 6.20107 9.73661 5.73223 9.26777C5.26339 8.79893 5 8.16304 5 7.5Z" fill="#FFCE1F"/>
</svg>
