<svg width="23" height="24" viewBox="0 0 23 24" fill="none" xmlns="http://www.w3.org/2000/svg">
<path d="M16.4671 2.52618C16.636 2.69189 16.77 2.88872 16.8615 3.10541C16.9529 3.3221 17 3.55438 17 3.78897C17 4.02356 16.9529 4.25584 16.8615 4.47253C16.77 4.68922 16.636 4.88605 16.4671 5.05176L9.39633 12.0016L16.4671 18.9514C16.8078 19.2863 16.9992 19.7405 16.9992 20.2141C16.9992 20.6878 16.8078 21.142 16.4671 21.4769C16.1263 21.8119 15.6642 22 15.1823 22C14.7004 22 14.2383 21.8119 13.8975 21.4769L5.53294 13.2554C5.364 13.0897 5.22997 12.8929 5.13852 12.6762C5.04707 12.4595 5 12.2272 5 11.9926C5 11.758 5.04707 11.5257 5.13852 11.309C5.22997 11.0924 5.364 10.8955 5.53294 10.7298L13.8975 2.50827C14.59 1.82762 15.7563 1.82762 16.4671 2.52618Z" fill="#FFCE1F"/>
</svg>
