<svg width="45" height="32" viewBox="0 0 45 32" fill="none" xmlns="http://www.w3.org/2000/svg">
<path d="M23.2086 10.2857C24.3557 10.0544 25.5465 10.2896 26.5192 10.9398C27.492 11.59 28.1668 12.6018 28.3954 13.7526C28.624 14.9034 28.3875 16.099 27.7381 17.0764C27.0886 18.0538 26.0794 18.7328 24.9323 18.9642M11.6755 12.612L14.8356 28.5225C14.9118 28.9061 14.833 29.3046 14.6165 29.6304C14.4 29.9562 14.0636 30.1826 13.6812 30.2597L12.2396 30.5505C11.8572 30.6276 11.4603 30.5492 11.136 30.3324C10.8118 30.1157 10.5868 29.7785 10.5107 29.3948L9.07426 22.1628" stroke="#FFCE1F" stroke-width="2.5" stroke-linecap="round" stroke-linejoin="round"/>
<path d="M14.5588 12.0228L19.998 5.25399C20.156 5.05738 20.3666 4.90997 20.6049 4.82903C20.8433 4.74808 21.0996 4.73696 21.3438 4.79696C21.5879 4.85696 21.8099 4.98561 21.9837 5.16781C22.1574 5.35002 22.2757 5.57824 22.3247 5.82573L25.8171 23.4092C25.8663 23.6567 25.8443 23.9132 25.7535 24.1487C25.6628 24.3843 25.507 24.5891 25.3046 24.7392C25.1021 24.8893 24.8613 24.9785 24.6104 24.9962C24.3595 25.0139 24.1089 24.9596 23.8879 24.8394L16.2825 20.7017L4.74887 23.0282C4.36651 23.1053 3.96954 23.0269 3.64529 22.8101C3.32103 22.5934 3.09607 22.2561 3.01987 21.8725L1.8707 16.0865C1.79451 15.7029 1.87333 15.3043 2.08982 14.9785C2.30632 14.6527 2.64275 14.4264 3.02512 14.3492L14.5588 12.0228Z" stroke="#FFCE1F" stroke-width="2.5" stroke-linecap="round" stroke-linejoin="round"/>
<path d="M35.4132 0.656919C35.0959 0.66747 34.7914 0.790786 34.5667 0.999746C34.4552 1.1032 34.3663 1.22324 34.3058 1.35573C34.2452 1.48822 34.2139 1.62916 34.2136 1.77047C34.2133 1.91179 34.244 2.0507 34.304 2.17927C34.364 2.30784 34.4521 2.42354 34.5632 2.51975C36.6148 4.29479 37.9491 6.6394 38.3681 9.20554C38.7963 11.7696 38.2874 14.4211 36.9169 16.7666C36.7729 17.0223 36.7445 17.3149 36.8379 17.5811C36.9313 17.8474 37.1389 18.0659 37.4159 18.1895C37.693 18.3131 38.0172 18.3319 38.3186 18.2419C38.6199 18.1518 38.8743 17.9601 39.0267 17.7081C40.6394 14.9481 41.2387 11.8281 40.7357 8.81065C40.2422 5.7913 38.6723 3.03254 36.2588 0.943484C36.0346 0.749447 35.7305 0.646369 35.4132 0.656919Z" fill="#FFCE1F"/>
<path d="M32.6451 4.77528C32.4929 4.81552 32.3498 4.88204 32.224 4.97104C31.9701 5.15044 31.802 5.41046 31.7567 5.69396C31.7114 5.97747 31.7925 6.26126 31.9824 6.48297C32.8262 7.46766 33.4123 8.65902 33.6331 9.99532C33.846 11.2816 33.6972 12.6076 33.2001 13.8538C33.1462 13.9883 33.1221 14.13 33.1289 14.2708C33.1357 14.4117 33.1734 14.5489 33.2398 14.6746C33.3062 14.8003 33.4 14.9121 33.5159 15.0035C33.6317 15.095 33.7674 15.1643 33.9151 15.2076C34.0629 15.2508 34.2197 15.2672 34.3768 15.2557C34.5339 15.2442 34.688 15.205 34.8305 15.1405C34.9731 15.076 35.1011 14.9873 35.2073 14.8796C35.3136 14.7719 35.396 14.6472 35.4498 14.5127C36.0827 12.9262 36.272 11.238 36.0006 9.60043C35.7202 7.90327 34.9761 6.3834 33.8995 5.12901C33.8053 5.01926 33.6872 4.92811 33.552 4.86078C33.4167 4.79344 33.2671 4.75123 33.1115 4.73656C32.9559 4.72189 32.7974 4.73505 32.6451 4.77528Z" fill="#FFCE1F"/>
</svg>
