<svg width="24" height="24" viewBox="0 0 24 24" fill="none" xmlns="http://www.w3.org/2000/svg">
<path d="M6.53294 2.52618C6.364 2.69189 6.22997 2.88872 6.13852 3.10541C6.04707 3.3221 6 3.55438 6 3.78897C6 4.02356 6.04707 4.25584 6.13852 4.47253C6.22997 4.68922 6.364 4.88605 6.53294 5.05176L13.6037 12.0016L6.53294 18.9514C6.1922 19.2863 6.00077 19.7405 6.00077 20.2141C6.00077 20.6878 6.1922 21.142 6.53294 21.4769C6.87368 21.8119 7.33582 22 7.8177 22C8.29958 22 8.76172 21.8119 9.10246 21.4769L17.4671 13.2554C17.636 13.0897 17.77 12.8929 17.8615 12.6762C17.9529 12.4595 18 12.2272 18 11.9926C18 11.758 17.9529 11.5257 17.8615 11.309C17.77 11.0924 17.636 10.8955 17.4671 10.7298L9.10246 2.50827C8.40996 1.82762 7.24366 1.82762 6.53294 2.52618Z" fill="#FFCE1F"/>
</svg>
