<svg width="26" height="26" viewBox="0 0 26 26" fill="none" xmlns="http://www.w3.org/2000/svg">
<g clip-path="url(#clip0_121_935)">
<path d="M23.7757 0H2.93015C1.86368 0 1 0.864706 1 1.93015V22.7757C1 23.8422 1.86471 24.7059 2.93015 24.7059H23.7757C24.8422 24.7059 25.7059 23.8412 25.7059 22.7757V1.93015C25.7059 0.863677 24.8412 0 23.7757 0ZM13.3529 19.3015C12.7435 19.3015 12.1492 19.2603 11.57 19.1779C10.9915 19.5856 7.64485 21.9357 7.32882 21.98C7.32882 21.98 7.20015 22.0304 7.09 21.9656C6.97985 21.9007 6.99941 21.7299 6.99941 21.7299C7.03235 21.5034 7.86721 18.6231 8.02059 18.0929C5.19485 16.6929 3.31618 14.2131 3.31618 11.3884C3.31618 7.0175 7.80956 3.47427 13.3529 3.47427C18.8963 3.47427 23.3897 7.0175 23.3897 11.3884C23.3897 15.7593 18.8963 19.3015 13.3529 19.3015ZM9.28677 10.1572H8.38294V13.5975C8.38294 13.9022 8.12353 14.1503 7.80338 14.1503C7.48324 14.1503 7.22485 13.9032 7.22485 13.5975V10.1572H6.32103C6.17796 10.1466 6.04418 10.0823 5.94655 9.97724C5.84892 9.87212 5.79466 9.73397 5.79466 9.59052C5.79466 9.44706 5.84892 9.30891 5.94655 9.2038C6.04418 9.09869 6.17796 9.03439 6.32103 9.02382H9.28574C9.42881 9.03439 9.56258 9.09869 9.66021 9.2038C9.75785 9.30891 9.81211 9.44706 9.81211 9.59052C9.81211 9.73397 9.75785 9.87212 9.66021 9.97724C9.56258 10.0823 9.42881 10.1466 9.28574 10.1572M20.5959 13.2012C20.642 13.2618 20.6757 13.3309 20.6949 13.4046C20.7142 13.4783 20.7187 13.555 20.7081 13.6304C20.6975 13.7057 20.6721 13.778 20.6334 13.8434C20.5947 13.9087 20.5435 13.9658 20.4827 14.0113C20.3826 14.0873 20.2604 14.1285 20.1347 14.1287C20.0449 14.129 19.9562 14.1083 19.8758 14.0683C19.7953 14.0282 19.7254 13.97 19.6715 13.8981L18.3137 12.0997L18.1129 12.3004V13.5635C18.1127 13.717 18.0517 13.8641 17.9433 13.9727C17.8349 14.0813 17.6879 14.1425 17.5344 14.1431C17.3807 14.1431 17.2333 14.082 17.1246 13.9733C17.0159 13.8647 16.9549 13.7172 16.9549 13.5635V9.60235C16.9612 9.45301 17.0249 9.31187 17.1328 9.20842C17.2407 9.10497 17.3844 9.04722 17.5339 9.04722C17.6834 9.04722 17.8271 9.10497 17.935 9.20842C18.0429 9.31187 18.1066 9.45301 18.1129 9.60235V10.8479L19.7291 9.23177C19.8145 9.14794 19.9296 9.10131 20.0493 9.10206C20.1934 9.10206 20.3396 9.16485 20.4487 9.27397C20.5476 9.37165 20.608 9.5018 20.6185 9.64044C20.6237 9.705 20.615 9.76993 20.593 9.83084C20.571 9.89175 20.5362 9.94723 20.4909 9.99353L19.1712 11.3122L20.5959 13.2012ZM12.0003 9.59618C11.9025 9.31824 11.606 9.03206 11.2282 9.02382C10.8515 9.03206 10.555 9.31824 10.4572 9.59515L9.07265 13.2403C8.89662 13.7859 9.05 13.9897 9.20956 14.0638C9.32536 14.1151 9.45043 14.1421 9.57706 14.1431C9.81897 14.1431 10.0032 14.0453 10.0588 13.8878L10.346 13.1363H12.1115L12.3987 13.8878C12.4543 14.0453 12.6385 14.1431 12.8804 14.1431C13.0071 14.1417 13.1322 14.1144 13.2479 14.0628C13.4075 13.9897 13.5609 13.7869 13.3849 13.2393L12.0003 9.59618ZM10.6507 12.111L11.2293 10.4681L11.8068 12.111H10.6507ZM16.7294 13.5347C16.7256 13.6785 16.6652 13.815 16.5613 13.9145C16.4574 14.014 16.3184 14.0684 16.1746 14.0659H14.3175C14.1735 14.0687 14.0342 14.0144 13.9301 13.9149C13.826 13.8153 13.7654 13.6787 13.7616 13.5347V9.60235C13.7616 9.28324 14.0272 9.02382 14.3535 9.02382C14.6799 9.02382 14.9444 9.28324 14.9444 9.60235V13.0046H16.1746C16.4803 13.0046 16.7304 13.2424 16.7304 13.5347" fill="#DFABFF"/>
</g>
<defs>
<clipPath id="clip0_121_935">
<rect width="25" height="25" fill="white" transform="translate(0.597656 0.14502)"/>
</clipPath>
</defs>
</svg>
