<svg width="29" height="29" viewBox="0 0 29 29" fill="none" xmlns="http://www.w3.org/2000/svg">
<path d="M5.4 24.2C4.74 24.2 4.1752 23.9652 3.7056 23.4956C3.236 23.026 3.0008 22.4608 3 21.8V7.4C3 6.74 3.2352 6.1752 3.7056 5.7056C4.176 5.236 4.7408 5.0008 5.4 5H24.6C25.26 5 25.8252 5.2352 26.2956 5.7056C26.766 6.176 27.0008 6.7408 27 7.4V21.8C27 22.46 26.7652 23.0252 26.2956 23.4956C25.826 23.966 25.2608 24.2008 24.6 24.2H5.4ZM15 15.8L5.4 9.8V21.8H24.6V9.8L15 15.8ZM15 13.4L24.6 7.4H5.4L15 13.4ZM5.4 9.8V7.4V21.8V9.8Z" fill="#DFABFF"/>
</svg>
