<svg width="50" height="50" viewBox="0 0 50 50" fill="none" xmlns="http://www.w3.org/2000/svg">
<path d="M39.0003 30.5017C39.7295 28.7309 40.1253 26.8351 40.1253 24.7517C40.1253 23.2517 39.8962 21.8142 39.5003 20.4809C38.1462 20.7934 36.7295 20.9601 35.2503 20.9601C32.2211 20.9633 29.2355 20.2382 26.5452 18.846C23.8549 17.4537 21.5387 15.435 19.792 12.9601C17.9252 17.4824 14.3997 21.1198 9.93783 23.1267C9.85449 23.6476 9.85449 24.2101 9.85449 24.7517C9.85449 26.7407 10.2463 28.7102 11.0074 30.5478C11.7685 32.3854 12.8842 34.055 14.2906 35.4615C17.131 38.3019 20.9834 39.8976 25.0003 39.8976C27.1878 39.8976 29.292 39.4184 31.1878 38.5642C32.3753 40.8351 32.917 41.9601 32.8753 41.9601C29.4587 43.1059 26.8128 43.6684 25.0003 43.6684C19.9587 43.6684 15.1462 41.6892 11.6045 38.1267C9.44834 35.9808 7.84672 33.3424 6.93783 30.4392H4.16699V20.9601H6.43783C7.12583 17.6111 8.7076 14.5109 11.0153 11.9884C13.323 9.46585 16.2705 7.61509 19.5452 6.63249C22.8198 5.64989 26.2994 5.5721 29.6146 6.40738C32.9299 7.24266 35.9572 8.95985 38.3753 11.3767C40.9999 13.9925 42.7905 17.3273 43.5212 20.9601H45.8337V30.4392H45.7087L38.292 37.2517L27.2503 36.0017V32.5226H37.3128L39.0003 30.5017ZM19.3128 24.2726C19.9378 24.2726 20.542 24.5226 20.9795 24.9809C21.4192 25.4242 21.6659 26.0232 21.6659 26.6476C21.6659 27.2719 21.4192 27.871 20.9795 28.3142C20.542 28.7517 19.9378 29.0017 19.3128 29.0017C18.0003 29.0017 16.9378 27.9601 16.9378 26.6476C16.9378 25.3351 18.0003 24.2726 19.3128 24.2726ZM30.667 24.2726C31.9795 24.2726 33.0212 25.3351 33.0212 26.6476C33.0212 27.9601 31.9795 29.0017 30.667 29.0017C29.3545 29.0017 28.292 27.9601 28.292 26.6476C28.292 26.0177 28.5422 25.4136 28.9876 24.9682C29.433 24.5228 30.0371 24.2726 30.667 24.2726Z" fill="#DFABFF"/>
</svg>
