<svg width="39" height="38" viewBox="0 0 39 38" fill="none" xmlns="http://www.w3.org/2000/svg">
<g clip-path="url(#clip0_121_939)">
<path d="M19.4619 0.148438C24.7178 0.148438 25.3652 0.185547 27.4219 0.259766C29.4404 0.333984 30.8496 0.667969 32.1064 1.15039C33.4014 1.63281 34.4678 2.26367 35.5342 3.30273C36.6006 4.3418 37.248 5.38086 37.7432 6.64258C38.2383 7.86719 38.5811 9.24023 38.6572 11.207C38.7334 13.2109 38.7715 13.8418 38.7715 18.9629C38.7715 24.084 38.7334 24.7148 38.6572 26.7188C38.5811 28.6855 38.2383 30.0586 37.7432 31.2832C37.248 32.5449 36.6006 33.584 35.5342 34.623C34.4678 35.6621 33.4014 36.293 32.1064 36.7754C30.8496 37.2578 29.4404 37.5918 27.4219 37.666C25.3652 37.7402 24.7178 37.7773 19.4619 37.7773C14.2061 37.7773 13.5586 37.7402 11.502 37.666C9.4834 37.5918 8.07422 37.2578 6.81738 36.7754C5.52246 36.293 4.45605 35.6621 3.38965 34.623C2.32324 33.584 1.67578 32.5449 1.18066 31.2832C0.685547 30.0586 0.342773 28.6855 0.266602 26.7188C0.19043 24.7148 0.152344 24.084 0.152344 18.9629C0.152344 13.8418 0.19043 13.2109 0.266602 11.207C0.342773 9.24023 0.685547 7.86719 1.18066 6.64258C1.67578 5.38086 2.32324 4.3418 3.38965 3.30273C4.45605 2.26367 5.52246 1.63281 6.81738 1.15039C8.07422 0.667969 9.4834 0.333984 11.502 0.259766C13.5586 0.185547 14.2061 0.148438 19.4619 0.148438ZM19.4619 2.59766C13.9775 2.59766 13.3301 2.63477 11.1973 2.70898C9.2168 2.7832 8.1123 3.1543 7.38867 3.41406C5.52246 4.15625 4.26562 5.38086 3.50391 7.19922C3.2373 7.9043 2.85645 8.98047 2.78027 10.9102C2.7041 12.9883 2.66602 13.6191 2.66602 18.9629C2.66602 24.3066 2.7041 24.9375 2.78027 27.0156C2.85645 28.9453 3.2373 30.0215 3.50391 30.7266C4.26562 32.5449 5.52246 33.7695 7.38867 34.5117C8.1123 34.7715 9.2168 35.1426 11.1973 35.2168C13.3301 35.291 13.9775 35.3281 19.4619 35.3281C24.9463 35.3281 25.5938 35.291 27.7266 35.2168C29.707 35.1426 30.8115 34.7715 31.5352 34.5117C33.4014 33.7695 34.6582 32.5449 35.4199 30.7266C35.6865 30.0215 36.0674 28.9453 36.1436 27.0156C36.2197 24.9375 36.2578 24.3066 36.2578 18.9629C36.2578 13.6191 36.2197 12.9883 36.1436 10.9102C36.0674 8.98047 35.6865 7.9043 35.4199 7.19922C34.6582 5.38086 33.4014 4.15625 31.5352 3.41406C30.8115 3.1543 29.707 2.7832 27.7266 2.70898C25.5938 2.63477 24.9463 2.59766 19.4619 2.59766ZM19.4619 26.4961C23.7275 26.4961 27.1934 23.1191 27.1934 18.9629C27.1934 14.8066 23.7275 11.4297 19.4619 11.4297C15.1963 11.4297 11.7305 14.8066 11.7305 18.9629C11.7305 23.1191 15.1963 26.4961 19.4619 26.4961ZM19.4619 9.31445C24.9463 9.31445 29.3643 13.6191 29.3643 18.9629C29.3643 24.3066 24.9463 28.6113 19.4619 28.6113C13.9775 28.6113 9.55957 24.3066 9.55957 18.9629C9.55957 13.6191 13.9775 9.31445 19.4619 9.31445ZM32.1064 8.94336C32.1064 10.2051 31.04 11.1699 29.7451 11.1699C28.4502 11.1699 27.46 10.2051 27.46 8.94336C27.46 7.68164 28.4502 6.64258 29.7451 6.64258C31.04 6.64258 32.1064 7.68164 32.1064 8.94336Z" fill="#DBB8FF"/>
</g>
<defs>
<clipPath id="clip0_121_939">
<rect width="39" height="38" fill="white"/>
</clipPath>
</defs>
</svg>
