<svg width="45" height="44" viewBox="0 0 45 44" fill="none" xmlns="http://www.w3.org/2000/svg">
<path d="M36.9115 6.16016H8.0881C7.61382 6.16016 7.15896 6.34438 6.82359 6.6723C6.48821 7.00022 6.2998 7.44497 6.2998 7.90872V36.092C6.29992 36.5557 6.48839 37.0003 6.82374 37.3282C7.1591 37.656 7.6139 37.8402 8.0881 37.8402H23.6055V25.5721H19.3831V20.791H23.6055V17.2649C23.6055 13.1729 26.1615 10.9452 29.8947 10.9452C31.683 10.9452 33.2197 11.075 33.6679 11.1335V15.4098L31.0786 15.4112C29.0482 15.4112 28.6554 16.3545 28.6554 17.7388V20.7915H33.4974L32.8669 25.5725H28.6554V37.8402H36.912C37.3862 37.84 37.8409 37.6558 38.1762 37.3279C38.5115 36.9999 38.6998 36.5553 38.6998 36.0916V7.90872C38.6998 7.44497 38.5114 7.00022 38.176 6.6723C37.8407 6.34438 37.3858 6.16016 36.9115 6.16016Z" fill="#DBB8FF"/>
</svg>
