<svg width="39" height="38" viewBox="0 0 39 38" fill="none" xmlns="http://www.w3.org/2000/svg">
<path fill-rule="evenodd" clip-rule="evenodd" d="M20.4648 36.8254L20.4453 36.8285L20.3299 36.8839L20.2974 36.8903L20.2747 36.8839L20.1593 36.8269C20.142 36.8227 20.129 36.8259 20.1203 36.8364L20.1138 36.8523L20.0862 37.5299L20.0943 37.5616L20.1105 37.5822L20.2795 37.6994L20.3039 37.7057L20.3234 37.6994L20.4924 37.5822L20.5119 37.5569L20.5184 37.5299L20.4908 36.8539C20.4865 36.837 20.4778 36.8275 20.4648 36.8254ZM20.8938 36.6464L20.871 36.6496L20.572 36.7969L20.5558 36.8127L20.5509 36.8301L20.5802 37.5109L20.5883 37.5299L20.6013 37.5426L20.9279 37.6883C20.9485 37.6935 20.9642 37.6893 20.975 37.6756L20.9815 37.6534L20.9263 36.6813C20.9209 36.6612 20.91 36.6496 20.8938 36.6464ZM19.7319 36.6496C19.7248 36.6454 19.7162 36.644 19.708 36.6458C19.6999 36.6475 19.6927 36.6523 19.688 36.6591L19.6783 36.6813L19.623 37.6534C19.6241 37.6724 19.6333 37.6851 19.6507 37.6914L19.675 37.6883L20.0017 37.541L20.0179 37.5284L20.0228 37.5109L20.052 36.8301L20.0472 36.8111L20.0309 36.7953L19.7319 36.6496Z" fill="#212121"/>
<path fill-rule="evenodd" clip-rule="evenodd" d="M32.0986 7.37675C32.2391 7.22018 32.3466 7.03818 32.415 6.84113C32.4833 6.64408 32.5111 6.43585 32.4969 6.22832C32.4826 6.0208 32.4266 5.81804 32.3319 5.63163C32.2372 5.44521 32.1058 5.27879 31.9451 5.14187C31.7844 5.00496 31.5976 4.90022 31.3953 4.83363C31.1931 4.76705 30.9794 4.73994 30.7664 4.75383C30.5534 4.76772 30.3453 4.82236 30.154 4.91461C29.9627 5.00686 29.7919 5.13493 29.6514 5.2915L21.3476 14.5382L14.3 5.38333C14.1486 5.18669 13.9524 5.02708 13.7267 4.91716C13.5011 4.80723 13.2523 4.75 13 4.75H6.5C6.19822 4.75 5.9024 4.83188 5.64569 4.98647C5.38898 5.14106 5.18152 5.36224 5.04656 5.62525C4.9116 5.88825 4.85447 6.18267 4.88157 6.47553C4.90867 6.76838 5.01893 7.0481 5.2 7.28333L15.6601 20.8715L6.90138 30.6248C6.76085 30.7814 6.65336 30.9634 6.58502 31.1605C6.51669 31.3575 6.48886 31.5657 6.50312 31.7733C6.51738 31.9808 6.57345 32.1835 6.66813 32.37C6.76281 32.5564 6.89425 32.7228 7.05494 32.8597C7.21563 32.9966 7.40242 33.1014 7.60465 33.168C7.80689 33.2345 8.0206 33.2616 8.23359 33.2478C8.44657 33.2339 8.65467 33.1792 8.84599 33.087C9.03731 32.9947 9.2081 32.8667 9.34863 32.7101L17.6524 23.4618L24.7 32.6167C24.8514 32.8133 25.0476 32.9729 25.2733 33.0828C25.4989 33.1928 25.7477 33.25 26 33.25H32.5C32.8018 33.25 33.0976 33.1681 33.3543 33.0135C33.611 32.8589 33.8185 32.6378 33.9534 32.3748C34.0884 32.1118 34.1455 31.8173 34.1184 31.5245C34.0913 31.2316 33.9811 30.9519 33.8 30.7167L23.3399 17.1285L32.0986 7.37675ZM26.8125 30.0833L9.75 7.91667H12.1875L29.25 30.0833H26.8125Z" fill="#DBB8FF"/>
</svg>
