<svg width="44" height="44" viewBox="0 0 44 44" fill="none" xmlns="http://www.w3.org/2000/svg">
<g clip-path="url(#clip0_121_938)">
<path d="M43.7108 12.7866C43.7108 8.91945 40.8663 5.80852 37.3514 5.80852C32.5905 5.58594 27.735 5.5 22.773 5.5H21.2261C16.2761 5.5 11.412 5.58594 6.65111 5.80937C3.14486 5.80937 0.300327 8.9375 0.300327 12.8047C0.0854835 15.8632 -0.00561022 18.9226 -0.00045397 21.982C-0.00904772 25.0413 0.0883481 28.1036 0.291734 31.1687C0.291734 35.0359 3.13627 38.1726 6.64252 38.1726C11.6441 38.4046 16.7745 38.5077 21.991 38.4991C27.216 38.5163 32.3321 38.4075 37.3394 38.1726C40.8542 38.1726 43.6988 35.0359 43.6988 31.1687C43.905 28.1007 43.9995 25.0413 43.991 21.9734C44.0104 18.914 43.917 15.8517 43.7108 12.7866ZM17.7886 30.4124V13.5257L30.2495 21.9648L17.7886 30.4124Z" fill="#DBB8FF"/>
</g>
<defs>
<clipPath id="clip0_121_938">
<rect width="44" height="44" fill="white"/>
</clipPath>
</defs>
</svg>
