<svg width="101" height="170" viewBox="0 0 101 170" fill="none" xmlns="http://www.w3.org/2000/svg">
<g clip-path="url(#clip0_121_353)">
<path opacity="0.4" d="M50.5 170.005C78.3904 170.005 101 167.458 101 164.315C101 161.173 78.3904 158.625 50.5 158.625C22.6096 158.625 0 161.173 0 164.315C0 167.458 22.6096 170.005 50.5 170.005Z" fill="#8A8A8A" fill-opacity="0.8"/>
<path d="M27.8208 98.0129C28.1042 97.384 28.3828 96.7502 28.6613 96.1163C29.5801 94.0199 30.3033 91.7966 31.1585 89.6611C32.0772 87.3599 33.0301 85.044 33.4699 82.616C33.6214 81.7823 33.7094 80.9242 33.5432 80.0905C33.3331 79.052 32.7418 78.1256 32.0821 77.2773C30.6161 75.3905 28.4317 72.9624 25.9394 72.6309C24.7128 72.4651 23.4814 72.3481 22.2499 72.2214C20.7741 72.0702 20.0508 71.7094 18.7998 72.6163C17.6319 73.4646 16.6985 74.6006 15.985 75.8195C14.9393 77.5991 14.3235 79.5785 13.7469 81.5434C10.5314 92.6011 8.40074 103.917 6.5682 115.253C6.20658 117.491 5.86939 119.733 5.57618 121.981C5.44913 122.951 5.32207 124.204 6.05509 125.009C6.76367 125.784 8.17595 125.75 9.16308 125.93C11.2302 126.315 13.312 126.486 15.384 126.788C16.1952 126.905 16.503 126.998 17.0699 126.306C17.6026 125.657 17.8518 124.804 18.0912 124.029C19.6501 118.89 21.5755 113.854 23.496 108.827C24.273 106.789 25.0549 104.751 25.8319 102.713C26.4427 101.119 27.1269 99.5731 27.8159 98.0178L27.8208 98.0129Z" fill="#46B9F2"/>
<path d="M11.7863 161.887C13.6335 159.327 12.8076 155.412 12.1381 152.199L12.1919 152.75C12.1919 152.75 12.1919 152.741 12.1919 152.736C12.0795 152.082 11.9671 151.434 11.8547 150.781C11.8449 150.717 11.8302 150.654 11.8205 150.59C11.3513 148.006 10.8871 145.417 10.418 142.833L17.6895 142.136C17.8166 146.232 17.9338 150.322 18.0902 154.418C18.1733 156.636 17.9974 158.908 18.7157 160.99C18.9698 161.716 19.1458 162.643 18.4763 163.14C18.3248 163.252 18.1489 163.311 17.968 163.359C16.5704 163.74 15.0995 163.618 13.653 163.491C13.0519 163.437 12.3482 163.457 11.7765 163.199C11.6836 163.155 11.5859 163.101 11.5175 163.008C11.3953 162.843 11.4002 162.594 11.4686 162.404C11.537 162.209 11.6641 162.058 11.7814 161.897L11.7863 161.887Z" fill="#F7CFC9"/>
<path d="M5.35552 164.325C5.35552 164.325 5.38484 164.364 5.3995 164.378L19.3268 164.437C19.3415 164.334 19.3513 164.237 19.361 164.135C19.3806 163.905 19.3855 163.681 19.3806 163.452C19.361 162.589 19.1558 161.745 18.7209 160.975C18.628 160.809 18.5058 160.634 18.3153 160.595C18.1051 160.551 17.9097 160.683 17.724 160.79C17.0349 161.195 16.0234 161.409 15.2561 161.121C14.7528 160.931 14.3228 160.595 13.9758 160.2C13.8243 160.029 13.6777 159.844 13.4773 159.722C13.2623 159.586 13.0082 159.571 12.7639 159.625C12.0748 159.781 11.4591 160.361 10.8434 160.697C10.1397 161.082 9.40177 161.419 8.64432 161.697C8.00415 161.931 7.34932 162.126 6.73848 162.423C6.35731 162.608 5.72203 162.96 5.40927 163.398C5.20403 163.681 5.13561 163.998 5.35552 164.325Z" fill="white"/>
<path d="M5.35552 164.325C5.35552 164.325 5.38484 164.364 5.3995 164.378L19.3268 164.437C19.3415 164.335 19.3513 164.237 19.361 164.135C19.3806 163.905 19.3855 163.681 19.3806 163.452L5.40927 163.394C5.20403 163.676 5.13561 163.993 5.35552 164.32V164.325Z" fill="#034D9A"/>
<path d="M8.51222 162.218C8.57574 162.067 8.78099 162.018 8.9227 161.96C9.72414 161.638 10.5011 161.253 11.2439 160.819C11.6642 160.57 12.0747 160.307 12.4705 160.024C12.534 159.98 12.622 159.971 12.6953 159.995C12.7393 160.01 12.8175 160.068 12.7539 160.117C12.0014 160.653 11.2097 161.131 10.379 161.541C9.97336 161.74 9.55799 161.926 9.13772 162.096C9.05465 162.13 8.91782 162.155 8.85429 162.228C8.78099 162.311 8.85429 162.438 8.90316 162.516C8.98135 162.647 9.42116 163.12 9.30876 163.281C9.13284 163.539 8.8494 163.042 8.80054 162.94C8.75655 162.847 8.70769 162.755 8.65393 162.667C8.57574 162.54 8.4438 162.379 8.51222 162.218Z" fill="#034D9A"/>
<path d="M16.7318 163.223C16.9272 162.287 17.3964 161.37 18.2613 160.868C18.3249 160.834 18.4324 160.834 18.491 160.868C18.5497 160.902 18.5497 160.956 18.491 160.99C17.6798 161.458 17.24 162.35 17.0543 163.223C17.0299 163.345 16.7025 163.33 16.7269 163.223H16.7318Z" fill="#034D9A"/>
<path d="M11.3423 160.107C11.3814 160.098 11.4254 160.093 11.4694 160.098C11.5036 160.102 11.5427 160.112 11.5671 160.137C11.7381 160.317 11.9141 160.497 12.0851 160.678C12.134 160.731 12.0851 160.78 12.0265 160.8C11.9874 160.809 11.9434 160.814 11.8994 160.809C11.8652 160.805 11.8261 160.795 11.8017 160.77C11.6306 160.59 11.4547 160.41 11.2837 160.229C11.2348 160.176 11.2837 160.127 11.3423 160.112V160.107Z" fill="#2D2C2C"/>
<path d="M10.6141 160.536C10.6825 160.517 10.7852 160.517 10.8389 160.57C11.0051 160.726 11.1614 160.897 11.3031 161.078C11.3227 161.097 11.3325 161.117 11.3178 161.146C11.3032 161.17 11.2689 161.19 11.2445 161.199C11.2054 161.209 11.1614 161.214 11.1175 161.209C11.0832 161.204 11.0393 161.195 11.0197 161.17C10.878 160.99 10.7216 160.824 10.5555 160.663C10.5017 160.614 10.5604 160.561 10.6141 160.546V160.536Z" fill="#2D2C2C"/>
<path d="M9.74338 160.98C9.75804 160.955 9.79224 160.936 9.81668 160.926C9.85577 160.916 9.89975 160.912 9.94374 160.916C9.97306 160.921 10.0219 160.931 10.0415 160.955C10.1636 161.111 10.2907 161.268 10.4129 161.428C10.4275 161.448 10.4422 161.467 10.4275 161.497C10.4129 161.521 10.3787 161.541 10.3542 161.55C10.3151 161.56 10.2711 161.565 10.2272 161.56C10.1978 161.555 10.149 161.545 10.1294 161.521C10.0073 161.365 9.88021 161.209 9.75804 161.048C9.74338 161.029 9.72872 161.009 9.74338 160.98Z" fill="#2D2C2C"/>
<path d="M8.89358 161.278C8.962 161.258 9.05973 161.258 9.11837 161.312C9.30407 161.477 9.46045 161.672 9.58751 161.882C9.60217 161.906 9.58751 161.931 9.57285 161.95C9.54841 161.975 9.50443 161.984 9.47511 161.989C9.40669 161.999 9.31385 161.989 9.27475 161.926C9.24543 161.877 9.21122 161.828 9.1819 161.78C9.16724 161.755 9.1477 161.731 9.12815 161.711C9.12815 161.711 9.12326 161.707 9.11837 161.702L9.1086 161.687C9.09883 161.677 9.08905 161.663 9.07928 161.653C9.00598 161.56 8.9229 161.477 8.83494 161.399C8.78119 161.351 8.84472 161.292 8.89358 161.278Z" fill="#2D2C2C"/>
<path d="M21.5994 157.87H10.9511C10.8289 157.592 10.7409 157.26 10.6579 156.88C10.2083 154.915 9.74403 152.955 9.39218 150.971C8.11184 143.809 7.1296 136.647 6.10826 129.426C5.70755 126.598 4.4321 120.879 7.51566 119.256C9.10386 118.417 10.7898 117.71 12.5784 117.627C14.1666 117.554 16.0773 118.003 17.2404 119.226C18.9116 120.982 18.4865 123.171 18.1786 125.399C17.7877 128.241 18.1542 131.128 18.5207 133.975C19.5469 141.942 20.5731 149.903 21.5994 157.87Z" fill="#46B9F2"/>
<path d="M33.6012 95.624C34.388 92.84 35.4973 90.1195 35.6976 87.2088C35.8784 84.6101 35.3018 81.9627 34.0557 79.6712C33.3715 78.4133 33.3178 77.058 32.6629 75.8488C32.1352 74.8786 31.28 74.1326 30.3808 73.4842C28.387 72.041 25.538 70.281 23.0555 70.6954C21.8338 70.9002 20.6219 71.1537 19.4051 71.3975C17.9488 71.69 17.1474 71.5486 16.2434 72.826C15.3979 74.0205 14.8653 75.4393 14.5672 76.8629C14.0932 79.13 14.4694 81.3484 14.2398 83.6058C14.0003 85.9265 13.1891 88.0523 13.3113 90.4364C13.409 92.3427 13.9466 94.2003 14.4304 96.0481C16.7125 104.702 17.983 113.585 19.4931 122.41C19.8693 124.604 20.2603 126.808 20.9933 128.914C21.2572 129.675 23.2314 128.948 23.8961 128.87C26.3394 128.592 28.7633 128.168 31.1578 127.598C31.6172 127.49 32.5359 127.427 32.4968 126.754C32.1498 121.498 32.0765 116.223 32.2769 110.962C32.3746 108.33 32.5408 105.702 32.7753 103.079C32.9806 100.792 32.9073 98.1446 33.5083 95.9555C33.5377 95.8434 33.5719 95.7312 33.6012 95.6191V95.624Z" fill="#46B9F2"/>
<path d="M28.6896 161.887C30.5368 159.327 29.7109 155.412 29.0414 152.199L29.0952 152.75C29.0952 152.75 29.0952 152.741 29.0952 152.736C28.9828 152.082 28.8704 151.434 28.758 150.781C28.7482 150.717 28.7336 150.654 28.7238 150.59C28.2547 148.006 27.7904 145.417 27.3213 142.833L34.5928 142.136C34.7199 146.232 34.8372 150.322 34.9935 154.418C35.0766 156.636 34.9007 158.908 35.619 160.99C35.8732 161.716 36.0491 162.643 35.3796 163.14C35.2281 163.252 35.0522 163.311 34.8714 163.359C33.4737 163.74 32.0028 163.618 30.5563 163.491C29.9553 163.437 29.2516 163.457 28.6798 163.199C28.587 163.155 28.4892 163.101 28.4208 163.008C28.2986 162.843 28.3035 162.594 28.3719 162.404C28.4404 162.209 28.5674 162.058 28.6847 161.897L28.6896 161.887Z" fill="#F7CFC9"/>
<path d="M22.2637 164.325C22.2637 164.325 22.293 164.364 22.3077 164.378L36.235 164.437C36.2497 164.334 36.2595 164.237 36.2692 164.135C36.2888 163.905 36.2937 163.681 36.2888 163.452C36.2692 162.589 36.064 161.745 35.6291 160.975C35.5362 160.809 35.4141 160.634 35.2235 160.595C35.0133 160.551 34.8179 160.683 34.6322 160.79C33.9431 161.195 32.9316 161.409 32.1643 161.121C31.661 160.931 31.231 160.595 30.884 160.2C30.7325 160.029 30.5859 159.844 30.3856 159.722C30.1705 159.586 29.9164 159.571 29.6721 159.625C28.983 159.781 28.3673 160.361 27.7516 160.697C27.0479 161.082 26.31 161.419 25.5525 161.697C24.9124 161.931 24.2575 162.126 23.6467 162.423C23.2655 162.608 22.6302 162.96 22.3175 163.398C22.1122 163.681 22.0438 163.998 22.2637 164.325Z" fill="white"/>
<path d="M22.2637 164.325C22.2637 164.325 22.293 164.364 22.3077 164.378L36.235 164.437C36.2497 164.335 36.2595 164.237 36.2692 164.135C36.2888 163.905 36.2937 163.681 36.2888 163.452L22.3175 163.394C22.1122 163.676 22.0438 163.993 22.2637 164.32V164.325Z" fill="#034D9A"/>
<path d="M25.4155 162.218C25.4791 162.067 25.6843 162.018 25.826 161.96C26.6275 161.638 27.4045 161.253 28.1472 160.819C28.5675 160.57 28.978 160.307 29.3738 160.024C29.4374 159.98 29.5253 159.971 29.5986 159.995C29.6426 160.01 29.7208 160.068 29.6573 160.117C28.9047 160.653 28.113 161.131 27.2823 161.541C26.8767 161.74 26.4613 161.926 26.041 162.096C25.958 162.13 25.8211 162.155 25.7576 162.228C25.6843 162.311 25.7576 162.438 25.8065 162.516C25.8847 162.647 26.3245 163.12 26.2121 163.281C26.0362 163.539 25.7527 163.042 25.7039 162.94C25.6599 162.847 25.611 162.755 25.5573 162.667C25.4791 162.54 25.3471 162.379 25.4155 162.218Z" fill="#034D9A"/>
<path d="M33.64 163.223C33.8354 162.287 34.3046 161.37 35.1695 160.868C35.2331 160.834 35.3406 160.834 35.3992 160.868C35.4579 160.902 35.4579 160.956 35.3992 160.99C34.588 161.458 34.1482 162.35 33.9625 163.223C33.9381 163.345 33.6107 163.33 33.6351 163.223H33.64Z" fill="#034D9A"/>
<path d="M28.2447 160.107C28.2838 160.098 28.3277 160.093 28.3717 160.098C28.4059 160.102 28.445 160.112 28.4695 160.137C28.6405 160.317 28.8164 160.497 28.9875 160.678C29.0363 160.731 28.9875 160.78 28.9288 160.8C28.8897 160.809 28.8457 160.814 28.8018 160.809C28.7675 160.805 28.7285 160.795 28.704 160.77C28.533 160.59 28.3571 160.41 28.186 160.229C28.1372 160.176 28.186 160.127 28.2447 160.112V160.107Z" fill="#2D2C2C"/>
<path d="M27.5165 160.536C27.5849 160.517 27.6875 160.517 27.7413 160.57C27.9074 160.726 28.0638 160.897 28.2055 161.078C28.2202 161.097 28.2348 161.117 28.2202 161.146C28.2055 161.17 28.1713 161.19 28.1469 161.199C28.1078 161.209 28.0638 161.214 28.0198 161.209C27.9905 161.204 27.9416 161.195 27.9221 161.17C27.7803 160.99 27.624 160.824 27.4578 160.663C27.4041 160.614 27.4627 160.561 27.5165 160.546V160.536Z" fill="#2D2C2C"/>
<path d="M26.6467 160.98C26.6614 160.955 26.6956 160.936 26.72 160.926C26.7591 160.916 26.8031 160.912 26.8471 160.916C26.8813 160.921 26.9252 160.931 26.9448 160.955C27.067 161.111 27.194 161.268 27.3162 161.428C27.3308 161.448 27.3455 161.467 27.3308 161.497C27.3162 161.521 27.282 161.541 27.2575 161.55C27.2185 161.56 27.1745 161.565 27.1305 161.56C27.1012 161.555 27.0523 161.545 27.0328 161.521C26.9106 161.365 26.7835 161.209 26.6614 161.048C26.6467 161.029 26.632 161.009 26.6467 160.98Z" fill="#2D2C2C"/>
<path d="M25.7969 161.278C25.8653 161.258 25.9631 161.258 26.0217 161.312C26.2074 161.477 26.3638 161.672 26.4908 161.882C26.5055 161.906 26.4908 161.931 26.4762 161.95C26.4517 161.975 26.4078 161.984 26.3784 161.989C26.31 161.999 26.2172 161.989 26.1781 161.926C26.1488 161.877 26.1145 161.828 26.0852 161.78C26.0706 161.755 26.051 161.731 26.0315 161.711C26.0315 161.711 26.0266 161.707 26.0217 161.702L26.0119 161.687C26.0021 161.677 25.9924 161.663 25.9826 161.653C25.9093 161.56 25.8262 161.477 25.7383 161.399C25.6845 161.351 25.748 161.292 25.7969 161.278Z" fill="#2D2C2C"/>
<path d="M28.0787 20.0139C28.0787 20.0139 28.0298 20.0578 28.0005 20.0822C25.948 21.7935 23.6464 23.2074 21.1932 24.2751C21.1346 24.2995 21.0612 24.3288 21.0026 24.2995C20.9489 24.2751 20.9195 24.2166 20.9 24.163C20.4504 23.144 20.2647 22.0519 19.82 21.0134C19.6441 20.599 19.4437 20.1992 19.2092 19.814C19.0235 19.5117 18.8182 19.2143 18.6276 18.9121C18.354 18.4781 18.1243 18.0247 18.0559 17.5225C17.9679 16.84 18.2025 16.1769 18.481 15.5674C18.7254 15.0311 18.916 14.4656 19.2043 13.9439C19.7907 12.8761 20.7289 12.0229 21.7405 11.3647C22.2341 11.0429 23.3189 10.5944 23.9005 10.9357C24.4869 11.277 24.7703 12.4325 24.9951 13.0224C25.7917 15.1481 26.813 17.191 28.0249 19.1071C28.2839 19.5166 28.4305 19.6873 28.0738 20.0139H28.0787Z" fill="#F7CFC9"/>
<path d="M21.0902 19.6577C20.7677 20.1647 20.2595 20.5938 19.8197 21.013C19.6438 20.5986 19.4434 20.1988 19.2088 19.8137C19.0231 19.5114 18.8179 19.214 18.6273 18.9117C18.598 18.7996 18.5638 18.6923 18.5345 18.5802C18.3879 18.039 18.2461 17.4783 18.1875 16.9176C18.2706 16.8737 18.3537 16.825 18.4416 16.7811C19.2968 16.3082 20.411 15.4793 21.3835 16.1863C22.4488 16.9664 21.6376 18.7947 21.0902 19.6528V19.6577Z" fill="#DBA6A1"/>
<path d="M13.8636 6.41162C13.8538 6.44088 13.844 6.47013 13.8342 6.49451C13.7561 6.71391 13.7903 7.03082 13.7463 7.27459C13.6974 7.57687 13.6632 7.87916 13.673 8.18144C13.6925 8.73725 14.0884 9.2248 14.103 9.78061C14.1128 10.0293 13.9808 10.2535 13.888 10.4827C13.7756 10.7557 13.6534 11.019 13.5264 11.2823C13.2576 11.8186 12.9497 12.3305 12.6028 12.8181C12.3633 13.1594 12.0897 13.525 12.1288 13.9394C12.1923 14.6074 12.9106 14.7634 13.4384 14.9389C14.0053 15.1291 14.1665 15.8653 14.2545 16.3675C14.3767 17.0549 14.3816 17.7424 14.5331 18.4298C14.7187 19.2781 15.1244 19.99 16.0773 20.0436C17.4211 20.1167 18.7748 19.7706 19.9574 19.1368C20.881 18.6395 21.702 17.9764 22.4105 17.2158C23.0214 16.5576 23.9499 16.0164 24.3164 15.1778C24.6976 14.3051 25.5283 14.3977 26.2858 13.9297C26.5887 13.7395 26.794 13.4714 27.0628 13.2471C27.3022 13.0472 27.4146 12.8473 27.5172 12.545C27.7616 11.8186 28.0352 10.9995 28.0939 10.234C28.1574 9.4247 28.1721 8.62511 28.0792 7.81578C27.9815 6.98206 27.6003 6.14834 27.1556 5.44139C26.7109 4.72469 25.6896 4.33465 25.0299 3.79346C24.4777 3.34004 23.9792 2.82323 23.3537 2.47219C22.1955 1.81887 21.1351 1.23381 19.7815 1.38007C18.8774 1.47759 18.0613 1.73599 17.2012 1.99439C16.4047 2.22842 15.7841 2.84273 15.2856 3.49118C14.621 4.3639 14.2252 5.39264 13.8587 6.42137L13.8636 6.41162Z" fill="#F7CFC9"/>
<path d="M25.2451 1.67241C26.066 2.07708 26.7844 2.61827 27.405 3.29597C28.6463 4.64649 29.4282 6.0994 29.1105 7.9716C28.9541 8.90283 28.6121 9.79017 28.2993 10.6824C27.7618 12.2279 27.3024 13.7979 26.931 15.3922C26.887 15.5774 26.8382 15.7822 26.6916 15.909C26.3202 16.2307 25.6458 15.6116 25.3379 15.4507C24.6538 15.0899 24.0429 14.5779 23.5738 13.9685C23.2904 13.6028 22.9434 13.2372 22.6893 12.852C22.3619 12.3498 22.3374 11.7891 21.8048 11.4235C21.536 11.2382 21.2184 11.1407 20.9349 10.9798C20.3094 10.6239 20.3485 10.0486 20.2361 9.41476C19.9234 7.64494 19.596 5.66547 17.5533 5.08041C17.0402 4.93414 16.5026 4.92439 15.9748 4.88051C15.4471 4.83663 14.9046 4.7635 14.4404 4.50022C13.8491 4.16869 13.4826 3.53487 13.6585 2.86692C14.0495 1.37988 15.1441 0.331644 16.6834 0.0829918C17.9198 -0.116905 19.1806 0.141498 20.4218 0.331644C21.2526 0.458408 22.0931 0.546167 22.9092 0.760691C23.7204 0.975214 24.4925 1.30675 25.2451 1.68217V1.67241Z" fill="#492A1B"/>
<path d="M19.1116 13.1346C19.1116 13.1346 19.1116 13.1005 19.1067 13.0858C18.9405 11.7987 20.0987 9.47307 21.6967 10.2288C22.2587 10.4921 22.6203 11.0918 22.6838 11.7109C22.806 12.9103 21.7895 14.8459 20.4115 14.8264C19.5709 14.8167 19.2093 13.8415 19.1116 13.1395V13.1346Z" fill="#F7CFC9"/>
<path d="M14.3034 8.71754C14.3132 8.66391 14.3327 8.61028 14.3571 8.5664C14.5624 8.19586 15.1683 8.28362 15.5153 8.31775C15.9698 8.36163 16.3998 8.5664 16.7859 8.80042C17.1621 9.0247 17.5482 9.3221 17.6362 9.75115C17.6411 9.77553 17.6459 9.79991 17.6313 9.82428C17.5531 9.94617 16.9862 9.58051 16.8934 9.53663C16.7614 9.47325 16.6197 9.42937 16.4829 9.39036C15.9649 9.23922 15.4225 9.13683 14.8849 9.18559C14.7676 9.19534 14.6455 9.21484 14.5331 9.17584C14.3376 9.10758 14.2692 8.90768 14.2985 8.72241L14.3034 8.71754Z" fill="#492A1B"/>
<path d="M15.9062 10.7457C15.8965 10.5897 15.8574 10.4434 15.7694 10.3654C15.7059 10.3069 15.6179 10.2776 15.5299 10.2679C15.2758 10.2386 15.1097 10.3849 15.0559 10.5945C15.0266 10.7262 15.0315 10.8676 15.051 11.0041C15.0706 11.1455 15.1097 11.2917 15.1732 11.4234C15.2074 11.4916 15.2563 11.5501 15.3345 11.5843C15.6521 11.7403 15.8378 11.5404 15.8769 11.2722C15.8965 11.1504 15.9209 10.9407 15.9062 10.7457Z" fill="#492A1B"/>
<path d="M15.1631 16.6451C15.1924 16.5866 15.295 16.5963 15.3439 16.6061C15.9792 16.728 16.6047 16.3477 16.8734 15.7772C16.9174 15.6846 17.2009 15.7334 17.1471 15.8455C16.8099 16.5573 16.0134 16.8937 15.2559 16.7475C15.2119 16.7377 15.1386 16.6987 15.1631 16.6402V16.6451Z" fill="#DB6357"/>
<path d="M15.1684 1.35531C15.2123 1.26267 15.4958 1.28705 15.4469 1.39919C15.1488 2.04763 15.3931 2.79846 15.7694 3.35915C16.1213 3.88571 16.6344 4.29525 17.2355 4.49027C17.4163 4.54878 17.2013 4.66092 17.0889 4.62679C16.4438 4.41714 15.8965 3.99297 15.5153 3.43716C15.1048 2.84234 14.8507 2.04276 15.1684 1.35043V1.35531Z" fill="#966F4E"/>
<path d="M16.7571 2.04258C16.9379 2.88117 17.7051 3.38823 18.3795 3.82215C18.5212 3.90991 18.2622 3.98792 18.1742 3.93429C17.451 3.47111 16.6593 2.93968 16.4687 2.04258C16.4492 1.94507 16.7326 1.93044 16.7571 2.04258Z" fill="#966F4E"/>
<path d="M26.5794 3.53943C28.0259 4.54867 28.8175 6.36236 28.539 8.1078C28.5194 8.21994 28.236 8.21019 28.2507 8.1078C28.5194 6.42574 27.7766 4.63642 26.3741 3.65157C26.2373 3.55406 26.4963 3.48092 26.5794 3.53943Z" fill="#966F4E"/>
<path d="M26.1049 5.09018C26.6082 5.89465 26.6424 6.94288 26.2026 7.78635C26.1537 7.87899 25.8703 7.84973 25.924 7.74247C26.3492 6.92338 26.3101 5.91415 25.8214 5.12919C25.7628 5.03655 26.0462 4.99755 26.1 5.08531L26.1049 5.09018Z" fill="#966F4E"/>
<path d="M26.7945 157.87C26.0664 151.293 24.0481 144.769 22.6261 138.3C21.9859 135.399 21.3311 132.503 20.6616 129.606C20.0605 127.027 19.2151 124.39 20.1925 121.781C20.3342 121.396 20.4857 121.006 20.7496 120.689C21.2382 120.119 22.025 119.914 22.7678 119.782C24.8349 119.422 26.8483 119.485 28.9251 119.695C30.1322 119.816 31.8035 119.972 32.0331 121.469C33.1669 129.021 34.3006 136.569 35.4343 144.121C35.8693 147.027 36.3091 149.933 36.612 152.853C36.7635 154.311 36.9101 155.778 36.9492 157.241C36.9541 157.499 36.9492 157.699 36.915 157.865C33.548 157.865 30.1615 157.777 26.7994 157.87C26.7994 157.87 26.7994 157.87 26.7994 157.865L26.7945 157.87Z" fill="#46B9F2"/>
<path d="M11.9291 82.543C11.1521 81.3582 11.4111 79.1886 11.3427 77.6869C11.2059 74.7421 11.328 71.7924 11.4453 68.8476C11.631 64.2451 11.6652 59.589 12.1343 55.0157C12.5937 50.54 13.1997 46.0838 13.9425 41.647C14.6168 37.6393 15.3547 33.6122 17.1677 29.9262C17.9056 28.4295 18.9074 27.0497 19.6013 25.5431C20.1145 24.4266 20.222 23.5491 21.2922 22.7738C22.5725 21.8426 23.848 20.9114 25.1283 19.985C25.9297 19.4049 26.8045 18.7954 27.7916 18.7954C30.02 18.7954 31.3296 21.2185 32.3852 22.808C34.9019 26.6158 35.459 31.5742 36.0551 36.0109C37.0472 43.4315 37.0911 50.8423 37.311 58.297C37.4576 63.231 37.443 68.165 37.2719 73.0991C37.184 75.5661 37.0569 78.0282 36.8908 80.4904C36.7833 82.0993 37.0569 84.8247 34.5989 83.6351C33.5824 83.1427 32.5611 82.6454 31.5446 82.1529C29.9173 81.3631 28.2754 80.5684 26.5161 80.154C23.7698 79.5055 21.6098 80.1978 19.2544 81.5532C17.5978 82.504 15.7945 83.2889 13.8887 83.3962C12.9016 83.4547 12.3005 83.1134 11.9291 82.5479V82.543Z" fill="#D6D6D6"/>
<path d="M14.8414 31.4228C14.8707 31.4374 14.905 31.4569 14.9343 31.4764C15.1786 30.9255 15.3741 30.3599 15.7259 29.8675C18.3404 24.7677 22.5332 20.5991 27.7474 18.1224C28.4804 17.7713 30.4987 19.156 31.0411 19.5753C31.8474 20.2042 32.0673 20.7941 32.5267 21.6522C33.8461 24.1193 35.1851 26.362 36.1087 29.0387C38.8942 37.1174 40.0719 45.6301 40.8831 54.1038C41.2936 58.3747 41.6063 62.6554 41.9973 66.9313C42.1927 69.0668 42.398 71.1974 42.6472 73.328C42.8964 75.4781 42.8427 76.0485 40.5801 76.1607C39.2802 76.2241 37.9706 76.2143 36.6658 76.1753C35.9621 76.1558 35.1656 76.0827 34.716 75.5415C34.3983 75.1612 34.3299 74.6346 34.2713 74.1422C32.5853 59.1402 31.2952 44.0943 30.4058 29.024C30.3814 28.6047 30.3179 28.1172 29.9562 27.9075C29.6239 27.7125 29.2037 27.849 28.8421 27.9953C25.7976 29.2191 22.8753 30.7353 20.1143 32.5052C19.0538 33.1829 17.2311 34.0263 16.6349 35.1575C15.9947 36.3666 16.1706 38.0681 16.2635 39.3699C16.6837 45.3132 16.8694 51.3198 15.9312 57.2095C15.9116 57.3362 15.8872 57.4728 15.7943 57.5654C15.6917 57.6629 15.5353 57.6824 15.3936 57.6922C13.3558 57.8287 11.3229 57.9652 9.28516 58.1017C10.4042 51.4515 11.5917 44.8159 12.8427 38.19C12.8672 38.0633 12.8867 37.9268 12.833 37.8097C12.7792 37.6927 12.657 37.6245 12.5544 37.5513C11.968 37.1369 11.6992 36.3861 11.6992 35.6694C11.6992 34.9527 11.9191 34.2604 12.1537 33.5827C12.3736 32.944 12.6179 32.2906 13.0968 31.8177C13.5562 31.374 14.2892 31.1498 14.8512 31.4326L14.8414 31.4228Z" fill="#F7A4A4"/>
<path d="M23.8328 91.7333C23.8328 91.7333 23.7889 91.7284 23.7693 91.7235C23.7107 91.7089 23.6569 91.6845 23.6178 91.6406C23.569 91.587 23.5494 91.5139 23.5445 91.4407C23.5299 91.275 23.5836 91.1092 23.6423 90.9532C23.9061 90.2414 24.3264 89.5734 24.4241 88.8177C24.0723 89.198 23.8964 89.7489 23.6471 90.1926C23.3637 90.6948 23.0265 91.1726 22.5867 91.5529C22.2984 91.8015 21.971 92.0014 21.6436 92.1916C21.3699 92.3476 20.9545 92.0599 20.9301 91.7625C20.9301 91.8113 20.4903 92.0209 20.4219 92.0697C20.373 92.1038 20.3241 92.1331 20.2655 92.1526C20.1482 92.1916 20.0212 92.1672 19.899 92.1477C19.684 92.1038 19.5618 91.9527 19.5276 91.7381C19.5129 91.6601 19.5423 91.1531 19.64 91.1336C19.4934 91.1628 19.3272 91.1775 19.1757 91.1482C19.0194 91.119 18.863 91.0263 18.8092 90.8752C18.7506 90.7289 18.7995 90.5631 18.8532 90.4169C19.2442 89.3784 19.8306 88.4569 19.9772 87.3258C20.0212 86.9894 20.0847 85.5804 19.4641 86.3214C19.293 86.5262 18.2326 88.4277 17.9589 87.3892C17.9052 87.1893 17.9785 86.9845 18.0518 86.7944C18.6089 85.3219 19.2833 83.7472 20.4072 82.6112C21.0376 81.9773 21.7804 81.4654 22.5134 80.9632C22.616 80.895 22.7235 80.8218 22.8457 80.8121C23.007 80.7975 23.1585 80.8901 23.2904 80.9778C23.9208 81.3874 24.5512 81.7921 25.1816 82.2016C25.3966 82.343 25.6165 82.4844 25.7729 82.6892C25.9879 82.9768 26.0221 83.3327 25.939 83.6691C25.8071 84.225 25.9586 84.8149 25.9733 85.3805C25.9879 86.024 25.9488 86.6676 25.856 87.3063C25.6752 88.5837 25.2891 89.8269 24.7271 90.9873C24.6294 91.1823 24.5268 91.3822 24.3655 91.5334C24.2238 91.6699 24.0234 91.7576 23.828 91.7333H23.8328Z" fill="#F7CFC9"/>
<path d="M19.6013 90.9824C20.5542 89.8416 21.2286 88.491 21.5609 87.043C21.5804 86.9699 21.7759 87.0186 21.7612 87.0918C21.4289 88.5496 20.7448 89.9147 19.787 91.0605C19.7381 91.119 19.5475 91.0458 19.6013 90.9824Z" fill="#DB6357"/>
<path d="M20.8229 91.6063C21.7661 90.5483 22.4454 89.2758 22.7972 87.9009C22.8167 87.8278 23.0171 87.8765 22.9976 87.9497C22.6408 89.3295 21.9567 90.6166 21.0086 91.6843C20.9598 91.738 20.7692 91.6697 20.8229 91.6063Z" fill="#DB6357"/>
<path d="M33.9097 56.5463C34.242 56.9802 34.5548 57.4385 34.848 57.9261C35.1608 58.4478 35.4491 59.0182 35.625 59.5984C35.84 60.3151 35.2243 61.8216 35.0435 62.5286C34.7356 63.7377 34.3593 64.9274 33.9293 66.0975C33.0936 68.3987 32.0772 70.6317 31.0656 72.8598C30.2349 74.6882 29.3162 76.4872 28.3535 78.2522C27.4641 79.8757 26.6675 81.587 25.656 83.1521C25.4507 83.4739 25.2064 83.8103 24.8448 83.9224C24.6102 83.9956 24.3561 83.9614 24.1117 83.9273C23.6524 83.8639 23.1833 83.8005 22.7581 83.6153C22.333 83.43 21.942 83.1131 21.7807 82.6743C21.4142 81.6748 22.3867 80.1926 22.6555 79.2322C23.0953 77.6769 23.54 76.1216 23.9993 74.5711C24.576 72.6112 25.2455 70.6756 25.5973 68.6571C25.8026 67.4773 25.9247 66.2827 26.1349 65.1029C26.3743 63.7621 26.7359 62.4457 27.0927 61.1293C27.4494 59.8227 27.8013 58.5209 28.158 57.2143C28.3437 56.5317 28.6418 55.6346 29.4237 55.4981C30.2007 55.3616 31.5396 55.9759 32.2776 56.2148C32.7613 56.3708 33.3575 56.4196 33.9049 56.5414L33.9097 56.5463Z" fill="#F7CFC9"/>
<path d="M32.3564 30.9549C33.8371 35.9572 34.5212 41.1692 34.79 46.3714C34.9806 50.028 35.6598 53.6652 35.953 57.3218C36.0361 58.3505 36.0948 59.4524 35.5914 60.3593C35.0294 61.3783 33.8811 61.9243 32.762 62.2656C31.9752 62.5045 31.1445 62.6751 30.3333 62.5289C29.742 62.4216 28.9063 62.5923 28.4518 62.1632C28.0707 61.8073 27.8703 61.3002 27.7237 60.8029C27.0249 58.4383 26.7073 55.8787 26.2479 53.4458C25.7397 50.7642 25.2363 48.0827 24.6841 45.4109C24.0782 42.4612 23.4673 39.5115 22.8027 36.5764C22.143 33.6609 20.1541 27.8687 23.4185 25.7089C24.3078 25.1238 25.5393 24.6411 26.6144 24.6362C28.1537 24.6314 29.7077 25.5528 30.5874 26.7766C31.4768 28.0101 31.9263 29.4972 32.3564 30.9549Z" fill="#F7CFC9"/>
<path d="M31.5104 28.3512C32.6783 31.2326 33.2647 34.3286 33.8414 37.3904C34.286 39.7404 34.7259 42.0904 35.1706 44.4356C35.3953 45.6398 35.625 46.8441 35.8498 48.0483C36.0648 49.1843 36.5291 50.5056 36.5291 51.6611C36.5291 52.2803 36.5731 52.2852 35.9378 52.4753C35.5224 52.5972 35.0435 52.6313 34.6183 52.685C31.1732 53.1286 27.7378 53.4455 24.2584 53.504C24.1802 53.504 24.102 53.504 24.0385 53.4602C23.9701 53.4114 23.9456 53.3237 23.9212 53.2408C23.4325 51.3247 23.0416 49.4232 22.7679 47.4584C21.9665 41.8369 21.165 36.1959 21.165 30.5208C21.165 29.4043 21.209 28.2488 21.6928 27.2444C22.3134 25.9573 23.5987 25.0895 24.9523 24.6214C27.5472 23.7243 29.8 24.675 30.9679 27.1225C31.1585 27.5272 31.3393 27.9368 31.5055 28.3512H31.5104Z" fill="#D6D6D6"/>
<path d="M18.3695 83.5132C18.1105 83.5571 17.9395 83.7911 17.8027 84.0105C16.6787 85.8193 16.1021 87.9646 16.1705 90.0952C16.1949 90.9094 16.322 91.748 16.7471 92.4403C17.0599 92.9522 17.5144 93.3618 17.9884 93.7274C19.5521 94.9268 21.6486 95.7605 23.6424 95.4387C25.2306 95.1803 27.586 93.7859 27.0729 91.8796C26.6184 90.1927 24.2288 89.0128 22.9533 88.0474C22.0151 87.3356 21.1501 86.5848 20.3878 85.6828C19.9773 85.1953 19.1075 83.3864 18.3695 83.5083V83.5132Z" fill="#46B9F2"/>
<path d="M17.2603 33.1247C16.7423 32.6956 16.4637 31.9448 16.4979 31.3061C16.5615 30.0287 17.4655 28.9659 18.3207 28.0102C19.6646 26.5086 21.0133 25.0118 22.3572 23.5101C23.2515 22.5106 24.1555 21.5112 25.1817 20.6482C25.6607 20.2484 26.1835 19.873 26.7895 19.7218C27.5958 19.5219 28.4559 19.7462 29.2036 20.1119C31.7887 21.3698 33.2645 24.0952 34.5204 26.6744C35.0775 27.8201 35.6297 29.0146 35.6492 30.2822C35.6492 30.4968 35.6199 30.7454 35.444 30.8673C35.229 31.0136 34.9358 30.8868 34.711 30.7552C32.7905 29.6582 30.7918 28.5319 28.5829 28.3467C27.244 28.2345 25.602 29.4046 24.4438 29.9995C22.9631 30.76 21.5167 31.5938 20.1142 32.4957C19.4153 32.9443 18.5455 33.7097 17.6952 33.3782C17.5388 33.3197 17.3971 33.2319 17.2652 33.1247H17.2603Z" fill="#F7A4A4"/>
<path d="M21.5454 36.0497C22.0096 40.6132 22.6352 45.1621 23.417 49.6866C23.6418 50.9689 23.8764 52.2462 24.1207 53.5236C24.1403 53.6211 23.852 53.6358 23.8324 53.5236C22.9577 49.0186 22.2442 44.4844 21.6871 39.9306C21.5307 38.6386 21.3841 37.3466 21.2522 36.0497C21.2424 35.9473 21.5307 35.9376 21.5405 36.0497H21.5454Z" fill="#A0A0A0"/>
<path d="M15.2327 31.6321C15.2522 32.1781 15.4965 32.6998 15.6871 33.2069C15.8826 33.7383 16.0781 34.2698 16.2735 34.8012C16.3175 34.9133 16.0292 34.9377 15.995 34.8451C15.7946 34.2941 15.5894 33.7432 15.389 33.1923C15.2033 32.6901 14.9688 32.1781 14.9492 31.6321C14.9492 31.5248 15.2327 31.52 15.2375 31.6321H15.2327Z" fill="#EA6868"/>
<path d="M13.1212 37.6734C13.9129 37.6734 14.7485 37.6734 15.4522 37.2736C15.5108 37.2395 15.5988 37.2395 15.6575 37.2736C15.7112 37.3029 15.7112 37.3565 15.6575 37.3858C14.8902 37.8246 13.9813 37.8343 13.1212 37.8295C13.0772 37.8295 12.9746 37.8148 12.9746 37.7514C12.9746 37.6881 13.0772 37.6734 13.1212 37.6734Z" fill="#EA6868"/>
<path d="M13.219 32.7488C13.5171 32.739 13.5904 33.0121 13.6833 33.2412C13.825 33.5971 13.9618 33.9579 14.1035 34.3138C14.1475 34.426 13.8641 34.4504 13.825 34.3577C13.7126 34.0652 13.6002 33.7775 13.4829 33.485C13.4292 33.3534 13.3803 33.2168 13.3265 33.0852C13.3119 33.0559 13.2972 32.9779 13.2679 32.9584C13.1751 32.8951 13.1408 32.9926 13.1115 33.0559C13.0236 33.2656 13.0382 33.5581 13.0431 33.7824C13.048 34.0067 13.0773 34.2261 13.1213 34.4455C13.3168 35.3572 13.8592 36.1958 14.6264 36.7272C14.7633 36.8199 14.5043 36.8979 14.4212 36.8394C13.4927 36.2007 12.8818 35.1671 12.7694 34.0506C12.7304 33.6654 12.6375 32.7683 13.219 32.7537V32.7488Z" fill="#EA6868"/>
<path d="M12.9939 53.2844C14.1716 50.2957 14.8411 47.1169 14.973 43.9039C15.0121 43.002 15.0024 42.1 14.9584 41.198C14.9535 41.0907 15.2418 41.0859 15.2467 41.198C15.4128 44.411 15.0414 47.6386 14.1521 50.7297C13.8979 51.6073 13.6047 52.4702 13.2675 53.3235C13.2284 53.421 12.945 53.3917 12.989 53.2796L12.9939 53.2844Z" fill="#EA6868"/>
<path d="M15.9267 31.6908C17.5442 28.7313 20.5691 26.9517 23.5891 25.6841C24.547 25.2843 25.5194 24.9235 26.4919 24.5627C26.5994 24.5237 26.8144 24.6359 26.6385 24.6992C23.467 25.8743 20.1635 27.1175 17.7788 29.6089C17.1679 30.2476 16.6353 30.9594 16.2101 31.7346C16.1612 31.8273 15.8778 31.7931 15.9316 31.6908H15.9267Z" fill="#EA6868"/>
<path d="M21.6875 23.8705C23.2952 22.4029 25.0251 21.0719 26.8528 19.892C27.3757 19.5556 27.9035 19.2339 28.441 18.9218C28.529 18.8731 28.788 18.9511 28.6463 19.034C26.242 20.4284 23.9891 22.0812 21.9367 23.9534C21.8634 24.0216 21.5849 23.9631 21.6875 23.8754V23.8705Z" fill="#EA6868"/>
<path d="M14.5338 99.5783C14.0794 97.6281 13.62 95.6827 13.1558 93.7325C13.1313 93.635 13.4197 93.6204 13.4441 93.7325C14.27 97.199 15.0812 100.666 15.8728 104.142C16.6107 107.389 17.3291 110.641 18.0328 113.898C18.1061 113.903 18.1745 113.937 18.1549 114C18.1354 114.063 18.1158 114.132 18.0963 114.195C18.1256 114.322 18.1501 114.449 18.1794 114.575C18.5996 116.531 19.015 118.49 19.4255 120.45C19.4451 120.548 19.1616 120.563 19.1372 120.45C18.7414 118.554 18.3406 116.662 17.9301 114.766C17.2167 117.242 16.4983 119.719 15.7849 122.196C15.3939 123.556 15.0176 124.887 15.003 126.316C14.9932 127.72 15.1447 129.134 15.2473 130.533C15.4623 133.371 15.7164 136.198 16.0048 139.031C16.2931 141.844 16.6205 144.657 16.9821 147.461C17.3437 150.264 17.7445 153.068 18.1843 155.861C18.238 156.212 18.2967 156.559 18.3504 156.91C18.3651 157.012 18.0816 157.022 18.0621 156.91C17.6125 154.101 17.202 151.288 16.8257 148.47C16.4495 145.652 16.1123 142.829 15.8142 140.001C15.5161 137.174 15.2522 134.341 15.0274 131.508C14.915 130.099 14.7928 128.695 14.7293 127.286C14.6951 126.574 14.6902 125.857 14.7782 125.15C14.8613 124.492 15.0225 123.844 15.1984 123.205C15.9608 120.46 16.7769 117.725 17.5685 114.99L17.7933 114.205C17.4903 112.806 17.1874 111.411 16.8795 110.012C16.1123 106.531 15.3255 103.059 14.5192 99.588L14.5338 99.5783Z" fill="#3782CC"/>
<path d="M32.585 93.0838C32.6779 92.762 32.8098 92.45 32.9173 92.1331C33.0248 91.8016 33.1275 91.4652 33.2203 91.1287C33.5966 89.7782 33.8458 88.3936 33.968 86.9992C34.0364 86.2142 34.0608 85.4244 34.0462 84.6345C34.0462 84.5273 34.3345 84.5224 34.3345 84.6345C34.3589 85.9412 34.2661 87.2478 34.0706 88.5398C34.0902 88.5545 34.1048 88.5691 34.1048 88.5886C34.1488 88.8519 34.354 89.042 34.5397 89.2127C34.7352 89.3979 34.9502 89.5881 35.0382 89.8465C35.0773 89.9635 34.7939 89.9879 34.7596 89.8904C34.6277 89.5052 34.2368 89.2955 33.9973 88.9835C33.7774 90.2316 33.4598 91.4603 33.0346 92.6499C32.8978 93.0399 32.7414 93.3812 32.9076 93.7908C33.0542 94.1516 33.2301 94.4977 33.3914 94.8536C33.4402 94.9609 33.1568 94.9902 33.1128 94.8975C32.9711 94.5806 32.8245 94.2686 32.6828 93.9517C32.5508 93.6591 32.502 93.4007 32.5948 93.0838H32.585Z" fill="#3782CC"/>
<path d="M18.551 81.9288C19.069 83.25 19.7776 84.4982 20.6621 85.6147C21.2631 86.3753 21.9424 87.0822 22.6852 87.7063C23.5355 88.423 24.4738 89.0227 25.4462 89.5687C26.0033 89.8808 26.5653 90.1782 27.1322 90.4756C27.7284 90.7876 28.3245 91.0997 28.9452 91.3483C29.1846 90.3927 29.4143 89.4371 29.6049 88.4669C30.0447 86.2144 30.3477 83.9375 30.5187 81.6509C30.6116 81.6948 30.7044 81.7386 30.7973 81.7825C30.6751 83.4012 30.4845 85.015 30.2255 86.6239C29.8297 89.0861 29.1944 91.48 28.6226 93.9031C28.0411 96.3506 27.8456 98.7932 27.831 101.304C27.8163 103.854 27.8359 106.399 27.8896 108.949C27.9971 114.083 28.2806 119.212 28.9061 124.312C29.5316 129.407 30.4747 134.467 31.325 139.528L33.8906 154.784C33.9981 155.418 34.1056 156.051 34.2082 156.69C34.2278 156.793 33.9395 156.802 33.9199 156.69L31.3592 141.44C30.5089 136.369 29.5804 131.308 28.8719 126.218C28.1633 121.128 27.8114 115.999 27.6551 110.87C27.5769 108.315 27.5475 105.76 27.5427 103.206C27.5427 100.704 27.5133 98.1887 27.9531 95.7217C28.2073 94.3029 28.5689 92.9085 28.9158 91.5092C28.8865 91.5092 28.8572 91.5092 28.8328 91.4994C27.7381 91.0704 26.6924 90.4805 25.6612 89.9149C24.6741 89.3737 23.7065 88.7984 22.822 88.1012C21.2631 86.8774 19.9681 85.327 19.025 83.5816C18.7611 83.0892 18.5217 82.5821 18.3115 82.0604L18.5607 81.9337L18.551 81.9288Z" fill="#3782CC"/>
<path d="M11.4941 90.022C12.1001 89.749 12.7061 89.4808 13.312 89.2078C13.527 89.1103 13.7274 89.003 13.8496 88.7885C13.9913 88.5398 14.0402 88.2327 14.1183 87.9596C14.2943 87.3356 14.4653 86.7115 14.6315 86.0826C14.8905 85.1123 15.1397 84.1421 15.3791 83.167C15.2765 83.1914 15.1739 83.2157 15.0762 83.2352C14.9784 83.6448 14.8758 84.0543 14.7683 84.4639C14.4604 85.6633 14.1379 86.8626 13.8007 88.0571C13.7274 88.3107 13.6834 88.6422 13.5026 88.847C13.3316 89.0469 13.0188 89.1346 12.7843 89.237C12.3738 89.4223 11.9584 89.6076 11.5479 89.7928L11.4941 90.022Z" fill="#3782CC"/>
<path d="M90.9722 157.377H89.726C89.0223 157.377 88.5825 158.138 88.9344 158.747L89.555 159.825L90.1756 160.902C90.5275 161.512 91.412 161.512 91.7638 160.902L92.3844 159.825L93.0051 158.747C93.3569 158.138 92.9171 157.377 92.2134 157.377H90.9673H90.9722Z" fill="#2D2C2C"/>
<path d="M88.1426 162.257C88.1426 163.462 89.1199 164.442 90.3319 164.442C91.5389 164.442 92.5211 163.467 92.5211 162.257C92.5211 161.053 91.5438 160.073 90.3319 160.073C89.1248 160.073 88.1426 161.053 88.1426 162.257Z" fill="#2D2C2C"/>
<path d="M89.4277 162.257C89.4277 163.462 90.4051 164.442 91.617 164.442C92.824 164.442 93.8063 163.467 93.8063 162.257C93.8063 161.048 92.824 160.073 91.617 160.073C90.41 160.073 89.4277 161.053 89.4277 162.257Z" fill="#494848"/>
<path d="M67.7115 157.377H66.4654C65.7617 157.377 65.317 158.138 65.6737 158.747L66.2943 159.825L66.915 160.902C67.2668 161.512 68.1513 161.512 68.5032 160.902L69.1238 159.825L69.7444 158.747C70.0963 158.138 69.6565 157.377 68.9528 157.377H67.7066H67.7115Z" fill="#2D2C2C"/>
<path d="M64.8818 162.257C64.8818 163.462 65.8592 164.442 67.0711 164.442C68.2781 164.442 69.2604 163.467 69.2604 162.257C69.2604 161.053 68.283 160.073 67.0711 160.073C65.8641 160.073 64.8818 161.053 64.8818 162.257Z" fill="#2D2C2C"/>
<path d="M66.167 162.257C66.167 163.462 67.1444 164.442 68.3563 164.442C69.5633 164.442 70.5456 163.467 70.5456 162.257C70.5456 161.053 69.5633 160.073 68.3563 160.073C67.1492 160.073 66.167 161.053 66.167 162.257Z" fill="#494848"/>
<path d="M56.4419 157.377H55.1958C54.4921 157.377 54.0523 158.138 54.4041 158.747L55.0247 159.825L55.6454 160.902C55.9972 161.512 56.8817 161.512 57.2336 160.902L57.8542 159.825L58.4748 158.747C58.8266 158.138 58.3868 157.377 57.6831 157.377H56.437H56.4419Z" fill="#2D2C2C"/>
<path d="M53.6123 162.257C53.6123 163.462 54.5897 164.442 55.8016 164.442C57.0086 164.442 57.9909 163.467 57.9909 162.257C57.9909 161.053 57.0135 160.073 55.8016 160.073C54.5945 160.073 53.6123 161.053 53.6123 162.257Z" fill="#2D2C2C"/>
<path d="M54.8975 162.257C54.8975 163.462 55.8748 164.442 57.0867 164.442C58.2987 164.442 59.276 163.467 59.276 162.257C59.276 161.053 58.2938 160.073 57.0867 160.073C55.8797 160.073 54.8975 161.053 54.8975 162.257Z" fill="#494848"/>
<path d="M58.6995 53.5089C58.6213 52.6069 58.9291 51.7049 59.5449 51.0321C60.1606 50.3642 61.0353 49.979 61.9443 49.979H78.2417C79.9472 49.979 81.3448 51.2564 81.4865 52.9531L84.9659 93.654H62.13L58.6995 53.504V53.5089ZM80.0498 53.0798C79.9667 52.134 79.1946 51.4222 78.2417 51.4222H61.9443C61.4312 51.4222 60.9572 51.6318 60.6102 52.0072C60.2632 52.3826 60.0971 52.8751 60.1411 53.3821L63.4592 92.2157H83.3973L80.0547 53.075L80.0498 53.0798Z" fill="#2D2C2C"/>
<path d="M80.2062 54.8935L80.0498 53.0847C79.9667 52.1389 79.1946 51.427 78.2417 51.427H61.9443C61.4312 51.427 60.9572 51.6367 60.6102 52.0121C60.2632 52.3875 60.0971 52.8799 60.1411 53.387L60.2681 54.8887H58.8167L58.6995 53.5089C58.6213 52.6069 58.9291 51.7049 59.5449 51.0321C60.1606 50.3642 61.0353 49.979 61.9443 49.979H78.2417C79.9472 49.979 81.3448 51.2564 81.4865 52.9531L81.6527 54.8838H80.2013L80.2062 54.8935Z" fill="#9E7969"/>
<path d="M66.9873 90.1534V89.5342C66.9873 88.4714 67.8523 87.6084 68.9176 87.6084H81.0954C82.1608 87.6084 83.0257 88.4714 83.0257 89.5342V90.1534C83.0257 91.2163 82.1608 92.0793 81.0954 92.0793H68.9176C67.8523 92.0793 66.9873 91.2163 66.9873 90.1534ZM68.9176 89.0467C68.6488 89.0467 68.4338 89.2612 68.4338 89.5294V90.1485C68.4338 90.4167 68.6488 90.6312 68.9176 90.6312H81.0954C81.3642 90.6312 81.5792 90.4167 81.5792 90.1485V89.5294C81.5792 89.2612 81.3642 89.0467 81.0954 89.0467H68.9176Z" fill="#7C5F96"/>
<path d="M55.1881 89.8228H93.0509C94.8004 89.8228 96.2273 91.2415 96.2273 92.9918V155.272C96.2273 157.022 94.8053 158.441 93.0509 158.441H55.1881C53.4338 158.441 52.0117 157.022 52.0117 155.272V92.9918C52.0117 91.2415 53.4338 89.8228 55.1881 89.8228Z" fill="#DABBF9"/>
<path d="M96.3181 140.747V155.505C96.3181 157.255 94.8961 158.674 93.1417 158.674H55.2789C53.5246 158.674 52.1025 157.255 52.1025 155.505V140.747H96.3133H96.3181Z" fill="#DABBF9"/>
<path d="M52.1074 93.2252V155.505C52.1074 157.256 52.4837 158.674 52.9479 158.674H62.9707C63.435 158.674 63.8113 157.256 63.8113 155.505V93.2252C63.8113 91.4749 63.435 90.0562 62.9707 90.0562H52.9479C52.4837 90.0562 52.1074 91.4749 52.1074 93.2252Z" fill="#DABBF9"/>
<path d="M57.5957 90.0562V142.005C57.5957 142.317 58.3189 142.317 58.3189 142.005V90.0562H57.5957Z" fill="#2D2C2C"/>
<path d="M53.4073 133.161H55.7188V115.575H53.4073V133.161Z" fill="#2D2C2C"/>
<path d="M96.3179 106.779H59.6182V108.076H96.3179V106.779Z" fill="#7C5F96"/>
<path d="M96.3179 115.569H59.6182V116.866H96.3179V115.569Z" fill="#7C5F96"/>
<path d="M96.3179 124.365H59.6182V125.662H96.3179V124.365Z" fill="#7C5F96"/>
<path d="M96.3179 133.156H59.6182V134.453H96.3179V133.156Z" fill="#7C5F96"/>
<path d="M67.0326 63.2062L68.4546 62.9527C68.2982 62.0848 68.6257 61.1439 69.2854 60.5588C69.9451 59.9737 70.9224 59.7592 71.7679 60.0176C72.6133 60.276 73.3072 60.9927 73.5271 61.8459L74.9247 61.4852C74.5778 60.1541 73.5027 59.0376 72.1881 58.6378C70.8736 58.238 69.3538 58.5696 68.3276 59.4813C67.2965 60.393 66.7931 61.8557 67.0374 63.2111L67.0326 63.2062Z" fill="#FAAC40"/>
<path d="M84.6832 90.1044C82.4255 90.1044 80.1629 90.1044 77.9052 90.1044H67.8043C66.4066 90.1044 65.0041 90.1044 63.6065 90.1044C63.3084 90.1044 63.0445 90.1629 62.7513 90.1336C62.3066 90.0897 61.8521 89.9484 61.4123 89.8606C61.1289 89.8021 60.8064 89.7143 60.6842 89.4511C60.1858 88.3736 60.5327 86.7013 60.5718 85.5116C60.6207 84.0538 60.6842 82.5961 60.7868 81.1431C60.9872 78.2373 61.3342 75.3364 61.9597 72.4891C62.9566 67.9646 64.8331 62.7722 69.7834 61.3144C75.975 59.4909 80.4659 64.6834 82.4793 69.9099C83.7694 73.2594 84.2434 76.8624 84.5806 80.4313C84.8249 83.0007 85.0008 85.575 85.1816 88.1493C85.2061 88.5198 85.2305 88.8952 85.1279 89.2512C85.0302 89.5876 84.8787 89.8655 84.6783 90.0946L84.6832 90.1044Z" fill="#FAAC40"/>
<path d="M71.5669 84.3711C71.4985 84.5563 71.391 84.7172 71.215 84.805C70.9902 84.922 70.6921 84.883 70.5065 84.7075C69.8858 84.1126 70.4429 80.2366 71.1222 80.6608C71.8747 81.1239 71.7233 83.0937 71.6744 83.8104C71.6597 83.9956 71.6304 84.1955 71.5669 84.3759V84.3711Z" fill="#2D2C2C"/>
<path d="M63.48 81.4892C63.4115 81.6745 63.304 81.8354 63.1281 81.9231C62.9033 82.0402 62.6052 82.0011 62.4195 81.8256C61.7989 81.2308 62.356 77.3548 63.0353 77.7789C63.7878 78.2421 63.6363 80.2118 63.5875 80.9285C63.5728 81.1138 63.5435 81.3137 63.48 81.4941V81.4892Z" fill="#2D2C2C"/>
<path d="M65.4981 82.0454C65.5421 79.593 65.5958 77.1406 65.7033 74.6931C65.806 72.3479 66.0112 69.9882 66.6514 67.721C67.184 65.8245 68.093 63.9376 69.906 62.9723C71.6164 62.0606 73.659 62.0459 75.5453 62.2019C75.7897 62.2215 76.034 62.2458 76.2783 62.2702C76.4689 62.2897 76.3419 62.436 76.2002 62.4213C74.3236 62.2263 72.2712 62.1191 70.5022 62.8943C69.603 63.2892 68.8455 63.9133 68.2787 64.7128C67.7069 65.5173 67.3258 66.4437 67.0374 67.3798C66.3631 69.5835 66.1285 71.8945 66.0112 74.186C65.889 76.5799 65.8451 78.9738 65.7962 81.3677C65.7473 83.7859 65.7229 86.2042 65.718 88.6273C65.718 88.9247 65.718 89.227 65.718 89.5244C65.718 89.6317 65.4297 89.6366 65.4297 89.5244C65.4297 87.033 65.4541 84.5416 65.4981 82.0502V82.0454Z" fill="#FC5B35"/>
<path d="M83.1729 81.1235H69.4459V78.6029C69.4459 78.325 69.6756 78.0958 69.9541 78.0958H82.6597C82.9383 78.0958 83.168 78.325 83.168 78.6029V81.1235H83.1729Z" fill="#FC5B35"/>
<path d="M63.6943 70.0953C64.1439 67.8867 64.9453 65.7317 66.382 63.9668C67.1248 63.0551 68.0289 62.2798 69.0649 61.724C69.1528 61.6753 69.4167 61.7582 69.2701 61.8362C67.4034 62.8308 66.0399 64.5421 65.1506 66.4289C64.1097 68.6473 63.7334 71.0997 63.4988 73.5179C63.3571 74.9855 63.2545 76.453 63.1372 77.9206C63.1274 78.0327 62.8391 78.0278 62.8489 77.9206C63.059 75.3121 63.1714 72.6647 63.6943 70.0904V70.0953Z" fill="#2D2C2C"/>
</g>
<defs>
<clipPath id="clip0_121_353">
<rect width="101" height="170" fill="white"/>
</clipPath>
</defs>
</svg>
