<svg width="204" height="315" viewBox="0 0 204 315" fill="none" xmlns="http://www.w3.org/2000/svg">
<g clip-path="url(#clip0_121_462)">
<path opacity="0.4" d="M102 315C158.333 315 204 310.081 204 304.012C204 297.943 158.333 293.024 102 293.024C45.667 293.024 0 297.943 0 304.012C0 310.081 45.667 315 102 315Z" fill="#FFC91D"/>
<path d="M87.6977 199.225L76.1494 194.442L101.368 139.069L112.916 143.852L87.6977 199.216V199.225ZM80.1765 192.729L86.5922 195.384L109.235 145.246L102.819 142.59L80.1765 192.729Z" fill="#494848"/>
<path d="M99.8389 202.765L59.5383 291.395C58.3243 294.069 55.3533 295.481 52.4712 294.944C52.027 294.86 51.5828 294.737 51.1584 294.558L24.6763 283.599C24.4197 283.495 24.1729 283.373 23.9459 283.241C21.2316 281.697 20.0768 278.439 21.3698 275.595L61.6703 186.966C63.0719 183.887 66.8226 182.465 70.0601 183.802L96.5422 194.762C99.7698 196.099 101.26 199.677 99.8586 202.765H99.8389Z" fill="#CF8FF9"/>
<path d="M81.3622 188.486L35.9873 288.271L39.8357 289.864L85.2107 190.078L81.3622 188.486Z" fill="#2D2C2C"/>
<path d="M71.2441 184.301L25.8702 284.088L24.6561 283.589C21.4285 282.252 19.9381 278.674 21.3397 275.586L61.6403 186.957C63.0419 183.878 66.7926 182.456 70.03 183.793L71.2441 184.292V184.301Z" fill="#CF8FF9"/>
<path d="M79.9398 228.266L75.6474 226.491C75.5023 226.431 75.3338 226.494 75.2709 226.633L73.6886 230.114C73.6257 230.253 73.6923 230.413 73.8374 230.473L78.1298 232.249C78.2748 232.309 78.4434 232.245 78.5063 232.107L80.0886 228.625C80.1515 228.487 80.0849 228.326 79.9398 228.266Z" fill="#2D2C2C"/>
<path d="M69.2253 251.833L64.9335 250.056C64.7885 249.996 64.6199 250.06 64.5569 250.198L62.9734 253.679C62.9104 253.817 62.977 253.978 63.122 254.038L67.4138 255.815C67.5588 255.875 67.7274 255.812 67.7903 255.673L69.3739 252.192C69.4368 252.054 69.3703 251.893 69.2253 251.833Z" fill="#2D2C2C"/>
<path d="M81.2863 230.294L77.9271 228.903C77.7921 228.847 77.6351 228.906 77.5765 229.035L66.3697 253.669C66.3111 253.797 66.373 253.947 66.5081 254.003L69.8673 255.394C70.0023 255.45 70.1592 255.39 70.2178 255.262L81.4247 230.628C81.4832 230.499 81.4213 230.35 81.2863 230.294Z" fill="#2D2C2C"/>
<path d="M28.2492 288.043C27.3708 289.973 25.7421 291.15 24.6169 290.689C23.4917 290.218 23.2844 288.278 24.1629 286.358C25.0414 284.427 26.6601 283.251 27.7952 283.712C28.9204 284.183 29.1277 286.122 28.2492 288.043Z" fill="#2D2C2C"/>
<path d="M29.7987 293.071C28.9202 295.001 26.5711 295.886 24.5575 295.048C22.5341 294.21 21.6063 291.969 22.4848 290.048C23.3632 288.118 25.7124 287.233 27.7259 288.071C29.7493 288.909 30.6771 291.15 29.7987 293.071Z" fill="#2D2C2C"/>
<path d="M31.793 285.03L31.5462 285.586C31.3883 285.934 31.0132 286.122 30.6381 286.066L24.6666 283.599C24.4099 283.495 24.1632 283.373 23.9362 283.241C23.7289 283.006 23.6697 282.676 23.798 282.384L24.0447 281.829C24.2323 281.414 24.7357 281.226 25.1798 281.405L31.3488 283.957C31.7831 284.135 31.9904 284.616 31.793 285.03Z" fill="#2D2C2C"/>
<path d="M49.7473 296.941C48.8688 298.871 47.2501 300.048 46.115 299.586C44.9898 299.116 44.7825 297.176 45.6609 295.255C46.5394 293.325 48.168 292.148 49.2932 292.609C50.4184 293.08 50.6257 295.02 49.7473 296.941Z" fill="#2D2C2C"/>
<path d="M51.2967 301.969C50.4183 303.899 48.0691 304.784 46.0556 303.946C44.0322 303.108 43.1044 300.867 43.9828 298.946C44.8613 297.016 47.2104 296.131 49.224 296.969C51.2375 297.807 52.1752 300.048 51.2967 301.969Z" fill="#2D2C2C"/>
<path d="M53.2909 293.928L53.0441 294.483C52.9356 294.719 52.7184 294.888 52.4716 294.945C52.0275 294.86 51.5833 294.738 51.1589 294.559L45.5525 292.242C45.2564 292.016 45.1479 291.621 45.3058 291.282L45.5525 290.736C45.7401 290.322 46.2435 290.133 46.6778 290.312L52.8467 292.864C53.281 293.043 53.4784 293.532 53.2909 293.937V293.928Z" fill="#2D2C2C"/>
<path d="M49.8351 222.181C49.5883 222.736 49.1244 223.131 48.5816 223.339C48.0387 223.536 47.4169 223.546 46.8444 223.31L45.4033 222.717L47.2096 218.734L48.6507 219.328C49.8055 219.808 50.3286 221.079 49.8351 222.181Z" fill="#8359D3"/>
<path d="M44.4064 234.119C44.1596 234.675 43.6957 235.07 43.1529 235.278C42.61 235.475 41.9882 235.485 41.4157 235.249L39.9746 234.656L41.7809 230.673L43.2219 231.267C44.3768 231.747 44.8999 233.018 44.4064 234.119Z" fill="#8359D3"/>
<path d="M38.9777 246.058C38.7309 246.614 38.267 247.009 37.7241 247.217C37.1813 247.414 36.5594 247.424 35.987 247.188L34.5459 246.595L36.3522 242.612L37.7932 243.205C38.9481 243.686 39.4712 244.957 38.9777 246.058Z" fill="#8359D3"/>
<path d="M33.549 257.997C33.3022 258.553 32.8383 258.948 32.2954 259.155C31.7526 259.353 31.1307 259.363 30.5583 259.127L29.1172 258.534L30.9235 254.551L32.3645 255.144C33.5194 255.625 34.0425 256.896 33.549 257.997Z" fill="#8359D3"/>
<path d="M28.1203 269.927C27.8735 270.483 27.4096 270.878 26.8667 271.085C26.3239 271.283 25.702 271.292 25.1295 271.057L23.6885 270.464L25.4947 266.481L26.9358 267.074C28.0906 267.554 28.6138 268.825 28.1203 269.927Z" fill="#8359D3"/>
<path d="M134.513 28.3413C134.168 28.0777 133.803 27.8235 133.447 27.5881C131.937 26.59 130.111 25.8273 128.226 25.6767C124.564 25.3848 123.192 29.1416 121.84 31.552C120.567 33.8306 119.076 36.0056 117.398 38.0488C116.964 38.5855 116.5 39.1222 116.243 39.7436C116.125 40.0261 116.056 40.3274 116.046 40.6193C116.174 40.6193 116.293 40.6475 116.401 40.7229C117.793 41.6739 119.352 42.3424 121.011 42.8131C121.425 42.9261 121.83 43.0297 122.254 43.1333C123.557 43.1144 124.85 42.992 126.143 42.9261C127.12 42.8791 128.137 42.8131 129.114 42.8979C130.21 42.9826 131.286 43.1898 132.391 43.1521C132.747 43.1427 133.112 43.0956 133.398 42.9167C134.069 42.4836 134.089 41.5044 134.355 40.8641C134.681 40.0826 134.829 39.254 135.036 38.4255C135.184 37.8511 135.333 37.2862 135.5 36.7212C135.629 36.2599 135.767 35.8079 135.905 35.356C136.152 34.5745 136.408 33.793 136.685 33.0115C137.386 31.053 136.083 29.5371 134.513 28.3319V28.3413Z" fill="#FFC0A4"/>
<path d="M136.685 33.0209C136.409 33.8024 136.142 34.5839 135.905 35.3654C135.767 35.8173 135.629 36.2787 135.5 36.7306C135.441 36.7024 135.382 36.6741 135.323 36.6459C133.517 35.742 131.355 34.3391 130.634 32.5124C130.279 31.5991 130.496 30.6952 131.246 29.9985C132.115 29.1887 133.24 28.3696 134.523 28.3413C136.093 29.5465 137.396 31.0624 136.695 33.0209H136.685Z" fill="#E29B7F"/>
<path d="M141.718 7.65509C144.383 11.4967 141.047 16.8636 144.926 19.048C145.903 19.8672 147.414 20.7522 147.483 22.0987C147.433 22.7483 146.851 23.2285 146.328 23.6428C145.528 24.2737 145.272 25.3376 145.183 26.2698C145.064 27.4938 145.015 28.7273 144.926 29.9513C144.867 30.6951 144.808 31.4484 144.512 32.1357C143.92 33.5387 142.715 33.6422 141.353 33.9718C139.379 34.4614 137.07 34.0377 135.135 33.5292C133.121 32.9926 131.157 32.1263 129.598 30.7799C128.699 30.0172 127.604 29.0097 127.11 27.9458C126.498 26.637 125.087 26.7312 123.824 27.1266C117.141 28.7743 114.861 21.9386 114.871 16.9012C115.088 13.1162 115.118 9.10509 118.197 6.29923C118.928 5.50832 119.757 4.78332 120.655 4.16189C121.652 3.46513 122.6 3.20149 123.804 2.94727C126.005 2.49532 128.275 2.28817 130.535 2.20343C131.552 2.16577 132.608 2.52357 133.595 2.74954C134.71 3.01318 135.806 3.30506 136.902 3.61578C138.214 3.9924 139.369 4.41611 140.218 5.48007C140.771 6.17683 141.215 6.93008 141.718 7.65509Z" fill="#FFC0A4"/>
<path d="M136.458 15.9222C136.31 15.9975 136.191 16.054 136.191 16.0823C136.616 14.3215 139.133 13.3517 140.84 13.2952C141.176 13.2858 141.837 13.4836 141.748 13.9355C141.669 14.3498 140.821 14.6323 140.465 14.7358C139.962 14.8771 139.439 14.9241 138.925 15.0277C138.383 15.1407 137.85 15.3102 137.356 15.5362C137.277 15.5738 136.784 15.781 136.468 15.9316L136.458 15.9222Z" fill="#664736"/>
<path d="M140.337 18.0598C140.238 17.6172 139.804 17.2877 139.32 17.4195C138.649 17.5984 138.669 18.6718 138.827 19.1802C138.807 19.7922 139.528 20.0559 140.001 19.7075C140.455 19.3403 140.505 18.587 140.337 18.0598Z" fill="#2D2C2C"/>
<path d="M142.598 28.1152C142.548 27.9928 142.341 28.0022 142.242 28.0117C141.68 28.0493 141.097 27.9552 140.574 27.7574C140.318 27.6539 140.061 27.5315 139.834 27.3714C139.587 27.2019 139.409 26.9948 139.252 26.75C139.143 26.5805 138.57 26.6464 138.689 26.8347C138.867 27.1172 139.064 27.3526 139.35 27.5409C139.636 27.7386 139.952 27.8893 140.278 28.0117C140.949 28.2659 141.68 28.3506 142.4 28.3035C142.499 28.3035 142.647 28.2282 142.607 28.1152H142.598Z" fill="#DB6357"/>
<path d="M143.476 15.941C143.229 15.9316 143.031 16.1105 143.022 16.3364V16.5342C142.893 16.5436 142.785 16.5812 142.686 16.6472C142.637 16.6848 142.597 16.7225 142.568 16.7696C140.86 16.7036 139.162 16.8637 137.465 16.9202C135.767 16.9767 134.069 16.8449 132.371 16.7507C132.233 16.7131 132.006 16.7319 131.927 16.8166C131.76 17.005 131.838 17.2498 132.056 17.3627C132.381 17.5416 132.865 17.4381 133.22 17.4192C134.276 17.3627 135.323 17.3157 136.379 17.278C138.412 17.2121 140.455 17.1838 142.489 17.1933C142.489 17.2592 142.498 17.3251 142.518 17.3816C142.548 17.4569 142.577 17.5134 142.637 17.5699C142.706 17.6358 142.785 17.664 142.874 17.6829C142.903 17.6829 142.943 17.6829 142.982 17.6829L142.755 22.692C142.745 22.9274 142.933 23.1157 143.17 23.1251C143.407 23.1345 143.614 22.9556 143.624 22.7297L143.91 16.3364C143.92 16.101 143.732 15.9127 143.495 15.9033L143.476 15.941Z" fill="#2D2C2C"/>
<path d="M101.309 48.3774C99.4438 50.4676 97.9435 52.8686 96.9663 55.0436C95.9793 57.2186 95.3377 59.5161 94.706 61.8041C93.6104 65.768 92.5148 69.7226 91.4093 73.6866C90.0275 78.6769 88.6456 83.6672 87.5698 88.7234C86.4051 94.2315 85.6253 100.003 87.2046 105.408C87.9054 107.818 89.1096 110.153 91.0047 111.895C94.3704 114.984 99.424 115.765 104.083 115.454C106.56 115.285 109.176 114.776 110.933 113.11C112.946 111.198 113.361 108.27 113.578 105.568C113.845 102.329 114.003 99.09 114.052 95.8416C114.101 92.9604 113.677 89.8721 114.259 87.0662C115.256 82.3396 115.355 77.4528 116.608 72.8109C117.487 69.572 118.326 66.333 119.135 63.0752C120.428 57.9342 122.323 51.6446 118.997 46.8426C117.24 44.3192 114.101 42.6056 110.943 42.8504C107.231 43.1329 103.895 45.4585 101.299 48.3679L101.309 48.3774Z" fill="#919191"/>
<path d="M153.494 154.529C147.907 155.424 142.163 153.531 136.547 154.266C135.224 154.435 133.921 154.755 132.628 155.047C131.789 155.236 130.96 155.424 130.111 155.556C127.239 155.998 124.327 155.838 121.455 155.527C117.329 155.075 113.223 155.339 109.068 155.452C108.85 155.452 108.643 155.462 108.426 155.471C107.36 155.49 106.294 155.518 105.238 155.546C103.678 155.584 102.306 156.234 101.369 154.586C100.994 153.936 100.895 153.183 100.816 152.449C100.569 150.17 100.401 147.873 100.332 145.575C100.322 145.104 100.313 144.634 100.303 144.163C100.303 144.059 100.303 143.956 100.303 143.852C100.293 142.873 100.303 141.894 100.322 140.914C100.322 140.811 100.322 140.707 100.322 140.613C100.5 134.248 101.408 127.874 103.076 121.735C103.491 120.238 103.945 118.75 104.31 117.234C105.001 114.343 105.317 111.396 105.554 108.449C105.771 105.738 107.686 105.37 110.449 105.352C121.86 105.267 133.27 105.182 144.67 105.088C144.611 107.771 145.43 110.389 146.19 112.969C150.187 126.518 152.635 140.481 153.494 154.529Z" fill="#8FC9BE"/>
<path d="M98.9301 249.712C98.7722 249.589 98.6044 249.476 98.4366 249.373C96.9264 248.422 95.0609 248.008 93.2744 248.224C91.6655 248.422 91.2115 249.09 91.0042 250.399C90.7278 252.16 90.1455 253.921 89.7211 255.653C88.8722 259.118 88.0332 262.592 87.1548 266.048C85.8223 271.274 84.3911 276.481 82.6934 281.621C82.1604 283.241 80.4331 285.953 81.9235 287.346C83.4731 288.787 87.1646 290.472 88.6748 288.617C88.7439 288.533 88.8031 288.448 88.8623 288.344C92.6032 282.139 96.0874 275.803 99.4532 269.4C100.282 267.837 101.092 266.265 101.911 264.692C102.661 263.242 104.013 261.472 104.349 259.9C104.882 257.404 102.957 254.354 101.516 252.433C100.766 251.435 99.9369 250.465 98.9202 249.712H98.9301Z" fill="#FFC0A4"/>
<path d="M90.4811 296.065C90.7377 297.647 91.1325 299.201 91.8432 300.707C91.9912 301.018 92.1492 301.338 92.1985 301.677C92.2281 301.884 92.2183 302.044 92.1788 302.167C92.0209 302.76 91.2608 302.458 90.6489 302.317C89.7507 302.11 88.8525 301.686 88.2603 300.98C87.7569 300.378 87.4213 299.558 86.9574 298.899C86.4639 298.193 85.9111 297.515 85.2597 296.941C84.9734 296.687 84.5589 296.272 84.1739 296.169C83.8087 296.065 83.6113 296.206 83.256 295.896C82.9796 295.651 82.6934 295.397 82.417 295.152C81.6669 294.483 80.9167 293.805 80.3048 293.015C80.0383 292.666 79.6533 292.327 79.4362 291.96C78.5577 290.501 78.2123 288.693 78.7551 287.073C79.6336 284.437 83.6903 282.262 86.454 283.062C90.7377 284.296 89.6026 288.024 89.9283 291.226C90.0961 292.854 90.2146 294.465 90.4712 296.056L90.4811 296.065Z" fill="#FFC0A4"/>
<path d="M83.7401 300.528C83.5822 300.359 83.4539 300.161 83.3551 299.926C83.1775 299.511 83.1676 299.059 83.1183 298.626C83.0393 297.92 82.8419 297.233 82.5458 296.583C82.4273 296.319 82.2595 296.037 81.9733 295.952C81.6673 295.858 81.3317 296.028 81.1442 296.282C81.0554 296.395 80.9961 296.517 80.9468 296.64C80.8876 296.8 80.8382 296.969 80.7987 297.139C80.5915 297.977 80.3546 298.73 80.0387 299.502L77.887 298.909C78.1436 298.005 78.341 297.082 78.4693 296.15C78.5878 295.284 78.8543 294.361 78.6569 293.485C78.4792 292.676 77.9758 291.969 77.7488 291.178C77.4823 290.284 77.5711 289.314 77.8376 288.42C78.2423 287.083 78.7852 285.548 80.3348 285.152C81.5982 284.832 82.7827 285.501 83.4242 286.518C83.8881 287.252 84.0856 288.1 84.2632 288.938C84.4902 290.002 84.6778 291.066 84.8949 292.129C85.0923 293.071 85.2108 294.173 85.6845 295.02C86.5926 296.64 88.1126 298.061 89.6623 299.106C90.7875 299.869 93.5117 300.867 92.9787 302.628C92.9392 302.769 92.8603 302.892 92.7616 303.005L83.75 300.519L83.7401 300.528Z" fill="#2D2C2C"/>
<path d="M81.6078 299.935C81.5289 299.747 81.519 299.53 81.519 299.332C81.519 298.89 81.5387 298.447 81.5782 298.005C81.6078 297.675 81.6473 297.336 81.598 297.007C81.5289 296.564 81.3808 296.357 80.9564 296.564C80.8774 296.347 80.8972 296.084 80.9564 295.848C81.0946 295.293 81.8941 295.453 82.2889 295.547C82.8515 295.688 83.3647 295.877 83.7003 296.357C84.5689 297.581 84.4702 299.276 85.092 300.594C85.1513 300.716 85.2302 300.839 85.3092 300.952L81.6276 299.935H81.6078Z" fill="#494848"/>
<path d="M100.54 214.347C100.589 203.321 100.816 192.371 100.54 181.364C100.253 169.689 100.016 158.004 100.293 146.319C100.352 143.965 100.401 141.272 101.576 139.135C102.593 137.289 104.744 136.348 106.353 134.945C108.663 132.93 111.121 131.348 114.18 130.811C118.099 130.124 122.363 131.273 125.294 134.06C126.824 135.519 127.229 137.186 128.374 138.805C129.716 140.717 131.365 142.336 132.095 144.596C132.766 146.677 132.737 148.899 132.697 151.074C132.608 156.554 132.51 162.024 132.421 167.504C132.174 182.268 131.927 197.041 130.911 211.777C130.575 216.616 130.16 221.475 129.075 226.22C129.006 226.503 128.927 226.813 128.7 227.002C128.463 227.199 128.117 227.237 127.801 227.256C124.327 227.51 120.606 227.463 117.24 228.244C114.249 228.941 111.012 229.214 108.229 227.623C105.435 226.022 102.227 224.544 101.161 221.39C100.53 219.526 100.53 217.529 100.54 215.571C100.54 215.157 100.54 214.742 100.54 214.328V214.347Z" fill="#8FC9BE"/>
<path d="M98.6442 283.43L101.615 278.901C102.661 277.3 103.708 275.709 104.705 274.08C106.876 270.549 108.811 266.886 110.755 263.233C112.552 259.853 114.338 256.463 116.312 253.177C117.2 251.708 118.444 250.24 119.036 248.648C119.619 247.085 120.26 245.551 120.941 244.006C124.09 236.813 126.646 229.412 129.213 222.021C129.667 220.712 130.121 219.375 130.2 218C130.387 214.583 128.354 212.643 125.778 210.779C122.649 208.519 120.635 205.506 116.51 204.574C110.38 203.199 105.218 205.544 103.007 211.325C94.6862 233.084 87.1058 255.098 79.5747 277.131C79.4662 277.451 79.3576 277.771 79.249 278.082L98.6442 283.439V283.43Z" fill="#8FC9BE"/>
<path d="M142.301 250.842C142.123 250.757 141.936 250.672 141.748 250.606C140.08 249.957 138.155 249.91 136.448 250.456C134.918 250.945 134.602 251.699 134.671 253.017C134.77 254.796 134.563 256.632 134.503 258.412C134.395 261.971 134.286 265.53 134.138 269.089C133.911 274.466 133.585 279.833 132.993 285.19C132.806 286.885 131.68 289.86 133.427 290.943C135.244 292.063 139.211 293.014 140.307 290.905C140.356 290.811 140.396 290.708 140.435 290.604C142.814 283.815 144.917 276.942 146.891 270.04C147.374 268.345 147.848 266.66 148.322 264.965C148.756 263.402 149.713 261.416 149.713 259.805C149.713 257.254 147.197 254.627 145.39 253.017C144.453 252.179 143.436 251.388 142.281 250.842H142.301Z" fill="#FFC0A4"/>
<path d="M143.643 297.873C144.225 299.379 144.926 300.829 145.943 302.166C146.15 302.449 146.377 302.722 146.485 303.051C146.555 303.249 146.574 303.409 146.574 303.531C146.545 304.143 145.735 303.993 145.104 303.974C144.176 303.936 143.208 303.701 142.488 303.117C141.866 302.618 141.363 301.884 140.78 301.328C140.149 300.726 139.468 300.17 138.717 299.728C138.382 299.539 137.888 299.21 137.494 299.181C137.118 299.153 136.951 299.323 136.536 299.087C136.21 298.899 135.885 298.701 135.559 298.513C134.69 297.995 133.812 297.477 133.052 296.818C132.726 296.526 132.272 296.263 131.986 295.952C130.821 294.69 130.101 292.977 130.298 291.291C130.614 288.542 134.138 285.642 137.01 285.905C141.461 286.31 141.126 290.171 142.113 293.25C142.616 294.813 143.07 296.376 143.653 297.873H143.643Z" fill="#FFC0A4"/>
<path d="M137.958 303.522C137.77 303.381 137.602 303.221 137.454 303.004C137.198 302.637 137.099 302.195 136.951 301.771C136.724 301.093 136.388 300.453 135.964 299.878C135.786 299.643 135.569 299.398 135.263 299.37C134.947 299.332 134.651 299.568 134.513 299.85C134.454 299.973 134.414 300.104 134.394 300.246C134.365 300.415 134.355 300.594 134.355 300.763C134.325 301.62 134.246 302.402 134.098 303.221L131.868 303.042C131.937 302.11 131.937 301.168 131.868 300.236C131.808 299.361 131.868 298.41 131.502 297.59C131.157 296.828 130.525 296.235 130.13 295.5C129.686 294.672 129.568 293.702 129.647 292.77C129.765 291.386 129.982 289.785 131.414 289.098C132.578 288.542 133.891 288.975 134.73 289.851C135.332 290.482 135.707 291.282 136.053 292.063C136.487 293.061 136.901 294.069 137.336 295.067C137.721 295.952 138.066 297.016 138.708 297.75C139.932 299.163 141.718 300.274 143.455 301.008C144.719 301.545 147.601 302.006 147.443 303.833C147.433 303.974 147.384 304.115 147.305 304.247L137.958 303.513V303.522Z" fill="#2D2C2C"/>
<path d="M135.747 303.343C135.628 303.174 135.579 302.967 135.53 302.769C135.441 302.336 135.362 301.903 135.312 301.46C135.273 301.131 135.243 300.792 135.125 300.481C134.967 300.067 134.779 299.888 134.404 300.17C134.286 299.972 134.246 299.709 134.256 299.473C134.276 298.899 135.095 298.909 135.5 298.927C136.072 298.956 136.615 299.05 137.05 299.455C138.155 300.49 138.412 302.166 139.29 303.343C139.369 303.456 139.468 303.55 139.576 303.654L135.757 303.353L135.747 303.343Z" fill="#494848"/>
<path d="M141.334 228.951C138.836 227.717 136.053 226.587 134.523 224.318C134.276 223.951 134.059 223.555 133.891 223.132C133.023 221.051 132.746 218.593 132.598 216.136C132.48 214.121 132.431 212.106 132.204 210.279C131.602 205.553 130.96 200.826 130.269 196.118C128.858 186.514 127.268 176.929 125.482 167.382C124.386 161.516 123.212 155.527 124.14 149.633C124.811 145.415 126.735 141.169 130.032 138.221C131.621 136.8 133.516 136.037 135.303 134.973C137.277 133.806 138.787 132.516 141.126 131.96C144.048 131.273 147.216 131.762 149.901 132.986C152.655 134.239 153.691 136.621 154.481 139.304C157.847 150.857 161.331 164.416 160.492 176.421C160.038 182.917 160.709 189.574 160.828 196.081C160.995 205.722 162.16 215.816 157.462 224.723C156.781 226.013 155.991 227.275 154.895 228.282C151.786 231.144 144.956 230.758 141.344 228.969L141.334 228.951Z" fill="#8FC9BE"/>
<path d="M161.094 211.296C161.064 211.908 160.995 212.511 160.916 213.113C159.663 223.339 158.409 233.555 157.166 243.78C155.971 253.563 155.162 263.261 153.109 272.912C152.517 275.708 152.388 281.348 149.684 283.175C149.437 283.335 149.171 283.476 148.884 283.589C145.933 284.748 141.047 283.326 138.254 283.1C136.102 282.93 133.23 283.184 131.177 282.544C129.489 282.017 129.973 282.676 129.499 280.831C129.025 278.976 129.529 276.405 129.558 274.494C129.795 257.433 130.703 240.381 132.273 223.386C132.292 223.16 132.312 222.934 132.332 222.698C132.618 219.733 132.983 216.738 134.138 213.98C136.635 207.982 143.229 203.057 150.158 203.265C153.76 203.378 159.762 205.195 160.857 209.008C161.074 209.752 161.114 210.515 161.084 211.287L161.094 211.296Z" fill="#8FC9BE"/>
<path d="M143.456 143.815C143.456 143.815 143.456 143.805 143.456 143.796C143.416 142.826 143.387 141.856 143.347 140.896C143.347 140.773 143.15 140.745 143.061 140.745C137.84 140.576 132.618 140.538 127.397 140.613C127.318 140.463 126.834 140.472 126.834 140.66C126.795 141.818 126.755 142.986 126.716 144.144C126.716 144.267 126.923 144.295 127.002 144.295L142.637 144.088C142.706 144.088 142.755 144.069 142.795 144.059C142.824 144.059 142.864 144.069 142.893 144.069H143.219C143.219 144.069 143.298 144.069 143.328 144.059C143.357 144.059 143.397 144.041 143.426 144.031C143.456 144.022 143.476 144.003 143.486 143.984C143.505 143.965 143.515 143.946 143.515 143.928C143.515 143.89 143.486 143.862 143.456 143.833V143.815ZM127.407 140.905C132.529 140.83 137.662 140.867 142.785 141.028C142.814 141.931 142.854 142.845 142.883 143.749C142.854 143.749 142.824 143.749 142.795 143.758C142.775 143.758 142.755 143.767 142.735 143.777C142.706 143.777 142.676 143.767 142.647 143.767L127.308 143.975C127.348 142.948 127.377 141.922 127.417 140.905H127.407Z" fill="#4073A2"/>
<path d="M106.363 142.628C106.344 142.044 106.324 141.461 106.294 140.886C106.294 140.764 106.097 140.736 106.008 140.736C104.32 140.679 102.642 140.642 100.954 140.613C100.737 140.613 100.53 140.613 100.313 140.613C100.313 140.717 100.313 140.82 100.313 140.915C100.5 140.915 100.688 140.915 100.875 140.915C102.494 140.943 104.113 140.98 105.732 141.028C105.761 141.95 105.801 142.864 105.83 143.786C105.83 143.796 105.83 143.805 105.84 143.815H105.791C105.791 143.815 105.682 143.768 105.593 143.768L100.402 143.833H100.283C100.283 143.937 100.283 144.041 100.283 144.144C100.313 144.144 100.342 144.144 100.372 144.144C101.023 144.144 101.675 144.125 102.316 144.116C102.978 144.116 103.639 144.097 104.3 144.088C104.893 144.088 105.485 144.135 106.067 144.106C106.146 144.106 106.225 144.097 106.284 144.05C106.334 144.022 106.363 143.965 106.393 143.89C106.502 143.551 106.363 142.854 106.353 142.619L106.363 142.628Z" fill="#4073A2"/>
<path d="M112.996 219.366C109.838 218.565 106.59 218.132 103.313 218.076C102.958 218.076 102.958 218.377 103.313 218.386C106.482 218.443 109.63 218.857 112.7 219.639C112.809 219.667 113.026 219.686 113.095 219.582C113.164 219.488 113.105 219.403 112.986 219.375L112.996 219.366Z" fill="#4073A2"/>
<path d="M127.318 186.468C125.926 180.969 124.544 175.47 123.152 169.981L120.793 160.659C120.734 160.443 120.162 160.471 120.211 160.659C121.603 166.158 122.985 171.647 124.376 177.146C125.768 182.645 127.15 188.144 128.542 193.633L130.901 202.964C130.96 203.18 131.532 203.152 131.483 202.964C130.091 197.465 128.709 191.966 127.318 186.477V186.468Z" fill="#4073A2"/>
<path d="M108.061 125.821C106.294 125.652 104.537 125.482 102.78 125.313C102.681 125.313 102.464 125.303 102.425 125.416C102.385 125.529 102.533 125.595 102.632 125.605C104.379 125.774 106.126 125.944 107.873 126.113C107.676 127.478 107.488 128.844 107.301 130.209C106.373 130.077 105.445 129.945 104.517 129.832C104.004 129.766 103.491 129.71 102.978 129.653C102.731 129.625 102.484 129.597 102.237 129.578C102.04 129.559 101.862 129.531 101.685 129.644C101.655 129.663 101.586 129.71 101.596 129.757C101.615 129.851 101.645 129.889 101.734 129.926C101.862 129.983 102.079 130.002 102.188 129.898C102.247 129.898 102.306 129.898 102.316 129.908C102.445 129.917 102.563 129.936 102.681 129.945C102.889 129.964 103.096 129.992 103.293 130.011C103.767 130.068 104.241 130.124 104.705 130.181C105.623 130.294 106.551 130.425 107.469 130.557C107.587 130.576 107.814 130.557 107.834 130.407C108.041 128.928 108.248 127.441 108.456 125.962C108.475 125.831 108.219 125.783 108.041 125.821H108.061Z" fill="#FAAC40"/>
<path d="M147.571 136.743C148.322 136.48 149.022 136.141 149.417 135.698C150.256 134.757 149.99 132.506 150.078 131.263C150.562 124.098 150.592 116.905 150.157 109.73C150.049 107.95 149.911 106.171 149.753 104.401C149.309 99.608 148.144 94.7213 148.065 89.9475C147.986 84.9667 148.371 79.9387 148.45 74.9579C148.539 70.363 148.618 65.7682 148.687 61.1734C148.736 57.9626 149.397 53.9892 148.588 50.8538C148.203 49.3662 146.9 48.2363 145.479 47.5395C144.058 46.8428 142.478 46.4756 140.968 45.9389C140.455 45.7506 139.922 45.5246 139.576 45.1197C139.172 44.6301 139.103 43.971 138.886 43.3778C138.066 41.184 135.441 40.5343 133.565 39.4515C131.325 38.1616 128.877 37.4554 126.291 37.0129C120.813 36.0807 115.088 36.5609 109.808 38.1898C109.314 38.3405 108.811 38.5099 108.406 38.8301C107.912 39.2161 107.616 39.7905 107.36 40.346C106.392 42.4363 105.682 44.6301 104.981 46.8145C103.895 50.1947 102.652 53.5467 101.487 56.8704C100.362 60.0435 100.914 63.7438 100.835 67.0299C100.569 77.9332 99.4042 88.9307 98.9403 99.881C98.6738 106.227 98.4073 112.573 98.1408 118.919C97.894 124.842 98.0125 130.858 97.3906 136.753H147.571V136.743Z" fill="#919191"/>
<path d="M122.56 77.7352C120.389 76.3229 117.615 75.8521 114.96 75.6073C109.917 75.1459 104.596 75.7391 100.105 78.0742C95.8118 80.3057 93.6799 85.1453 92.7224 89.5424C92.3178 91.3879 92.1006 93.2616 91.8835 95.1353C91.5577 97.8941 91.232 100.653 90.9063 103.412C90.6003 106.029 90.2943 108.637 90.1463 111.264C90.0278 113.515 90.018 115.774 90.1463 118.034C90.2746 120.426 90.5608 122.883 91.7354 125.002C93.0876 127.431 95.2591 128.749 98.0425 128.57C101.468 128.354 104.991 128.796 108.436 128.9C115.849 129.116 123.35 128.9 130.565 127.101C131.661 126.828 132.776 126.499 133.635 125.802C135.935 123.919 134.948 121.028 134.889 118.514C134.81 114.927 134.533 111.349 134.059 107.79C133.112 100.672 131.385 93.657 128.897 86.8872C127.782 83.8459 126.341 81.3696 124.071 78.9875C123.617 78.5073 123.103 78.093 122.56 77.7446V77.7352Z" fill="#F7A4A4"/>
<path d="M117.319 82.9423L115.276 82.8294C115.474 79.6939 115.987 71.3517 111.555 69.591C110.44 69.1484 109.246 69.2802 108.535 69.9299C107.37 70.9751 106.689 72.6416 106.452 75.0144C106.383 75.6546 106.354 76.3231 106.314 76.9728C106.235 78.4228 106.146 79.9293 105.751 81.3982L103.777 80.9086C104.133 79.628 104.202 78.291 104.281 76.8693C104.32 76.2007 104.36 75.5134 104.429 74.8261C104.725 71.9637 105.603 69.8923 107.143 68.5082C108.446 67.3312 110.499 67.0487 112.355 67.7832C118.129 70.0712 117.556 79.4115 117.339 82.9329L117.319 82.9423Z" fill="#F7A4A4"/>
<path d="M115.8 84.7687L113.964 83.9119L122.285 67.8018C125.907 60.7777 130.516 52.6897 137.208 45.9481C137.86 45.2984 138.511 44.8276 139.518 44.9029C140.288 44.9594 140.999 45.2984 141.65 45.6844C141.828 45.788 142.015 45.9481 141.976 46.1364C141.927 46.3529 141.63 46.4 141.403 46.4094C139.597 46.513 138.442 47.5111 137.317 48.7351C136.103 50.0533 134.948 51.428 133.853 52.8497C131.73 55.5991 129.825 58.4991 128.069 61.465C126.677 63.8189 125.384 66.2293 124.13 68.6586L115.81 84.7687H115.8Z" fill="#F7A4A4"/>
<path d="M101.527 82.7257C100.421 76.163 100.036 69.459 100.362 62.7928C100.51 59.7515 100.707 56.7103 101.122 53.6879C101.339 52.1154 101.615 50.5525 101.971 48.9989C102.356 47.3511 103.007 45.195 104.961 44.6865C105.593 44.517 105.475 45.1008 105.327 45.4115C105.08 45.9388 104.784 46.4284 104.606 47.0028C104.379 47.7466 104.182 48.4904 104.004 49.2437C103.639 50.769 103.372 52.3038 103.155 53.8479C102.741 56.8327 102.514 59.8551 102.395 62.8681C102.069 69.4025 102.454 75.9747 103.54 82.4055L101.527 82.7163V82.7257Z" fill="#F7A4A4"/>
<path d="M132.332 122.714L130.654 121.603C137.919 111.66 143.377 100.7 146.881 89.0435L148.845 89.5801C145.292 101.444 139.735 112.592 132.332 122.723V122.714Z" fill="#F7A4A4"/>
<path d="M123.774 113.619C123.419 109.174 123.162 104.702 122.61 100.277C122.086 96.1714 121.257 91.9438 119.392 88.187C118.573 86.5393 117.467 84.9668 115.917 83.8652C114.279 82.7071 112.285 82.1704 110.291 81.8597C105.346 81.1064 100.224 81.5019 95.4563 82.9519C95.0911 83.0649 95.5254 83.2814 95.7524 83.2155C100.007 81.9256 104.537 81.5019 108.969 82.0009C111.022 82.2363 113.134 82.6318 114.911 83.6863C116.569 84.6749 117.753 86.2191 118.622 87.8574C120.547 91.4825 121.405 95.6253 121.948 99.627C122.521 103.845 122.767 108.12 123.103 112.357C123.508 117.394 123.903 122.441 124.297 127.478C124.317 127.695 124.899 127.686 124.88 127.478C124.515 122.855 124.149 118.232 123.784 113.6L123.774 113.619Z" fill="#DB7171"/>
<path d="M130.328 104.485C129.933 103.224 129.242 102.084 129.094 100.776C128.896 99.0996 128.689 97.4236 128.403 95.7571C127.84 92.471 126.982 89.2132 125.452 86.2096C124.85 85.0327 124.159 83.9028 123.349 82.8482C122.589 81.8596 121.74 80.9086 120.674 80.2119C119.52 79.4492 118.148 79.082 116.815 78.7242C115.364 78.3287 113.903 77.9333 112.413 77.679C109.027 77.0859 105.563 77.3118 102.168 77.7544C101.783 77.8014 102.039 78.0839 102.325 78.0463C105.287 77.6602 108.307 77.4342 111.278 77.8203C112.778 78.018 114.249 78.3758 115.7 78.7618C117.042 79.1196 118.444 79.4304 119.668 80.0706C120.813 80.6732 121.721 81.5959 122.51 82.5752C123.33 83.5826 124.03 84.6654 124.632 85.7953C125.876 88.0927 126.705 90.5785 127.288 93.1018C127.988 96.1337 128.334 99.222 128.679 102.301C128.659 102.32 128.64 102.348 128.63 102.376C128.423 103.205 128.304 104.052 128.275 104.9C128.255 105.474 128.156 106.303 128.61 106.764C128.837 106.999 129.676 107.15 129.962 107.028C130.278 106.905 130.476 106.604 130.555 106.284C130.634 105.973 130.594 105.643 130.535 105.323C130.485 105.031 130.416 104.749 130.328 104.467V104.485Z" fill="#DB7171"/>
<path d="M117.25 123.053C117.24 122.808 117.22 122.563 117.21 122.319C117.181 121.829 117.151 121.339 117.122 120.85C117.062 119.871 117.003 118.882 116.934 117.903C116.806 115.935 116.658 113.976 116.5 112.018C116.381 110.587 116.263 109.156 116.134 107.724C116.095 107.291 116.134 106.679 115.769 106.35C115.394 106.03 114.792 106.095 114.338 106.095C112.976 106.095 111.624 106.095 110.262 106.105C107.567 106.124 104.872 106.18 102.178 106.265C99.9965 106.331 97.8053 106.416 95.6239 106.529C95.0909 106.557 94.5481 106.585 94.0151 106.613C93.7091 106.632 93.2057 106.5 92.9392 106.594C92.3272 106.802 92.4852 107.677 92.4753 108.148C92.4457 109.005 92.4259 109.862 92.4161 110.719C92.3865 112.395 92.3667 114.07 92.3766 115.746C92.3766 117.178 92.4062 118.599 92.4358 120.031C92.4556 120.765 92.4753 121.499 92.5049 122.234C92.5247 122.771 92.5937 123.288 93.028 123.665C93.4623 124.051 94.0743 124.268 94.627 124.447C95.2094 124.635 95.8213 124.757 96.4333 124.833C97.7164 124.983 99.0193 124.927 100.302 124.814C101.665 124.701 103.017 124.531 104.379 124.484C105.721 124.437 107.074 124.484 108.416 124.531C110.291 124.588 112.186 124.616 114.052 124.343C114.664 124.249 115.266 124.126 115.858 123.957C116.154 123.872 116.45 123.778 116.746 123.674C116.865 123.627 117.102 123.59 117.2 123.505C117.24 123.467 117.26 123.411 117.27 123.345C117.279 123.251 117.27 123.138 117.26 123.053H117.25ZM93.0576 106.962C93.0576 106.962 93.0774 106.962 93.0971 106.962C98.2593 106.679 103.421 106.5 108.594 106.434C109.877 106.416 111.17 106.406 112.453 106.406C113.104 106.406 113.766 106.406 114.417 106.406C114.575 106.406 114.763 106.387 114.95 106.406C114.832 106.416 114.723 106.463 114.703 106.557C114.249 109.306 113.973 112.084 113.864 114.871C108.396 115.144 102.928 115.21 97.4499 115.078C95.9595 115.04 94.4592 114.984 92.9688 114.918C92.9688 112.291 93.0083 109.664 93.107 107.046C93.107 107.018 93.0873 106.99 93.0675 106.971L93.0576 106.962ZM109.127 124.249C107.843 124.221 106.56 124.155 105.277 124.164C104.033 124.164 102.79 124.268 101.556 124.39C99.0785 124.635 96.3149 124.964 94.0151 123.816C93.3834 123.496 93.1366 123.062 93.0971 122.394C93.0576 121.716 93.0478 121.038 93.0379 120.36C92.9984 119.004 92.9787 117.648 92.9688 116.293C92.9688 115.935 92.9688 115.577 92.9688 115.229C98.3778 115.473 103.797 115.52 109.215 115.36C110.765 115.313 112.315 115.257 113.854 115.182C113.775 117.432 113.805 119.682 113.943 121.923C113.963 122.281 113.993 122.648 114.022 123.006C114.042 123.26 114.012 123.599 114.16 123.825C114.2 123.882 114.259 123.938 114.338 123.985C112.631 124.296 110.864 124.296 109.127 124.249ZM116.658 123.326C116.115 123.543 115.562 123.703 114.999 123.835C114.999 123.74 114.841 123.684 114.693 123.684C114.674 123.656 114.654 123.618 114.644 123.599C114.605 123.477 114.624 123.317 114.605 123.194C114.575 122.902 114.555 122.61 114.535 122.319C114.496 121.754 114.466 121.189 114.437 120.624C114.387 119.494 114.358 118.364 114.368 117.234C114.378 114.946 114.506 112.668 114.743 110.389C114.881 109.108 115.059 107.828 115.266 106.547C115.266 106.538 115.266 106.519 115.266 106.51C115.305 106.538 115.335 106.566 115.365 106.613C115.503 106.83 115.503 107.122 115.523 107.367C115.75 109.824 115.957 112.291 116.134 114.758C116.332 117.479 116.51 120.2 116.658 122.921C116.658 122.931 116.648 122.949 116.648 122.959C116.667 123.081 116.677 123.204 116.658 123.326Z" fill="#DB7171"/>
<path d="M104.508 112.743C104.35 112.517 104.014 112.432 103.767 112.348C103.195 112.15 102.563 112.037 101.971 112.225C101.546 112.357 100.954 112.79 101.171 113.289C101.29 113.553 101.635 113.656 101.902 113.722C102.06 113.76 102.218 113.779 102.376 113.788C102.464 113.807 102.553 113.826 102.632 113.826C102.948 113.864 103.274 113.845 103.59 113.76C103.856 113.694 104.152 113.581 104.36 113.393C104.537 113.223 104.656 112.95 104.508 112.734V112.743Z" fill="white"/>
<path d="M183.73 157.135L150.302 164.163L153.27 177.008L186.698 169.98L183.73 157.135Z" fill="#FAAC40"/>
<path d="M177.74 161.765L158.019 165.912L160.668 177.378L180.389 173.231L177.74 161.765Z" fill="#4073A2"/>
<path d="M162.377 164.388C162.377 164.388 162.318 164.369 162.318 164.388C162.249 165.273 162.427 166.148 162.693 166.996C162.822 167.419 162.98 167.824 163.138 168.239C163.236 168.521 163.315 168.917 163.098 169.161C162.891 169.397 162.545 169.303 162.308 169.161C161.094 168.455 160.877 166.553 160.423 165.357C159.693 163.446 159.367 161.431 159.249 159.407C159.16 157.91 158.864 155.631 160.018 154.407C160.611 153.776 161.499 153.475 162.368 153.287C163.957 152.948 165.832 152.75 167.017 154.012C168.606 155.706 170.086 157.59 170.678 159.793C170.382 159.878 170.145 160.019 169.849 160.085C169.524 160.151 169.188 160.226 168.862 160.292C168.467 160.377 168.389 160.329 168.379 160.697C168.369 161.149 168.635 161.657 168.764 162.081C168.971 162.749 169.218 163.399 169.425 164.067C169.612 164.68 169.8 165.292 170.066 165.875C170.372 166.544 170.767 167.175 170.975 167.871C171.054 168.126 171.142 168.587 170.915 168.804C170.442 169.284 169.415 168.399 169.149 168.05C168.783 167.57 168.576 166.996 168.379 166.431C168.043 165.489 167.648 164.557 167.382 163.616C167.273 163.229 167.145 163.776 167.174 163.926C167.204 164.133 167.293 164.322 167.332 164.529C167.431 164.962 167.52 165.405 167.619 165.838C167.826 166.704 168.083 167.561 168.527 168.342C168.783 168.794 169.099 169.227 169.277 169.717C169.415 170.075 169.376 170.564 168.892 170.621C168.398 170.677 167.865 170.414 167.52 170.112C167.194 169.839 166.868 169.444 166.711 169.048C166.553 168.653 166.355 168.276 166.197 167.881C165.822 166.958 165.625 165.988 165.348 165.037C165.289 164.83 165.191 164.209 164.855 164.454C164.588 164.642 164.667 165.15 164.717 165.414C164.865 166.29 165.112 167.146 165.447 167.975C165.615 168.389 165.812 168.794 166.03 169.18C166.197 169.481 166.543 169.839 166.622 170.169C166.73 170.583 166.237 170.715 165.911 170.696C165.457 170.668 165.033 170.451 164.717 170.15C164.263 169.726 163.996 169.161 163.769 168.596C163.443 167.824 163.147 167.033 162.91 166.233C162.822 165.932 162.802 165.602 162.743 165.292C162.703 165.103 162.664 164.905 162.614 164.717C162.595 164.642 162.575 164.529 162.526 164.463C162.526 164.454 162.447 164.397 162.397 164.369L162.377 164.388Z" fill="#FFC0A4"/>
<path d="M152.497 109.89C149.269 110.587 146.131 111.736 142.824 112.065C139.656 112.376 137.642 112.432 137.04 108.93C136.221 104.137 135.411 99.3446 134.592 94.552C132.944 84.901 131.295 75.1652 131.779 65.3918C132.046 59.9213 134.217 54.7521 137.376 50.2326C138.363 48.8203 139.202 46.5229 141.195 46.3628C143.663 46.1651 147.542 48.2271 149.161 49.9313C151.204 52.0781 151.855 55.157 152.27 57.9158C153.701 67.3785 155.132 76.8506 156.554 86.3133C157.264 90.9835 157.965 95.6631 158.676 100.333C159.021 102.593 159.732 105.069 159.732 107.348C159.732 109.24 158.518 109.287 156.573 109.344C155.191 109.382 153.829 109.598 152.477 109.89H152.497Z" fill="#919191"/>
<path d="M158.814 105.107C159.613 106.077 159.781 107.48 160.146 108.628C161.706 113.571 162.318 118.741 162.93 123.872C163.739 130.67 164.539 137.478 165.348 144.276C165.743 147.637 166.148 150.999 166.542 154.36C166.681 155.518 165.881 156.46 164.825 156.93C164.252 157.185 163.7 157.204 163.098 157.269C162.308 157.354 161.173 157.684 160.472 157.156C160.294 157.025 160.186 156.827 160.077 156.639C159.416 155.424 159.011 154.087 158.488 152.816C157.926 151.432 157.373 150.038 156.84 148.645C155.961 146.357 155.28 143.993 154.392 141.715C152.625 137.12 150.849 132.525 149.378 127.846C148.016 123.514 146.476 118.929 145.943 114.419C145.617 111.717 145.617 107.216 147.957 105.22C149.072 104.278 150.543 103.826 152.003 103.553C153.119 103.346 154.264 103.233 155.389 103.374C156.692 103.544 157.985 104.099 158.814 105.107Z" fill="#FFC0A4"/>
<path d="M146.17 141.687C147.681 144.229 150.207 146.809 153.544 146.338C153.82 146.3 155.557 151.846 155.764 152.402C156.11 153.324 156.929 152.684 157.571 152.468C158.548 152.138 159.634 152.006 160.64 151.733C162.723 151.168 164.776 150.49 166.77 149.699C167.066 149.577 167.372 149.455 167.579 149.219C168.556 148.127 166.612 144.794 166.454 143.523C166.306 142.346 167.441 141.696 168.241 140.943C169.603 139.662 169.553 137.271 169.119 135.661C168.448 133.175 167.767 130.689 167.056 128.213C165.645 123.26 164.144 118.327 162.535 113.421C161.568 110.464 160.561 107.527 159.525 104.589C158.883 102.772 158.193 98.2618 156.278 97.3862C155.33 96.953 154.215 97.1131 153.188 97.2826C150.267 97.7534 147.463 98.2053 144.729 99.3446C142.064 100.456 137.031 103.233 136.685 106.322C136.557 107.499 136.912 108.676 137.238 109.824C140.209 120.332 140.623 131.65 145.934 141.282C146.013 141.423 146.092 141.574 146.18 141.715L146.17 141.687Z" fill="#919191"/>
<path d="M138.047 111.829C136.498 103.647 134.83 95.4745 133.635 87.2264C132.964 82.5751 132.451 77.8861 132.253 73.1877C132.253 72.9712 131.661 72.9806 131.671 73.1877C132.026 81.5865 133.369 89.9099 134.889 98.1862C135.649 102.282 136.429 106.378 137.208 110.474C137.988 114.579 138.748 118.684 139.597 122.78C140.544 127.309 141.62 131.828 142.982 136.263C143.042 136.451 143.614 136.414 143.545 136.178C141.087 128.203 139.597 119.993 138.047 111.829Z" fill="#F4F4F4"/>
<path d="M98.2795 77.9237C96.3251 73.3195 96.2857 68.2727 96.3054 63.386C96.3054 63.1788 95.7231 63.1694 95.7231 63.386C95.7033 68.3103 95.7625 73.3759 97.7267 78.0084C97.8057 78.1967 98.3782 78.1403 98.2893 77.9237H98.2795Z" fill="#F4F4F4"/>
<path d="M136.705 44.7713C129.687 42.2574 122.126 41.184 114.645 41.6077C112.532 41.7301 110.42 41.9655 108.337 42.3327C107.952 42.3986 108.209 42.6811 108.495 42.6246C115.77 41.3723 123.311 41.5888 130.486 43.2742C132.5 43.745 134.484 44.3382 136.419 45.0256C136.636 45.1009 137.07 44.8843 136.715 44.7619L136.705 44.7713Z" fill="#F4F4F4"/>
<path d="M164.579 142.552C163.463 143.833 161.775 144.417 160.117 144.737C158.262 145.095 156.366 145.245 154.6 145.952C154.471 145.999 154.511 146.112 154.6 146.168C154.708 146.243 154.896 146.215 155.014 146.168C158.262 144.85 162.605 145.547 165.082 142.703C165.26 142.496 164.707 142.402 164.579 142.552Z" fill="#F4F4F4"/>
<path d="M164.569 132.911C164.204 135.726 163.463 138.485 162.377 141.131C162.289 141.348 162.861 141.395 162.94 141.216C164.046 138.551 164.786 135.764 165.151 132.921C165.181 132.723 164.598 132.704 164.569 132.921V132.911Z" fill="#F4F4F4"/>
<path d="M151.589 138.975C149.743 135.905 148.332 132.6 147.404 129.173C147.354 128.985 146.782 129.022 146.841 129.258C147.769 132.685 149.18 135.99 151.026 139.059C151.135 139.238 151.707 139.172 151.589 138.975Z" fill="#F4F4F4"/>
<path d="M123.004 40.1483C121.593 40.685 120.102 41.1181 118.938 42.0314C118.02 42.7564 117.358 43.7451 116.411 44.4324C114.693 45.6753 112.364 45.7318 110.222 45.5435C109.452 45.4776 108.663 45.374 107.952 45.0633C106.659 44.4889 105.79 43.2366 105.425 41.9184C105.021 40.4119 105.287 39.1032 105.544 37.6437C105.81 36.0996 105.356 34.4707 105.238 32.9265C105.109 31.26 105.445 29.9323 106.205 28.4447C106.876 27.1265 107.962 26.0625 108.643 24.7443C109.778 22.5505 109.502 19.98 109.324 17.5414C108.998 13.0313 110.666 9.94296 113.312 6.33677C114.634 4.53839 116.45 3.06955 118.484 2.015C122.363 0.00946846 126.577 -0.244754 130.881 0.160119C134.918 0.536744 142.725 3.95462 140.751 6.77931C139.586 8.44588 139.596 10.2537 138.353 11.8732C137.218 13.3608 135.303 14.0199 134.464 15.6488C133.516 17.4849 133.408 19.6411 133.378 21.656C133.329 24.3489 133.299 27.2395 131.641 29.4239C130.496 30.9304 128.976 31.7213 128.186 33.5103C127.012 36.1561 126.715 38.5665 123.695 39.8753C123.468 39.9694 123.231 40.0636 123.004 40.1577V40.1483Z" fill="#664736"/>
<path d="M134.641 7.44803C132.065 10.0656 130.505 13.3893 130.041 16.939C129.577 20.5546 129.952 24.3773 128.215 27.7387C127.416 29.2923 126.192 30.6576 124.504 31.3543C124.376 31.4108 124.415 31.5144 124.504 31.5709C124.613 31.6462 124.8 31.618 124.919 31.5709C127.909 30.328 129.41 27.2303 129.943 24.3208C130.308 22.3247 130.327 20.2815 130.495 18.2666C130.653 16.3458 130.999 14.4627 131.759 12.6737C132.548 10.8 133.703 9.07693 135.154 7.59868C135.351 7.40095 134.789 7.30679 134.651 7.44803H134.641Z" fill="#422E20"/>
<path d="M125.393 23.6335C125.452 26.1852 123.29 27.9835 121.257 29.2829C120.98 29.4618 121.494 29.6124 121.671 29.4995C123.784 28.1436 126.034 26.2887 125.975 23.6335C125.975 23.417 125.383 23.4264 125.393 23.6335Z" fill="#422E20"/>
<path d="M119.006 4.55724C118.898 4.48191 118.71 4.51016 118.592 4.55724C114.703 6.32738 112.018 10.1595 111.801 14.2648C111.791 14.4719 112.373 14.4813 112.383 14.2648C112.591 10.2537 115.206 6.50628 118.996 4.7738C119.115 4.7173 119.085 4.62315 118.996 4.55724H119.006Z" fill="#422E20"/>
<path d="M111.021 43.6037C110.005 43.905 108.909 43.632 108.09 43.0199C107.182 42.342 106.728 41.344 106.777 40.2423C106.836 38.9995 107.389 37.8508 107.685 36.655C108.021 35.318 107.823 34.028 107.715 32.6816C107.616 31.4199 107.735 29.9887 108.771 29.0754C108.978 28.8965 108.416 28.7929 108.268 28.9247C107.35 29.7345 107.083 30.9585 107.103 32.1166C107.113 32.917 107.251 33.7079 107.3 34.5082C107.34 35.2615 107.281 35.9865 107.083 36.7209C106.738 38.0108 106.116 39.2914 106.185 40.6566C106.244 41.7488 106.836 42.6998 107.774 43.3212C108.791 43.9992 110.113 44.2346 111.308 43.8768C111.673 43.7638 111.239 43.5472 111.012 43.6131L111.021 43.6037Z" fill="#422E20"/>
<path d="M114.92 39.9976C113.982 40.5154 112.818 40.8544 111.762 40.4684C110.873 40.1482 110.173 39.3385 110.153 38.4157C110.153 38.1992 109.561 38.2086 109.57 38.4157C109.6 39.5174 110.488 40.4024 111.545 40.7508C112.808 41.1651 114.219 40.8261 115.345 40.2047C115.631 40.0447 115.108 39.894 114.93 39.9882L114.92 39.9976Z" fill="#422E20"/>
</g>
<defs>
<clipPath id="clip0_121_462">
<rect width="204" height="315" fill="white"/>
</clipPath>
</defs>
</svg>
