<svg width="50" height="68" viewBox="0 0 50 68" fill="none" xmlns="http://www.w3.org/2000/svg">
<path opacity="0.4" d="M25 68.0003C38.8071 68.0003 50 66.525 50 64.7052C50 62.8854 38.8071 61.4102 25 61.4102C11.1929 61.4102 0 62.8854 0 64.7052C0 66.525 11.1929 68.0003 25 68.0003Z" fill="#8A8A8A" fill-opacity="0.8"/>
<path d="M40.7986 60.8486H40.0945C39.6968 60.8486 39.4483 61.2796 39.6471 61.6248L39.9978 62.2353L40.3485 62.8458C40.5473 63.1911 41.0471 63.1911 41.2459 62.8458L41.5966 62.2353L41.9473 61.6248C42.1461 61.2796 41.8976 60.8486 41.5 60.8486H40.7958H40.7986Z" fill="#2D2C2C"/>
<path d="M39.1992 63.6145C39.1992 64.2968 39.7515 64.852 40.4363 64.852C41.1183 64.852 41.6734 64.2995 41.6734 63.6145C41.6734 62.9322 41.1211 62.377 40.4363 62.377C39.7542 62.377 39.1992 62.9322 39.1992 63.6145Z" fill="#2D2C2C"/>
<path d="M39.9258 63.6145C39.9258 64.2968 40.478 64.852 41.1628 64.852C41.8449 64.852 42.3999 64.2995 42.3999 63.6145C42.3999 62.9294 41.8449 62.377 41.1628 62.377C40.4808 62.377 39.9258 62.9322 39.9258 63.6145Z" fill="#494848"/>
<path d="M27.6533 60.8486H26.9491C26.5515 60.8486 26.3002 61.2796 26.5018 61.6248L26.8525 62.2353L27.2032 62.8458C27.402 63.1911 27.9018 63.1911 28.1006 62.8458L28.4513 62.2353L28.802 61.6248C29.0008 61.2796 28.7523 60.8486 28.3546 60.8486H27.6505H27.6533Z" fill="#2D2C2C"/>
<path d="M26.0547 63.6145C26.0547 64.2968 26.6069 64.852 27.2918 64.852C27.9738 64.852 28.5288 64.2995 28.5288 63.6145C28.5288 62.9322 27.9766 62.377 27.2918 62.377C26.6097 62.377 26.0547 62.9322 26.0547 63.6145Z" fill="#2D2C2C"/>
<path d="M26.7803 63.6145C26.7803 64.2968 27.3325 64.852 28.0173 64.852C28.6994 64.852 29.2544 64.2995 29.2544 63.6145C29.2544 62.9322 28.6994 62.377 28.0173 62.377C27.3353 62.377 26.7803 62.9322 26.7803 63.6145Z" fill="#494848"/>
<path d="M21.2859 60.8486H20.5818C20.1841 60.8486 19.9356 61.2796 20.1344 61.6248L20.4851 62.2353L20.8358 62.8458C21.0346 63.1911 21.5344 63.1911 21.7332 62.8458L22.0839 62.2353L22.4346 61.6248C22.6334 61.2796 22.3849 60.8486 21.9873 60.8486H21.2831H21.2859Z" fill="#2D2C2C"/>
<path d="M19.6875 63.6145C19.6875 64.2968 20.2398 64.852 20.9246 64.852C21.6066 64.852 22.1616 64.2995 22.1616 63.6145C22.1616 62.9322 21.6094 62.377 20.9246 62.377C20.2425 62.377 19.6875 62.9322 19.6875 63.6145Z" fill="#2D2C2C"/>
<path d="M20.4141 63.6145C20.4141 64.2968 20.9663 64.852 21.6511 64.852C22.3359 64.852 22.8882 64.2995 22.8882 63.6145C22.8882 62.9322 22.3332 62.377 21.6511 62.377C20.9691 62.377 20.4141 62.9322 20.4141 63.6145Z" fill="#494848"/>
<path d="M22.5614 1.99992C22.5173 1.48889 22.6912 0.977863 23.0392 0.596662C23.3871 0.218223 23.8814 0 24.395 0H33.6039C34.5676 0 35.3573 0.723729 35.4374 1.68502L37.4035 24.7449H24.4999L22.5614 1.99716V1.99992ZM34.6256 1.75684C34.5787 1.22095 34.1424 0.817649 33.6039 0.817649H24.395C24.105 0.817649 23.8372 0.936428 23.6411 1.14913C23.4451 1.36183 23.3512 1.64082 23.376 1.9281L25.251 23.93H36.5171L34.6284 1.75408L34.6256 1.75684Z" fill="#2D2C2C"/>
<path d="M34.714 2.78442L34.6256 1.7596C34.5787 1.22371 34.1424 0.820412 33.6039 0.820412H24.395C24.105 0.820412 23.8372 0.939191 23.6411 1.15189C23.4451 1.36459 23.3512 1.64358 23.376 1.93087L23.4478 2.78166H22.6277L22.5614 1.99992C22.5173 1.48889 22.6912 0.977863 23.0392 0.596662C23.3871 0.218223 23.8814 0 24.395 0H33.6039C34.5676 0 35.3573 0.723729 35.4374 1.68502L35.5313 2.7789H34.7112L34.714 2.78442Z" fill="#9E7969"/>
<path d="M27.2451 22.7622V22.4114C27.2451 21.8092 27.7339 21.3203 28.3358 21.3203H35.217C35.819 21.3203 36.3077 21.8092 36.3077 22.4114V22.7622C36.3077 23.3644 35.819 23.8534 35.217 23.8534H28.3358C27.7339 23.8534 27.2451 23.3644 27.2451 22.7622ZM28.3358 22.1352C28.184 22.1352 28.0625 22.2567 28.0625 22.4087V22.7595C28.0625 22.9114 28.184 23.033 28.3358 23.033H35.217C35.3689 23.033 35.4904 22.9114 35.4904 22.7595V22.4087C35.4904 22.2567 35.3689 22.1352 35.217 22.1352H28.3358Z" fill="#7C5F96"/>
<path d="M20.5781 22.5742H41.9727C42.9612 22.5742 43.7675 23.3781 43.7675 24.3697V59.6557C43.7675 60.6474 42.964 61.4512 41.9727 61.4512H20.5781C19.5867 61.4512 18.7832 60.6474 18.7832 59.6557V24.3697C18.7832 23.3781 19.5867 22.5742 20.5781 22.5742Z" fill="#DABBF9"/>
<path d="M43.8183 51.4268V59.7883C43.8183 60.78 43.0148 61.5838 42.0234 61.5838H20.6288C19.6375 61.5838 18.834 60.78 18.834 59.7883V51.4268H43.8155H43.8183Z" fill="#DABBF9"/>
<path d="M18.8369 24.5025V59.7885C18.8369 60.7802 19.0495 61.584 19.3119 61.584H24.9753C25.2376 61.584 25.4502 60.7802 25.4502 59.7885V24.5025C25.4502 23.5109 25.2376 22.707 24.9753 22.707H19.3119C19.0495 22.707 18.8369 23.5109 18.8369 24.5025Z" fill="#DABBF9"/>
<path d="M21.9385 22.707V52.1396C21.9385 52.3164 22.3471 52.3164 22.3471 52.1396V22.707H21.9385Z" fill="#2D2C2C"/>
<path d="M19.5718 47.1279H20.8779V37.1642H19.5718V47.1279Z" fill="#2D2C2C"/>
<path d="M43.8195 32.1816H23.082V32.9164H43.8195V32.1816Z" fill="#7C5F96"/>
<path d="M43.8195 37.1611H23.082V37.8959H43.8195V37.1611Z" fill="#7C5F96"/>
<path d="M43.8195 42.1445H23.082V42.8793H43.8195V42.1445Z" fill="#7C5F96"/>
<path d="M43.8195 47.126H23.082V47.8608H43.8195V47.126Z" fill="#7C5F96"/>
<path d="M27.2699 7.49452L28.0735 7.35088C27.9851 6.85919 28.1701 6.32606 28.5429 5.99458C28.9157 5.6631 29.4679 5.54156 29.9456 5.68796C30.4233 5.83436 30.8154 6.24042 30.9397 6.72383L31.7294 6.51942C31.5334 5.7653 30.9259 5.13273 30.1831 4.90622C29.4403 4.67971 28.5815 4.86755 28.0017 5.3841C27.419 5.90066 27.1346 6.72936 27.2727 7.49728L27.2699 7.49452Z" fill="#FAAC40"/>
<path d="M37.2444 22.7345C35.9687 22.7345 34.6902 22.7345 33.4145 22.7345H27.7069C26.9171 22.7345 26.1246 22.7345 25.3349 22.7345C25.1665 22.7345 25.0174 22.7676 24.8517 22.7511C24.6004 22.7262 24.3436 22.6461 24.0951 22.5964C23.9349 22.5632 23.7527 22.5135 23.6836 22.3643C23.402 21.7539 23.598 20.8064 23.6201 20.1324C23.6477 19.3064 23.6836 18.4805 23.7416 17.6573C23.8548 16.011 24.0509 14.3674 24.4043 12.7542C24.9677 10.1908 26.028 7.24888 28.8252 6.42295C32.3238 5.38984 34.8614 8.33171 35.9991 11.2929C36.7281 13.1906 36.9959 15.232 37.1864 17.254C37.3245 18.7098 37.4239 20.1683 37.5261 21.6268C37.5399 21.8367 37.5537 22.0494 37.4957 22.2511C37.4405 22.4417 37.3549 22.5991 37.2417 22.729L37.2444 22.7345Z" fill="#FAAC40"/>
<path d="M29.8333 19.4857C29.7947 19.5907 29.7339 19.6818 29.6345 19.7315C29.5075 19.7978 29.339 19.7757 29.2341 19.6763C28.8834 19.3393 29.1982 17.1432 29.582 17.3836C30.0073 17.646 29.9217 18.762 29.8941 19.168C29.8858 19.273 29.8692 19.3863 29.8333 19.4885V19.4857Z" fill="#2D2C2C"/>
<path d="M25.263 17.8529C25.2243 17.9579 25.1636 18.049 25.0642 18.0987C24.9372 18.165 24.7687 18.1429 24.6638 18.0435C24.3131 17.7065 24.6279 15.5104 25.0117 15.7508C25.437 16.0132 25.3514 17.1292 25.3238 17.5352C25.3155 17.6402 25.2989 17.7534 25.263 17.8556V17.8529Z" fill="#2D2C2C"/>
<path d="M26.4029 18.168C26.4278 16.7785 26.4581 15.3891 26.5189 14.0024C26.5769 12.6737 26.6929 11.3367 27.0546 10.0523C27.3556 8.97771 27.8692 7.90869 28.8936 7.36175C29.8601 6.8452 31.0143 6.83691 32.0802 6.9253C32.2182 6.93635 32.3563 6.95016 32.4944 6.96398C32.6021 6.97502 32.5303 7.05789 32.4502 7.04961C31.3898 6.93911 30.2301 6.87834 29.2305 7.31755C28.7224 7.5413 28.2944 7.89488 27.9741 8.3479C27.651 8.80368 27.4356 9.32853 27.2727 9.85889C26.8917 11.1075 26.7591 12.4168 26.6929 13.7151C26.6238 15.0714 26.599 16.4277 26.5714 17.784C26.5437 19.1541 26.5299 20.5242 26.5272 21.8971C26.5272 22.0656 26.5272 22.2369 26.5272 22.4054C26.5272 22.4662 26.3643 22.4689 26.3643 22.4054C26.3643 20.9938 26.3781 19.5823 26.4029 18.1707V18.168Z" fill="#FC5B35"/>
<path d="M36.3916 17.6465H28.6351V16.2184C28.6351 16.0609 28.7649 15.9311 28.9223 15.9311H36.1017C36.2591 15.9311 36.3888 16.0609 36.3888 16.2184V17.6465H36.3916Z" fill="#FC5B35"/>
<path d="M25.3851 11.3977C25.6391 10.1463 26.092 8.92537 26.9038 7.92541C27.3235 7.40885 27.8344 6.96964 28.4197 6.65474C28.4695 6.62711 28.6186 6.67407 28.5357 6.71827C27.4809 7.28179 26.7105 8.25136 26.2079 9.32038C25.6198 10.5772 25.4072 11.9667 25.2746 13.3368C25.1945 14.1683 25.1366 14.9997 25.0703 15.8312C25.0648 15.8947 24.9018 15.892 24.9074 15.8312C25.0261 14.3533 25.0896 12.8534 25.3851 11.3949V11.3977Z" fill="#2D2C2C"/>
</svg>
