<svg width="688" height="596" viewBox="0 0 688 596" fill="none" xmlns="http://www.w3.org/2000/svg">
<path d="M676.611 138.147C691.402 169.083 691.756 196.66 677.849 220.879C667.536 238.733 653.865 249.988 636.894 254.584C619.923 259.121 602.421 256.293 584.566 245.981C580.382 243.565 576.375 240.737 572.603 237.496C568.832 234.255 566.18 232.192 564.589 231.308L555.22 223.825L623.458 105.384C620.983 101.141 618.096 97.7238 614.678 95.0721C607.253 87.2939 598.532 80.5175 588.514 74.7428C525.343 38.3266 464.235 71.4429 405.071 174.033L191.221 545.029L231.764 584.156L224.928 596L-7.86693e-05 466.363L6.83556 454.519L61.0493 469.958L274.899 99.0201C306.426 44.2781 347.734 12.1636 398.766 2.67658C449.797 -6.81046 510.847 8.92271 581.914 49.8761C630.294 77.8069 661.879 107.211 676.611 138.147Z" fill="#E9E4E0"/>
</svg>
